<?xml version="1.0" encoding="UTF-8"?>
<svg id="Calque_2" data-name="Calque 2" xmlns="http://www.w3.org/2000/svg" xmlns:xlink="http://www.w3.org/1999/xlink" viewBox="0 0 1930 1355.66">
  <defs>
    <pattern id="Nouvelle_nuance_de_motif_11" 
         width="188.25" height="188.25" 
         patternUnits="userSpaceOnUse" 
         patternTransform="translate(-864.21 -758.98)">
  <rect width="213.18" height="213.18" x="-12.46" y="-12.46" fill="#30566b"/>
</pattern>

     <pattern id="_5bleufoncé" x="0" y="0" width="72.2" height="71.54"
         patternUnits="userSpaceOnUse" patternTransform="translate(3143.67 -1901.02)">
  <!-- background -->
  <rect width="72.2" height="71.54" fill="none"/>
  
  <!-- dots -->
  <g fill="#082738">
    <!-- single-radius dots -->
    <circle cx="67.77" cy="73.7" r="1"/>
    <circle cx="11.41" cy="35.78" r="1"/>
    <circle cx="50.35" cy="16.31" r="1"/>
    <circle cx="46.25" cy="24.51" r="1"/>
    <circle cx="4.23"  cy="62.43" r="1"/>
    <circle cx="53.42" cy="45.01" r="1"/>
    <circle cx="21.65" cy="17.34" r="1"/>
    <circle cx="29.85" cy="4.01"  r="1"/>
    <circle cx="70.84" cy="51.15" r="1"/>
    <circle cx="28.83" cy="60.38" r="1"/>
    <circle cx="-1.36" cy="51.15" r="1"/>
    <circle cx="67.77" cy="2.16"  r="1"/>

    <!-- larger-radius dots -->
    <circle cx="73.92" cy="12.42" r="2"/>
    <circle cx="41.12" cy="73.91" r="2"/>
    <circle cx="59.57" cy="32.92" r="2"/>
    <circle cx="17.55" cy="45.21" r="2"/>
    <circle cx="42.15" cy="8.32"  r="2"/>
    <circle cx="1.72"  cy="12.42" r="2"/>
    <circle cx="41.12" cy="2.36"  r="2"/>
  </g>
</pattern>
    
  </defs>
  <g id="illu_cylindre_motif" data-name="illu cylindre motif">
    <g id="layers">
      <g id="sous_terre" data-name="sous terre">
        <path d="M1930,1248.59V107.07S1930,0,965,0,0,107.07,0,107.07v1141.52s0,107.07,965,107.07,965-107.07,965-107.07Z" style="fill: url(#Nouvelle_nuance_de_motif_11);"/>
        <path d="M1930,1248.59V107.07S1930,0,965,0,0,107.07,0,107.07v1141.52s0,107.07,965,107.07,965-107.07,965-107.07Z" style="fill: url(#_5bleufoncé);"/>
      </g>
    </g>
  </g>
</svg>