<svg data-name="Calque 2" xmlns="http://www.w3.org/2000/svg" viewBox="0 0 1930 1355.66"><defs><pattern id="prefix__a" width="188.25" height="188.25" patternUnits="userSpaceOnUse" patternTransform="translate(-864.21 -758.98)"><path fill="#30566b" d="M-12.46-12.46h213.18v213.18H-12.46z"/></pattern><pattern id="prefix__b" x="0" y="0" width="72.2" height="71.54" patternUnits="userSpaceOnUse" patternTransform="translate(3143.67 -1901.02)"><path fill="none" d="M0 0h72.2v71.54H0z"/><g fill="#082738"><circle cx="67.77" cy="73.7" r="1"/><circle cx="11.41" cy="35.78" r="1"/><circle cx="50.35" cy="16.31" r="1"/><circle cx="46.25" cy="24.51" r="1"/><circle cx="4.23" cy="62.43" r="1"/><circle cx="53.42" cy="45.01" r="1"/><circle cx="21.65" cy="17.34" r="1"/><circle cx="29.85" cy="4.01" r="1"/><circle cx="70.84" cy="51.15" r="1"/><circle cx="28.83" cy="60.38" r="1"/><circle cx="-1.36" cy="51.15" r="1"/><circle cx="67.77" cy="2.16" r="1"/><circle cx="73.92" cy="12.42" r="2"/><circle cx="41.12" cy="73.91" r="2"/><circle cx="59.57" cy="32.92" r="2"/><circle cx="17.55" cy="45.21" r="2"/><circle cx="42.15" cy="8.32" r="2"/><circle cx="1.72" cy="12.42" r="2"/><circle cx="41.12" cy="2.36" r="2"/></g></pattern></defs><g data-name="illu cylindre motif"><g data-name="sous terre"><path d="M1930 1248.59V107.07S1930 0 965 0 0 107.07 0 107.07v1141.52s0 107.07 965 107.07 965-107.07 965-107.07z" fill="url(#prefix__a)"/><path d="M1930 1248.59V107.07S1930 0 965 0 0 107.07 0 107.07v1141.52s0 107.07 965 107.07 965-107.07 965-107.07z" fill="url(#prefix__b)"/></g></g></svg>