<?xml version="1.0" encoding="UTF-8"?>
<svg id="Calque_2" data-name="Calque 2" xmlns="http://www.w3.org/2000/svg" xmlns:xlink="http://www.w3.org/1999/xlink" viewBox="0 0 1930 1391.96">
  <defs>
    <pattern id="Nouvelle_nuance_de_motif_15" data-name="Nouvelle nuance de motif 15" x="0" y="0" width="188.25" height="188.25" patternTransform="translate(-864.21 -2483.34)" patternUnits="userSpaceOnUse" viewBox="0 0 188.25 188.25">
      <g>
        <rect width="188.25" height="188.25" style="fill: none;"/>
        <rect x="166.64" y="166.64" width="231.48" height="231.48" style="fill: #998e70;"/>
        <rect x="-21.61" y="166.64" width="231.48" height="231.48" style="fill: #998e70;"/>
        <rect x="-209.86" y="166.64" width="231.48" height="231.48" style="fill: #998e70;"/>
        <rect x="166.64" y="-21.61" width="231.48" height="231.48" style="fill: #998e70;"/>
        <rect x="-21.61" y="-21.61" width="231.48" height="231.48" style="fill: #998e70;"/>
        <rect x="-209.86" y="-21.61" width="231.48" height="231.48" style="fill: #998e70;"/>
        <rect x="166.64" y="-209.86" width="231.48" height="231.48" style="fill: #998e70;"/>
        <rect x="-21.61" y="-209.86" width="231.48" height="231.48" style="fill: #998e70;"/>
        <rect x="-209.86" y="-209.86" width="231.48" height="231.48" style="fill: #998e70;"/>
      </g>
    </pattern>
    <pattern id="_7beige" data-name="7beige" x="0" y="0" width="72" height="72" patternTransform="translate(3140.87 -3696.78)" patternUnits="userSpaceOnUse" viewBox="0 0 72 72">
      <g>
        <rect width="72" height="72" style="fill: none;"/>
        <g>
          <path d="M41.18,72.15c-.15,0-.31-.07-.43-.17-.1-.12-.17-.28-.17-.43s.07-.31.17-.43c.24-.23.62-.23.85,0,.12.12.19.28.19.43s-.07.31-.17.43c-.12.1-.27.17-.43.17Z" style="fill: #66562c;"/>
          <path d="M65.33,72.67c-.29,0-.59-.12-.79-.33-.21-.21-.33-.5-.33-.79s.12-.59.33-.79c.41-.41,1.17-.41,1.59,0,.21.21.33.5.33.79s-.12.57-.33.79c-.21.21-.5.33-.79.33Z" style="fill: #66562c;"/>
          <path d="M59.43,72.01c-.15,0-.31-.07-.43-.17-.1-.12-.17-.28-.17-.43s.07-.31.17-.43c.24-.23.62-.23.85,0,.12.12.19.28.19.43s-.07.31-.17.43c-.12.1-.27.17-.43.17Z" style="fill: #66562c;"/>
          <path d="M48.22,72.01c-.15,0-.31-.07-.43-.17-.1-.12-.17-.28-.17-.43s.07-.31.17-.43c.24-.23.62-.23.85,0,.12.12.19.28.19.43s-.07.31-.17.43c-.12.1-.27.17-.43.17Z" style="fill: #66562c;"/>
          <path d="M67.63,72.87c-.15,0-.31-.07-.43-.17-.1-.12-.17-.28-.17-.43s.07-.31.17-.43c.23-.23.62-.23.86,0,.1.12.17.28.17.43s-.07.31-.17.43c-.12.1-.27.17-.43.17Z" style="fill: #66562c;"/>
          <path d="M35.36,72.22c-.15,0-.31-.07-.43-.17-.1-.12-.17-.28-.17-.43,0-.17.07-.33.19-.43.21-.23.62-.23.84,0,.1.12.17.28.17.43s-.07.29-.17.41c-.12.12-.27.19-.43.19Z" style="fill: #66562c;"/>
          <path d="M12.93,72.3c-.29,0-.59-.12-.79-.33-.21-.22-.33-.5-.33-.79,0-.31.12-.59.33-.79.41-.41,1.19-.41,1.59,0,.21.21.33.48.33.79,0,.29-.12.59-.33.79-.21.21-.5.33-.79.33Z" style="fill: #66562c;"/>
          <path d="M60.81,73.17c-.29,0-.59-.12-.79-.33-.21-.22-.33-.5-.33-.79s.12-.59.33-.79c.41-.41,1.17-.41,1.59,0,.21.21.33.48.33.79,0,.29-.12.59-.33.79-.21.21-.5.33-.79.33Z" style="fill: #66562c;"/>
          <path d="M19.11,72.08c-.15,0-.31-.07-.43-.17-.1-.12-.17-.28-.17-.43,0-.17.07-.33.19-.43.19-.21.6-.23.84,0,.1.1.17.26.17.43,0,.15-.07.31-.17.43-.12.1-.26.17-.43.17Z" style="fill: #66562c;"/>
          <path d="M1.85,72.08c-.15,0-.31-.07-.43-.17-.1-.12-.17-.28-.17-.43s.07-.31.17-.43c.23-.23.62-.23.85,0,.12.12.19.28.19.43s-.07.31-.17.43c-.12.1-.27.17-.43.17Z" style="fill: #66562c;"/>
          <path d="M9.18,72.08c-.15,0-.31-.07-.43-.17-.1-.12-.17-.28-.17-.43,0-.17.07-.33.19-.43.19-.21.6-.23.84,0,.1.1.17.26.17.43,0,.15-.07.31-.17.43-.12.1-.27.17-.43.17Z" style="fill: #66562c;"/>
          <path d="M70.01,72.08c-.15,0-.31-.07-.43-.17-.12-.12-.17-.28-.17-.43s.05-.31.17-.43c.24-.23.64-.23.86,0,.1.12.17.28.17.43s-.07.31-.17.43c-.12.1-.27.17-.43.17Z" style="fill: #66562c;"/>
        </g>
        <g>
          <path d="M71.76,13.95c-.15,0-.31-.07-.43-.17-.1-.12-.17-.28-.17-.43,0-.17.07-.33.19-.43.19-.21.6-.23.84,0,.1.1.17.26.17.43,0,.15-.07.31-.17.43-.12.1-.27.17-.43.17Z" style="fill: #66562c;"/>
          <path d="M71.55,37.31c-.15,0-.31-.07-.43-.17-.1-.12-.17-.28-.17-.43s.07-.31.17-.43c.24-.23.62-.23.85,0,.12.12.19.28.19.43s-.07.31-.17.43c-.12.1-.27.17-.43.17Z" style="fill: #66562c;"/>
          <path d="M71.99,24.37c-.15,0-.31-.07-.43-.17-.1-.12-.17-.28-.17-.43s.07-.31.17-.43c.23-.23.64-.23.86,0,.1.12.17.28.17.43s-.07.31-.17.43c-.12.1-.27.17-.43.17Z" style="fill: #66562c;"/>
          <path d="M71.55,54.57c-.15,0-.31-.07-.43-.17-.1-.12-.17-.28-.17-.43s.07-.31.17-.43c.23-.23.62-.23.86,0,.1.12.17.28.17.43s-.07.31-.17.43c-.12.1-.27.17-.43.17Z" style="fill: #66562c;"/>
          <path d="M71.12,31.36c-.29,0-.59-.12-.79-.33-.21-.21-.33-.5-.33-.79s.12-.59.33-.79c.43-.43,1.17-.41,1.59,0,.21.21.33.5.33.79s-.12.59-.33.79c-.21.21-.5.33-.79.33Z" style="fill: #66562c;"/>
          <path d="M71.69,55.29c-.16,0-.31-.07-.43-.17-.1-.12-.17-.28-.17-.43s.07-.31.17-.43c.23-.23.6-.23.85,0,.12.12.19.28.19.43s-.07.31-.17.43c-.12.1-.27.17-.43.17Z" style="fill: #66562c;"/>
        </g>
        <g>
          <path d="M12.7,8.77c-.15,0-.31-.07-.43-.17-.1-.12-.17-.28-.17-.43s.07-.31.17-.43c.24-.23.62-.23.85,0,.12.12.19.28.19.43s-.07.31-.17.43c-.12.1-.27.17-.43.17Z" style="fill: #66562c;"/>
          <path d="M-.24,13.95c-.15,0-.31-.07-.43-.17-.1-.12-.17-.28-.17-.43,0-.17.07-.33.19-.43.19-.21.6-.23.84,0,.1.1.17.26.17.43,0,.15-.07.31-.17.43-.12.1-.27.17-.43.17Z" style="fill: #66562c;"/>
          <path d="M14.86,20.85c-.15,0-.31-.07-.43-.17-.1-.12-.17-.28-.17-.43,0-.17.07-.33.19-.43.19-.21.62-.23.84,0,.1.12.17.28.17.43s-.07.31-.17.41c-.12.12-.27.19-.43.19Z" style="fill: #66562c;"/>
          <path d="M26.51,18.7c-.15,0-.31-.07-.43-.17-.1-.12-.17-.28-.17-.43s.07-.31.17-.43c.24-.23.62-.23.85,0,.12.12.19.28.19.43s-.07.31-.17.43c-.12.1-.27.17-.43.17Z" style="fill: #66562c;"/>
          <path d="M27.37,14.38c-.15,0-.31-.07-.43-.17-.1-.12-.17-.28-.17-.43,0-.17.07-.33.19-.43.21-.23.6-.23.84,0,.1.1.17.26.17.43,0,.15-.07.31-.17.43-.12.1-.26.17-.43.17Z" style="fill: #66562c;"/>
          <path d="M23.92,5.75c-.15,0-.31-.07-.43-.17-.1-.12-.17-.28-.17-.43s.07-.31.17-.43c.24-.23.62-.23.85,0,.12.12.19.28.19.43s-.07.31-.17.43c-.12.1-.27.17-.43.17Z" style="fill: #66562c;"/>
          <path d="M32.12,8.34c-.15,0-.31-.07-.43-.17-.1-.12-.17-.28-.17-.43s.07-.31.17-.43c.24-.23.62-.23.85,0,.12.12.19.28.19.43s-.07.31-.17.43c-.12.1-.27.17-.43.17Z" style="fill: #66562c;"/>
          <path d="M54.55,2.3c-.15,0-.31-.07-.43-.17-.1-.12-.17-.28-.17-.43,0-.17.07-.33.19-.43.21-.23.62-.23.84,0,.1.12.17.28.17.43s-.07.29-.17.41c-.12.12-.27.19-.43.19Z" style="fill: #66562c;"/>
          <path d="M40.74,10.07c-.15,0-.31-.07-.43-.17-.1-.12-.17-.28-.17-.43s.07-.31.17-.43c.24-.23.62-.23.85,0,.12.1.19.28.19.43s-.07.31-.17.43c-.12.1-.27.17-.43.17Z" style="fill: #66562c;"/>
          <path d="M5.8,70.46c-.15,0-.31-.07-.43-.17-.1-.12-.17-.28-.17-.43,0-.17.07-.33.19-.43.19-.21.6-.23.84,0,.1.1.17.26.17.43,0,.15-.07.31-.17.43-.12.1-.27.17-.43.17Z" style="fill: #66562c;"/>
          <path d="M1.49,68.74c-.15,0-.31-.07-.43-.17-.1-.12-.17-.28-.17-.43,0-.17.07-.33.19-.43.19-.21.6-.23.84,0,.1.1.17.26.17.43,0,.15-.07.31-.17.43-.12.1-.27.17-.43.17Z" style="fill: #66562c;"/>
          <path d="M6.66,62.27c-.15,0-.31-.07-.43-.17-.1-.12-.17-.28-.17-.43,0-.17.07-.33.19-.43.21-.21.62-.23.84,0,.1.1.17.26.17.43,0,.15-.07.31-.17.43-.12.1-.27.17-.43.17Z" style="fill: #66562c;"/>
          <path d="M6.23,55.36c-.15,0-.31-.07-.43-.17-.1-.12-.17-.28-.17-.43s.07-.31.17-.43c.21-.21.62-.23.86,0,.1.12.17.28.17.43s-.07.31-.17.43c-.12.1-.27.17-.43.17Z" style="fill: #66562c;"/>
          <path d="M1.49,55.8c-.15,0-.31-.07-.43-.17-.1-.12-.17-.28-.17-.43s.07-.31.17-.43c.21-.23.62-.23.86,0,.1.12.17.28.17.43s-.07.31-.17.43c-.12.1-.27.17-.43.17Z" style="fill: #66562c;"/>
          <path d="M29.53,61.83c-.15,0-.31-.07-.43-.17-.1-.12-.17-.28-.17-.43,0-.17.07-.33.19-.43.21-.23.6-.23.84,0,.1.1.17.26.17.43,0,.15-.07.31-.17.43-.12.1-.27.17-.43.17Z" style="fill: #66562c;"/>
          <path d="M20.47,67.87c-.15,0-.31-.07-.43-.17-.1-.12-.17-.28-.17-.43s.07-.31.17-.43c.23-.23.62-.23.86,0,.1.12.17.28.17.43s-.07.31-.17.43c-.12.1-.27.17-.43.17Z" style="fill: #66562c;"/>
          <path d="M28.67,70.46c-.15,0-.31-.07-.43-.17-.1-.12-.17-.28-.17-.43s.07-.31.17-.43c.23-.23.62-.23.86,0,.1.12.17.28.17.43s-.07.31-.17.43c-.12.1-.27.17-.43.17Z" style="fill: #66562c;"/>
          <path d="M35.57,71.33c-.15,0-.31-.07-.43-.17-.1-.12-.17-.28-.17-.43s.07-.31.17-.43c.26-.23.62-.23.85,0,.12.12.19.28.19.43s-.07.31-.17.43c-.12.1-.27.17-.43.17Z" style="fill: #66562c;"/>
          <path d="M41.18,70.89c-.15,0-.31-.07-.41-.17-.12-.12-.19-.28-.19-.43s.07-.31.17-.43c.24-.23.62-.23.86,0,.1.12.17.28.17.43s-.07.31-.17.43c-.12.1-.27.17-.43.17Z" style="fill: #66562c;"/>
          <path d="M45.49,61.83c-.15,0-.31-.07-.43-.17-.1-.12-.17-.28-.17-.43s.07-.31.17-.43c.24-.23.62-.23.86,0,.1.12.17.28.17.43s-.07.31-.17.43c-.12.1-.27.17-.43.17Z" style="fill: #66562c;"/>
          <path d="M48.51,51.48c-.15,0-.31-.07-.43-.19-.1-.1-.17-.26-.17-.41s.07-.31.17-.43c.23-.23.62-.23.86,0,.1.12.17.28.17.43s-.07.31-.17.43c-.12.1-.27.17-.43.17Z" style="fill: #66562c;"/>
          <path d="M61.45,61.4c-.15,0-.31-.07-.43-.17-.12-.14-.17-.28-.17-.43s.07-.31.17-.43c.24-.24.62-.23.86,0,.1.12.17.28.17.43s-.07.31-.17.43c-.12.1-.27.17-.43.17Z" style="fill: #66562c;"/>
          <path d="M63.18,54.5c-.15,0-.31-.07-.43-.19-.1-.1-.17-.26-.17-.41,0-.17.07-.33.19-.43.19-.21.6-.23.84,0,.1.1.17.26.17.43,0,.15-.07.31-.17.43-.12.1-.27.17-.43.17Z" style="fill: #66562c;"/>
          <path d="M68.35,55.36c-.17,0-.33-.07-.43-.19-.1-.1-.17-.26-.17-.41s.07-.33.17-.43c.23-.23.62-.23.85,0,.12.12.19.26.19.43,0,.15-.07.31-.17.43-.12.1-.27.17-.43.17Z" style="fill: #66562c;"/>
          <path d="M68.35,67.87c-.17,0-.33-.07-.43-.19-.1-.1-.17-.26-.17-.41,0-.17.07-.33.19-.43.19-.21.6-.23.84,0,.1.1.17.26.17.43,0,.15-.07.31-.17.43-.12.1-.27.17-.43.17Z" style="fill: #66562c;"/>
          <path d="M61.88,71.33c-.15,0-.31-.07-.43-.17-.1-.12-.17-.28-.17-.43s.07-.31.17-.43c.23-.23.64-.23.86,0,.12.12.17.28.17.43s-.07.31-.17.43c-.12.1-.26.17-.43.17Z" style="fill: #66562c;"/>
          <path d="M9.68,20.85c-.15,0-.31-.07-.43-.17-.1-.12-.17-.28-.17-.43s.07-.31.17-.43c.24-.23.62-.23.85,0,.12.12.19.28.19.43s-.07.31-.17.43c-.12.1-.27.17-.43.17Z" style="fill: #66562c;"/>
          <path d="M12.7,15.68c-.15,0-.31-.07-.43-.17-.1-.12-.17-.28-.17-.43s.07-.31.17-.43c.24-.23.62-.23.86,0,.1.12.17.28.17.43s-.07.31-.17.43c-.12.1-.27.17-.43.17Z" style="fill: #66562c;"/>
          <path d="M40.74,16.97c-.15,0-.31-.07-.43-.17-.1-.12-.17-.28-.17-.43s.07-.31.17-.43c.23-.23.64-.23.86,0,.1.12.17.28.17.43s-.07.31-.17.43c-.12.1-.27.17-.43.17Z" style="fill: #66562c;"/>
          <path d="M53.26,24.3c-.15,0-.31-.07-.43-.17-.12-.12-.17-.28-.17-.43s.07-.31.17-.41c.26-.26.62-.24.85-.02.12.12.19.28.19.43s-.07.31-.17.43c-.12.1-.27.17-.43.17Z" style="fill: #66562c;"/>
          <path d="M68.79,22.58c-.15,0-.31-.07-.43-.17-.1-.12-.17-.28-.17-.43s.07-.31.17-.43c.21-.21.62-.24.86,0,.1.12.17.28.17.43s-.07.31-.17.43c-.12.1-.27.17-.43.17Z" style="fill: #66562c;"/>
          <path d="M61.88,17.83c-.15,0-.31-.07-.43-.17-.1-.12-.17-.28-.17-.43s.07-.31.17-.43c.23-.23.64-.23.86,0,.12.12.17.28.17.43s-.07.31-.17.43c-.12.1-.27.17-.43.17Z" style="fill: #66562c;"/>
          <path d="M63.18,25.17c-.17,0-.31-.07-.43-.17-.1-.12-.17-.28-.17-.43s.07-.31.17-.43c.24-.23.62-.23.85,0,.12.12.19.28.19.43s-.07.31-.17.43c-.12.1-.27.17-.43.17Z" style="fill: #66562c;"/>
          <path d="M71.37,41.56c-.15,0-.31-.07-.43-.17-.1-.12-.17-.28-.17-.43s.07-.31.17-.43c.23-.23.62-.23.85,0,.12.12.19.28.19.43s-.07.31-.17.43c-.12.1-.27.17-.43.17Z" style="fill: #66562c;"/>
          <path d="M56.71,38.54c-.15,0-.31-.07-.41-.17-.12-.12-.19-.28-.19-.43s.07-.31.17-.43c.21-.23.64-.23.86.02.1.1.17.24.17.41,0,.15-.07.31-.17.43-.12.1-.27.17-.43.17Z" style="fill: #66562c;"/>
          <path d="M56.27,45.44c-.17,0-.33-.07-.43-.19-.1-.1-.17-.26-.17-.41s.07-.31.17-.43c.21-.21.62-.23.86,0,.1.12.17.28.17.43s-.07.31-.17.43c-.12.1-.27.17-.43.17Z" style="fill: #66562c;"/>
          <path d="M65.77,51.91c-.15,0-.33-.07-.43-.19-.1-.09-.17-.24-.17-.41s.07-.31.19-.43c.19-.21.6-.23.84,0,.1.12.17.28.17.43s-.07.31-.17.43c-.12.1-.27.17-.43.17Z" style="fill: #66562c;"/>
          <path d="M29.53,55.36c-.15,0-.31-.07-.43-.17-.1-.12-.17-.28-.17-.43s.07-.31.17-.43c.24-.23.62-.23.85,0,.12.12.19.28.19.43s-.07.31-.17.43c-.12.1-.27.17-.43.17Z" style="fill: #66562c;"/>
          <path d="M18.74,39.4c-.15,0-.31-.07-.43-.17-.1-.12-.17-.28-.17-.43s.07-.31.17-.43c.24-.23.62-.23.85,0,.12.12.19.28.19.43s-.07.31-.17.43c-.12.1-.27.17-.43.17Z" style="fill: #66562c;"/>
          <path d="M24.78,35.52c-.15,0-.31-.07-.41-.17-.12-.12-.19-.28-.19-.43,0-.17.07-.33.19-.43.21-.21.62-.23.84,0,.1.1.17.26.17.43,0,.15-.07.31-.17.43-.12.1-.27.17-.43.17Z" style="fill: #66562c;"/>
          <path d="M2.78,46.74c-.15,0-.31-.07-.43-.17-.1-.12-.17-.28-.17-.43,0-.17.07-.33.19-.43.22-.23.62-.23.84,0,.1.1.17.26.17.43,0,.15-.07.31-.17.43-.12.1-.26.17-.43.17Z" style="fill: #66562c;"/>
          <path d="M19.17,26.46c-.15,0-.31-.07-.43-.17-.1-.12-.17-.28-.17-.43s.07-.31.17-.43c.23-.23.64-.23.86,0,.1.12.17.28.17.43s-.07.31-.17.43c-.12.1-.27.17-.43.17Z" style="fill: #66562c;"/>
          <path d="M41.18,27.32c-.15,0-.31-.07-.43-.17-.1-.12-.17-.28-.17-.43s.07-.31.17-.43c.23-.23.62-.23.86,0,.1.12.17.28.17.43s-.07.31-.17.43c-.12.1-.26.17-.43.17Z" style="fill: #66562c;"/>
          <path d="M39.45,30.77c-.15,0-.31-.07-.43-.17-.1-.12-.17-.28-.17-.43s.07-.31.17-.43c.23-.23.64-.23.86,0,.1.12.17.28.17.43s-.07.31-.17.43c-.12.1-.27.17-.43.17Z" style="fill: #66562c;"/>
          <path d="M21.76,46.74c-.15,0-.31-.07-.43-.17-.1-.12-.17-.28-.17-.43s.07-.31.17-.43c.23-.23.64-.23.86,0,.1.12.17.28.17.43s-.07.31-.17.43c-.12.1-.27.17-.43.17Z" style="fill: #66562c;"/>
          <path d="M5.37,7.48c-.15,0-.31-.07-.43-.17-.1-.12-.17-.28-.17-.43s.07-.33.17-.43c.23-.23.62-.23.85,0,.12.12.19.28.19.43s-.07.31-.17.43c-.12.1-.27.17-.43.17Z" style="fill: #66562c;"/>
          <path d="M10.12,38.11c-.15,0-.31-.07-.43-.17-.1-.12-.17-.28-.17-.43s.07-.33.17-.43c.21-.21.62-.23.85,0,.12.12.19.28.19.43s-.07.31-.17.43c-.12.1-.27.17-.43.17Z" style="fill: #66562c;"/>
          <path d="M37.72,57.95c-.15,0-.31-.07-.43-.17-.1-.12-.17-.28-.17-.43,0-.17.07-.31.17-.43.24-.23.62-.23.86,0,.1.12.17.28.17.43s-.07.31-.17.43c-.12.1-.26.17-.43.17Z" style="fill: #66562c;"/>
          <path d="M63.61,39.83c-.15,0-.31-.07-.43-.19-.1-.1-.17-.26-.17-.41,0-.17.07-.33.19-.43.19-.21.6-.23.84,0,.1.1.17.26.17.43,0,.15-.07.31-.17.43-.12.1-.27.17-.43.17Z" style="fill: #66562c;"/>
          <path d="M42.47,39.4c-.15,0-.31-.07-.43-.17-.1-.12-.17-.28-.17-.43s.07-.31.17-.43c.26-.23.62-.23.85,0,.12.12.19.28.19.43s-.07.31-.17.43c-.12.1-.27.17-.43.17Z" style="fill: #66562c;"/>
          <path d="M7.53,19.99c-.15,0-.31-.07-.43-.17-.1-.12-.17-.28-.17-.43s.07-.33.17-.43c.21-.21.62-.23.85,0,.12.12.19.28.19.43s-.07.31-.17.43c-.12.1-.27.17-.43.17Z" style="fill: #66562c;"/>
          <path d="M8.82,4.03c-.15,0-.31-.07-.43-.17-.1-.12-.17-.28-.17-.43s.07-.31.17-.43c.24-.23.62-.23.86,0,.1.12.17.28.17.43s-.07.31-.17.43c-.12.1-.27.17-.43.17Z" style="fill: #66562c;"/>
          <path d="M41.18.15c-.15,0-.31-.07-.43-.17-.1-.12-.17-.28-.17-.43s.07-.31.17-.43c.24-.23.62-.23.85,0,.12.12.19.28.19.43s-.07.31-.17.43c-.12.1-.27.17-.43.17Z" style="fill: #66562c;"/>
          <path d="M16.15,5.32c-.15,0-.31-.07-.43-.17-.1-.12-.17-.28-.17-.43s.07-.31.17-.43c.24-.23.62-.23.85,0,.12.12.19.28.19.43s-.07.31-.17.43c-.12.1-.27.17-.43.17Z" style="fill: #66562c;"/>
          <path d="M1.06,29.05c-.15,0-.31-.07-.43-.17-.1-.12-.17-.28-.17-.43s.07-.31.17-.43c.21-.21.62-.23.86,0,.1.12.17.28.17.43s-.07.31-.17.43c-.12.1-.27.17-.43.17Z" style="fill: #66562c;"/>
          <path d="M8.82,27.32c-.15,0-.31-.07-.43-.17-.1-.12-.17-.28-.17-.43,0-.17.07-.33.19-.43.22-.23.6-.23.84,0,.1.1.17.26.17.43,0,.15-.07.31-.17.43-.12.1-.27.17-.43.17Z" style="fill: #66562c;"/>
          <path d="M3.64,35.52c-.15,0-.31-.07-.43-.17-.1-.12-.17-.28-.17-.43s.07-.31.17-.43c.24-.23.62-.23.86,0,.1.12.17.28.17.43s-.07.31-.17.43c-.12.1-.27.17-.43.17Z" style="fill: #66562c;"/>
          <path d="M1.06,41.56c-.15,0-.31-.07-.43-.17-.1-.12-.17-.28-.17-.43,0-.17.07-.33.19-.43.19-.21.6-.23.84,0,.1.1.17.26.17.43,0,.15-.07.31-.17.43-.12.1-.26.17-.43.17Z" style="fill: #66562c;"/>
          <path d="M18.74,56.66c-.15,0-.31-.07-.43-.17-.1-.12-.17-.28-.17-.43s.07-.31.17-.43c.23-.23.62-.23.86,0,.1.12.17.28.17.43s-.07.31-.17.43c-.12.1-.27.17-.43.17Z" style="fill: #66562c;"/>
          <path d="M17.88,49.32c-.15,0-.31-.07-.43-.17-.1-.12-.17-.28-.17-.43s.07-.31.17-.43c.23-.23.62-.23.86,0,.1.12.17.28.17.43s-.07.31-.17.43c-.12.1-.27.17-.43.17Z" style="fill: #66562c;"/>
          <path d="M29.1,27.75c-.15,0-.31-.07-.43-.17-.1-.12-.17-.28-.17-.43,0-.17.07-.33.19-.43.21-.23.6-.23.84,0,.1.1.17.26.17.43,0,.15-.07.31-.17.43-.12.1-.27.17-.43.17Z" style="fill: #66562c;"/>
          <path d="M32.55,22.15c-.15,0-.31-.07-.43-.17-.1-.12-.17-.28-.17-.43s.05-.31.17-.43c.23-.23.62-.23.86,0,.1.12.17.28.17.43s-.07.31-.17.43c-.12.1-.26.17-.43.17Z" style="fill: #66562c;"/>
          <path d="M45.49,18.7c-.15,0-.31-.07-.43-.17-.1-.12-.17-.28-.17-.43s.07-.31.17-.43c.23-.23.64-.23.86,0,.1.12.17.28.17.43s-.07.31-.17.43c-.12.1-.27.17-.43.17Z" style="fill: #66562c;"/>
          <path d="M47.65,10.07c-.15,0-.31-.07-.43-.19-.1-.1-.17-.24-.17-.41,0-.15.07-.31.17-.43.23-.23.62-.23.86,0,.1.12.17.28.17.43,0,.17-.07.31-.19.43-.1.1-.26.17-.41.17Z" style="fill: #66562c;"/>
          <path d="M36.43,7.48c-.15,0-.31-.07-.43-.17-.12-.14-.17-.28-.17-.43s.05-.31.17-.41c.28-.26.64-.24.86-.02.1.12.17.28.17.43s-.07.31-.17.43c-.12.1-.27.17-.43.17Z" style="fill: #66562c;"/>
          <path d="M21.33,12.66c-.15,0-.31-.07-.43-.17-.1-.12-.17-.28-.17-.43s.07-.31.17-.43c.23-.23.64-.23.86,0,.1.12.17.28.17.43s-.07.31-.17.43c-.12.1-.27.17-.43.17Z" style="fill: #66562c;"/>
          <path d="M63.18,12.22c-.17,0-.33-.07-.43-.19-.1-.1-.17-.26-.17-.41s.07-.31.17-.43c.24-.23.62-.23.85,0,.12.12.19.28.19.43s-.07.31-.17.43c-.12.1-.26.17-.43.17Z" style="fill: #66562c;"/>
          <path d="M48.08,4.89c-.15,0-.33-.07-.43-.17-.1-.12-.17-.28-.17-.43s.07-.31.17-.43c.21-.21.62-.23.86,0,.1.12.17.28.17.43s-.07.31-.17.43c-.12.1-.27.17-.43.17Z" style="fill: #66562c;"/>
          <path d="M60.59,5.32c-.17,0-.31-.07-.43-.17-.1-.12-.17-.28-.17-.43s.07-.31.17-.43c.24-.23.62-.23.85,0,.12.12.19.28.19.43s-.07.31-.17.43c-.12.1-.27.17-.43.17Z" style="fill: #66562c;"/>
          <path d="M69.22,15.24c-.15,0-.31-.07-.43-.17-.1-.12-.17-.28-.17-.43s.07-.31.17-.43c.21-.21.64-.23.86,0,.1.12.17.28.17.43s-.07.31-.17.43c-.12.1-.27.17-.43.17Z" style="fill: #66562c;"/>
          <path d="M69.22,6.62c-.15,0-.33-.07-.43-.19-.1-.1-.17-.26-.17-.41,0-.17.07-.33.19-.43.19-.21.6-.23.84,0,.1.1.17.26.17.43,0,.15-.07.31-.17.43-.12.1-.27.17-.43.17Z" style="fill: #66562c;"/>
          <path d="M64.47,30.77c-.15,0-.31-.07-.43-.19-.1-.1-.17-.26-.17-.41,0-.17.07-.33.19-.43.19-.21.6-.23.84,0,.1.1.17.26.17.43,0,.15-.07.31-.17.43-.12.1-.27.17-.43.17Z" style="fill: #66562c;"/>
          <path d="M55.41,32.5c-.15,0-.31-.07-.43-.19-.1-.1-.17-.26-.17-.41,0-.17.07-.33.19-.43.19-.21.6-.23.84,0,.1.1.17.26.17.43,0,.15-.07.31-.17.43-.12.1-.27.17-.43.17Z" style="fill: #66562c;"/>
          <path d="M49.8,41.99c-.15,0-.31-.07-.43-.19-.1-.1-.17-.26-.17-.41s.07-.31.17-.43c.24-.23.62-.23.86,0,.1.12.17.26.17.43s-.07.33-.19.43c-.1.1-.26.17-.41.17Z" style="fill: #66562c;"/>
          <path d="M32.12,45.87c-.15,0-.31-.07-.43-.17-.1-.12-.17-.28-.17-.43s.07-.31.17-.43c.24-.23.62-.23.86,0,.1.12.17.28.17.43s-.07.31-.17.43c-.12.1-.27.17-.43.17Z" style="fill: #66562c;"/>
          <path d="M43.76,57.09c-.15,0-.31-.07-.43-.17-.1-.12-.17-.28-.17-.43s.07-.31.17-.43c.24-.23.62-.23.85,0,.12.1.19.28.19.43s-.07.31-.17.43c-.12.1-.27.17-.43.17Z" style="fill: #66562c;"/>
          <path d="M52.39,64.42c-.15,0-.31-.07-.43-.17-.1-.12-.17-.28-.17-.43,0-.17.07-.33.19-.43.21-.23.62-.23.84,0,.1.1.17.26.17.43,0,.15-.07.31-.17.43-.12.1-.27.17-.43.17Z" style="fill: #66562c;"/>
          <path d="M53.69,72.19c-.15,0-.31-.07-.43-.17-.1-.12-.17-.28-.17-.43s.07-.31.17-.43c.26-.24.62-.23.85,0,.12.12.19.28.19.43s-.07.31-.17.43c-.12.1-.27.17-.43.17Z" style="fill: #66562c;"/>
          <path d="M36.43,65.29c-.15,0-.31-.07-.43-.17-.12-.12-.17-.28-.17-.43s.07-.31.17-.43c.24-.23.66-.23.86.02.1.09.17.24.17.41,0,.15-.07.31-.17.43-.12.1-.27.17-.43.17Z" style="fill: #66562c;"/>
          <path d="M67.49,61.4c-.15,0-.31-.07-.43-.17-.1-.12-.17-.26-.17-.43s.07-.33.17-.43c.24-.23.62-.23.85,0,.12.12.19.28.19.43s-.07.31-.17.41c-.12.12-.26.19-.43.19Z" style="fill: #66562c;"/>
          <path d="M67.92,46.3c-.15,0-.31-.07-.43-.19-.1-.09-.17-.26-.17-.41s.07-.31.17-.43c.23-.23.62-.23.86,0,.1.12.17.28.17.43s-.07.33-.19.43c-.1.1-.26.17-.41.17Z" style="fill: #66562c;"/>
          <path d="M54.98,14.04c-.29,0-.59-.12-.79-.33-.21-.21-.33-.5-.33-.79s.12-.59.33-.79c.4-.41,1.17-.41,1.59,0,.21.21.33.5.33.79s-.12.59-.33.79c-.21.21-.5.33-.79.33Z" style="fill: #66562c;"/>
          <path d="M9.68,52.86c-.29,0-.59-.12-.79-.33-.21-.21-.33-.5-.33-.79,0-.31.12-.59.33-.79.4-.41,1.17-.43,1.59,0,.21.21.33.5.33.79s-.12.57-.33.79c-.21.21-.48.33-.79.33Z" style="fill: #66562c;"/>
          <path d="M22.63,62.79c-.29,0-.59-.12-.79-.33-.21-.21-.33-.5-.33-.79s.12-.59.33-.79c.41-.41,1.17-.43,1.59,0,.21.21.33.5.33.79s-.12.57-.33.79c-.21.21-.48.33-.79.33Z" style="fill: #66562c;"/>
          <path d="M45.49,69.69c-.29,0-.59-.12-.79-.33-.21-.21-.33-.5-.33-.79s.12-.59.33-.79c.41-.41,1.17-.41,1.59,0,.21.21.33.5.33.79s-.12.59-.33.79c-.21.21-.5.33-.79.33Z" style="fill: #66562c;"/>
          <path d="M17.02,17.06c-.29,0-.59-.12-.79-.33-.21-.22-.33-.5-.33-.79s.12-.59.33-.79c.4-.41,1.17-.41,1.59,0,.21.21.33.5.33.79s-.12.57-.33.79c-.21.21-.5.33-.79.33Z" style="fill: #66562c;"/>
          <path d="M34.27,14.9c-.31,0-.59-.12-.79-.33-.21-.21-.33-.5-.33-.79s.12-.59.33-.79c.41-.41,1.17-.41,1.59,0,.21.21.33.48.33.79s-.12.59-.33.79c-.21.21-.48.33-.79.33Z" style="fill: #66562c;"/>
          <path d="M51.1,25.69c-.29,0-.59-.12-.79-.33-.21-.21-.33-.5-.33-.79s.12-.59.33-.79c.4-.41,1.19-.41,1.59,0,.21.19.33.48.33.79s-.12.59-.35.79c-.19.21-.48.33-.78.33Z" style="fill: #66562c;"/>
          <path d="M63.18,48.98c-.29,0-.59-.12-.79-.33-.21-.21-.33-.5-.33-.79s.12-.59.33-.79c.4-.41,1.16-.43,1.59,0,.21.21.33.48.33.79,0,.29-.12.59-.33.79-.21.21-.5.33-.79.33Z" style="fill: #66562c;"/>
          <path d="M54.98,57.18c-.29,0-.59-.12-.79-.33-.21-.21-.33-.5-.33-.79s.12-.59.33-.79c.4-.41,1.17-.41,1.59,0,.21.21.33.5.33.79s-.12.59-.33.79c-.21.21-.5.33-.79.33Z" style="fill: #66562c;"/>
          <path d="M37.29,51.57c-.29,0-.59-.12-.79-.33-.21-.22-.33-.5-.33-.79s.12-.59.33-.79c.41-.41,1.17-.41,1.59,0,.21.21.33.5.33.79s-.12.57-.33.79c-.21.21-.5.33-.79.33Z" style="fill: #66562c;"/>
          <path d="M2.78,23.96c-.29,0-.59-.12-.79-.33-.21-.21-.33-.5-.33-.79s.12-.59.33-.79c.43-.41,1.17-.41,1.59,0,.21.21.33.5.33.79s-.12.59-.33.79c-.21.21-.48.33-.79.33Z" style="fill: #66562c;"/>
          <path d="M11.41,46.82c-.29,0-.59-.12-.79-.33-.21-.21-.33-.48-.33-.79s.12-.59.33-.79c.41-.41,1.16-.41,1.59,0,.21.21.33.5.33.79s-.12.59-.33.79c-.21.21-.5.33-.79.33Z" style="fill: #66562c;"/>
          <path d="M14.86,24.82c-.29,0-.59-.12-.79-.33-.21-.22-.33-.5-.33-.79s.12-.59.33-.79c.4-.41,1.17-.43,1.59,0,.21.21.33.48.33.79,0,.29-.12.59-.33.79-.21.21-.5.33-.79.33Z" style="fill: #66562c;"/>
          <path d="M45.06,34.31c-.29,0-.59-.12-.79-.33-.21-.21-.33-.5-.33-.79s.12-.59.33-.79c.41-.41,1.17-.41,1.59,0,.21.21.33.5.33.79s-.12.57-.33.79c-.21.21-.5.33-.79.33Z" style="fill: #66562c;"/>
          <path d="M65.33.66c-.29,0-.59-.12-.79-.33-.21-.21-.33-.5-.33-.79s.12-.59.33-.79c.41-.41,1.17-.41,1.59,0,.21.21.33.5.33.79s-.12.57-.33.79c-.21.21-.5.33-.79.33Z" style="fill: #66562c;"/>
          <path d="M32.12,2.39c-.29,0-.59-.12-.79-.33-.21-.22-.33-.5-.33-.79,0-.31.12-.59.33-.79.41-.41,1.19-.41,1.59,0,.21.21.33.48.33.79,0,.29-.12.59-.33.79-.21.21-.5.33-.79.33Z" style="fill: #66562c;"/>
          <path d="M11.41,66.67c-.29,0-.59-.12-.79-.33-.21-.21-.33-.48-.33-.79s.12-.6.35-.79c.38-.41,1.16-.41,1.57,0,.21.21.33.5.33.79s-.12.57-.33.79c-.21.21-.5.33-.79.33Z" style="fill: #66562c;"/>
          <path d="M27.37,39.49c-.29,0-.59-.12-.79-.33-.21-.22-.33-.5-.33-.79s.12-.59.33-.79c.41-.41,1.17-.41,1.59,0,.21.21.33.5.33.79s-.12.57-.33.79c-.21.21-.5.33-.79.33Z" style="fill: #66562c;"/>
          <path d="M18.31,33.45c-.29,0-.59-.12-.79-.33-.21-.21-.33-.5-.33-.79s.12-.59.33-.79c.43-.43,1.17-.41,1.59,0,.21.21.33.5.33.79s-.12.59-.33.79c-.21.21-.5.33-.79.33Z" style="fill: #66562c;"/>
          <path d="M37.72,23.96c-.29,0-.59-.12-.79-.33-.21-.22-.33-.5-.33-.79s.12-.59.33-.79c.41-.41,1.16-.41,1.59,0,.21.21.33.5.33.79s-.12.57-.33.79c-.21.21-.5.33-.79.33Z" style="fill: #66562c;"/>
          <path d="M69.65,36.04c-.29,0-.59-.12-.79-.33-.21-.22-.33-.5-.33-.79s.12-.59.33-.79c.41-.41,1.17-.41,1.59,0,.21.21.33.5.33.79s-.12.57-.33.79c-.21.21-.5.33-.79.33Z" style="fill: #66562c;"/>
          <path d="M38.29,2.16c-.15,0-.31-.07-.43-.17-.1-.12-.17-.28-.17-.43,0-.17.07-.33.19-.43.19-.21.6-.23.84,0,.1.1.17.26.17.43,0,.15-.07.31-.17.43-.12.1-.26.17-.43.17Z" style="fill: #66562c;"/>
          <path d="M38.73,6.05c-.15,0-.31-.07-.43-.17-.1-.12-.17-.28-.17-.43s.07-.31.17-.43c.23-.23.62-.23.86,0,.1.12.17.28.17.43s-.07.31-.17.43c-.12.1-.27.17-.43.17Z" style="fill: #66562c;"/>
          <path d="M30.1,6.05c-.15,0-.31-.07-.43-.17-.1-.12-.17-.28-.17-.43,0-.17.07-.31.17-.43.21-.21.62-.23.86,0,.1.12.17.28.17.43s-.07.31-.17.43c-.12.1-.27.17-.43.17Z" style="fill: #66562c;"/>
          <path d="M43.04,22.44c-.15,0-.31-.07-.43-.17-.1-.12-.17-.28-.17-.43s.07-.31.17-.43c.24-.23.62-.23.85,0,.12.12.19.28.19.43s-.07.31-.17.43c-.12.1-.27.17-.43.17Z" style="fill: #66562c;"/>
          <path d="M30.1,27.62c-.15,0-.31-.07-.43-.17-.1-.12-.17-.28-.17-.43,0-.17.07-.33.19-.43.19-.21.6-.23.84,0,.1.1.17.26.17.43,0,.15-.07.31-.17.43-.12.1-.27.17-.43.17Z" style="fill: #66562c;"/>
          <path d="M27.94,29.34c-.15,0-.31-.07-.43-.17-.1-.12-.17-.28-.17-.43s.07-.31.17-.43c.24-.23.62-.23.85,0,.12.12.19.28.19.43s-.07.31-.17.43c-.12.1-.26.17-.43.17Z" style="fill: #66562c;"/>
          <path d="M45.2,34.52c-.15,0-.31-.07-.43-.17-.1-.12-.17-.28-.17-.43,0-.17.07-.33.19-.43.19-.21.62-.23.84,0,.1.12.17.28.17.43s-.07.31-.17.41c-.12.12-.27.19-.43.19Z" style="fill: #66562c;"/>
          <path d="M56.84,32.36c-.15,0-.31-.07-.43-.17-.1-.12-.17-.28-.17-.43s.07-.31.17-.43c.24-.23.62-.23.85,0,.12.12.19.28.19.43s-.07.31-.17.43c-.12.1-.27.17-.43.17Z" style="fill: #66562c;"/>
          <path d="M57.71,28.05c-.15,0-.31-.07-.43-.17-.1-.12-.17-.28-.17-.43,0-.17.07-.33.19-.43.21-.23.6-.23.84,0,.1.1.17.26.17.43,0,.15-.07.31-.17.43-.12.1-.26.17-.43.17Z" style="fill: #66562c;"/>
          <path d="M54.26,19.42c-.15,0-.31-.07-.43-.17-.1-.12-.17-.28-.17-.43s.07-.31.17-.43c.24-.23.62-.23.85,0,.12.12.19.28.19.43s-.07.31-.17.43c-.12.1-.27.17-.43.17Z" style="fill: #66562c;"/>
          <path d="M62.45,22.01c-.15,0-.31-.07-.43-.17-.1-.12-.17-.28-.17-.43s.07-.31.17-.43c.24-.23.62-.23.85,0,.12.12.19.28.19.43s-.07.31-.17.43c-.12.1-.27.17-.43.17Z" style="fill: #66562c;"/>
          <path d="M58.14,13.38c-.15,0-.31-.07-.43-.17-.1-.12-.17-.28-.17-.43s.07-.31.17-.43c.24-.23.62-.23.85,0,.12.12.19.28.19.43s-.07.31-.17.43c-.12.1-.27.17-.43.17Z" style="fill: #66562c;"/>
          <path d="M58.57,8.2c-.15,0-.31-.07-.43-.17-.1-.12-.17-.28-.17-.43s.07-.31.17-.43c.24-.23.62-.23.86,0,.1.12.17.28.17.43s-.07.31-.17.43c-.12.1-.27.17-.43.17Z" style="fill: #66562c;"/>
          <path d="M59.43,0c-.15,0-.31-.07-.43-.17-.1-.12-.17-.28-.17-.43s.07-.31.17-.43c.24-.23.62-.23.85,0,.12.12.19.28.19.43s-.07.31-.17.43c-.12.1-.27.17-.43.17Z" style="fill: #66562c;"/>
          <path d="M71.08,23.73c-.15,0-.31-.07-.43-.17-.1-.12-.17-.28-.17-.43s.07-.31.17-.43c.24-.23.62-.23.85,0,.12.1.19.28.19.43s-.07.31-.17.43c-.12.1-.27.17-.43.17Z" style="fill: #66562c;"/>
          <path d="M36.57,69.03c-.15,0-.31-.07-.43-.17-.1-.12-.17-.28-.17-.43s.07-.31.17-.43c.21-.21.62-.23.86,0,.1.12.17.28.17.43s-.07.31-.17.43c-.12.1-.27.17-.43.17Z" style="fill: #66562c;"/>
          <path d="M31.82,69.46c-.15,0-.31-.07-.43-.17-.1-.12-.17-.28-.17-.43s.07-.31.17-.43c.21-.23.62-.23.86,0,.1.12.17.28.17.43s-.07.31-.17.43c-.12.1-.27.17-.43.17Z" style="fill: #66562c;"/>
          <path d="M40.02,34.52c-.15,0-.31-.07-.43-.17-.1-.12-.17-.28-.17-.43s.07-.31.17-.43c.24-.23.62-.23.85,0,.12.12.19.28.19.43s-.07.31-.17.43c-.12.1-.27.17-.43.17Z" style="fill: #66562c;"/>
          <path d="M43.04,29.34c-.15,0-.31-.07-.43-.17-.1-.12-.17-.28-.17-.43s.07-.31.17-.43c.24-.23.62-.23.86,0,.1.12.17.28.17.43s-.07.31-.17.43c-.12.1-.27.17-.43.17Z" style="fill: #66562c;"/>
          <path d="M71.08,30.64c-.15,0-.31-.07-.43-.17-.1-.12-.17-.28-.17-.43s.07-.31.17-.43c.23-.23.64-.23.86,0,.1.12.17.28.17.43s-.07.31-.17.43c-.12.1-.27.17-.43.17Z" style="fill: #66562c;"/>
          <path d="M59.86,69.03c-.15,0-.31-.07-.43-.17-.1-.12-.17-.28-.17-.43s.07-.31.17-.43c.24-.23.62-.23.85,0,.12.12.19.28.19.43s-.07.31-.17.43c-.12.1-.27.17-.43.17Z" style="fill: #66562c;"/>
          <path d="M49.08,53.07c-.15,0-.31-.07-.43-.17-.1-.12-.17-.28-.17-.43s.07-.31.17-.43c.24-.23.62-.23.85,0,.12.12.19.28.19.43s-.07.31-.17.43c-.12.1-.27.17-.43.17Z" style="fill: #66562c;"/>
          <path d="M55.12,49.19c-.15,0-.31-.07-.41-.17-.12-.12-.19-.28-.19-.43,0-.17.07-.33.19-.43.21-.21.62-.23.84,0,.1.1.17.26.17.43,0,.15-.07.31-.17.43-.12.1-.27.17-.43.17Z" style="fill: #66562c;"/>
          <path d="M21.9,38.83c-.15,0-.31-.07-.43-.17-.1-.12-.17-.28-.17-.43s.07-.31.17-.43c.23-.21.62-.23.85,0,.12.1.19.26.19.43,0,.15-.07.31-.17.43-.12.1-.27.17-.43.17Z" style="fill: #66562c;"/>
          <path d="M14.14,42.28c-.16,0-.31-.07-.43-.17-.1-.12-.17-.28-.17-.43s.07-.31.17-.43c.23-.23.62-.23.85,0,.12.1.19.26.19.43s-.07.31-.17.43c-.12.1-.27.17-.43.17Z" style="fill: #66562c;"/>
          <path d="M8.1,48.75c-.16,0-.31-.07-.43-.17-.1-.12-.17-.28-.17-.43s.07-.31.17-.43c.21-.23.64-.23.86,0,.12.12.17.28.17.43s-.05.29-.17.41c-.12.12-.27.19-.43.19Z" style="fill: #66562c;"/>
          <path d="M33.12,60.4c-.15,0-.31-.07-.43-.17-.1-.12-.17-.28-.17-.43,0-.17.07-.33.19-.43.22-.23.62-.23.84,0,.1.1.17.26.17.43,0,.15-.07.31-.17.43-.12.1-.26.17-.43.17Z" style="fill: #66562c;"/>
          <path d="M25.78,50.05c-.15,0-.31-.07-.43-.17-.1-.12-.17-.28-.17-.43,0-.17.07-.33.19-.43.19-.21.6-.23.84,0,.1.1.17.26.17.43,0,.15-.07.31-.17.43-.12.1-.26.17-.43.17Z" style="fill: #66562c;"/>
          <path d="M49.51,40.13c-.15,0-.31-.07-.43-.17-.1-.12-.17-.28-.17-.43s.07-.31.17-.43c.23-.23.64-.23.86,0,.1.12.17.28.17.43s-.07.31-.17.43c-.12.1-.27.17-.43.17Z" style="fill: #66562c;"/>
          <path d="M71.51,40.99c-.15,0-.31-.07-.43-.17-.1-.12-.17-.28-.17-.43s.07-.31.17-.43c.23-.23.62-.23.86,0,.1.12.17.28.17.43s-.07.31-.17.43c-.12.1-.26.17-.43.17Z" style="fill: #66562c;"/>
          <path d="M69.79,44.44c-.15,0-.31-.07-.43-.17-.1-.12-.17-.28-.17-.43s.07-.31.17-.43c.23-.23.64-.23.86,0,.1.12.17.28.17.43s-.07.31-.17.43c-.12.1-.27.17-.43.17Z" style="fill: #66562c;"/>
          <path d="M52.1,60.4c-.15,0-.31-.07-.43-.17-.1-.12-.17-.28-.17-.43s.07-.31.17-.43c.23-.23.64-.23.86,0,.1.12.17.28.17.43s-.07.31-.17.43c-.12.1-.27.17-.43.17Z" style="fill: #66562c;"/>
          <path d="M15,23.3c-.16,0-.31-.07-.43-.17-.1-.12-.17-.28-.17-.43s.07-.31.17-.43c.21-.23.62-.23.86,0,.1.12.17.28.17.43s-.07.31-.17.43c-.12.1-.27.17-.43.17Z" style="fill: #66562c;"/>
          <path d="M20.61,20.28c-.15,0-.31-.07-.43-.17-.1-.12-.17-.28-.17-.43s.07-.31.17-.43c.23-.23.62-.23.85,0,.12.12.19.28.19.43s-.07.31-.17.43c-.12.1-.27.17-.43.17Z" style="fill: #66562c;"/>
          <path d="M24.06,28.48c-.15,0-.31-.07-.43-.17-.1-.12-.17-.28-.17-.43,0-.17.07-.33.19-.43.19-.21.6-.23.84,0,.1.1.17.26.17.43,0,.15-.07.31-.17.43-.12.1-.26.17-.43.17Z" style="fill: #66562c;"/>
          <path d="M8.96,32.36c-.16,0-.31-.07-.43-.17-.1-.12-.17-.28-.17-.43s.07-.31.17-.43c.21-.21.64-.23.86,0,.1.12.17.28.17.43s-.07.31-.17.43c-.12.1-.27.17-.43.17Z" style="fill: #66562c;"/>
          <path d="M6.37,3.46c-.16,0-.31-.07-.43-.17-.1-.12-.17-.28-.17-.43s.07-.31.17-.43c.21-.21.64-.23.86,0,.1.12.17.28.17.43s-.07.31-.17.43c-.12.1-.27.17-.43.17Z" style="fill: #66562c;"/>
          <path d="M25.78,12.52c-.15,0-.31-.07-.43-.17-.1-.12-.17-.28-.17-.43s.07-.31.17-.43c.23-.23.62-.23.85,0,.12.12.19.28.19.43s-.07.31-.17.43c-.12.1-.27.17-.43.17Z" style="fill: #66562c;"/>
          <path d="M35.71,21.15c-.15,0-.31-.07-.43-.17-.1-.12-.17-.28-.17-.43s.07-.33.17-.43c.23-.23.62-.23.85,0,.12.12.19.28.19.43s-.07.31-.17.43c-.12.1-.27.17-.43.17Z" style="fill: #66562c;"/>
          <path d="M40.45,51.77c-.15,0-.31-.07-.43-.17-.1-.12-.17-.28-.17-.43s.07-.33.17-.43c.21-.21.62-.23.85,0,.12.12.19.28.19.43s-.07.31-.17.43c-.12.1-.27.17-.43.17Z" style="fill: #66562c;"/>
          <path d="M5.08,64.29c-.16,0-.31-.07-.43-.17-.1-.12-.17-.28-.17-.43,0-.17.07-.33.19-.43.19-.21.6-.23.84,0,.1.1.17.26.17.43,0,.15-.07.31-.17.43-.12.1-.27.17-.43.17Z" style="fill: #66562c;"/>
          <path d="M68.06,71.62c-.15,0-.31-.07-.43-.17-.1-.12-.17-.28-.17-.43,0-.17.07-.31.17-.43.24-.23.62-.23.86,0,.1.12.17.28.17.43s-.07.31-.17.43c-.12.1-.26.17-.43.17Z" style="fill: #66562c;"/>
          <path d="M18.88,57.38c-.16,0-.31-.07-.43-.17-.1-.12-.17-.28-.17-.43s.07-.31.17-.43c.23-.23.6-.23.85,0,.12.12.19.28.19.43s-.07.31-.17.43c-.12.1-.27.17-.43.17Z" style="fill: #66562c;"/>
          <path d="M51.24,11.22c-.15,0-.31-.07-.43-.17-.1-.12-.17-.28-.17-.43s.07-.31.17-.43c.24-.23.62-.23.85,0,.12.12.19.28.19.43s-.07.31-.17.43c-.12.1-.27.17-.43.17Z" style="fill: #66562c;"/>
          <path d="M37.86,33.66c-.15,0-.31-.07-.43-.17-.1-.12-.17-.28-.17-.43s.07-.33.17-.43c.21-.21.62-.23.85,0,.12.12.19.28.19.43s-.07.31-.17.43c-.12.1-.27.17-.43.17Z" style="fill: #66562c;"/>
          <path d="M11.98,57.38c-.16,0-.31-.07-.43-.17-.1-.12-.17-.28-.17-.43,0-.17.07-.33.19-.43.19-.21.6-.23.84,0,.1.1.17.26.17.43,0,.15-.07.31-.17.43-.12.1-.27.17-.43.17Z" style="fill: #66562c;"/>
          <path d="M43.9,12.09c-.15,0-.31-.07-.43-.17-.1-.12-.17-.28-.17-.43s.07-.31.17-.43c.24-.23.62-.23.85,0,.12.12.19.28.19.43s-.07.31-.17.43c-.12.1-.27.17-.43.17Z" style="fill: #66562c;"/>
          <path d="M39.16,17.69c-.15,0-.31-.07-.43-.17-.1-.12-.17-.28-.17-.43s.07-.31.17-.43c.24-.23.62-.23.86,0,.1.12.17.28.17.43s-.07.31-.17.43c-.12.1-.27.17-.43.17Z" style="fill: #66562c;"/>
          <path d="M29.23,17.69c-.15,0-.31-.07-.43-.17-.1-.12-.17-.28-.17-.43,0-.17.07-.33.19-.43.19-.21.6-.23.84,0,.1.1.17.26.17.43,0,.15-.07.31-.17.43-.12.1-.27.17-.43.17Z" style="fill: #66562c;"/>
          <path d="M14.14,8.2c-.16,0-.31-.07-.43-.17-.1-.12-.17-.28-.17-.43s.07-.31.17-.43c.23-.23.62-.23.85,0,.12.1.19.26.19.43,0,.15-.07.31-.17.43-.12.1-.27.17-.43.17Z" style="fill: #66562c;"/>
          <path d="M21.04,2.16c-.15,0-.31-.07-.43-.17-.1-.12-.17-.28-.17-.43s.07-.31.17-.43c.23-.23.62-.23.85,0,.12.12.19.28.19.43s-.07.31-.17.43c-.12.1-.27.17-.43.17Z" style="fill: #66562c;"/>
          <path d="M28.37,2.16c-.15,0-.31-.07-.43-.17-.1-.12-.17-.28-.17-.43,0-.17.07-.33.19-.43.19-.21.6-.23.84,0,.1.1.17.26.17.43,0,.15-.07.31-.17.43-.12.1-.27.17-.43.17Z" style="fill: #66562c;"/>
          <path d="M48.22,0c-.15,0-.31-.07-.43-.17-.1-.12-.17-.28-.17-.43s.07-.31.17-.43c.24-.23.62-.23.85,0,.12.12.19.28.19.43s-.07.31-.17.43c-.12.1-.27.17-.43.17Z" style="fill: #66562c;"/>
          <path d="M67.63.87c-.15,0-.31-.07-.43-.17-.1-.12-.17-.28-.17-.43s.07-.31.17-.43c.23-.23.62-.23.86,0,.1.12.17.28.17.43s-.07.31-.17.43c-.12.1-.27.17-.43.17Z" style="fill: #66562c;"/>
          <path d="M65.47,6.91c-.15,0-.31-.07-.43-.17-.1-.12-.17-.28-.17-.43,0-.17.07-.31.17-.43.24-.23.62-.23.85,0,.12.12.19.28.19.43s-.07.31-.17.43c-.12.1-.27.17-.43.17Z" style="fill: #66562c;"/>
          <path d="M71.51,13.81c-.15,0-.31-.07-.43-.17-.1-.12-.17-.28-.17-.43s.07-.31.17-.43c.24-.23.62-.23.85,0,.12.12.19.28.19.43s-.07.31-.17.43c-.12.1-.27.17-.43.17Z" style="fill: #66562c;"/>
          <path d="M46.49,18.99c-.15,0-.31-.07-.43-.17-.1-.12-.17-.28-.17-.43s.07-.31.17-.43c.24-.23.62-.23.85,0,.12.12.19.28.19.43s-.07.31-.17.43c-.12.1-.27.17-.43.17Z" style="fill: #66562c;"/>
          <path d="M18.02,34.95c-.16,0-.31-.07-.43-.17-.1-.12-.17-.28-.17-.43s.07-.31.17-.43c.23-.23.62-.23.85,0,.12.12.19.28.19.43s-.07.31-.17.43c-.12.1-.27.17-.43.17Z" style="fill: #66562c;"/>
          <path d="M31.39,42.72c-.15,0-.31-.07-.43-.17-.1-.12-.17-.28-.17-.43s.07-.31.17-.43c.21-.21.62-.23.86,0,.1.12.17.28.17.43s-.07.31-.17.43c-.12.1-.27.17-.43.17Z" style="fill: #66562c;"/>
          <path d="M21.9,45.74c-.15,0-.31-.07-.43-.17-.1-.12-.17-.28-.17-.43,0-.17.07-.33.19-.43.19-.21.6-.23.84,0,.1.1.17.26.17.43s-.07.31-.17.43c-.12.1-.27.17-.43.17Z" style="fill: #66562c;"/>
          <path d="M12.84,51.77c-.16,0-.31-.07-.43-.17-.1-.12-.17-.28-.17-.43s.07-.31.17-.43c.21-.21.64-.23.86,0,.1.12.17.26.17.43,0,.15-.07.31-.17.43-.12.1-.27.17-.43.17Z" style="fill: #66562c;"/>
          <path d="M9.39,23.3c-.16,0-.31-.07-.43-.17-.1-.12-.17-.28-.17-.43s.07-.31.17-.43c.21-.21.62-.23.86,0,.1.12.17.28.17.43s-.07.31-.17.43c-.12.1-.27.17-.43.17Z" style="fill: #66562c;"/>
          <path d="M39.16,40.99c-.15,0-.31-.07-.43-.17-.1-.12-.17-.28-.17-.43,0-.17.07-.33.19-.43.22-.23.6-.23.84,0,.1.1.17.26.17.43,0,.15-.07.31-.17.43-.12.1-.27.17-.43.17Z" style="fill: #66562c;"/>
          <path d="M33.98,49.19c-.15,0-.31-.07-.43-.17-.1-.12-.17-.28-.17-.43s.07-.31.17-.43c.24-.23.62-.23.86,0,.1.12.17.28.17.43s-.07.31-.17.43c-.12.1-.27.17-.43.17Z" style="fill: #66562c;"/>
          <path d="M31.39,55.23c-.15,0-.31-.07-.43-.17-.1-.12-.17-.28-.17-.43,0-.17.07-.33.19-.43.19-.21.6-.23.84,0,.1.1.17.26.17.43,0,.15-.07.31-.17.43-.12.1-.26.17-.43.17Z" style="fill: #66562c;"/>
          <path d="M25.78,59.11c-.15,0-.31-.07-.43-.17-.1-.12-.17-.28-.17-.43,0-.17.07-.33.19-.43.19-.21.6-.23.84,0,.1.1.17.26.17.43,0,.15-.07.31-.17.43-.12.1-.27.17-.43.17Z" style="fill: #66562c;"/>
          <path d="M25.78,68.17c-.15,0-.31-.07-.43-.17-.1-.12-.17-.28-.17-.43,0-.17.07-.33.19-.43.19-.21.6-.23.84,0,.1.1.17.26.17.43,0,.15-.07.31-.17.43-.12.1-.27.17-.43.17Z" style="fill: #66562c;"/>
          <path d="M13.7,71.62c-.16,0-.31-.07-.43-.17-.1-.12-.17-.28-.17-.43s.07-.31.17-.43c.21-.21.64-.23.86,0,.1.12.17.28.17.43s-.07.31-.17.43c-.12.1-.27.17-.43.17Z" style="fill: #66562c;"/>
          <path d="M49.08,70.32c-.15,0-.31-.07-.43-.17-.1-.12-.17-.28-.17-.43s.07-.31.17-.43c.23-.23.62-.23.86,0,.1.12.17.28.17.43s-.07.31-.17.43c-.12.1-.27.17-.43.17Z" style="fill: #66562c;"/>
          <path d="M48.22,62.99c-.15,0-.31-.07-.43-.17-.1-.12-.17-.28-.17-.43s.07-.31.17-.43c.23-.23.62-.23.86,0,.1.12.17.28.17.43s-.07.31-.17.43c-.12.1-.27.17-.43.17Z" style="fill: #66562c;"/>
          <path d="M59.43,41.42c-.15,0-.31-.07-.43-.17-.1-.12-.17-.28-.17-.43,0-.17.07-.33.19-.43.21-.23.6-.23.84,0,.1.1.17.26.17.43,0,.15-.07.31-.17.43-.12.1-.27.17-.43.17Z" style="fill: #66562c;"/>
          <path d="M62.88,35.81c-.15,0-.31-.07-.43-.17-.1-.12-.17-.28-.17-.43s.05-.31.17-.43c.23-.23.62-.23.86,0,.1.12.17.28.17.43s-.07.31-.17.43c-.12.1-.26.17-.43.17Z" style="fill: #66562c;"/>
          <path d="M66.77,21.15c-.15,0-.31-.07-.43-.17-.12-.14-.17-.28-.17-.43s.05-.31.17-.41c.28-.26.64-.24.86-.02.1.12.17.28.17.43s-.07.31-.17.43c-.12.1-.27.17-.43.17Z" style="fill: #66562c;"/>
          <path d="M51.67,26.32c-.15,0-.31-.07-.43-.17-.1-.12-.17-.28-.17-.43s.07-.31.17-.43c.23-.23.64-.23.86,0,.1.12.17.28.17.43s-.07.31-.17.43c-.12.1-.27.17-.43.17Z" style="fill: #66562c;"/>
          <path d="M62.45,59.54c-.15,0-.31-.07-.43-.17-.1-.12-.17-.28-.17-.43s.07-.31.17-.43c.24-.23.62-.23.86,0,.1.12.17.28.17.43s-.07.31-.17.43c-.12.1-.27.17-.43.17Z" style="fill: #66562c;"/>
          <path d="M8.96,38.83c-.16,0-.31-.07-.43-.17-.1-.12-.17-.28-.17-.43s.07-.31.17-.43c.21-.21.62-.23.86,0,.1.12.17.28.17.43s-.07.31-.17.43c-.12.1-.27.17-.43.17Z" style="fill: #66562c;"/>
          <path d="M5.94,16.83c-.16,0-.31-.07-.43-.17-.1-.12-.17-.28-.17-.43s.07-.31.17-.43c.21-.21.62-.23.86,0,.1.12.17.28.17.43s-.07.31-.17.43c-.12.1-.27.17-.43.17Z" style="fill: #66562c;"/>
          <path d="M34.84,10.45c-.29,0-.57-.12-.79-.33-.21-.22-.33-.5-.33-.79s.12-.59.33-.79c.41-.41,1.17-.41,1.59,0,.21.21.33.5.33.79s-.12.59-.33.79c-.21.21-.5.33-.79.33Z" style="fill: #66562c;"/>
          <path d="M54.26,7c-.29,0-.59-.12-.79-.33-.21-.22-.33-.5-.33-.79s.12-.59.33-.79c.43-.43,1.16-.41,1.59,0,.21.21.33.5.33.79s-.12.57-.33.79c-.22.21-.5.33-.79.33Z" style="fill: #66562c;"/>
          <path d="M17.59,69.55c-.31,0-.59-.12-.79-.33-.21-.22-.33-.5-.33-.79s.12-.59.33-.79c.41-.41,1.17-.41,1.59,0,.21.21.33.5.33.79s-.12.57-.33.79c-.21.21-.48.33-.79.33Z" style="fill: #66562c;"/>
          <path d="M40.02,66.53c-.29,0-.59-.12-.79-.33-.21-.21-.33-.5-.33-.79,0-.31.12-.59.33-.79.4-.41,1.17-.43,1.59,0,.21.21.33.5.33.79s-.12.57-.33.79c-.21.21-.48.33-.79.33Z" style="fill: #66562c;"/>
          <path d="M47.35,30.72c-.29,0-.59-.12-.79-.33-.21-.22-.33-.5-.33-.79s.12-.59.33-.79c.4-.41,1.17-.41,1.59,0,.21.21.33.5.33.79s-.12.57-.33.79c-.21.21-.5.33-.79.33Z" style="fill: #66562c;"/>
          <path d="M64.61,28.57c-.31,0-.59-.12-.79-.33-.21-.21-.33-.5-.33-.79s.12-.59.33-.79c.41-.41,1.17-.41,1.59,0,.21.21.33.48.33.79s-.12.59-.33.79c-.21.21-.48.33-.79.33Z" style="fill: #66562c;"/>
          <path d="M67.63,65.24c-.29,0-.59-.12-.79-.33-.21-.22-.33-.5-.33-.79s.12-.59.33-.79c.41-.41,1.17-.41,1.59,0,.21.21.33.5.33.79s-.12.57-.33.79c-.21.21-.5.33-.79.33Z" style="fill: #66562c;"/>
          <path d="M33.12,37.63c-.29,0-.59-.12-.79-.33-.21-.21-.33-.5-.33-.79s.12-.59.33-.79c.43-.41,1.17-.41,1.59,0,.21.21.33.5.33.79s-.12.59-.33.79c-.21.21-.48.33-.79.33Z" style="fill: #66562c;"/>
          <path d="M23.2,51.86c-.29,0-.59-.12-.79-.33-.21-.21-.33-.5-.33-.79,0-.31.12-.59.33-.79.43-.43,1.19-.41,1.59,0,.21.21.33.5.33.79s-.12.59-.33.79c-.21.21-.5.33-.79.33Z" style="fill: #66562c;"/>
          <path d="M16.29,15.63c-.31,0-.59-.12-.79-.35-.21-.19-.33-.48-.33-.78s.12-.59.33-.79c.41-.41,1.17-.43,1.59,0,.21.21.33.5.33.79s-.12.59-.33.79c-.21.21-.48.33-.79.33Z" style="fill: #66562c;"/>
          <path d="M41.75,60.49c-.29,0-.59-.12-.79-.33-.21-.21-.33-.48-.33-.79s.12-.59.33-.79c.41-.41,1.16-.41,1.59,0,.21.21.33.5.33.79s-.12.59-.33.79c-.21.21-.5.33-.79.33Z" style="fill: #66562c;"/>
          <path d="M45.2,38.49c-.29,0-.59-.12-.79-.33-.21-.22-.33-.5-.33-.79s.12-.59.33-.79c.4-.41,1.17-.43,1.59,0,.21.21.33.48.33.79,0,.29-.12.59-.33.79-.21.21-.5.33-.79.33Z" style="fill: #66562c;"/>
          <path d="M62.45,16.06c-.29,0-.59-.12-.79-.33-.21-.22-.33-.5-.33-.79,0-.31.12-.59.33-.79.41-.41,1.19-.41,1.59,0,.21.21.33.48.33.79,0,.29-.12.59-.33.79-.21.21-.5.33-.79.33Z" style="fill: #66562c;"/>
          <path d="M25.78,21.66c-.29,0-.59-.12-.79-.33-.21-.21-.33-.5-.33-.79s.12-.59.33-.79c.43-.43,1.17-.41,1.59,0,.21.21.33.5.33.79s-.12.59-.33.79c-.21.21-.5.33-.79.33Z" style="fill: #66562c;"/>
          <path d="M8.53,11.31c-.31,0-.59-.12-.79-.35-.21-.19-.33-.48-.33-.78s.12-.59.33-.79c.41-.43,1.17-.41,1.59,0,.21.21.33.5.33.79s-.12.59-.33.79c-.21.21-.48.33-.79.33Z" style="fill: #66562c;"/>
          <path d="M8.53,43.67c-.31,0-.59-.12-.79-.33-.21-.21-.33-.5-.33-.79s.12-.59.33-.79c.41-.41,1.19-.41,1.59,0,.21.21.33.5.33.79s-.12.59-.33.79c-.21.21-.5.33-.79.33Z" style="fill: #66562c;"/>
          <path d="M16.72,31.59c-.31,0-.59-.12-.79-.33-.21-.21-.33-.5-.33-.79s.12-.59.33-.79c.41-.41,1.17-.41,1.59,0,.21.21.33.48.33.79,0,.29-.12.59-.33.79-.21.21-.48.33-.79.33Z" style="fill: #66562c;"/>
          <path d="M10.68,69.12c-.29,0-.59-.12-.79-.33-.21-.22-.33-.5-.33-.79s.12-.59.33-.79c.4-.41,1.16-.43,1.59,0,.21.21.33.5.33.79s-.12.57-.33.79c-.21.21-.48.33-.79.33Z" style="fill: #66562c;"/>
          <path d="M57.71,53.16c-.29,0-.59-.12-.79-.33-.21-.22-.33-.5-.33-.79s.12-.59.33-.79c.41-.41,1.17-.41,1.59,0,.21.21.33.5.33.79s-.12.57-.33.79c-.21.21-.5.33-.79.33Z" style="fill: #66562c;"/>
          <path d="M48.65,47.12c-.29,0-.59-.12-.79-.33-.21-.21-.33-.5-.33-.79s.12-.59.33-.79c.43-.43,1.17-.41,1.59,0,.21.21.33.5.33.79s-.12.59-.33.79c-.21.21-.5.33-.79.33Z" style="fill: #66562c;"/>
          <path d="M68.06,37.63c-.29,0-.59-.12-.79-.33-.21-.22-.33-.5-.33-.79s.12-.59.33-.79c.41-.41,1.16-.41,1.59,0,.21.21.33.5.33.79s-.12.57-.33.79c-.21.21-.5.33-.79.33Z" style="fill: #66562c;"/>
          <path d="M7.32,16.61c-.15,0-.31-.07-.43-.17-.1-.12-.17-.28-.17-.43s.07-.31.17-.43c.24-.23.62-.23.85,0,.12.12.19.28.19.43s-.07.31-.17.43c-.12.1-.27.17-.43.17Z" style="fill: #66562c;"/>
          <path d="M8.18,12.29c-.15,0-.31-.07-.43-.17-.1-.12-.17-.28-.17-.43,0-.17.07-.33.19-.43.21-.23.6-.23.84,0,.1.1.17.26.17.43,0,.15-.07.31-.17.43-.12.1-.26.17-.43.17Z" style="fill: #66562c;"/>
          <path d="M4.73,3.67c-.15,0-.31-.07-.43-.17-.1-.12-.17-.28-.17-.43s.07-.31.17-.43c.24-.23.62-.23.85,0,.12.12.19.28.19.43s-.07.31-.17.43c-.12.1-.27.17-.43.17Z" style="fill: #66562c;"/>
          <path d="M12.93,6.25c-.15,0-.31-.07-.43-.17-.1-.12-.17-.28-.17-.43s.07-.31.17-.43c.24-.23.62-.23.85,0,.12.12.19.28.19.43s-.07.31-.17.43c-.12.1-.27.17-.43.17Z" style="fill: #66562c;"/>
          <path d="M35.36.21c-.15,0-.31-.07-.43-.17-.1-.12-.17-.28-.17-.43,0-.17.07-.33.19-.43.21-.23.62-.23.84,0,.1.12.17.28.17.43s-.07.29-.17.41c-.12.12-.27.19-.43.19Z" style="fill: #66562c;"/>
          <path d="M21.56,7.98c-.15,0-.31-.07-.43-.17-.1-.12-.17-.28-.17-.43s.07-.31.17-.43c.24-.23.62-.23.85,0,.12.1.19.28.19.43s-.07.31-.17.43c-.12.1-.27.17-.43.17Z" style="fill: #66562c;"/>
          <path d="M64.7,6.25c-.15,0-.31-.07-.43-.19-.1-.1-.17-.26-.17-.41s.07-.31.17-.43c.23-.23.64-.23.86,0,.1.12.17.28.17.43,0,.17-.07.31-.19.43-.1.1-.26.17-.41.17Z" style="fill: #66562c;"/>
          <path d="M68.58,6.25c-.15,0-.31-.07-.43-.17-.1-.12-.17-.28-.17-.43,0-.17.07-.33.19-.43.19-.21.6-.23.84,0,.1.1.17.26.17.43,0,.15-.07.31-.17.43-.12.1-.27.17-.43.17Z" style="fill: #66562c;"/>
          <path d="M71.6,8.84c-.15,0-.31-.07-.43-.17-.1-.12-.17-.28-.17-.43s.07-.31.17-.43c.23-.23.62-.23.86,0,.1.12.17.28.17.43s-.07.31-.17.43c-.12.1-.27.17-.43.17Z" style="fill: #66562c;"/>
          <path d="M10.34,59.75c-.15,0-.31-.07-.43-.17-.1-.12-.17-.28-.17-.43,0-.17.07-.33.19-.43.21-.23.6-.23.84,0,.1.1.17.26.17.43,0,.15-.07.31-.17.43-.12.1-.27.17-.43.17Z" style="fill: #66562c;"/>
          <path d="M1.28,65.79c-.15,0-.31-.07-.43-.17-.1-.12-.17-.28-.17-.43s.07-.31.17-.43c.23-.23.62-.23.86,0,.1.12.17.28.17.43s-.07.31-.17.43c-.12.1-.27.17-.43.17Z" style="fill: #66562c;"/>
          <path d="M9.48,68.37c-.15,0-.31-.07-.43-.17-.1-.12-.17-.28-.17-.43s.07-.31.17-.43c.23-.23.62-.23.86,0,.1.12.17.28.17.43s-.07.31-.17.43c-.12.1-.27.17-.43.17Z" style="fill: #66562c;"/>
          <path d="M9.48,71.39c-.15,0-.31-.07-.41-.17-.12-.12-.19-.28-.19-.43,0-.17.07-.33.17-.43.23-.23.62-.23.86,0,.1.1.17.26.17.43,0,.15-.07.31-.17.43-.12.1-.27.17-.43.17Z" style="fill: #66562c;"/>
          <path d="M12.93,72.69c-.15,0-.31-.07-.43-.17-.1-.12-.17-.28-.17-.43s.07-.31.17-.43c.23-.23.64-.23.86,0,.1.12.17.28.17.43s-.07.31-.17.43c-.12.1-.27.17-.43.17Z" style="fill: #66562c;"/>
          <path d="M16.38,69.24c-.15,0-.31-.07-.43-.17-.1-.12-.17-.28-.17-.43s.07-.31.17-.43c.26-.23.62-.23.85,0,.12.12.19.28.19.43s-.07.31-.17.43c-.12.1-.27.17-.43.17Z" style="fill: #66562c;"/>
          <path d="M21.99,68.81c-.15,0-.31-.07-.41-.17-.12-.12-.19-.28-.19-.43s.07-.31.17-.43c.24-.23.62-.23.86,0,.1.12.17.28.17.43s-.07.31-.17.43c-.12.1-.27.17-.43.17Z" style="fill: #66562c;"/>
          <path d="M26.3,59.75c-.15,0-.31-.07-.43-.17-.1-.12-.17-.28-.17-.43s.07-.31.17-.43c.24-.23.62-.23.86,0,.1.12.17.28.17.43s-.07.31-.17.43c-.12.1-.27.17-.43.17Z" style="fill: #66562c;"/>
          <path d="M29.32,49.39c-.15,0-.31-.07-.43-.19-.1-.1-.17-.26-.17-.41s.07-.31.17-.43c.23-.23.62-.23.86,0,.1.12.17.28.17.43s-.07.31-.17.43c-.12.1-.27.17-.43.17Z" style="fill: #66562c;"/>
          <path d="M42.26,59.32c-.15,0-.31-.07-.43-.17-.12-.14-.17-.28-.17-.43s.07-.31.17-.43c.24-.24.62-.23.86,0,.1.12.17.28.17.43s-.07.31-.17.43c-.12.1-.27.17-.43.17Z" style="fill: #66562c;"/>
          <path d="M43.99,52.41c-.15,0-.31-.07-.43-.19-.1-.1-.17-.26-.17-.41,0-.17.07-.33.19-.43.19-.21.6-.23.84,0,.1.1.17.26.17.43,0,.15-.07.31-.17.43-.12.1-.27.17-.43.17Z" style="fill: #66562c;"/>
          <path d="M49.17,53.28c-.17,0-.33-.07-.43-.19-.1-.1-.17-.26-.17-.41s.07-.33.17-.43c.23-.23.62-.23.85,0,.12.12.19.26.19.43,0,.15-.07.31-.17.43-.12.1-.27.17-.43.17Z" style="fill: #66562c;"/>
          <path d="M49.17,65.79c-.17,0-.33-.07-.43-.19-.1-.1-.17-.26-.17-.41,0-.17.07-.33.19-.43.19-.21.6-.23.84,0,.1.1.17.26.17.43,0,.15-.07.31-.17.43-.12.1-.27.17-.43.17Z" style="fill: #66562c;"/>
          <path d="M42.69,69.24c-.15,0-.31-.07-.43-.17-.1-.12-.17-.28-.17-.43s.07-.31.17-.43c.23-.23.64-.23.86,0,.12.12.17.28.17.43s-.07.31-.17.43c-.12.1-.26.17-.43.17Z" style="fill: #66562c;"/>
          <path d="M21.56,14.88c-.15,0-.31-.07-.43-.17-.1-.12-.17-.28-.17-.43s.07-.31.17-.43c.23-.23.64-.23.86,0,.1.12.17.28.17.43s-.07.31-.17.43c-.12.1-.27.17-.43.17Z" style="fill: #66562c;"/>
          <path d="M34.07,22.22c-.15,0-.31-.07-.43-.17-.12-.12-.17-.28-.17-.43s.07-.31.17-.41c.26-.26.62-.24.85-.02.12.12.19.28.19.43s-.07.31-.17.43c-.12.1-.27.17-.43.17Z" style="fill: #66562c;"/>
          <path d="M49.6,20.49c-.15,0-.31-.07-.43-.17-.1-.12-.17-.28-.17-.43s.07-.31.17-.43c.21-.21.62-.24.86,0,.1.12.17.28.17.43s-.07.31-.17.43c-.12.1-.27.17-.43.17Z" style="fill: #66562c;"/>
          <path d="M42.69,15.74c-.15,0-.31-.07-.43-.17-.1-.12-.17-.28-.17-.43s.07-.31.17-.43c.23-.23.64-.23.86,0,.12.12.17.28.17.43s-.07.31-.17.43c-.12.1-.27.17-.43.17Z" style="fill: #66562c;"/>
          <path d="M43.99,23.08c-.17,0-.31-.07-.43-.17-.1-.12-.17-.28-.17-.43s.07-.31.17-.43c.24-.23.62-.23.85,0,.12.12.19.28.19.43s-.07.31-.17.43c-.12.1-.27.17-.43.17Z" style="fill: #66562c;"/>
          <path d="M62.11,33.43c-.15,0-.31-.07-.43-.17-.1-.12-.17-.28-.17-.43,0-.17.07-.33.19-.43.19-.21.62-.23.84.02.1.09.17.24.17.41,0,.15-.07.31-.17.43-.12.1-.27.17-.43.17Z" style="fill: #66562c;"/>
          <path d="M52.19,39.47c-.15,0-.31-.07-.43-.17-.1-.12-.17-.28-.17-.43s.07-.31.17-.43c.23-.23.62-.23.85,0,.12.12.19.28.19.43s-.07.31-.17.43c-.12.1-.27.17-.43.17Z" style="fill: #66562c;"/>
          <path d="M37.52,36.45c-.15,0-.31-.07-.41-.17-.12-.12-.19-.28-.19-.43s.07-.31.17-.43c.21-.23.64-.23.86.02.1.1.17.24.17.41,0,.15-.07.31-.17.43-.12.1-.27.17-.43.17Z" style="fill: #66562c;"/>
          <path d="M37.09,43.35c-.17,0-.33-.07-.43-.19-.1-.1-.17-.26-.17-.41s.07-.31.17-.43c.21-.21.62-.23.86,0,.1.12.17.28.17.43s-.07.31-.17.43c-.12.1-.27.17-.43.17Z" style="fill: #66562c;"/>
          <path d="M46.58,49.82c-.15,0-.33-.07-.43-.19-.1-.09-.17-.24-.17-.41s.07-.31.19-.43c.19-.21.6-.23.84,0,.1.12.17.28.17.43s-.07.31-.17.43c-.12.1-.27.17-.43.17Z" style="fill: #66562c;"/>
          <path d="M61.68,55c-.15,0-.31-.07-.43-.17-.1-.12-.17-.28-.17-.43,0-.17.07-.33.19-.43.19-.21.62-.23.84.02.1.09.17.24.17.41,0,.15-.07.31-.17.43-.12.1-.27.17-.43.17Z" style="fill: #66562c;"/>
          <path d="M66.42,61.47c-.15,0-.31-.07-.43-.17-.1-.12-.17-.28-.17-.43,0-.17.07-.33.19-.43.19-.21.6-.23.84,0,.1.1.17.26.17.43,0,.15-.07.31-.17.43-.12.1-.27.17-.43.17Z" style="fill: #66562c;"/>
          <path d="M57.79,39.47c-.17,0-.33-.07-.43-.19-.1-.1-.17-.26-.17-.41s.07-.33.19-.43c.21-.23.6-.23.84,0,.1.12.17.28.17.43s-.07.31-.17.43c-.12.1-.26.17-.43.17Z" style="fill: #66562c;"/>
          <path d="M10.34,53.28c-.15,0-.31-.07-.43-.17-.1-.12-.17-.28-.17-.43s.07-.31.17-.43c.24-.23.62-.23.85,0,.12.12.19.28.19.43s-.07.31-.17.43c-.12.1-.27.17-.43.17Z" style="fill: #66562c;"/>
          <path d="M-.45,37.31c-.15,0-.31-.07-.43-.17-.1-.12-.17-.28-.17-.43s.07-.31.17-.43c.24-.23.62-.23.85,0,.12.12.19.28.19.43s-.07.31-.17.43c-.12.1-.27.17-.43.17Z" style="fill: #66562c;"/>
          <path d="M5.59,33.43c-.15,0-.31-.07-.41-.17-.12-.12-.19-.28-.19-.43,0-.17.07-.33.19-.43.21-.21.62-.23.84,0,.1.1.17.26.17.43,0,.15-.07.31-.17.43-.12.1-.27.17-.43.17Z" style="fill: #66562c;"/>
          <path d="M-.01,24.37c-.15,0-.31-.07-.43-.17-.1-.12-.17-.28-.17-.43s.07-.31.17-.43c.23-.23.64-.23.86,0,.1.12.17.28.17.43s-.07.31-.17.43c-.12.1-.27.17-.43.17Z" style="fill: #66562c;"/>
          <path d="M21.99,25.24c-.15,0-.31-.07-.43-.17-.1-.12-.17-.28-.17-.43s.07-.31.17-.43c.23-.23.62-.23.86,0,.1.12.17.28.17.43s-.07.31-.17.43c-.12.1-.26.17-.43.17Z" style="fill: #66562c;"/>
          <path d="M20.26,28.69c-.15,0-.31-.07-.43-.17-.1-.12-.17-.28-.17-.43s.07-.31.17-.43c.23-.23.64-.23.86,0,.1.12.17.28.17.43s-.07.31-.17.43c-.12.1-.27.17-.43.17Z" style="fill: #66562c;"/>
          <path d="M2.57,44.65c-.15,0-.31-.07-.43-.17-.1-.12-.17-.28-.17-.43s.07-.31.17-.43c.23-.23.64-.23.86,0,.1.12.17.28.17.43s-.07.31-.17.43c-.12.1-.27.17-.43.17Z" style="fill: #66562c;"/>
          <path d="M65.13,23.08c-.15,0-.31-.07-.41-.17-.12-.12-.19-.28-.19-.43s.07-.31.17-.43c.23-.23.62-.23.85,0,.12.12.19.28.19.43s-.07.31-.17.43c-.12.1-.27.17-.43.17Z" style="fill: #66562c;"/>
          <path d="M18.54,55.86c-.15,0-.31-.07-.43-.17-.1-.12-.17-.28-.17-.43,0-.17.07-.31.17-.43.24-.23.62-.23.86,0,.1.12.17.28.17.43s-.07.31-.17.43c-.12.1-.26.17-.43.17Z" style="fill: #66562c;"/>
          <path d="M44.42,37.75c-.15,0-.31-.07-.43-.19-.1-.1-.17-.26-.17-.41,0-.17.07-.33.19-.43.19-.21.6-.23.84,0,.1.1.17.26.17.43,0,.15-.07.31-.17.43-.12.1-.27.17-.43.17Z" style="fill: #66562c;"/>
          <path d="M59.09,51.55c-.15,0-.31-.07-.43-.17-.1-.12-.17-.28-.17-.43,0-.17.07-.33.19-.43.19-.21.6-.23.84,0,.1.1.17.26.17.43,0,.15-.07.31-.17.43-.12.1-.27.17-.43.17Z" style="fill: #66562c;"/>
          <path d="M23.28,37.31c-.15,0-.31-.07-.43-.17-.1-.12-.17-.28-.17-.43s.07-.31.17-.43c.26-.23.62-.23.85,0,.12.12.19.28.19.43s-.07.31-.17.43c-.12.1-.27.17-.43.17Z" style="fill: #66562c;"/>
          <path d="M-.45,54.57c-.15,0-.31-.07-.43-.17-.1-.12-.17-.28-.17-.43s.07-.31.17-.43c.23-.23.62-.23.86,0,.1.12.17.28.17.43s-.07.31-.17.43c-.12.1-.27.17-.43.17Z" style="fill: #66562c;"/>
          <path d="M9.91,25.67c-.15,0-.31-.07-.43-.17-.1-.12-.17-.28-.17-.43,0-.17.07-.33.19-.43.21-.23.6-.23.84,0,.1.1.17.26.17.43,0,.15-.07.31-.17.43-.12.1-.27.17-.43.17Z" style="fill: #66562c;"/>
          <path d="M13.36,20.06c-.15,0-.31-.07-.43-.17-.1-.12-.17-.28-.17-.43s.05-.31.17-.43c.23-.23.62-.23.86,0,.1.12.17.28.17.43s-.07.31-.17.43c-.12.1-.26.17-.43.17Z" style="fill: #66562c;"/>
          <path d="M26.3,16.61c-.15,0-.31-.07-.43-.17-.1-.12-.17-.28-.17-.43s.07-.31.17-.43c.23-.23.64-.23.86,0,.1.12.17.28.17.43s-.07.31-.17.43c-.12.1-.27.17-.43.17Z" style="fill: #66562c;"/>
          <path d="M28.46,7.98c-.15,0-.31-.07-.43-.19-.1-.1-.17-.24-.17-.41,0-.15.07-.31.17-.43.23-.23.62-.23.86,0,.1.12.17.28.17.43,0,.17-.07.31-.19.43-.1.1-.26.17-.41.17Z" style="fill: #66562c;"/>
          <path d="M17.24,5.39c-.15,0-.31-.07-.43-.17-.12-.14-.17-.28-.17-.43s.05-.31.17-.41c.28-.26.64-.24.86-.02.1.12.17.28.17.43s-.07.31-.17.43c-.12.1-.27.17-.43.17Z" style="fill: #66562c;"/>
          <path d="M2.14,10.57c-.15,0-.31-.07-.43-.17-.1-.12-.17-.28-.17-.43s.07-.31.17-.43c.23-.23.64-.23.86,0,.1.12.17.28.17.43s-.07.31-.17.43c-.12.1-.27.17-.43.17Z" style="fill: #66562c;"/>
          <path d="M43.99,10.14c-.17,0-.33-.07-.43-.19-.1-.1-.17-.26-.17-.41s.07-.31.17-.43c.24-.23.62-.23.85,0,.12.12.19.28.19.43s-.07.31-.17.43c-.12.1-.26.17-.43.17Z" style="fill: #66562c;"/>
          <path d="M28.89,2.8c-.15,0-.33-.07-.43-.17-.1-.12-.17-.28-.17-.43s.07-.31.17-.43c.21-.21.62-.23.86,0,.1.12.17.28.17.43s-.07.31-.17.43c-.12.1-.27.17-.43.17Z" style="fill: #66562c;"/>
          <path d="M41.4,3.23c-.17,0-.31-.07-.43-.17-.1-.12-.17-.28-.17-.43s.07-.31.17-.43c.24-.23.62-.23.85,0,.12.12.19.28.19.43s-.07.31-.17.43c-.12.1-.27.17-.43.17Z" style="fill: #66562c;"/>
          <path d="M56.93,1.94c-.15,0-.31-.07-.43-.17-.1-.12-.17-.28-.17-.43,0-.17.07-.33.19-.43.19-.21.6-.23.84,0,.1.1.17.26.17.43,0,.15-.07.31-.17.43-.12.1-.27.17-.43.17Z" style="fill: #66562c;"/>
          <path d="M58.22,13.16c-.15,0-.31-.07-.43-.17-.1-.12-.17-.28-.17-.43s.07-.31.17-.43c.21-.23.64-.23.86,0,.1.12.17.28.17.43s-.07.31-.17.43c-.12.1-.27.17-.43.17Z" style="fill: #66562c;"/>
          <path d="M50.03,13.16c-.15,0-.31-.07-.43-.17-.1-.12-.17-.28-.17-.43s.07-.31.17-.43c.21-.21.64-.23.86,0,.1.12.17.28.17.43s-.07.31-.17.43c-.12.1-.27.17-.43.17Z" style="fill: #66562c;"/>
          <path d="M50.03,4.53c-.15,0-.33-.07-.43-.19-.1-.1-.17-.26-.17-.41,0-.17.07-.33.19-.43.19-.21.6-.23.84,0,.1.1.17.26.17.43,0,.15-.07.31-.17.43-.12.1-.27.17-.43.17Z" style="fill: #66562c;"/>
          <path d="M66.42,16.61c-.15,0-.31-.07-.43-.17-.1-.12-.17-.28-.17-.43,0-.17.07-.33.19-.43.19-.21.6-.23.84,0,.1.1.17.26.17.43,0,.15-.07.31-.17.43-.12.1-.27.17-.43.17Z" style="fill: #66562c;"/>
          <path d="M53.91,25.24c-.17,0-.33-.07-.43-.19-.1-.1-.17-.26-.17-.41,0-.17.07-.33.19-.43.19-.21.6-.23.84,0,.1.1.17.26.17.43,0,.15-.07.31-.17.43-.12.1-.27.17-.43.17Z" style="fill: #66562c;"/>
          <path d="M45.28,28.69c-.15,0-.31-.07-.43-.19-.1-.1-.17-.26-.17-.41,0-.17.07-.33.19-.43.19-.21.6-.23.84,0,.1.1.17.26.17.43,0,.15-.07.31-.17.43-.12.1-.27.17-.43.17Z" style="fill: #66562c;"/>
          <path d="M36.22,30.41c-.15,0-.31-.07-.43-.19-.1-.1-.17-.26-.17-.41,0-.17.07-.33.19-.43.19-.21.6-.23.84,0,.1.1.17.26.17.43,0,.15-.07.31-.17.43-.12.1-.27.17-.43.17Z" style="fill: #66562c;"/>
          <path d="M30.62,39.9c-.15,0-.31-.07-.43-.19-.1-.1-.17-.26-.17-.41s.07-.31.17-.43c.24-.23.62-.23.86,0,.1.12.17.26.17.43s-.07.33-.19.43c-.1.1-.26.17-.41.17Z" style="fill: #66562c;"/>
          <path d="M12.93,43.79c-.15,0-.31-.07-.43-.17-.1-.12-.17-.28-.17-.43s.07-.31.17-.43c.24-.23.62-.23.86,0,.1.12.17.28.17.43s-.07.31-.17.43c-.12.1-.27.17-.43.17Z" style="fill: #66562c;"/>
          <path d="M24.58,55c-.15,0-.31-.07-.43-.17-.1-.12-.17-.28-.17-.43s.07-.31.17-.43c.24-.23.62-.23.85,0,.12.1.19.28.19.43s-.07.31-.17.43c-.12.1-.27.17-.43.17Z" style="fill: #66562c;"/>
          <path d="M33.2,62.34c-.15,0-.31-.07-.43-.17-.1-.12-.17-.28-.17-.43,0-.17.07-.33.19-.43.21-.23.62-.23.84,0,.1.1.17.26.17.43,0,.15-.07.31-.17.43-.12.1-.27.17-.43.17Z" style="fill: #66562c;"/>
          <path d="M34.5,70.1c-.15,0-.31-.07-.43-.17-.1-.12-.17-.28-.17-.43s.07-.31.17-.43c.26-.24.62-.23.85,0,.12.12.19.28.19.43s-.07.31-.17.43c-.12.1-.27.17-.43.17Z" style="fill: #66562c;"/>
          <path d="M17.24,63.2c-.15,0-.31-.07-.43-.17-.12-.12-.17-.28-.17-.43s.07-.31.17-.43c.24-.23.66-.23.86.02.1.09.17.24.17.41,0,.15-.07.31-.17.43-.12.1-.27.17-.43.17Z" style="fill: #66562c;"/>
          <path d="M62.97,70.53c-.15,0-.31-.07-.43-.17-.1-.12-.17-.28-.17-.43,0-.17.07-.33.19-.43.19-.21.6-.23.84,0,.1.1.17.26.17.43,0,.15-.07.31-.17.43-.12.1-.27.17-.43.17Z" style="fill: #66562c;"/>
          <path d="M57.79,59.75c-.17,0-.33-.07-.43-.19-.1-.1-.17-.26-.17-.41s.07-.33.19-.43c.21-.23.6-.23.83,0,.12.12.19.28.19.43s-.07.31-.17.43c-.12.1-.26.17-.43.17Z" style="fill: #66562c;"/>
          <path d="M48.3,59.32c-.15,0-.31-.07-.43-.17-.1-.12-.17-.26-.17-.43s.07-.33.17-.43c.24-.23.62-.23.85,0,.12.12.19.28.19.43s-.07.31-.17.41c-.12.12-.26.19-.43.19Z" style="fill: #66562c;"/>
          <path d="M48.73,44.22c-.15,0-.31-.07-.43-.19-.1-.09-.17-.26-.17-.41s.07-.31.17-.43c.23-.23.62-.23.86,0,.1.12.17.28.17.43s-.07.33-.19.43c-.1.1-.26.17-.41.17Z" style="fill: #66562c;"/>
          <path d="M62.11,45.08c-.15,0-.31-.07-.43-.17-.1-.12-.17-.28-.17-.43s.07-.31.17-.43c.23-.23.62-.23.86,0,.1.12.17.28.17.43s-.07.31-.17.43c-.12.1-.27.17-.43.17Z" style="fill: #66562c;"/>
          <path d="M69.87,54.14c-.15,0-.31-.07-.41-.17-.12-.12-.19-.28-.19-.43s.07-.31.17-.43c.23-.23.62-.23.85,0,.14.12.19.28.19.43s-.07.31-.17.43c-.12.1-.27.17-.43.17Z" style="fill: #66562c;"/>
          <path d="M35.79,11.95c-.29,0-.59-.12-.79-.33-.21-.21-.33-.5-.33-.79s.12-.59.33-.79c.4-.41,1.17-.41,1.59,0,.21.21.33.5.33.79s-.12.59-.33.79c-.21.21-.5.33-.79.33Z" style="fill: #66562c;"/>
          <path d="M3.44,60.7c-.29,0-.59-.12-.79-.33-.21-.21-.33-.5-.33-.79s.12-.59.33-.79c.41-.41,1.17-.43,1.59,0,.21.21.33.5.33.79s-.12.57-.33.79c-.21.21-.48.33-.79.33Z" style="fill: #66562c;"/>
          <path d="M26.3,67.6c-.29,0-.59-.12-.79-.33-.21-.21-.33-.5-.33-.79s.12-.59.33-.79c.41-.41,1.17-.41,1.59,0,.21.21.33.5.33.79s-.12.59-.33.79c-.21.21-.5.33-.79.33Z" style="fill: #66562c;"/>
          <path d="M15.09,12.81c-.31,0-.59-.12-.79-.33-.21-.21-.33-.5-.33-.79s.12-.59.33-.79c.41-.41,1.17-.41,1.59,0,.21.21.33.48.33.79s-.12.59-.33.79c-.21.21-.48.33-.79.33Z" style="fill: #66562c;"/>
          <path d="M31.91,23.6c-.29,0-.59-.12-.79-.33-.21-.21-.33-.5-.33-.79s.12-.59.33-.79c.4-.41,1.19-.41,1.59,0,.21.19.33.48.33.79s-.12.59-.35.79c-.19.21-.48.33-.78.33Z" style="fill: #66562c;"/>
          <path d="M43.99,46.89c-.29,0-.59-.12-.79-.33-.21-.21-.33-.5-.33-.79s.12-.59.33-.79c.4-.41,1.16-.43,1.59,0,.21.21.33.48.33.79,0,.29-.12.59-.33.79-.21.21-.5.33-.79.33Z" style="fill: #66562c;"/>
          <path d="M69.87,61.99c-.29,0-.59-.12-.79-.33-.21-.21-.33-.5-.33-.79,0-.31.12-.59.35-.79.38-.4,1.16-.41,1.57,0,.21.21.33.5.33.79s-.12.59-.33.79c-.21.21-.5.33-.79.33Z" style="fill: #66562c;"/>
          <path d="M35.79,55.09c-.29,0-.59-.12-.79-.33-.21-.21-.33-.5-.33-.79s.12-.59.33-.79c.4-.41,1.17-.41,1.59,0,.21.21.33.5.33.79s-.12.59-.33.79c-.21.21-.5.33-.79.33Z" style="fill: #66562c;"/>
          <path d="M18.1,49.48c-.29,0-.59-.12-.79-.33-.21-.22-.33-.5-.33-.79s.12-.59.33-.79c.41-.41,1.17-.41,1.59,0,.21.21.33.5.33.79s-.12.57-.33.79c-.21.21-.5.33-.79.33Z" style="fill: #66562c;"/>
          <path d="M70.74,25.75c-.29,0-.59-.12-.79-.33-.21-.22-.33-.5-.33-.79s.12-.59.33-.79c.41-.41,1.17-.41,1.59,0,.21.21.33.48.33.79,0,.29-.12.59-.33.79-.21.21-.5.33-.79.33Z" style="fill: #66562c;"/>
          <path d="M69.01,36.97c-.29,0-.59-.12-.79-.33-.21-.21-.33-.5-.33-.79s.12-.59.33-.79c.41-.41,1.17-.41,1.59,0,.21.21.33.48.33.79,0,.29-.12.59-.33.79-.21.21-.48.33-.79.33Z" style="fill: #66562c;"/>
          <path d="M25.87,32.23c-.29,0-.59-.12-.79-.33-.21-.21-.33-.5-.33-.79s.12-.59.33-.79c.41-.41,1.17-.41,1.59,0,.21.21.33.5.33.79s-.12.57-.33.79c-.21.21-.5.33-.79.33Z" style="fill: #66562c;"/>
          <path d="M70.74,48.19c-.29,0-.59-.12-.79-.33-.21-.22-.33-.5-.33-.79s.12-.59.33-.79c.41-.41,1.17-.41,1.59,0,.21.21.33.48.33.79,0,.29-.12.59-.33.79-.21.21-.5.33-.79.33Z" style="fill: #66562c;"/>
          <path d="M12.93.3c-.29,0-.59-.12-.79-.33-.21-.22-.33-.5-.33-.79,0-.31.12-.59.33-.79.41-.41,1.19-.41,1.59,0,.21.21.33.48.33.79,0,.29-.12.59-.33.79-.21.21-.5.33-.79.33Z" style="fill: #66562c;"/>
          <path d="M56.07,8.5c-.29,0-.59-.12-.79-.33-.21-.21-.33-.5-.33-.79s.12-.59.33-.79c.43-.41,1.16-.41,1.59,0,.21.21.33.48.33.79,0,.29-.12.59-.33.79-.21.21-.5.33-.79.33Z" style="fill: #66562c;"/>
          <path d="M70.74,71.48c-.29,0-.59-.12-.79-.33-.21-.22-.33-.5-.33-.79s.12-.59.33-.79c.41-.41,1.17-.41,1.59,0,.21.21.33.48.33.79,0,.29-.12.59-.33.79-.21.21-.5.33-.79.33Z" style="fill: #66562c;"/>
          <path d="M8.18,37.4c-.29,0-.59-.12-.79-.33-.21-.22-.33-.5-.33-.79s.12-.59.33-.79c.41-.41,1.17-.41,1.59,0,.21.21.33.5.33.79s-.12.57-.33.79c-.21.21-.5.33-.79.33Z" style="fill: #66562c;"/>
          <path d="M-.88,31.36c-.29,0-.59-.12-.79-.33-.21-.21-.33-.5-.33-.79s.12-.59.33-.79c.43-.43,1.17-.41,1.59,0,.21.21.33.5.33.79s-.12.59-.33.79c-.21.21-.5.33-.79.33Z" style="fill: #66562c;"/>
          <path d="M18.54,21.87c-.29,0-.59-.12-.79-.33-.21-.22-.33-.5-.33-.79s.12-.59.33-.79c.41-.41,1.16-.41,1.59,0,.21.21.33.5.33.79s-.12.57-.33.79c-.21.21-.5.33-.79.33Z" style="fill: #66562c;"/>
          <path d="M60.81,1.16c-.29,0-.59-.12-.79-.33-.21-.22-.33-.5-.33-.79s.12-.59.33-.79c.41-.41,1.17-.41,1.59,0,.21.21.33.48.33.79,0,.29-.12.59-.33.79-.21.21-.5.33-.79.33Z" style="fill: #66562c;"/>
          <path d="M59.95,19.28c-.31,0-.59-.12-.79-.33-.21-.22-.33-.5-.33-.79s.12-.59.33-.79c.41-.41,1.17-.41,1.59,0,.21.21.33.5.33.79s-.12.59-.33.79c-.21.21-.48.33-.79.33Z" style="fill: #66562c;"/>
          <path d="M55.64,71.05c-.29,0-.59-.12-.79-.33-.21-.22-.33-.5-.33-.79s.12-.59.33-.79c.41-.41,1.17-.41,1.59,0,.21.21.33.5.33.79s-.12.57-.33.79c-.21.21-.5.33-.79.33Z" style="fill: #66562c;"/>
          <path d="M56.5,49.05c-.31,0-.59-.12-.79-.33-.21-.21-.33-.5-.33-.79s.12-.59.33-.79c.41-.41,1.17-.41,1.59,0,.21.21.33.5.33.79s-.12.59-.33.79c-.21.21-.48.33-.79.33Z" style="fill: #66562c;"/>
          <path d="M50.46,33.95c-.29,0-.59-.12-.79-.33-.21-.22-.33-.5-.33-.79s.12-.59.33-.79c.41-.41,1.17-.41,1.59,0,.21.21.33.5.33.79s-.12.57-.33.79c-.21.21-.5.33-.79.33Z" style="fill: #66562c;"/>
          <path d="M19.11.08c-.15,0-.31-.07-.43-.17-.1-.12-.17-.28-.17-.43,0-.17.07-.33.19-.43.19-.21.6-.23.84,0,.1.1.17.26.17.43,0,.15-.07.31-.17.43-.12.1-.26.17-.43.17Z" style="fill: #66562c;"/>
          <path d="M19.54,3.96c-.15,0-.31-.07-.43-.17-.1-.12-.17-.28-.17-.43s.07-.31.17-.43c.23-.23.62-.23.86,0,.1.12.17.28.17.43s-.07.31-.17.43c-.12.1-.27.17-.43.17Z" style="fill: #66562c;"/>
          <path d="M10.91,3.96c-.15,0-.31-.07-.43-.17-.1-.12-.17-.28-.17-.43,0-.17.07-.31.17-.43.21-.21.62-.23.86,0,.1.12.17.28.17.43s-.07.31-.17.43c-.12.1-.27.17-.43.17Z" style="fill: #66562c;"/>
          <path d="M23.85,20.35c-.15,0-.31-.07-.43-.17-.1-.12-.17-.28-.17-.43s.07-.31.17-.43c.24-.23.62-.23.85,0,.12.12.19.28.19.43s-.07.31-.17.43c-.12.1-.27.17-.43.17Z" style="fill: #66562c;"/>
          <path d="M10.91,25.53c-.15,0-.31-.07-.43-.17-.1-.12-.17-.28-.17-.43,0-.17.07-.33.19-.43.19-.21.6-.23.84,0,.1.1.17.26.17.43,0,.15-.07.31-.17.43-.12.1-.27.17-.43.17Z" style="fill: #66562c;"/>
          <path d="M8.75,27.25c-.15,0-.31-.07-.43-.17-.1-.12-.17-.28-.17-.43s.07-.31.17-.43c.24-.23.62-.23.85,0,.12.12.19.28.19.43s-.07.31-.17.43c-.12.1-.26.17-.43.17Z" style="fill: #66562c;"/>
          <path d="M26.01,32.43c-.15,0-.31-.07-.43-.17-.1-.12-.17-.28-.17-.43,0-.17.07-.33.19-.43.19-.21.62-.23.84,0,.1.12.17.28.17.43s-.07.31-.17.41c-.12.12-.27.19-.43.19Z" style="fill: #66562c;"/>
          <path d="M37.66,30.27c-.15,0-.31-.07-.43-.17-.1-.12-.17-.28-.17-.43s.07-.31.17-.43c.24-.23.62-.23.85,0,.12.12.19.28.19.43s-.07.31-.17.43c-.12.1-.27.17-.43.17Z" style="fill: #66562c;"/>
          <path d="M38.52,25.96c-.15,0-.31-.07-.43-.17-.1-.12-.17-.28-.17-.43,0-.17.07-.33.19-.43.21-.23.6-.23.84,0,.1.1.17.26.17.43,0,.15-.07.31-.17.43-.12.1-.26.17-.43.17Z" style="fill: #66562c;"/>
          <path d="M35.07,17.33c-.15,0-.31-.07-.43-.17-.1-.12-.17-.28-.17-.43s.07-.31.17-.43c.24-.23.62-.23.85,0,.12.12.19.28.19.43s-.07.31-.17.43c-.12.1-.27.17-.43.17Z" style="fill: #66562c;"/>
          <path d="M43.26,19.92c-.15,0-.31-.07-.43-.17-.1-.12-.17-.28-.17-.43s.07-.31.17-.43c.24-.23.62-.23.85,0,.12.12.19.28.19.43s-.07.31-.17.43c-.12.1-.27.17-.43.17Z" style="fill: #66562c;"/>
          <path d="M38.95,11.29c-.15,0-.31-.07-.43-.17-.1-.12-.17-.28-.17-.43s.07-.31.17-.43c.24-.23.62-.23.85,0,.12.12.19.28.19.43s-.07.31-.17.43c-.12.1-.27.17-.43.17Z" style="fill: #66562c;"/>
          <path d="M39.38,6.12c-.15,0-.31-.07-.43-.17-.1-.12-.17-.28-.17-.43s.07-.31.17-.43c.24-.23.62-.23.86,0,.1.12.17.28.17.43s-.07.31-.17.43c-.12.1-.27.17-.43.17Z" style="fill: #66562c;"/>
          <path d="M57.93,9.14c-.15,0-.31-.07-.43-.17-.1-.12-.17-.28-.17-.43,0-.17.07-.33.19-.43.21-.23.6-.23.84,0,.1.1.17.26.17.43,0,.15-.07.31-.17.43-.12.1-.27.17-.43.17Z" style="fill: #66562c;"/>
          <path d="M65.7,10.43c-.15,0-.31-.07-.43-.17-.1-.12-.17-.28-.17-.43,0-.17.07-.33.19-.43.21-.23.6-.23.84,0,.1.12.17.28.17.43s-.05.29-.17.41c-.12.12-.27.19-.43.19Z" style="fill: #66562c;"/>
          <path d="M65.7,13.88c-.15,0-.31-.07-.43-.17-.1-.12-.17-.28-.17-.43,0-.17.07-.33.19-.43.21-.23.62-.23.84,0,.1.12.17.28.17.43s-.07.29-.17.41c-.12.12-.27.19-.43.19Z" style="fill: #66562c;"/>
          <path d="M51.89,21.65c-.15,0-.31-.07-.43-.17-.1-.12-.17-.28-.17-.43s.07-.31.17-.43c.24-.23.62-.23.85,0,.12.1.19.28.19.43s-.07.31-.17.43c-.12.1-.27.17-.43.17Z" style="fill: #66562c;"/>
          <path d="M71.3,9.14c-.15,0-.31-.07-.43-.17-.12-.12-.17-.28-.17-.43s.05-.31.17-.43c.24-.23.64-.23.86,0,.1.12.17.28.17.43s-.07.31-.17.43c-.12.1-.27.17-.43.17Z" style="fill: #66562c;"/>
          <path d="M17.38,66.94c-.15,0-.31-.07-.43-.17-.1-.12-.17-.28-.17-.43s.07-.31.17-.43c.21-.21.62-.23.86,0,.1.12.17.28.17.43s-.07.31-.17.43c-.12.1-.27.17-.43.17Z" style="fill: #66562c;"/>
          <path d="M12.63,67.37c-.15,0-.31-.07-.43-.17-.1-.12-.17-.28-.17-.43s.07-.31.17-.43c.21-.23.62-.23.86,0,.1.12.17.28.17.43s-.07.31-.17.43c-.12.1-.27.17-.43.17Z" style="fill: #66562c;"/>
          <path d="M59.66,63.06c-.15,0-.31-.07-.43-.19-.1-.1-.17-.26-.17-.41s.07-.31.17-.43c.23-.23.62-.23.86,0,.1.12.17.28.17.43s-.07.31-.17.43c-.12.1-.27.17-.43.17Z" style="fill: #66562c;"/>
          <path d="M72.6,72.98c-.15,0-.31-.07-.43-.17-.12-.14-.17-.28-.17-.43s.07-.31.17-.43c.24-.24.62-.23.86,0,.1.12.17.28.17.43s-.07.31-.17.43c-.12.1-.27.17-.43.17Z" style="fill: #66562c;"/>
          <path d="M20.83,32.43c-.15,0-.31-.07-.43-.17-.1-.12-.17-.28-.17-.43s.07-.31.17-.43c.24-.23.62-.23.85,0,.12.12.19.28.19.43s-.07.31-.17.43c-.12.1-.27.17-.43.17Z" style="fill: #66562c;"/>
          <path d="M23.85,27.25c-.15,0-.31-.07-.43-.17-.1-.12-.17-.28-.17-.43s.07-.31.17-.43c.24-.23.62-.23.86,0,.1.12.17.28.17.43s-.07.31-.17.43c-.12.1-.27.17-.43.17Z" style="fill: #66562c;"/>
          <path d="M51.89,28.55c-.15,0-.31-.07-.43-.17-.1-.12-.17-.28-.17-.43s.07-.31.17-.43c.23-.23.64-.23.86,0,.1.12.17.28.17.43s-.07.31-.17.43c-.12.1-.27.17-.43.17Z" style="fill: #66562c;"/>
          <path d="M64.4,35.88c-.15,0-.31-.07-.43-.17-.12-.12-.17-.28-.17-.43s.07-.31.17-.41c.26-.26.62-.24.85-.02.12.12.19.28.19.43s-.07.31-.17.43c-.12.1-.27.17-.43.17Z" style="fill: #66562c;"/>
          <path d="M67.85,50.12c-.15,0-.31-.07-.41-.17-.12-.12-.19-.28-.19-.43s.07-.31.17-.43c.21-.23.64-.23.86.02.1.1.17.24.17.41,0,.15-.07.31-.17.43-.12.1-.27.17-.43.17Z" style="fill: #66562c;"/>
          <path d="M67.42,57.02c-.17,0-.33-.07-.43-.19-.1-.1-.17-.26-.17-.41s.07-.31.17-.43c.21-.21.62-.23.86,0,.1.12.17.28.17.43s-.07.31-.17.43c-.12.1-.27.17-.43.17Z" style="fill: #66562c;"/>
          <path d="M40.68,66.94c-.15,0-.31-.07-.43-.17-.1-.12-.17-.28-.17-.43s.07-.31.17-.43c.24-.23.62-.23.85,0,.12.12.19.28.19.43s-.07.31-.17.43c-.12.1-.27.17-.43.17Z" style="fill: #66562c;"/>
          <path d="M29.89,50.98c-.15,0-.31-.07-.43-.17-.1-.12-.17-.28-.17-.43s.07-.31.17-.43c.24-.23.62-.23.85,0,.12.12.19.28.19.43s-.07.31-.17.43c-.12.1-.27.17-.43.17Z" style="fill: #66562c;"/>
          <path d="M35.93,47.1c-.15,0-.31-.07-.41-.17-.12-.12-.19-.28-.19-.43,0-.17.07-.33.19-.43.21-.21.62-.23.84,0,.1.1.17.26.17.43,0,.15-.07.31-.17.43-.12.1-.27.17-.43.17Z" style="fill: #66562c;"/>
          <path d="M2.71,36.74c-.15,0-.31-.07-.43-.17-.1-.12-.17-.28-.17-.43s.07-.31.17-.43c.23-.21.62-.23.85,0,.12.1.19.26.19.43,0,.15-.07.31-.17.43-.12.1-.27.17-.43.17Z" style="fill: #66562c;"/>
          <path d="M13.93,58.31c-.15,0-.31-.07-.43-.17-.1-.12-.17-.28-.17-.43,0-.17.07-.33.19-.43.22-.23.62-.23.84,0,.1.1.17.26.17.43,0,.15-.07.31-.17.43-.12.1-.26.17-.43.17Z" style="fill: #66562c;"/>
          <path d="M6.6,47.96c-.15,0-.31-.07-.43-.17-.1-.12-.17-.28-.17-.43,0-.17.07-.33.19-.43.19-.21.6-.23.84,0,.1.1.17.26.17.43,0,.15-.07.31-.17.43-.12.1-.26.17-.43.17Z" style="fill: #66562c;"/>
          <path d="M30.32,38.04c-.15,0-.31-.07-.43-.17-.1-.12-.17-.28-.17-.43s.07-.31.17-.43c.23-.23.64-.23.86,0,.1.12.17.28.17.43s-.07.31-.17.43c-.12.1-.27.17-.43.17Z" style="fill: #66562c;"/>
          <path d="M52.32,38.9c-.15,0-.31-.07-.43-.17-.1-.12-.17-.28-.17-.43s.07-.31.17-.43c.23-.23.62-.23.86,0,.1.12.17.28.17.43s-.07.31-.17.43c-.12.1-.26.17-.43.17Z" style="fill: #66562c;"/>
          <path d="M50.6,42.35c-.15,0-.31-.07-.43-.17-.1-.12-.17-.28-.17-.43s.07-.31.17-.43c.23-.23.64-.23.86,0,.1.12.17.28.17.43s-.07.31-.17.43c-.12.1-.27.17-.43.17Z" style="fill: #66562c;"/>
          <path d="M32.91,58.31c-.15,0-.31-.07-.43-.17-.1-.12-.17-.28-.17-.43s.07-.31.17-.43c.23-.23.64-.23.86,0,.1.12.17.28.17.43s-.07.31-.17.43c-.12.1-.27.17-.43.17Z" style="fill: #66562c;"/>
          <path d="M1.42,18.19c-.15,0-.31-.07-.43-.17-.1-.12-.17-.28-.17-.43s.07-.31.17-.43c.23-.23.62-.23.85,0,.12.12.19.28.19.43s-.07.31-.17.43c-.12.1-.27.17-.43.17Z" style="fill: #66562c;"/>
          <path d="M4.87,26.39c-.15,0-.31-.07-.43-.17-.1-.12-.17-.28-.17-.43,0-.17.07-.33.19-.43.19-.21.6-.23.84,0,.1.1.17.26.17.43,0,.15-.07.31-.17.43-.12.1-.26.17-.43.17Z" style="fill: #66562c;"/>
          <path d="M6.6,10.43c-.15,0-.31-.07-.43-.17-.1-.12-.17-.28-.17-.43s.07-.31.17-.43c.23-.23.62-.23.85,0,.12.12.19.28.19.43s-.07.31-.17.43c-.12.1-.27.17-.43.17Z" style="fill: #66562c;"/>
          <path d="M16.52,19.06c-.15,0-.31-.07-.43-.17-.1-.12-.17-.28-.17-.43s.07-.33.17-.43c.23-.23.62-.23.85,0,.12.12.19.28.19.43s-.07.31-.17.43c-.12.1-.27.17-.43.17Z" style="fill: #66562c;"/>
          <path d="M21.26,49.69c-.15,0-.31-.07-.43-.17-.1-.12-.17-.28-.17-.43s.07-.33.17-.43c.21-.21.62-.23.85,0,.12.12.19.28.19.43s-.07.31-.17.43c-.12.1-.27.17-.43.17Z" style="fill: #66562c;"/>
          <path d="M48.87,69.53c-.15,0-.31-.07-.43-.17-.1-.12-.17-.28-.17-.43,0-.17.07-.31.17-.43.24-.23.62-.23.86,0,.1.12.17.28.17.43s-.07.31-.17.43c-.12.1-.26.17-.43.17Z" style="fill: #66562c;"/>
          <path d="M-.31,55.29c-.16,0-.31-.07-.43-.17-.1-.12-.17-.28-.17-.43s.07-.31.17-.43c.23-.23.6-.23.85,0,.12.12.19.28.19.43s-.07.31-.17.43c-.12.1-.27.17-.43.17Z" style="fill: #66562c;"/>
          <path d="M53.62,50.98c-.15,0-.31-.07-.43-.17-.1-.12-.17-.28-.17-.43s.07-.31.17-.43c.26-.23.62-.23.85,0,.12.12.19.28.19.43s-.07.31-.17.43c-.12.1-.27.17-.43.17Z" style="fill: #66562c;"/>
          <path d="M32.05,9.14c-.15,0-.31-.07-.43-.17-.1-.12-.17-.28-.17-.43s.07-.31.17-.43c.24-.23.62-.23.85,0,.12.12.19.28.19.43s-.07.31-.17.43c-.12.1-.27.17-.43.17Z" style="fill: #66562c;"/>
          <path d="M18.67,31.57c-.15,0-.31-.07-.43-.17-.1-.12-.17-.28-.17-.43s.07-.33.17-.43c.21-.21.62-.23.85,0,.12.12.19.28.19.43s-.07.31-.17.43c-.12.1-.27.17-.43.17Z" style="fill: #66562c;"/>
          <path d="M24.71,10c-.15,0-.31-.07-.43-.17-.1-.12-.17-.28-.17-.43s.07-.31.17-.43c.24-.23.62-.23.85,0,.12.12.19.28.19.43s-.07.31-.17.43c-.12.1-.27.17-.43.17Z" style="fill: #66562c;"/>
          <path d="M19.97,15.61c-.15,0-.31-.07-.43-.17-.1-.12-.17-.28-.17-.43s.07-.31.17-.43c.24-.23.62-.23.86,0,.1.12.17.28.17.43s-.07.31-.17.43c-.12.1-.27.17-.43.17Z" style="fill: #66562c;"/>
          <path d="M10.05,15.61c-.15,0-.31-.07-.43-.17-.1-.12-.17-.28-.17-.43,0-.17.07-.33.19-.43.19-.21.6-.23.84,0,.1.1.17.26.17.43,0,.15-.07.31-.17.43-.12.1-.27.17-.43.17Z" style="fill: #66562c;"/>
          <path d="M1.85.08c-.15,0-.31-.07-.43-.17-.1-.12-.17-.28-.17-.43s.07-.31.17-.43c.23-.23.62-.23.85,0,.12.12.19.28.19.43s-.07.31-.17.43c-.12.1-.27.17-.43.17Z" style="fill: #66562c;"/>
          <path d="M9.18.08c-.15,0-.31-.07-.43-.17-.1-.12-.17-.28-.17-.43,0-.17.07-.33.19-.43.19-.21.6-.23.84,0,.1.1.17.26.17.43,0,.15-.07.31-.17.43-.12.1-.27.17-.43.17Z" style="fill: #66562c;"/>
          <path d="M70.01.08c-.15,0-.31-.07-.43-.17-.12-.12-.17-.28-.17-.43s.05-.31.17-.43c.24-.23.64-.23.86,0,.1.12.17.28.17.43s-.07.31-.17.43c-.12.1-.27.17-.43.17Z" style="fill: #66562c;"/>
          <path d="M63.97,1.8c-.15,0-.31-.07-.43-.17-.1-.12-.17-.28-.17-.43s.07-.31.17-.43c.24-.23.62-.23.86,0,.1.12.17.28.17.43s-.07.31-.17.43c-.12.1-.26.17-.43.17Z" style="fill: #66562c;"/>
          <path d="M46.28,4.82c-.15,0-.31-.07-.43-.17-.1-.12-.17-.28-.17-.43,0-.17.07-.31.17-.43.24-.23.62-.23.85,0,.12.12.19.28.19.43s-.07.31-.17.43c-.12.1-.27.17-.43.17Z" style="fill: #66562c;"/>
          <path d="M52.32,11.72c-.15,0-.31-.07-.43-.17-.1-.12-.17-.28-.17-.43s.07-.31.17-.43c.24-.23.62-.23.85,0,.12.12.19.28.19.43s-.07.31-.17.43c-.12.1-.27.17-.43.17Z" style="fill: #66562c;"/>
          <path d="M27.3,16.9c-.15,0-.31-.07-.43-.17-.1-.12-.17-.28-.17-.43s.07-.31.17-.43c.24-.23.62-.23.85,0,.12.12.19.28.19.43s-.07.31-.17.43c-.12.1-.27.17-.43.17Z" style="fill: #66562c;"/>
          <path d="M12.2,40.63c-.15,0-.31-.07-.43-.17-.1-.12-.17-.28-.17-.43s.07-.31.17-.43c.21-.21.62-.23.86,0,.1.12.17.28.17.43s-.07.31-.17.43c-.12.1-.27.17-.43.17Z" style="fill: #66562c;"/>
          <path d="M2.71,43.65c-.15,0-.31-.07-.43-.17-.1-.12-.17-.28-.17-.43,0-.17.07-.33.19-.43.19-.21.6-.23.84,0,.1.1.17.26.17.43s-.07.31-.17.43c-.12.1-.27.17-.43.17Z" style="fill: #66562c;"/>
          <path d="M19.97,38.9c-.15,0-.31-.07-.43-.17-.1-.12-.17-.28-.17-.43,0-.17.07-.33.19-.43.22-.23.6-.23.84,0,.1.1.17.26.17.43,0,.15-.07.31-.17.43-.12.1-.27.17-.43.17Z" style="fill: #66562c;"/>
          <path d="M14.79,47.1c-.15,0-.31-.07-.43-.17-.1-.12-.17-.28-.17-.43s.07-.31.17-.43c.24-.23.62-.23.86,0,.1.12.17.28.17.43s-.07.31-.17.43c-.12.1-.27.17-.43.17Z" style="fill: #66562c;"/>
          <path d="M12.2,53.14c-.15,0-.31-.07-.43-.17-.1-.12-.17-.28-.17-.43,0-.17.07-.33.19-.43.19-.21.6-.23.84,0,.1.1.17.26.17.43,0,.15-.07.31-.17.43-.12.1-.26.17-.43.17Z" style="fill: #66562c;"/>
          <path d="M6.6,57.02c-.15,0-.31-.07-.43-.17-.1-.12-.17-.28-.17-.43,0-.17.07-.33.19-.43.19-.21.6-.23.84,0,.1.1.17.26.17.43,0,.15-.07.31-.17.43-.12.1-.27.17-.43.17Z" style="fill: #66562c;"/>
          <path d="M6.6,66.08c-.15,0-.31-.07-.43-.17-.1-.12-.17-.28-.17-.43,0-.17.07-.33.19-.43.19-.21.6-.23.84,0,.1.1.17.26.17.43,0,.15-.07.31-.17.43-.12.1-.27.17-.43.17Z" style="fill: #66562c;"/>
          <path d="M29.89,68.24c-.15,0-.31-.07-.43-.17-.1-.12-.17-.28-.17-.43s.07-.31.17-.43c.23-.23.62-.23.86,0,.1.12.17.28.17.43s-.07.31-.17.43c-.12.1-.27.17-.43.17Z" style="fill: #66562c;"/>
          <path d="M29.03,60.9c-.15,0-.31-.07-.43-.17-.1-.12-.17-.28-.17-.43s.07-.31.17-.43c.23-.23.62-.23.86,0,.1.12.17.28.17.43s-.07.31-.17.43c-.12.1-.27.17-.43.17Z" style="fill: #66562c;"/>
          <path d="M40.24,39.33c-.15,0-.31-.07-.43-.17-.1-.12-.17-.28-.17-.43,0-.17.07-.33.19-.43.21-.23.6-.23.84,0,.1.1.17.26.17.43,0,.15-.07.31-.17.43-.12.1-.27.17-.43.17Z" style="fill: #66562c;"/>
          <path d="M43.7,33.73c-.15,0-.31-.07-.43-.17-.1-.12-.17-.28-.17-.43s.05-.31.17-.43c.23-.23.62-.23.86,0,.1.12.17.28.17.43s-.07.31-.17.43c-.12.1-.26.17-.43.17Z" style="fill: #66562c;"/>
          <path d="M56.64,30.27c-.15,0-.31-.07-.43-.17-.1-.12-.17-.28-.17-.43s.07-.31.17-.43c.23-.23.64-.23.86,0,.1.12.17.28.17.43s-.07.31-.17.43c-.12.1-.27.17-.43.17Z" style="fill: #66562c;"/>
          <path d="M58.79,21.65c-.15,0-.31-.07-.43-.19-.1-.1-.17-.24-.17-.41,0-.15.07-.31.17-.43.23-.23.62-.23.86,0,.1.12.17.28.17.43,0,.17-.07.31-.19.43-.1.1-.26.17-.41.17Z" style="fill: #66562c;"/>
          <path d="M47.58,19.06c-.15,0-.31-.07-.43-.17-.12-.14-.17-.28-.17-.43s.05-.31.17-.41c.28-.26.64-.24.86-.02.1.12.17.28.17.43s-.07.31-.17.43c-.12.1-.27.17-.43.17Z" style="fill: #66562c;"/>
          <path d="M32.48,24.23c-.15,0-.31-.07-.43-.17-.1-.12-.17-.28-.17-.43s.07-.31.17-.43c.23-.23.64-.23.86,0,.1.12.17.28.17.43s-.07.31-.17.43c-.12.1-.27.17-.43.17Z" style="fill: #66562c;"/>
          <path d="M59.23,16.47c-.15,0-.33-.07-.43-.17-.1-.12-.17-.28-.17-.43s.07-.31.17-.43c.21-.21.62-.23.86,0,.1.12.17.28.17.43s-.07.31-.17.43c-.12.1-.27.17-.43.17Z" style="fill: #66562c;"/>
          <path d="M71.74,16.9c-.17,0-.31-.07-.43-.17-.1-.12-.17-.28-.17-.43s.07-.31.17-.43c.24-.23.62-.23.85,0,.12.12.19.28.19.43s-.07.31-.17.43c-.12.1-.27.17-.43.17Z" style="fill: #66562c;"/>
          <path d="M66.56,44.08c-.15,0-.31-.07-.43-.19-.1-.1-.17-.26-.17-.41,0-.17.07-.33.19-.43.19-.21.6-.23.84,0,.1.1.17.26.17.43,0,.15-.07.31-.17.43-.12.1-.27.17-.43.17Z" style="fill: #66562c;"/>
          <path d="M60.95,53.57c-.15,0-.31-.07-.43-.19-.1-.1-.17-.26-.17-.41s.07-.31.17-.43c.24-.23.62-.23.86,0,.1.12.17.26.17.43s-.07.33-.19.43c-.1.1-.26.17-.41.17Z" style="fill: #66562c;"/>
          <path d="M43.26,57.45c-.15,0-.31-.07-.43-.17-.1-.12-.17-.28-.17-.43s.07-.31.17-.43c.24-.23.62-.23.86,0,.1.12.17.28.17.43s-.07.31-.17.43c-.12.1-.27.17-.43.17Z" style="fill: #66562c;"/>
          <path d="M54.91,68.67c-.15,0-.31-.07-.43-.17-.1-.12-.17-.28-.17-.43s.07-.31.17-.43c.24-.23.62-.23.85,0,.12.1.19.28.19.43s-.07.31-.17.43c-.12.1-.27.17-.43.17Z" style="fill: #66562c;"/>
          <path d="M15.65,8.36c-.29,0-.57-.12-.79-.33-.21-.22-.33-.5-.33-.79s.12-.59.33-.79c.41-.41,1.17-.41,1.59,0,.21.21.33.5.33.79s-.12.59-.33.79c-.21.21-.5.33-.79.33Z" style="fill: #66562c;"/>
          <path d="M35.07,4.91c-.29,0-.59-.12-.79-.33-.21-.22-.33-.5-.33-.79s.12-.59.33-.79c.43-.43,1.16-.41,1.59,0,.21.21.33.5.33.79s-.12.57-.33.79c-.22.21-.5.33-.79.33Z" style="fill: #66562c;"/>
          <path d="M54.05,4.05c-.29,0-.57-.12-.79-.33-.21-.22-.33-.5-.33-.79s.12-.59.33-.79c.41-.41,1.17-.41,1.59,0,.21.19.33.48.33.79,0,.29-.12.57-.33.79-.21.21-.5.33-.79.33Z" style="fill: #66562c;"/>
          <path d="M62.25,6.63c-.31,0-.59-.12-.79-.35-.21-.21-.33-.48-.33-.78s.12-.59.33-.79c.41-.41,1.17-.41,1.59,0,.21.19.33.48.33.79s-.12.59-.35.79c-.19.21-.47.33-.78.33Z" style="fill: #66562c;"/>
          <path d="M66.13,25.62c-.29,0-.59-.12-.79-.33-.21-.21-.33-.5-.33-.79s.12-.59.33-.79c.4-.41,1.17-.41,1.59,0,.21.21.33.5.33.79s-.12.59-.33.79c-.21.21-.5.33-.79.33Z" style="fill: #66562c;"/>
          <path d="M20.83,64.44c-.29,0-.59-.12-.79-.33-.21-.21-.33-.5-.33-.79,0-.31.12-.59.33-.79.4-.41,1.17-.43,1.59,0,.21.21.33.5.33.79s-.12.57-.33.79c-.21.21-.48.33-.79.33Z" style="fill: #66562c;"/>
          <path d="M28.17,28.64c-.29,0-.59-.12-.79-.33-.21-.22-.33-.5-.33-.79s.12-.59.33-.79c.4-.41,1.17-.41,1.59,0,.21.21.33.5.33.79s-.12.57-.33.79c-.21.21-.5.33-.79.33Z" style="fill: #66562c;"/>
          <path d="M45.42,26.48c-.31,0-.59-.12-.79-.33-.21-.21-.33-.5-.33-.79s.12-.59.33-.79c.41-.41,1.17-.41,1.59,0,.21.21.33.48.33.79s-.12.59-.33.79c-.21.21-.48.33-.79.33Z" style="fill: #66562c;"/>
          <path d="M62.25,37.26c-.29,0-.59-.12-.79-.33-.21-.21-.33-.5-.33-.79s.12-.59.33-.79c.4-.41,1.19-.41,1.59,0,.21.19.33.48.33.79s-.12.59-.35.79c-.19.21-.48.33-.78.33Z" style="fill: #66562c;"/>
          <path d="M66.13,68.76c-.29,0-.59-.12-.79-.33-.21-.21-.33-.5-.33-.79s.12-.59.33-.79c.4-.41,1.17-.41,1.59,0,.21.21.33.5.33.79s-.12.59-.33.79c-.21.21-.5.33-.79.33Z" style="fill: #66562c;"/>
          <path d="M48.44,63.15c-.29,0-.59-.12-.79-.33-.21-.22-.33-.5-.33-.79s.12-.59.33-.79c.41-.41,1.17-.41,1.59,0,.21.21.33.5.33.79s-.12.57-.33.79c-.21.21-.5.33-.79.33Z" style="fill: #66562c;"/>
          <path d="M13.93,35.54c-.29,0-.59-.12-.79-.33-.21-.21-.33-.5-.33-.79s.12-.59.33-.79c.43-.41,1.17-.41,1.59,0,.21.21.33.5.33.79s-.12.59-.33.79c-.21.21-.48.33-.79.33Z" style="fill: #66562c;"/>
          <path d="M4.01,49.77c-.29,0-.59-.12-.79-.33-.21-.21-.33-.5-.33-.79,0-.31.12-.59.33-.79.43-.43,1.19-.41,1.59,0,.21.21.33.5.33.79s-.12.59-.33.79c-.21.21-.5.33-.79.33Z" style="fill: #66562c;"/>
          <path d="M22.56,58.4c-.29,0-.59-.12-.79-.33-.21-.21-.33-.48-.33-.79s.12-.59.33-.79c.41-.41,1.16-.41,1.59,0,.21.21.33.5.33.79s-.12.59-.33.79c-.21.21-.5.33-.79.33Z" style="fill: #66562c;"/>
          <path d="M26.01,36.4c-.29,0-.59-.12-.79-.33-.21-.22-.33-.5-.33-.79s.12-.59.33-.79c.4-.41,1.17-.43,1.59,0,.21.21.33.48.33.79,0,.29-.12.59-.33.79-.21.21-.5.33-.79.33Z" style="fill: #66562c;"/>
          <path d="M56.21,45.89c-.29,0-.59-.12-.79-.33-.21-.21-.33-.5-.33-.79s.12-.59.33-.79c.41-.41,1.17-.41,1.59,0,.21.21.33.5.33.79s-.12.57-.33.79c-.21.21-.5.33-.79.33Z" style="fill: #66562c;"/>
          <path d="M43.26,13.97c-.29,0-.59-.12-.79-.33-.21-.22-.33-.5-.33-.79,0-.31.12-.59.33-.79.41-.41,1.19-.41,1.59,0,.21.21.33.48.33.79,0,.29-.12.59-.33.79-.21.21-.5.33-.79.33Z" style="fill: #66562c;"/>
          <path d="M6.6,19.58c-.29,0-.59-.12-.79-.33-.21-.21-.33-.5-.33-.79s.12-.59.33-.79c.43-.43,1.17-.41,1.59,0,.21.21.33.5.33.79s-.12.59-.33.79c-.21.21-.5.33-.79.33Z" style="fill: #66562c;"/>
          <path d="M3.58,73.5c-.29,0-.59-.12-.79-.33-.21-.22-.33-.5-.33-.79,0-.31.12-.59.33-.79.41-.41,1.17-.41,1.59,0,.21.21.33.5.33.79s-.12.57-.33.79c-.21.21-.5.33-.79.33Z" style="fill: #66562c;"/>
          <path d="M38.52,51.07c-.29,0-.59-.12-.79-.33-.21-.22-.33-.5-.33-.79s.12-.59.33-.79c.41-.41,1.17-.41,1.59,0,.21.21.33.5.33.79s-.12.57-.33.79c-.21.21-.5.33-.79.33Z" style="fill: #66562c;"/>
          <path d="M29.46,45.03c-.29,0-.59-.12-.79-.33-.21-.21-.33-.5-.33-.79s.12-.59.33-.79c.43-.43,1.17-.41,1.59,0,.21.21.33.5.33.79s-.12.59-.33.79c-.21.21-.5.33-.79.33Z" style="fill: #66562c;"/>
          <path d="M48.87,35.54c-.29,0-.59-.12-.79-.33-.21-.22-.33-.5-.33-.79s.12-.59.33-.79c.41-.41,1.16-.41,1.59,0,.21.21.33.5.33.79s-.12.57-.33.79c-.21.21-.5.33-.79.33Z" style="fill: #66562c;"/>
        </g>
        <g>
          <path d="M-.49,40.99c-.15,0-.31-.07-.43-.17-.1-.12-.17-.28-.17-.43s.07-.31.17-.43c.23-.23.62-.23.86,0,.1.12.17.28.17.43s-.07.31-.17.43c-.12.1-.26.17-.43.17Z" style="fill: #66562c;"/>
          <path d="M-.49,13.81c-.15,0-.31-.07-.43-.17-.1-.12-.17-.28-.17-.43s.07-.31.17-.43c.24-.23.62-.23.85,0,.12.12.19.28.19.43s-.07.31-.17.43c-.12.1-.27.17-.43.17Z" style="fill: #66562c;"/>
          <path d="M-.4,8.84c-.15,0-.31-.07-.43-.17-.1-.12-.17-.28-.17-.43s.07-.31.17-.43c.23-.23.62-.23.86,0,.1.12.17.28.17.43s-.07.31-.17.43c-.12.1-.27.17-.43.17Z" style="fill: #66562c;"/>
          <path d="M.6,72.98c-.15,0-.31-.07-.43-.17-.12-.14-.17-.28-.17-.43s.07-.31.17-.43c.24-.24.62-.23.86,0,.1.12.17.28.17.43s-.07.31-.17.43c-.12.1-.27.17-.43.17Z" style="fill: #66562c;"/>
          <path d="M-.26,16.9c-.17,0-.31-.07-.43-.17-.1-.12-.17-.28-.17-.43s.07-.31.17-.43c.24-.23.62-.23.85,0,.12.12.19.28.19.43s-.07.31-.17.43c-.12.1-.27.17-.43.17Z" style="fill: #66562c;"/>
        </g>
        <g>
          <path d="M53.69.19c-.15,0-.31-.07-.43-.17-.1-.12-.17-.28-.17-.43s.07-.31.17-.43c.26-.24.62-.23.85,0,.12.12.19.28.19.43s-.07.31-.17.43c-.12.1-.27.17-.43.17Z" style="fill: #66562c;"/>
          <path d="M12.93.69c-.15,0-.31-.07-.43-.17-.1-.12-.17-.28-.17-.43s.07-.31.17-.43c.23-.23.64-.23.86,0,.1.12.17.28.17.43s-.07.31-.17.43c-.12.1-.27.17-.43.17Z" style="fill: #66562c;"/>
          <path d="M72.6.98c-.15,0-.31-.07-.43-.17-.12-.14-.17-.28-.17-.43s.07-.31.17-.43c.24-.24.62-.23.86,0,.1.12.17.28.17.43s-.07.31-.17.43c-.12.1-.27.17-.43.17Z" style="fill: #66562c;"/>
          <path d="M3.58,1.5c-.29,0-.59-.12-.79-.33-.21-.22-.33-.5-.33-.79,0-.31.12-.59.33-.79.41-.41,1.17-.41,1.59,0,.21.21.33.5.33.79s-.12.57-.33.79c-.21.21-.5.33-.79.33Z" style="fill: #66562c;"/>
        </g>
        <path d="M.6.98c-.15,0-.31-.07-.43-.17C.05.67,0,.53,0,.38S.06.07.17-.05c.24-.24.62-.23.86,0,.1.12.17.28.17.43s-.07.31-.17.43c-.12.1-.27.17-.43.17Z" style="fill: #66562c;"/>
      </g>
    </pattern>
  </defs>
  <g id="illu_cylindre_motif" data-name="illu cylindre motif">
    <g id="layers">
      <g id="reservoir">
        <path d="M1930,107.07v1177.82s0,107.07-965,107.07S0,1284.89,0,1284.89V107.07S0,0,965,0s965,107.07,965,107.07Z" style="fill: url(#Nouvelle_nuance_de_motif_15);"/>
        <path d="M1930,107.07v1177.82s0,107.07-965,107.07S0,1284.89,0,1284.89V107.07S0,0,965,0s965,107.07,965,107.07Z" style="fill: url(#_7beige);"/>
      </g>
    </g>
  </g>
</svg>