<?xml version="1.0" encoding="UTF-8"?>
<svg id="Calque_2" data-name="Calque 2" xmlns="http://www.w3.org/2000/svg" viewBox="0 0 1930 1142.55">
  <g id="illu_cylindre_motif" data-name="illu cylindre motif">
    <g id="layers">
      <g id="co2">
        <g style="opacity: .7;">
          <ellipse cx="965" cy="107.07" rx="965" ry="107.07" style="fill: #ace3e7;"/>
          <ellipse cx="967.49" cy="111.65" rx="960.6" ry="107.02" style="fill: #ace3e7;"/>
          <ellipse cx="969.97" cy="116.23" rx="956.2" ry="106.98" style="fill: #ace3e7;"/>
          <ellipse cx="972.46" cy="120.81" rx="951.8" ry="106.93" style="fill: #ace3e7;"/>
          <ellipse cx="974.95" cy="125.39" rx="106.89" ry="947.4" transform="translate(848.47 1100.19) rotate(-89.94)" style="fill: #ace3e7;"/>
          <ellipse cx="977.43" cy="129.97" rx="106.84" ry="943" transform="translate(846.1 1107.22) rotate(-89.92)" style="fill: #ace3e7;"/>
          <path d="M1918.52,136.36c-1.22,58.98-422.43,105.98-940.8,104.98-518.37-1-937.61-49.63-936.39-108.61,1.22-58.98,422.43-105.98,940.8-104.98,518.37,1,937.61,49.63,936.39,108.61Z" style="fill: #ace3e7;"/>
          <path d="M1916.6,141.24c-1.42,58.95-420.83,105.8-936.77,104.63-515.94-1.17-933.04-49.91-931.62-108.86,1.42-58.95,420.83-105.8,936.77-104.63,515.94,1.17,933.04,49.91,931.62,108.86Z" style="fill: #ace3e7;"/>
          <path d="M1914.69,146.12c-1.62,58.93-419.22,105.62-932.73,104.28-513.51-1.34-928.48-50.19-926.85-109.12,1.62-58.93,419.22-105.62,932.73-104.28,513.51,1.34,928.48,50.19,926.85,109.12Z" style="fill: #ace3e7;"/>
          <path d="M1912.77,151c-1.83,58.9-417.62,105.44-928.7,103.93-511.08-1.5-923.91-50.47-922.08-109.38,1.83-58.9,417.62-105.44,928.7-103.93,511.08,1.5,923.91,50.47,922.08,109.38Z" style="fill: #ace3e7;"/>
          <path d="M1910.86,155.88c-2.03,58.88-416.02,105.25-924.67,103.58-508.65-1.67-919.34-50.75-917.31-109.63,2.03-58.88,416.02-105.25,924.67-103.58,508.65,1.67,919.34,50.75,917.31,109.63Z" style="fill: #ace3e7;"/>
          <path d="M1908.95,160.76c-2.23,58.85-414.41,105.07-920.63,103.24-506.22-1.84-914.78-51.04-912.55-109.89,2.23-58.85,414.41-105.07,920.63-103.24,506.22,1.84,914.78,51.04,912.55,109.89Z" style="fill: #ace3e7;"/>
          <path d="M1907.03,165.65c-2.44,58.83-412.81,104.89-916.6,102.89-503.79-2-910.21-51.32-907.78-110.14,2.44-58.83,412.81-104.89,916.6-102.89,503.79,2,910.21,51.32,907.78,110.14Z" style="fill: #ace3e7;"/>
          <path d="M1905.12,170.53c-2.64,58.8-411.21,104.71-912.57,102.54-501.36-2.17-905.65-51.6-903.01-110.4,2.64-58.8,411.21-104.71,912.57-102.54,501.36,2.17,905.65,51.6,903.01,110.4Z" style="fill: #ace3e7;"/>
          <path d="M1903.2,175.41c-2.84,58.78-409.61,104.53-908.53,102.19-498.93-2.34-901.08-51.88-898.24-110.66S506.04,62.42,1004.96,64.75c498.93,2.34,901.08,51.88,898.24,110.66Z" style="fill: #ace3e7;"/>
          <path d="M1901.29,180.29c-3.05,58.75-408,104.35-904.5,101.84-496.5-2.5-896.52-52.16-893.47-110.91,3.05-58.75,408-104.35,904.5-101.84,496.5,2.5,896.52,52.16,893.47,110.91Z" style="fill: #ace3e7;"/>
          <path d="M1899.38,185.17c-3.25,58.72-406.4,104.16-900.47,101.49-494.07-2.67-891.95-52.44-888.7-111.17s406.4-104.16,900.47-101.49c494.07,2.67,891.95,52.44,888.7,111.17Z" style="fill: #ace3e7;"/>
          <path d="M1897.46,190.05c-3.45,58.7-404.8,103.98-896.43,101.14-491.64-2.84-887.39-52.72-883.93-111.42,3.45-58.7,404.8-103.98,896.43-101.14,491.64,2.84,887.39,52.72,883.93,111.42Z" style="fill: #ace3e7;"/>
          <path d="M1895.55,194.93c-3.65,58.67-403.2,103.8-892.4,100.79-489.2-3.01-882.82-53.01-879.17-111.68,3.65-58.67,403.2-103.8,892.4-100.79,489.2,3.01,882.82,53.01,879.17,111.68Z" style="fill: #ace3e7;"/>
          <path d="M1893.63,199.81c-3.86,58.65-401.59,103.62-888.37,100.45-486.77-3.17-878.26-53.29-874.4-111.94,3.86-58.65,401.59-103.62,888.37-100.45,486.77,3.17,878.26,53.29,874.4,111.94Z" style="fill: #ace3e7;"/>
          <path d="M1891.72,204.7c-4.06,58.62-399.99,103.44-884.33,100.1-484.34-3.34-873.69-53.57-869.63-112.19,4.06-58.62,399.99-103.44,884.33-100.1,484.34,3.34,873.69,53.57,869.63,112.19Z" style="fill: #ace3e7;"/>
          <path d="M1889.81,209.58c-4.26,58.6-398.39,103.25-880.3,99.75-481.91-3.51-869.12-53.85-864.86-112.45,4.26-58.6,398.39-103.25,880.3-99.75,481.91,3.51,869.12,53.85,864.86,112.45Z" style="fill: #ace3e7;"/>
          <path d="M1887.89,214.46c-4.47,58.57-396.78,103.07-876.27,99.4-479.48-3.67-864.56-54.13-860.09-112.7s396.78-103.07,876.27-99.4c479.48,3.67,864.56,54.13,860.09,112.7Z" style="fill: #ace3e7;"/>
          <path d="M1885.98,219.34c-4.67,58.54-395.18,102.89-872.23,99.05-477.05-3.84-859.99-54.41-855.32-112.96,4.67-58.54,395.18-102.89,872.23-99.05,477.05,3.84,859.99,54.41,855.32,112.96Z" style="fill: #ace3e7;"/>
          <path d="M1884.06,224.22c-4.87,58.52-393.58,102.71-868.2,98.7-474.62-4.01-855.43-54.7-850.56-113.22,4.87-58.52,393.58-102.71,868.2-98.7,474.62,4.01,855.43,54.7,850.56,113.22Z" style="fill: #ace3e7;"/>
          <path d="M1882.15,229.1c-5.08,58.49-391.98,102.53-864.17,98.35-472.19-4.17-850.86-54.98-845.79-113.47,5.08-58.49,391.98-102.53,864.17-98.35,472.19,4.17,850.86,54.98,845.79,113.47Z" style="fill: #ace3e7;"/>
          <path d="M1880.24,233.98c-5.28,58.47-390.37,102.35-860.13,98-469.76-4.34-846.3-55.26-841.02-113.73,5.28-58.47,390.37-102.35,860.13-98,469.76,4.34,846.3,55.26,841.02,113.73Z" style="fill: #ace3e7;"/>
          <path d="M1878.32,238.86c-5.48,58.44-388.77,102.16-856.1,97.66-467.33-4.51-841.73-55.54-836.25-113.98,5.48-58.44,388.77-102.16,856.1-97.66,467.33,4.51,841.73,55.54,836.25,113.98Z" style="fill: #ace3e7;"/>
          <path d="M1876.41,243.75c-5.68,58.42-387.17,101.98-852.07,97.31-464.9-4.68-837.17-55.82-831.48-114.24,5.68-58.42,387.17-101.98,852.07-97.31,464.9,4.68,837.17,55.82,831.48,114.24Z" style="fill: #ace3e7;"/>
          <path d="M1874.49,248.63c-5.89,58.39-385.56,101.8-848.03,96.96-462.47-4.84-832.6-56.1-826.71-114.5,5.89-58.39,385.56-101.8,848.03-96.96,462.47,4.84,832.6,56.1,826.71,114.5Z" style="fill: #ace3e7;"/>
          <path d="M1872.58,253.51c-6.09,58.37-383.96,101.62-844,96.61-460.04-5.01-828.03-56.39-821.94-114.75,6.09-58.37,383.96-101.62,844-96.61,460.04,5.01,828.03,56.39,821.94,114.75Z" style="fill: #ace3e7;"/>
          <path d="M1870.67,258.39c-6.29,58.34-382.36,101.44-839.97,96.26-457.61-5.18-823.47-56.67-817.18-115.01s382.36-101.44,839.97-96.26c457.61,5.18,823.47,56.67,817.18,115.01Z" style="fill: #ace3e7;"/>
          <path d="M1868.75,263.27c-6.5,58.31-380.76,101.26-835.93,95.91-455.18-5.34-818.9-56.95-812.41-115.26,6.5-58.31,380.76-101.26,835.93-95.91,455.18,5.34,818.9,56.95,812.41,115.26Z" style="fill: #ace3e7;"/>
          <path d="M1866.84,268.15c-6.7,58.29-379.15,101.07-831.9,95.56-452.75-5.51-814.34-57.23-807.64-115.52,6.7-58.29,379.15-101.07,831.9-95.56,452.75,5.51,814.34,57.23,807.64,115.52Z" style="fill: #ace3e7;"/>
          <path d="M1864.92,273.03c-6.9,58.26-377.55,100.89-827.87,95.21-450.32-5.68-809.77-57.51-802.87-115.78,6.9-58.26,377.55-100.89,827.87-95.21,450.32,5.68,809.77,57.51,802.87,115.78Z" style="fill: #ace3e7;"/>
          <path d="M1863.01,277.91c-7.11,58.24-375.95,100.71-823.83,94.87-447.88-5.84-805.21-57.79-798.1-116.03,7.11-58.24,375.95-100.71,823.83-94.87,447.88,5.84,805.21,57.79,798.1,116.03Z" style="fill: #ace3e7;"/>
          <path d="M1861.1,282.8c-7.31,58.21-374.35,100.53-819.8,94.52-445.45-6.01-800.64-58.08-793.33-116.29,7.31-58.21,374.35-100.53,819.8-94.52,445.45,6.01,800.64,58.08,793.33,116.29Z" style="fill: #ace3e7;"/>
          <path d="M1859.18,287.68c-7.51,58.19-372.74,100.35-815.77,94.17-443.02-6.18-796.08-58.36-788.56-116.54,7.51-58.19,372.74-100.35,815.77-94.17,443.02,6.18,796.08,58.36,788.56,116.54Z" style="fill: #ace3e7;"/>
          <path d="M1857.27,292.56c-7.71,58.16-371.14,100.17-811.73,93.82-440.59-6.35-791.51-58.64-783.8-116.8,7.71-58.16,371.14-100.17,811.73-93.82,440.59,6.35,791.51,58.64,783.8,116.8Z" style="fill: #ace3e7;"/>
          <path d="M1855.35,297.44c-7.92,58.14-369.54,99.98-807.7,93.47-438.16-6.51-786.94-58.92-779.03-117.06,7.92-58.14,369.54-99.98,807.7-93.47,438.16,6.51,786.94,58.92,779.03,117.06Z" style="fill: #ace3e7;"/>
          <path d="M1853.44,302.32c-8.12,58.11-367.93,99.8-803.67,93.12-435.73-6.68-782.38-59.2-774.26-117.31,8.12-58.11,367.93-99.8,803.67-93.12,435.73,6.68,782.38,59.2,774.26,117.31Z" style="fill: #ace3e7;"/>
          <path d="M1851.53,307.2c-8.32,58.08-366.33,99.62-799.63,92.77-433.3-6.85-777.81-59.48-769.49-117.57,8.32-58.08,366.33-99.62,799.63-92.77,433.3,6.85,777.81,59.48,769.49,117.57Z" style="fill: #ace3e7;"/>
          <path d="M1849.61,312.08c-8.53,58.06-364.73,99.44-795.6,92.42-430.87-7.01-773.25-59.77-764.72-117.82,8.53-58.06,364.73-99.44,795.6-92.42,430.87,7.01,773.25,59.77,764.72,117.82Z" style="fill: #ace3e7;"/>
          <path d="M1847.7,316.96c-8.73,58.03-363.13,99.26-791.57,92.08-428.44-7.18-768.68-60.05-759.95-118.08,8.73-58.03,363.13-99.26,791.57-92.08,428.44,7.18,768.68,60.05,759.95,118.08Z" style="fill: #ace3e7;"/>
          <path d="M1845.78,321.85c-8.93,58.01-361.52,99.08-787.53,91.73-426.01-7.35-764.12-60.33-755.18-118.34,8.93-58.01,361.52-99.08,787.53-91.73,426.01,7.35,764.12,60.33,755.18,118.34Z" style="fill: #ace3e7;"/>
          <path d="M1843.87,326.73c-9.14,57.98-359.92,98.89-783.5,91.38-423.58-7.51-759.55-60.61-750.42-118.59,9.14-57.98,359.92-98.89,783.5-91.38,423.58,7.51,759.55,60.61,750.42,118.59Z" style="fill: #ace3e7;"/>
          <path d="M1841.96,331.61c-9.34,57.96-358.32,98.71-779.47,91.03-421.15-7.68-754.99-60.89-745.65-118.85,9.34-57.96,358.32-98.71,779.47-91.03,421.15,7.68,754.99,60.89,745.65,118.85Z" style="fill: #ace3e7;"/>
          <path d="M1840.04,336.49c-9.54,57.93-356.71,98.53-775.43,90.68-418.72-7.85-750.42-61.17-740.88-119.1,9.54-57.93,356.71-98.53,775.43-90.68,418.72,7.85,750.42,61.17,740.88,119.1Z" style="fill: #ace3e7;"/>
          <path d="M1838.13,341.37c-9.74,57.9-355.11,98.35-771.4,90.33-416.29-8.02-745.86-61.45-736.11-119.36,9.74-57.9,355.11-98.35,771.4-90.33,416.29,8.02,745.86,61.45,736.11,119.36Z" style="fill: #ace3e7;"/>
          <path d="M1836.21,346.25c-9.95,57.88-353.51,98.17-767.37,89.98-413.86-8.18-741.29-61.74-731.34-119.62,9.95-57.88,353.51-98.17,767.37-89.98,413.86,8.18,741.29,61.74,731.34,119.62Z" style="fill: #ace3e7;"/>
          <path d="M1834.3,351.13c-10.15,57.85-351.91,97.98-763.33,89.63-411.43-8.35-736.72-62.02-726.57-119.87,10.15-57.85,351.91-97.98,763.33-89.63,411.43,8.35,736.72,62.02,726.57,119.87Z" style="fill: #ace3e7;"/>
          <path d="M1832.39,356.01c-10.35,57.83-350.3,97.8-759.3,89.29-409-8.52-732.16-62.3-721.8-120.13,10.35-57.83,350.3-97.8,759.3-89.29,409,8.52,732.16,62.3,721.8,120.13Z" style="fill: #ace3e7;"/>
          <path d="M1830.47,360.9c-10.56,57.8-348.7,97.62-755.27,88.94-406.56-8.68-727.59-62.58-717.04-120.38,10.56-57.8,348.7-97.62,755.27-88.94,406.56,8.68,727.59,62.58,717.04,120.38Z" style="fill: #ace3e7;"/>
          <path d="M1828.56,365.78c-10.76,57.78-347.1,97.44-751.23,88.59-404.13-8.85-723.03-62.86-712.27-120.64,10.76-57.78,347.1-97.44,751.23-88.59,404.13,8.85,723.03,62.86,712.27,120.64Z" style="fill: #ace3e7;"/>
          <path d="M1826.64,370.66c-10.96,57.75-345.49,97.26-747.2,88.24-401.7-9.02-718.46-63.14-707.5-120.9,10.96-57.75,345.49-97.26,747.2-88.24,401.7,9.02,718.46,63.14,707.5,120.9Z" style="fill: #ace3e7;"/>
          <path d="M1824.73,375.54c-11.17,57.73-343.89,97.08-743.17,87.89-399.27-9.18-713.9-63.43-702.73-121.15,11.17-57.73,343.89-97.08,743.17-87.89,399.27,9.18,713.9,63.43,702.73,121.15Z" style="fill: #ace3e7;"/>
          <path d="M1822.82,380.42c-11.37,57.7-342.29,96.89-739.13,87.54-396.84-9.35-709.33-63.71-697.96-121.41,11.37-57.7,342.29-96.89,739.13-87.54,396.84,9.35,709.33,63.71,697.96,121.41Z" style="fill: #ace3e7;"/>
          <path d="M1820.9,385.3c-11.57,57.67-340.69,96.71-735.1,87.19-394.41-9.52-704.77-63.99-693.19-121.66,11.57-57.67,340.69-96.71,735.1-87.19,394.41,9.52,704.77,63.99,693.19,121.66Z" style="fill: #ace3e7;"/>
          <path d="M1818.99,390.18c-11.77,57.65-339.08,96.53-731.07,86.85-391.98-9.69-700.2-64.27-688.43-121.92,11.77-57.65,339.08-96.53,731.07-86.85,391.98,9.69,700.2,64.27,688.43,121.92Z" style="fill: #ace3e7;"/>
          <path d="M1817.07,395.06c-11.98,57.62-337.48,96.35-727.03,86.5-389.55-9.85-695.63-64.55-683.66-122.18,11.98-57.62,337.48-96.35,727.03-86.5,389.55,9.85,695.63,64.55,683.66,122.18Z" style="fill: #ace3e7;"/>
          <path d="M1815.16,399.95c-12.18,57.6-335.88,96.17-723,86.15-387.12-10.02-691.07-64.83-678.89-122.43,12.18-57.6,335.88-96.17,723-86.15,387.12,10.02,691.07,64.83,678.89,122.43Z" style="fill: #ace3e7;"/>
          <path d="M1813.25,404.83c-12.38,57.57-334.28,95.99-718.97,85.8-384.69-10.19-686.5-65.12-674.12-122.69,12.38-57.57,334.28-95.99,718.97-85.8,384.69,10.19,686.5,65.12,674.12,122.69Z" style="fill: #ace3e7;"/>
          <path d="M1811.33,409.71c-12.59,57.55-332.67,95.8-714.93,85.45-382.26-10.35-681.94-65.4-669.35-122.94,12.59-57.55,332.67-95.8,714.93-85.45,382.26,10.35,681.94,65.4,669.35,122.94Z" style="fill: #ace3e7;"/>
          <path d="M1809.42,414.59c-12.79,57.52-331.07,95.62-710.9,85.1-379.83-10.52-677.37-65.68-664.58-123.2,12.79-57.52,331.07-95.62,710.9-85.1,379.83,10.52,677.37,65.68,664.58,123.2Z" style="fill: #ace3e7;"/>
          <path d="M1807.5,419.47c-12.99,57.5-329.47,95.44-706.87,84.75-377.4-10.69-672.81-65.96-659.81-123.46,12.99-57.5,329.47-95.44,706.87-84.75,377.4,10.69,672.81,65.96,659.81,123.46Z" style="fill: #ace3e7;"/>
          <path d="M1805.59,424.35c-13.2,57.47-327.86,95.26-702.83,84.4-374.97-10.85-668.24-66.24-655.05-123.71,13.2-57.47,327.86-95.26,702.83-84.4,374.97,10.85,668.24,66.24,655.05,123.71Z" style="fill: #ace3e7;"/>
          <path d="M1803.68,429.23c-13.4,57.44-326.26,95.08-698.8,84.06-372.54-11.02-663.68-66.52-650.28-123.97,13.4-57.44,326.26-95.08,698.8-84.06,372.54,11.02,663.68,66.52,650.28,123.97Z" style="fill: #ace3e7;"/>
          <path d="M1801.76,434.11c-13.6,57.42-324.66,94.9-694.77,83.71-370.11-11.19-659.11-66.81-645.51-124.22,13.6-57.42,324.66-94.9,694.77-83.71,370.11,11.19,659.11,66.81,645.51,124.22Z" style="fill: #ace3e7;"/>
          <path d="M1799.85,439c-13.8,57.39-323.06,94.71-690.73,83.36-367.68-11.36-654.54-67.09-640.74-124.48,13.8-57.39,323.06-94.71,690.73-83.36,367.68,11.36,654.54,67.09,640.74,124.48Z" style="fill: #ace3e7;"/>
          <path d="M1797.93,443.88c-14.01,57.37-321.45,94.53-686.7,83.01-365.25-11.52-649.98-67.37-635.97-124.74,14.01-57.37,321.45-94.53,686.7-83.01,365.25,11.52,649.98,67.37,635.97,124.74Z" style="fill: #ace3e7;"/>
          <path d="M1796.02,448.76c-14.21,57.34-319.85,94.35-682.66,82.66-362.81-11.69-645.41-67.65-631.2-124.99,14.21-57.34,319.85-94.35,682.66-82.66,362.81,11.69,645.41,67.65,631.2,124.99Z" style="fill: #ace3e7;"/>
          <path d="M1794.11,453.64c-14.41,57.32-318.25,94.17-678.63,82.31-360.38-11.86-640.85-67.93-626.43-125.25,14.41-57.32,318.25-94.17,678.63-82.31,360.38,11.86,640.85,67.93,626.43,125.25Z" style="fill: #ace3e7;"/>
          <path d="M1792.19,458.52c-14.62,57.29-316.64,93.99-674.6,81.96-357.95-12.02-636.28-68.21-621.67-125.5,14.62-57.29,316.64-93.99,674.6-81.96,357.95,12.02,636.28,68.21,621.67,125.5Z" style="fill: #ace3e7;"/>
          <path d="M1790.28,463.4c-14.82,57.26-315.04,93.8-670.56,81.61-355.52-12.19-631.72-68.5-616.9-125.76,14.82-57.26,315.04-93.8,670.56-81.61,355.52,12.19,631.72,68.5,616.9,125.76Z" style="fill: #ace3e7;"/>
          <path d="M1788.36,468.28c-15.02,57.24-313.44,93.62-666.53,81.27-353.09-12.36-627.15-68.78-612.13-126.02,15.02-57.24,313.44-93.62,666.53-81.27,353.09,12.36,627.15,68.78,612.13,126.02Z" style="fill: #ace3e7;"/>
          <path d="M1786.45,473.16c-15.23,57.21-311.84,93.44-662.5,80.92-350.66-12.52-622.59-69.06-607.36-126.27,15.23-57.21,311.84-93.44,662.5-80.92,350.66,12.52,622.59,69.06,607.36,126.27Z" style="fill: #ace3e7;"/>
          <path d="M1784.54,478.05c-15.43,57.19-310.23,93.26-658.46,80.57-348.23-12.69-618.02-69.34-602.59-126.53,15.43-57.19,310.23-93.26,658.46-80.57,348.23,12.69,618.02,69.34,602.59,126.53Z" style="fill: #ace3e7;"/>
          <path d="M1782.62,482.93c-15.63,57.16-308.63,93.08-654.43,80.22-345.8-12.86-613.46-69.62-597.82-126.78,15.63-57.16,308.63-93.08,654.43-80.22,345.8,12.86,613.46,69.62,597.82,126.78Z" style="fill: #ace3e7;"/>
          <path d="M1780.71,487.81c-15.83,57.14-307.03,92.9-650.4,79.87-343.37-13.03-608.89-69.9-593.05-127.04,15.83-57.14,307.03-92.9,650.4-79.87,343.37,13.03,608.89,69.9,593.05,127.04Z" style="fill: #ace3e7;"/>
          <path d="M1778.79,492.69c-16.04,57.11-305.43,92.71-646.36,79.52-340.94-13.19-604.32-70.19-588.29-127.3,16.04-57.11,305.43-92.71,646.36-79.52,340.94,13.19,604.32,70.19,588.29,127.3Z" style="fill: #ace3e7;"/>
          <path d="M1776.88,497.57c-16.24,57.09-303.82,92.53-642.33,79.17-338.51-13.36-599.76-70.47-583.52-127.55,16.24-57.09,303.82-92.53,642.33-79.17,338.51,13.36,599.76,70.47,583.52,127.55Z" style="fill: #ace3e7;"/>
          <path d="M1774.97,502.45c-16.44,57.06-302.22,92.35-638.3,78.82-336.08-13.53-595.19-70.75-578.75-127.81,16.44-57.06,302.22-92.35,638.3-78.82,336.08,13.53,595.19,70.75,578.75,127.81Z" style="fill: #ace3e7;"/>
          <path d="M1773.05,507.33c-16.65,57.03-300.62,92.17-634.26,78.48-333.65-13.69-590.63-71.03-573.98-128.06,16.65-57.03,300.62-92.17,634.26-78.48,333.65,13.69,590.63,71.03,573.98,128.06Z" style="fill: #ace3e7;"/>
          <path d="M1771.14,512.21c-16.85,57.01-299.01,91.99-630.23,78.13-331.22-13.86-586.06-71.31-569.21-128.32,16.85-57.01,299.01-91.99,630.23-78.13,331.22,13.86,586.06,71.31,569.21,128.32Z" style="fill: #ace3e7;"/>
          <path d="M1769.22,517.1c-17.05,56.98-297.41,91.81-626.2,77.78-328.79-14.03-581.5-71.59-564.44-128.58,17.05-56.98,297.41-91.81,626.2-77.78,328.79,14.03,581.5,71.59,564.44,128.58Z" style="fill: #ace3e7;"/>
          <path d="M1767.31,521.98c-17.26,56.96-295.81,91.62-622.16,77.43-326.36-14.19-576.93-71.87-559.67-128.83,17.26-56.96,295.81-91.62,622.16-77.43,326.36,14.19,576.93,71.87,559.67,128.83Z" style="fill: #ace3e7;"/>
          <path d="M1765.4,526.86c-17.46,56.93-294.21,91.44-618.13,77.08-323.93-14.36-572.37-72.16-554.91-129.09,17.46-56.93,294.21-91.44,618.13-77.08,323.93,14.36,572.37,72.16,554.91,129.09Z" style="fill: #ace3e7;"/>
          <path d="M1763.48,531.74c-17.66,56.91-292.6,91.26-614.1,76.73-321.49-14.53-567.8-72.44-550.14-129.34,17.66-56.91,292.6-91.26,614.1-76.73,321.49,14.53,567.8,72.44,550.14,129.34Z" style="fill: #ace3e7;"/>
          <path d="M1761.57,536.62c-17.87,56.88-291,91.08-610.06,76.38-319.06-14.7-563.23-72.72-545.37-129.6,17.87-56.88,291-91.08,610.06-76.38,319.06,14.7,563.23,72.72,545.37,129.6Z" style="fill: #ace3e7;"/>
          <path d="M1759.65,541.5c-18.07,56.86-289.4,90.9-606.03,76.03-316.63-14.86-558.67-73-540.6-129.86,18.07-56.86,289.4-90.9,606.03-76.03,316.63,14.86,558.67,73,540.6,129.86Z" style="fill: #ace3e7;"/>
          <path d="M1757.74,546.38c-18.27,56.83-287.79,90.72-602,75.69-314.2-15.03-554.1-73.28-535.83-130.11,18.27-56.83,287.79-90.72,602-75.69,314.2,15.03,554.1,73.28,535.83,130.11Z" style="fill: #ace3e7;"/>
          <path d="M1755.83,551.26c-18.47,56.8-286.19,90.53-597.96,75.34-311.77-15.2-549.54-73.56-531.06-130.37,18.47-56.8,286.19-90.53,597.96-75.34,311.77,15.2,549.54,73.56,531.06,130.37Z" style="fill: #ace3e7;"/>
          <path d="M1753.91,556.15c-18.68,56.78-284.59,90.35-593.93,74.99-309.34-15.36-544.97-73.85-526.3-130.62,18.68-56.78,284.59-90.35,593.93-74.99,309.34,15.36,544.97,73.85,526.3,130.62Z" style="fill: #ace3e7;"/>
          <path d="M1752,561.03c-18.88,56.75-282.99,90.17-589.9,74.64-306.91-15.53-540.41-74.13-521.53-130.88,18.88-56.75,282.99-90.17,589.9-74.64,306.91,15.53,540.41,74.13,521.53,130.88Z" style="fill: #ace3e7;"/>
          <path d="M1750.08,565.91c-19.08,56.73-281.38,89.99-585.86,74.29-304.48-15.7-535.84-74.41-516.76-131.14,19.08-56.73,281.38-89.99,585.86-74.29,304.48,15.7,535.84,74.41,516.76,131.14Z" style="fill: #ace3e7;"/>
          <path d="M1748.17,570.79c-19.29,56.7-279.78,89.81-581.83,73.94-302.05-15.86-531.28-74.69-511.99-131.39,19.29-56.7,279.78-89.81,581.83-73.94,302.05,15.86,531.28,74.69,511.99,131.39Z" style="fill: #ace3e7;"/>
          <path d="M1746.26,575.67c-19.49,56.68-278.18,89.62-577.8,73.59-299.62-16.03-526.71-74.97-507.22-131.65,19.49-56.68,278.18-89.62,577.8-73.59,299.62,16.03,526.71,74.97,507.22,131.65Z" style="fill: #ace3e7;"/>
          <path d="M1744.34,580.55c-19.69,56.65-276.58,89.44-573.76,73.24-297.19-16.2-522.14-75.25-502.45-131.9,19.69-56.65,276.58-89.44,573.76-73.24,297.19,16.2,522.14,75.25,502.45,131.9Z" style="fill: #ace3e7;"/>
          <path d="M1742.43,585.43c-19.9,56.62-274.97,89.26-569.73,72.9-294.76-16.37-517.58-75.54-497.68-132.16,19.9-56.62,274.97-89.26,569.73-72.9,294.76,16.37,517.58,75.54,497.68,132.16Z" style="fill: #ace3e7;"/>
          <path d="M1740.51,590.31c-20.1,56.6-273.37,89.08-565.7,72.55-292.33-16.53-513.01-75.82-492.92-132.42,20.1-56.6,273.37-89.08,565.7-72.55,292.33,16.53,513.01,75.82,492.92,132.42Z" style="fill: #ace3e7;"/>
          <path d="M1738.6,595.2c-20.3,56.57-271.77,88.9-561.66,72.2-289.9-16.7-508.45-76.1-488.15-132.67,20.3-56.57,271.77-88.9,561.66-72.2,289.9,16.7,508.45,76.1,488.15,132.67Z" style="fill: #ace3e7;"/>
          <path d="M1736.69,600.08c-20.5,56.55-270.16,88.72-557.63,71.85-287.47-16.87-503.88-76.38-483.38-132.93,20.5-56.55,270.16-88.72,557.63-71.85,287.47,16.87,503.88,76.38,483.38,132.93Z" style="fill: #ace3e7;"/>
          <path d="M1734.77,604.96c-20.71,56.52-268.56,88.53-553.6,71.5-285.04-17.03-499.32-76.66-478.61-133.18,20.71-56.52,268.56-88.53,553.6-71.5,285.04,17.03,499.32,76.66,478.61,133.18Z" style="fill: #ace3e7;"/>
          <path d="M1732.86,609.84c-20.91,56.5-266.96,88.35-549.56,71.15-282.61-17.2-494.75-76.94-473.84-133.44,20.91-56.5,266.96-88.35,549.56-71.15,282.61,17.2,494.75,76.94,473.84,133.44Z" style="fill: #ace3e7;"/>
          <path d="M1730.94,614.72c-21.11,56.47-265.36,88.17-545.53,70.8-280.18-17.37-490.19-77.23-469.07-133.7,21.11-56.47,265.36-88.17,545.53-70.8,280.18,17.37,490.19,77.23,469.07,133.7Z" style="fill: #ace3e7;"/>
          <path d="M1729.03,619.6c-21.32,56.45-263.75,87.99-541.5,70.45-277.74-17.53-485.62-77.51-464.3-133.95,21.32-56.45,263.75-87.99,541.5-70.45,277.74,17.53,485.62,77.51,464.3,133.95Z" style="fill: #ace3e7;"/>
          <path d="M1727.12,624.48c-21.52,56.42-262.15,87.81-537.46,70.11-275.31-17.7-481.05-77.79-459.54-134.21,21.52-56.42,262.15-87.81,537.46-70.11,275.31,17.7,481.05,77.79,459.54,134.21Z" style="fill: #ace3e7;"/>
          <path d="M1725.2,629.36c-21.72,56.39-260.55,87.63-533.43,69.76-272.88-17.87-476.49-78.07-454.77-134.46,21.72-56.39,260.55-87.63,533.43-69.76,272.88,17.87,476.49,78.07,454.77,134.46Z" style="fill: #ace3e7;"/>
          <path d="M1723.29,634.25c-21.93,56.37-258.94,87.44-529.4,69.41-270.45-18.04-471.92-78.35-450-134.72,21.93-56.37,258.94-87.44,529.4-69.41,270.45,18.04,471.92,78.35,450,134.72Z" style="fill: #ace3e7;"/>
          <path d="M1721.37,639.13c-22.13,56.34-257.34,87.26-525.36,69.06-268.02-18.2-467.36-78.63-445.23-134.98,22.13-56.34,257.34-87.26,525.36-69.06,268.02,18.2,467.36,78.63,445.23,134.98Z" style="fill: #ace3e7;"/>
          <path d="M1719.46,644.01c-22.33,56.32-255.74,87.08-521.33,68.71-265.59-18.37-462.79-78.92-440.46-135.23,22.33-56.32,255.74-87.08,521.33-68.71,265.59,18.37,462.79,78.92,440.46,135.23Z" style="fill: #ace3e7;"/>
          <path d="M1717.55,648.89c-22.53,56.29-254.14,86.9-517.3,68.36-263.16-18.54-458.23-79.2-435.69-135.49,22.53-56.29,254.14-86.9,517.3-68.36,263.16,18.54,458.23,79.2,435.69,135.49Z" style="fill: #ace3e7;"/>
          <path d="M1715.63,653.77c-22.74,56.27-252.53,86.72-513.26,68.01-260.73-18.7-453.66-79.48-430.92-135.74,22.74-56.27,252.53-86.72,513.26-68.01,260.73,18.7,453.66,79.48,430.92,135.74Z" style="fill: #ace3e7;"/>
          <path d="M1713.72,658.65c-22.94,56.24-250.93,86.54-509.23,67.67-258.3-18.87-449.1-79.76-426.16-136,22.94-56.24,250.93-86.54,509.23-67.67,258.3,18.87,449.1,79.76,426.16,136Z" style="fill: #ace3e7;"/>
          <path d="M1711.8,663.53c-23.14,56.22-249.33,86.35-505.2,67.32-255.87-19.04-444.53-80.04-421.39-136.26,23.14-56.22,249.33-86.35,505.2-67.32,255.87,19.04,444.53,80.04,421.39,136.26Z" style="fill: #ace3e7;"/>
          <path d="M1709.89,668.41c-23.35,56.19-247.73,86.17-501.16,66.97-253.44-19.2-439.97-80.32-416.62-136.51,23.35-56.19,247.73-86.17,501.16-66.97,253.44,19.2,439.97,80.32,416.62,136.51Z" style="fill: #ace3e7;"/>
          <path d="M1707.98,673.3c-23.55,56.16-246.12,85.99-497.13,66.62-251.01-19.37-435.4-80.6-411.85-136.77,23.55-56.16,246.12-85.99,497.13-66.62,251.01,19.37,435.4,80.6,411.85,136.77Z" style="fill: #ace3e7;"/>
          <path d="M1706.06,678.18c-23.75,56.14-244.52,85.81-493.1,66.27-248.58-19.54-430.83-80.89-407.08-137.02,23.75-56.14,244.52-85.81,493.1-66.27,248.58,19.54,430.83,80.89,407.08,137.02Z" style="fill: #ace3e7;"/>
          <path d="M1704.15,683.06c-23.96,56.11-242.92,85.63-489.06,65.92-246.15-19.71-426.27-81.17-402.31-137.28,23.96-56.11,242.92-85.63,489.06-65.92,246.15,19.71,426.27,81.17,402.31,137.28Z" style="fill: #ace3e7;"/>
          <path d="M1702.23,687.94c-24.16,56.09-241.31,85.45-485.03,65.57-243.72-19.87-421.7-81.45-397.54-137.54,24.16-56.09,241.31-85.45,485.03-65.57,243.72,19.87,421.7,81.45,397.54,137.54Z" style="fill: #ace3e7;"/>
          <path d="M1700.32,692.82c-24.36,56.06-239.71,85.26-481,65.22-241.29-20.04-417.14-81.73-392.78-137.79,24.36-56.06,239.71-85.26,481-65.22,241.29,20.04,417.14,81.73,392.78,137.79Z" style="fill: #ace3e7;"/>
          <path d="M1698.41,697.7c-24.56,56.04-238.11,85.08-476.96,64.88-238.86-20.21-412.57-82.01-388.01-138.05,24.56-56.04,238.11-85.08,476.96-64.88,238.86,20.21,412.57,82.01,388.01,138.05Z" style="fill: #ace3e7;"/>
          <path d="M1696.49,702.58c-24.77,56.01-236.51,84.9-472.93,64.53-236.42-20.37-408.01-82.29-383.24-138.3,24.77-56.01,236.51-84.9,472.93-64.53,236.42,20.37,408.01,82.29,383.24,138.3Z" style="fill: #ace3e7;"/>
          <path d="M1694.58,707.46c-24.97,55.98-234.9,84.72-468.9,64.18-233.99-20.54-403.44-82.58-378.47-138.56,24.97-55.98,234.9-84.72,468.9-64.18,233.99,20.54,403.44,82.58,378.47,138.56Z" style="fill: #ace3e7;"/>
          <path d="M1692.66,712.35c-25.17,55.96-233.3,84.54-464.86,63.83-231.56-20.71-398.88-82.86-373.7-138.82,25.17-55.96,233.3-84.54,464.86-63.83,231.56,20.71,398.88,82.86,373.7,138.82Z" style="fill: #ace3e7;"/>
          <path d="M1690.75,717.23c-25.38,55.93-231.7,84.35-460.83,63.48-229.13-20.87-394.31-83.14-368.93-139.07,25.38-55.93,231.7-84.35,460.83-63.48,229.13,20.87,394.31,83.14,368.93,139.07Z" style="fill: #ace3e7;"/>
          <path d="M1688.84,722.11c-25.58,55.91-230.09,84.17-456.8,63.13-226.7-21.04-389.74-83.42-364.16-139.33,25.58-55.91,230.09-84.17,456.8-63.13,226.7,21.04,389.74,83.42,364.16,139.33Z" style="fill: #ace3e7;"/>
          <path d="M1686.92,726.99c-25.78,55.88-228.49,83.99-452.76,62.78-224.27-21.21-385.18-83.7-359.4-139.58,25.78-55.88,228.49-83.99,452.76-62.78,224.27,21.21,385.18,83.7,359.4,139.58Z" style="fill: #ace3e7;"/>
          <path d="M1685.01,731.87c-25.99,55.86-226.89,83.81-448.73,62.43-221.84-21.38-380.61-83.98-354.63-139.84,25.99-55.86,226.89-83.81,448.73-62.43,221.84,21.38,380.61,83.98,354.63,139.84Z" style="fill: #ace3e7;"/>
          <path d="M1683.09,736.75c-26.19,55.83-225.29,83.63-444.7,62.09-219.41-21.54-376.05-84.27-349.86-140.1,26.19-55.83,225.29-83.63,444.7-62.09,219.41,21.54,376.05,84.27,349.86,140.1Z" style="fill: #ace3e7;"/>
          <path d="M1681.18,741.63c-26.39,55.81-223.68,83.45-440.66,61.74-216.98-21.71-371.48-84.55-345.09-140.35,26.39-55.81,223.68-83.45,440.66-61.74,216.98,21.71,371.48,84.55,345.09,140.35Z" style="fill: #ace3e7;"/>
          <path d="M1679.27,746.51c-26.59,55.78-222.08,83.26-436.63,61.39-214.55-21.88-366.92-84.83-340.32-140.61,26.59-55.78,222.08-83.26,436.63-61.39,214.55,21.88,366.92,84.83,340.32,140.61Z" style="fill: #ace3e7;"/>
          <path d="M1677.35,751.4c-26.8,55.75-220.48,83.08-432.6,61.04-212.12-22.04-362.35-85.11-335.55-140.86,26.8-55.75,220.48-83.08,432.6-61.04,212.12,22.04,362.35,85.11,335.55,140.86Z" style="fill: #ace3e7;"/>
          <path d="M1675.44,756.28c-27,55.73-218.88,82.9-428.56,60.69-209.69-22.21-357.79-85.39-330.79-141.12,27-55.73,218.88-82.9,428.56-60.69,209.69,22.21,357.79,85.39,330.79,141.12Z" style="fill: #ace3e7;"/>
          <path d="M1673.52,761.16c-27.2,55.7-217.27,82.72-424.53,60.34-207.26-22.38-353.22-85.67-326.02-141.38,27.2-55.7,217.27-82.72,424.53-60.34,207.26,22.38,353.22,85.67,326.02,141.38Z" style="fill: #ace3e7;"/>
          <path d="M1671.61,766.04c-27.41,55.68-215.67,82.54-420.5,59.99-204.83-22.54-348.65-85.96-321.25-141.63,27.41-55.68,215.67-82.54,420.5-59.99,204.83,22.54,348.65,85.96,321.25,141.63Z" style="fill: #ace3e7;"/>
          <path d="M1669.7,770.92c-27.61,55.65-214.07,82.36-416.46,59.64-202.4-22.71-344.09-86.24-316.48-141.89,27.61-55.65,214.07-82.36,416.46-59.64,202.4,22.71,344.09,86.24,316.48,141.89Z" style="fill: #ace3e7;"/>
          <path d="M1667.78,775.8c-27.81,55.63-212.46,82.17-412.43,59.3-199.97-22.88-339.52-86.52-311.71-142.14,27.81-55.63,212.46-82.17,412.43-59.3,199.97,22.88,339.52,86.52,311.71,142.14Z" style="fill: #ace3e7;"/>
          <path d="M1665.87,780.68c-28.02,55.6-210.86,81.99-408.4,58.95-197.54-23.05-334.96-86.8-306.94-142.4,28.02-55.6,210.86-81.99,408.4-58.95,197.54,23.05,334.96,86.8,306.94,142.4Z" style="fill: #ace3e7;"/>
          <path d="M1663.95,785.56c-28.22,55.58-209.26,81.81-404.36,58.6-195.1-23.21-330.39-87.08-302.17-142.66,28.22-55.58,209.26-81.81,404.36-58.6,195.1,23.21,330.39,87.08,302.17,142.66Z" style="fill: #ace3e7;"/>
          <path d="M1662.04,790.45c-28.42,55.55-207.66,81.63-400.33,58.25-192.67-23.38-325.83-87.36-297.41-142.91,28.42-55.55,207.66-81.63,400.33-58.25,192.67,23.38,325.83,87.36,297.41,142.91Z" style="fill: #ace3e7;"/>
          <path d="M1660.13,795.33c-28.62,55.52-206.05,81.45-396.3,57.9-190.24-23.55-321.26-87.65-292.64-143.17,28.62-55.52,206.05-81.45,396.3-57.9,190.24,23.55,321.26,87.65,292.64,143.17Z" style="fill: #ace3e7;"/>
          <path d="M1658.21,800.21c-28.83,55.5-204.45,81.27-392.26,57.55-187.81-23.71-316.7-87.93-287.87-143.43,28.83-55.5,204.45-81.27,392.26-57.55,187.81,23.71,316.7,87.93,287.87,143.43Z" style="fill: #ace3e7;"/>
          <path d="M1656.3,805.09c-29.03,55.47-202.85,81.08-388.23,57.2-185.38-23.88-312.13-88.21-283.1-143.68,29.03-55.47,202.85-81.08,388.23-57.2,185.38,23.88,312.13,88.21,283.1,143.68Z" style="fill: #ace3e7;"/>
          <path d="M1654.38,809.97c-29.23,55.45-201.24,80.9-384.2,56.85-182.95-24.05-307.57-88.49-278.33-143.94,29.23-55.45,201.24-80.9,384.2-56.85,182.95,24.05,307.57,88.49,278.33,143.94Z" style="fill: #ace3e7;"/>
          <path d="M1652.47,814.85c-29.44,55.42-199.64,80.72-380.16,56.51-180.52-24.21-303-88.77-273.56-144.19,29.44-55.42,199.64-80.72,380.16-56.51,180.52,24.21,303,88.77,273.56,144.19Z" style="fill: #ace3e7;"/>
          <path d="M1650.56,819.73c-29.64,55.4-198.04,80.54-376.13,56.16-178.09-24.38-298.43-89.05-268.79-144.45,29.64-55.4,198.04-80.54,376.13-56.16,178.09,24.38,298.43,89.05,268.79,144.45Z" style="fill: #ace3e7;"/>
          <path d="M1648.64,824.61c-29.84,55.37-196.44,80.36-372.1,55.81-175.66-24.55-293.87-89.33-264.03-144.71,29.84-55.37,196.44-80.36,372.1-55.81,175.66,24.55,293.87,89.33,264.03,144.71Z" style="fill: #ace3e7;"/>
          <path d="M1646.73,829.5c-30.05,55.34-194.83,80.17-368.06,55.46-173.23-24.72-289.3-89.62-259.26-144.96,30.05-55.34,194.83-80.17,368.06-55.46,173.23,24.72,289.3,89.62,259.26,144.96Z" style="fill: #ace3e7;"/>
          <path d="M1644.81,834.38c-30.25,55.32-193.23,79.99-364.03,55.11-170.8-24.88-284.74-89.9-254.49-145.22,30.25-55.32,193.23-79.99,364.03-55.11,170.8,24.88,284.74,89.9,254.49,145.22Z" style="fill: #ace3e7;"/>
          <path d="M1642.9,839.26c-30.45,55.29-191.63,79.81-360,54.76-168.37-25.05-280.17-90.18-249.72-145.47,30.45-55.29,191.63-79.81,360-54.76,168.37,25.05,280.17,90.18,249.72,145.47Z" style="fill: #ace3e7;"/>
          <path d="M1640.99,844.14c-30.65,55.27-190.02,79.63-355.96,54.41-165.94-25.22-275.61-90.46-244.95-145.73,30.65-55.27,190.02-79.63,355.96-54.41,165.94,25.22,275.61,90.46,244.95,145.73Z" style="fill: #ace3e7;"/>
          <path d="M1639.07,849.02c-30.86,55.24-188.42,79.45-351.93,54.06-163.51-25.38-271.04-90.74-240.18-145.99,30.86-55.24,188.42-79.45,351.93-54.06,163.51,25.38,271.04,90.74,240.18,145.99Z" style="fill: #ace3e7;"/>
          <path d="M1637.16,853.9c-31.06,55.22-186.82,79.27-347.9,53.72-161.08-25.55-266.48-91.02-235.41-146.24,31.06-55.22,186.82-79.27,347.9-53.72,161.08,25.55,266.48,91.02,235.41,146.24Z" style="fill: #ace3e7;"/>
          <path d="M1635.24,858.78c-31.26,55.19-185.22,79.08-343.86,53.37-158.65-25.72-261.91-91.31-230.65-146.5,31.26-55.19,185.22-79.08,343.86-53.37,158.65,25.72,261.91,91.31,230.65,146.5Z" style="fill: #ace3e7;"/>
          <path d="M1633.33,863.66c-31.47,55.17-183.61,78.9-339.83,53.02-156.22-25.88-257.34-91.59-225.88-146.75,31.47-55.17,183.61-78.9,339.83-53.02,156.22,25.88,257.34,91.59,225.88,146.75Z" style="fill: #ace3e7;"/>
          <path d="M1631.42,868.55c-31.67,55.14-182.01,78.72-335.8,52.67-153.79-26.05-252.78-91.87-221.11-147.01,31.67-55.14,182.01-78.72,335.8-52.67,153.79,26.05,252.78,91.87,221.11,147.01Z" style="fill: #ace3e7;"/>
          <path d="M1629.5,873.43c-31.87,55.11-180.41,78.54-331.76,52.32-151.35-26.22-248.21-92.15-216.34-147.27,31.87-55.11,180.41-78.54,331.76-52.32,151.35,26.22,248.21,92.15,216.34,147.27Z" style="fill: #ace3e7;"/>
          <path d="M1627.59,878.31c-32.08,55.09-178.81,78.36-327.73,51.97-148.92-26.39-243.65-92.43-211.57-147.52,32.08-55.09,178.81-78.36,327.73-51.97,148.92,26.39,243.65,92.43,211.57,147.52Z" style="fill: #ace3e7;"/>
          <path d="M1625.67,883.19c-32.28,55.06-177.2,78.18-323.7,51.62-146.49-26.55-239.08-92.71-206.8-147.78,32.28-55.06,177.2-78.18,323.7-51.62,146.49,26.55,239.08,92.71,206.8,147.78Z" style="fill: #ace3e7;"/>
          <path d="M1623.76,888.07c-32.48,55.04-175.6,77.99-319.66,51.27-144.06-26.72-234.52-93-202.03-148.03,32.48-55.04,175.6-77.99,319.66-51.27,144.06,26.72,234.52,93,202.03,148.03Z" style="fill: #ace3e7;"/>
          <path d="M1621.85,892.95c-32.69,55.01-174,77.81-315.63,50.93-141.63-26.89-229.95-93.28-197.27-148.29,32.69-55.01,174-77.81,315.63-50.93,141.63,26.89,229.95,93.28,197.27,148.29Z" style="fill: #ace3e7;"/>
          <path d="M1619.93,897.83c-32.89,54.99-172.39,77.63-311.6,50.58-139.2-27.05-225.39-93.56-192.5-148.55,32.89-54.99,172.39-77.63,311.6-50.58,139.2,27.05,225.39,93.56,192.5,148.55Z" style="fill: #ace3e7;"/>
          <path d="M1618.02,902.71c-33.09,54.96-170.79,77.45-307.56,50.23-136.77-27.22-220.82-93.84-187.73-148.8,33.09-54.96,170.79-77.45,307.56-50.23,136.77,27.22,220.82,93.84,187.73,148.8Z" style="fill: #ace3e7;"/>
          <path d="M1616.1,907.6c-33.29,54.94-169.19,77.27-303.53,49.88-134.34-27.39-216.25-94.12-182.96-149.06,33.29-54.94,169.19-77.27,303.53-49.88,134.34,27.39,216.25,94.12,182.96,149.06Z" style="fill: #ace3e7;"/>
          <path d="M1614.19,912.48c-33.5,54.91-167.59,77.09-299.5,49.53-131.91-27.55-211.69-94.4-178.19-149.31,33.5-54.91,167.59-77.09,299.5-49.53,131.91,27.55,211.69,94.4,178.19,149.31Z" style="fill: #ace3e7;"/>
          <path d="M1612.28,917.36c-33.7,54.88-165.98,76.9-295.46,49.18-129.48-27.72-207.12-94.69-173.42-149.57,33.7-54.88,165.98-76.9,295.46-49.18,129.48,27.72,207.12,94.69,173.42,149.57Z" style="fill: #ace3e7;"/>
          <path d="M1610.36,922.24c-33.9,54.86-164.38,76.72-291.43,48.83-127.05-27.89-202.56-94.97-168.66-149.83,33.9-54.86,164.38-76.72,291.43-48.83,127.05,27.89,202.56,94.97,168.66,149.83Z" style="fill: #ace3e7;"/>
          <path d="M1608.45,927.12c-34.11,54.83-162.78,76.54-287.4,48.49-124.62-28.06-197.99-95.25-163.89-150.08,34.11-54.83,162.78-76.54,287.4-48.49,124.62,28.06,197.99,95.25,163.89,150.08Z" style="fill: #ace3e7;"/>
          <path d="M1606.53,932c-34.31,54.81-161.17,76.36-283.36,48.14-122.19-28.22-193.43-95.53-159.12-150.34,34.31-54.81,161.17-76.36,283.36-48.14,122.19,28.22,193.43,95.53,159.12,150.34Z" style="fill: #ace3e7;"/>
          <path d="M1604.62,936.88c-34.51,54.78-159.57,76.18-279.33,47.79-119.76-28.39-188.86-95.81-154.35-150.59,34.51-54.78,159.57-76.18,279.33-47.79,119.76,28.39,188.86,95.81,154.35,150.59Z" style="fill: #ace3e7;"/>
          <path d="M1602.71,941.76c-34.72,54.76-157.97,75.99-275.3,47.44-117.33-28.56-184.3-96.09-149.58-150.85,34.72-54.76,157.97-75.99,275.3-47.44,117.33,28.56,184.3,96.09,149.58,150.85Z" style="fill: #ace3e7;"/>
          <path d="M1600.79,946.65c-34.92,54.73-156.37,75.81-271.26,47.09-114.9-28.72-179.73-96.38-144.81-151.11,34.92-54.73,156.37-75.81,271.26-47.09,114.9,28.72,179.73,96.38,144.81,151.11Z" style="fill: #ace3e7;"/>
          <path d="M1598.88,951.53c-35.12,54.7-154.76,75.63-267.23,46.74-112.47-28.89-175.17-96.66-140.04-151.36,35.12-54.7,154.76-75.63,267.23-46.74,112.47,28.89,175.17,96.66,140.04,151.36Z" style="fill: #ace3e7;"/>
          <path d="M1596.96,956.41c-35.32,54.68-153.16,75.45-263.2,46.39-110.03-29.06-170.6-96.94-135.28-151.62,35.32-54.68,153.16-75.45,263.2-46.39,110.03,29.06,170.6,96.94,135.28,151.62Z" style="fill: #ace3e7;"/>
          <path d="M1595.05,961.29c-35.53,54.65-151.56,75.27-259.16,46.04-107.6-29.22-166.03-97.22-130.51-151.87,35.53-54.65,151.56-75.27,259.16-46.04,107.6,29.22,166.03,97.22,130.51,151.87Z" style="fill: #ace3e7;"/>
          <path d="M1593.14,966.17c-35.73,54.63-149.96,75.09-255.13,45.7-105.17-29.39-161.47-97.5-125.74-152.13,35.73-54.63,149.96-75.09,255.13-45.7,105.17,29.39,161.47,97.5,125.74,152.13Z" style="fill: #ace3e7;"/>
          <path d="M1591.22,971.05c-35.93,54.6-148.35,74.9-251.1,45.35-102.74-29.56-156.9-97.78-120.97-152.39,35.93-54.6,148.35-74.9,251.1-45.35,102.74,29.56,156.9,97.78,120.97,152.39Z" style="fill: #ace3e7;"/>
          <path d="M1589.31,975.93c-36.14,54.58-146.75,74.72-247.06,45-100.31-29.72-152.34-98.06-116.2-152.64,36.14-54.58,146.75-74.72,247.06-45,100.31,29.72,152.34,98.06,116.2,152.64Z" style="fill: #ace3e7;"/>
          <path d="M1587.39,980.81c-36.34,54.55-145.15,74.54-243.03,44.65-97.88-29.89-147.77-98.35-111.43-152.9,36.34-54.55,145.15-74.54,243.03-44.65,97.88,29.89,147.77,98.35,111.43,152.9Z" style="fill: #ace3e7;"/>
          <path d="M1585.48,985.7c-36.54,54.53-143.54,74.36-239,44.3-95.45-30.06-143.21-98.63-106.66-153.15,36.54-54.53,143.54-74.36,239-44.3,95.45,30.06,143.21,98.63,106.66,153.15Z" style="fill: #ace3e7;"/>
          <path d="M1583.57,990.58c-36.75,54.5-141.94,74.18-234.96,43.95-93.02-30.23-138.64-98.91-101.9-153.41,36.75-54.5,141.94-74.18,234.96-43.95,93.02,30.23,138.64,98.91,101.9,153.41Z" style="fill: #ace3e7;"/>
          <path d="M1581.65,995.46c-36.95,54.47-140.34,74-230.93,43.6-90.59-30.39-134.08-99.19-97.13-153.67,36.95-54.47,140.34-74,230.93-43.6,90.59,30.39,134.08,99.19,97.13,153.67Z" style="fill: #ace3e7;"/>
          <path d="M1579.74,1000.34c-37.15,54.45-138.74,73.81-226.9,43.25-88.16-30.56-129.51-99.47-92.36-153.92,37.15-54.45,138.74-73.81,226.9-43.25,88.16,30.56,129.51,99.47,92.36,153.92Z" style="fill: #ace3e7;"/>
          <path d="M1577.82,1005.22c-37.35,54.42-137.13,73.63-222.86,42.91-85.73-30.73-124.94-99.75-87.59-154.18,37.35-54.42,137.13-73.63,222.86-42.91,85.73,30.73,124.94,99.75,87.59,154.18Z" style="fill: #ace3e7;"/>
          <path d="M1575.91,1010.1c-37.56,54.4-135.53,73.45-218.83,42.56-83.3-30.89-120.38-100.04-82.82-154.43,37.56-54.4,135.53-73.45,218.83-42.56,83.3,30.89,120.38,100.04,82.82,154.43Z" style="fill: #ace3e7;"/>
          <path d="M1574,1014.98c-37.76,54.37-133.93,73.27-214.8,42.21-80.87-31.06-115.81-100.32-78.05-154.69,37.76-54.37,133.93-73.27,214.8-42.21,80.87,31.06,115.81,100.32,78.05,154.69Z" style="fill: #ace3e7;"/>
          <path d="M1572.08,1019.86c-37.96,54.35-132.32,73.09-210.76,41.86-78.44-31.23-111.25-100.6-73.28-154.95,37.96-54.35,132.32-73.09,210.76-41.86,78.44,31.23,111.25,100.6,73.28,154.95Z" style="fill: #ace3e7;"/>
          <path d="M1570.17,1024.75c-38.17,54.32-130.72,72.91-206.73,41.51-76.01-31.39-106.68-100.88-68.52-155.2,38.17-54.32,130.72-72.91,206.73-41.51,76.01,31.39,106.68,100.88,68.52,155.2Z" style="fill: #ace3e7;"/>
          <path d="M1568.25,1029.63c-38.37,54.29-129.12,72.72-202.7,41.16-73.58-31.56-102.12-101.16-63.75-155.46,38.37-54.29,129.12-72.72,202.7-41.16,73.58,31.56,102.12,101.16,63.75,155.46Z" style="fill: #ace3e7;"/>
          <path d="M1566.34,1034.51c-38.57,54.27-127.52,72.54-198.66,40.81-71.15-31.73-97.55-101.44-58.98-155.71,38.57-54.27,127.52-72.54,198.66-40.81,71.15,31.73,97.55,101.44,58.98,155.71Z" style="fill: #ace3e7;"/>
          <path d="M1564.43,1039.39c-38.78,54.24-125.91,72.36-194.63,40.46-68.72-31.9-92.99-101.73-54.21-155.97,38.78-54.24,125.91-72.36,194.63-40.46,68.72,31.9,92.99,101.73,54.21,155.97Z" style="fill: #ace3e7;"/>
          <path d="M1562.51,1044.27c-38.98,54.22-124.31,72.18-190.6,40.12-66.28-32.06-88.42-102.01-49.44-156.23,38.98-54.22,124.31-72.18,190.6-40.12,66.28,32.06,88.42,102.01,49.44,156.23Z" style="fill: #ace3e7;"/>
          <path d="M1560.6,1049.15c-39.18,54.19-122.71,72-186.56,39.77-63.85-32.23-83.85-102.29-44.67-156.48,39.18-54.19,122.71-72,186.56-39.77,63.85,32.23,83.85,102.29,44.67,156.48Z" style="fill: #ace3e7;"/>
          <path d="M1558.68,1054.03c-39.38,54.17-121.11,71.82-182.53,39.42-61.42-32.4-79.29-102.57-39.9-156.74,39.38-54.17,121.11-71.82,182.53-39.42,61.42,32.4,79.29,102.57,39.9,156.74Z" style="fill: #ace3e7;"/>
          <path d="M1556.77,1058.91c-39.59,54.14-119.5,71.63-178.5,39.07-58.99-32.56-74.72-102.85-35.14-156.99,39.59-54.14,119.5-71.63,178.5-39.07,58.99,32.56,74.72,102.85,35.14,156.99Z" style="fill: #ace3e7;"/>
          <path d="M1554.86,1063.8c-39.79,54.12-117.9,71.45-174.46,38.72-56.56-32.73-70.16-103.13-30.37-157.25,39.79-54.12,117.9-71.45,174.46-38.72,56.56,32.73,70.16,103.13,30.37,157.25Z" style="fill: #ace3e7;"/>
          <path d="M1552.94,1068.68c-39.99,54.09-116.3,71.27-170.43,38.37-54.13-32.9-65.59-103.42-25.6-157.51,39.99-54.09,116.3-71.27,170.43-38.37,54.13,32.9,65.59,103.42,25.6,157.51Z" style="fill: #ace3e7;"/>
          <path d="M1551.03,1073.56c-40.2,54.06-114.69,71.09-166.4,38.02-51.7-33.06-61.03-103.7-20.83-157.76,40.2-54.06,114.69-71.09,166.4-38.02,51.7,33.06,61.03,103.7,20.83,157.76Z" style="fill: #ace3e7;"/>
          <path d="M1549.11,1078.44c-40.4,54.04-113.09,70.91-162.36,37.67-49.27-33.23-56.46-103.98-16.06-158.02,40.4-54.04,113.09-70.91,162.36-37.67,49.27,33.23,56.46,103.98,16.06,158.02Z" style="fill: #ace3e7;"/>
          <path d="M1547.2,1083.32c-40.6,54.01-111.49,70.72-158.33,37.33-46.84-33.4-51.9-104.26-11.29-158.27,40.6-54.01,111.49-70.72,158.33-37.33,46.84,33.4,51.9,104.26,11.29,158.27Z" style="fill: #ace3e7;"/>
          <ellipse cx="1464.88" cy="1027.43" rx="122.53" ry="100.79" transform="translate(-238.05 1576.54) rotate(-52.92)" style="fill: #ace3e7;"/>
        </g>
      </g>
    </g>
  </g>
</svg>