<?xml version="1.0" encoding="UTF-8" standalone="no"?>
<svg
   id="Calque_2"
   data-name="Calque 2"
   viewBox="0 0 3724900 1305420.6"
   version="1.1"
   width="3724900"
   height="1305420.6"
   xmlns="http://www.w3.org/2000/svg"
   xmlns:svg="http://www.w3.org/2000/svg">
  <defs
     id="defs200" />
  <path
     style="display:inline;fill:#3be8e8;fill-opacity:1"
     d="m 1445.056,1141.7666 c 37.1523,-5.5849 98.8861,-34.5769 114.1949,-77.8019 15.3088,-43.2249 371.2646,-958.82316 371.2646,-958.82316 0,0 14.4182,-16.00067 -32.0541,-32.0379 C 1854.47,57.922549 1750.3861,42.821546 1719.0219,37.327964 1650.5931,25.342336 1202.947,0 1202.947,0 c 0,0 -911.09657,17.221393 -984.93837,41.19821 C 86.664946,55.95893 39.501325,75.676074 39.501325,75.676074 c 0,0 -20.238265,1.52829 -39.93155759,29.098896 C -20.123525,132.34558 625.90011,534.90345 625.90011,534.90345 c 48.09501,8.01584 412.11999,256.70237 498.36499,330.62665 86.245,73.92428 141.6882,120.12695 172.49,144.7684 30.8017,24.6414 61.6035,98.5657 95.4855,113.9666 33.882,15.4009 52.8154,17.5015 52.8154,17.5015 z"
     id="path408" />
</svg>
