<?xml version="1.0" encoding="UTF-8"?>
<svg id="Calque_2" data-name="Calque 2" xmlns="http://www.w3.org/2000/svg" viewBox="0 0 1127.91 718.21">
  <g id="illu_cylindre_motif" data-name="illu cylindre motif">
    <g id="animation">
      <g id="flèche_reservoir" data-name="flèche reservoir">
        <g>
          <line x1="634.71" y1="592.66" x2="561.61" y2="525.34" style="fill: none; stroke: #d98d39; stroke-linecap: round; stroke-miterlimit: 40; stroke-width: 5px;"/>
          <path d="M602.78,530.63c-.24,1.36-1.54,2.26-2.91,2.02l-37.65-6.74,9.81,36.97c.36,1.34-.44,2.71-1.77,3.06-1.33.35-2.71-.46-3.06-1.78l-10.82-40.76c-.22-.82,0-1.71.58-2.34.58-.63,1.44-.92,2.28-.77l41.51,7.43c.49.09.91.31,1.25.62.61.56.93,1.41.77,2.28Z" style="fill: #d98d39;"/>
        </g>
        <g>
          <line x1="443.9" y1="402.78" x2="370.8" y2="335.46" style="fill: none; stroke: #d98d39; stroke-linecap: round; stroke-miterlimit: 40; stroke-width: 5px;"/>
          <path d="M411.96,340.74c-.24,1.36-1.54,2.26-2.91,2.02l-37.65-6.74,9.81,36.97c.36,1.34-.44,2.71-1.77,3.06-1.33.35-2.71-.46-3.06-1.78l-10.82-40.76c-.22-.82,0-1.71.58-2.34.58-.63,1.44-.92,2.28-.77l41.51,7.43c.49.09.91.31,1.25.62.61.56.93,1.41.77,2.28Z" style="fill: #d98d39;"/>
        </g>
        <g>
          <line x1="78.41" y1="72.41" x2="5.32" y2="5.09" style="fill: none; stroke: #d98d39; stroke-linecap: round; stroke-miterlimit: 40; stroke-width: 5px;"/>
          <path d="M46.48,10.38c-.24,1.36-1.54,2.26-2.91,2.02L5.92,5.65l9.81,36.97c.36,1.34-.44,2.71-1.77,3.06s-2.71-.46-3.06-1.78L.08,3.14c-.22-.82,0-1.71.58-2.34C1.24.18,2.1-.11,2.94.04l41.51,7.43c.49.09.91.31,1.25.62.61.56.93,1.41.77,2.28Z" style="fill: #d98d39;"/>
        </g>
        <g>
          <line x1="173.14" y1="264.66" x2="93.87" y2="204.74" style="fill: none; stroke: #d98d39; stroke-linecap: round; stroke-miterlimit: 40; stroke-width: 5px;"/>
          <path d="M135.35,206.01c-.11,1.37-1.32,2.4-2.7,2.29l-38.13-3.06,13.35,35.84c.48,1.3-.17,2.74-1.47,3.22-1.29.48-2.74-.19-3.22-1.47l-14.72-39.52c-.3-.8-.17-1.7.35-2.38.52-.68,1.35-1.05,2.19-.99l42.04,3.37c.49.04.94.22,1.31.5.66.5,1.06,1.31.99,2.2Z" style="fill: #d98d39;"/>
        </g>
        <g>
          <line x1="495.21" y1="256.79" x2="457.36" y2="164.91" style="fill: none; stroke: #d98d39; stroke-linecap: round; stroke-miterlimit: 40; stroke-width: 5px;"/>
          <path d="M492.44,187.07c-.79,1.13-2.36,1.4-3.49.6l-31.29-22-6.71,37.65c-.24,1.36-1.54,2.27-2.9,2.03-1.36-.24-2.26-1.56-2.03-2.9l7.4-41.52c.15-.84.72-1.55,1.51-1.87s1.69-.22,2.39.27l34.5,24.26c.4.29.7.67.87,1.09.31.76.24,1.67-.26,2.4Z" style="fill: #d98d39;"/>
        </g>
        <g>
          <line x1="883.66" y1="398.72" x2="887.43" y2="299.42" style="fill: none; stroke: #d98d39; stroke-linecap: round; stroke-miterlimit: 40; stroke-width: 5px;"/>
          <path d="M910.13,334.16c-1.19.7-2.72.29-3.42-.9l-19.31-33.02-21.76,31.46c-.79,1.14-2.35,1.43-3.48.64-1.13-.79-1.41-2.35-.64-3.48l23.99-34.69c.49-.7,1.3-1.11,2.15-1.08.85.03,1.63.5,2.06,1.24l21.29,36.41c.25.43.36.9.34,1.36-.03.82-.47,1.62-1.24,2.07Z" style="fill: #d98d39;"/>
        </g>
        <g>
          <line x1="369.8" y1="146.02" x2="331.95" y2="54.14" style="fill: none; stroke: #d98d39; stroke-linecap: round; stroke-miterlimit: 40; stroke-width: 5px;"/>
          <path d="M367.03,76.3c-.79,1.13-2.36,1.4-3.49.6l-31.29-22-6.71,37.65c-.24,1.36-1.54,2.27-2.9,2.03-1.36-.24-2.26-1.56-2.03-2.9l7.4-41.52c.15-.84.72-1.55,1.51-1.87.79-.33,1.69-.22,2.39.27l34.5,24.26c.4.29.7.67.87,1.09.31.76.24,1.67-.26,2.4Z" style="fill: #d98d39;"/>
        </g>
        <g>
          <line x1="1084.48" y1="222.06" x2="1112.71" y2="126.77" style="fill: none; stroke: #d98d39; stroke-linecap: round; stroke-miterlimit: 40; stroke-width: 5px;"/>
          <path d="M1126.1,166.05c-1.32.38-2.71-.39-3.09-1.72l-10.54-36.77-28.86,25.1c-1.04.91-2.63.8-3.53-.24-.9-1.04-.78-2.63.25-3.53l31.83-27.67c.64-.56,1.53-.75,2.35-.51s1.46.89,1.69,1.71l11.62,40.54c.13.48.12.96,0,1.4-.23.79-.86,1.45-1.71,1.7Z" style="fill: #d98d39;"/>
        </g>
        <g>
          <line x1="791.91" y1="506.78" x2="748.51" y2="417.38" style="fill: none; stroke: #d98d39; stroke-linecap: round; stroke-miterlimit: 40; stroke-width: 5px;"/>
          <path d="M784.89,437.36c-.72,1.18-2.27,1.54-3.44.81l-32.57-20.05-4.4,37.99c-.16,1.37-1.4,2.36-2.77,2.2-1.37-.16-2.35-1.41-2.2-2.78l4.85-41.89c.1-.85.62-1.59,1.39-1.96.77-.37,1.68-.33,2.4.12l35.91,22.11c.42.26.74.62.94,1.04.36.74.35,1.65-.12,2.41Z" style="fill: #d98d39;"/>
        </g>
        <g>
          <line x1="805.88" y1="715.71" x2="762.49" y2="626.31" style="fill: none; stroke: #d98d39; stroke-linecap: round; stroke-miterlimit: 40; stroke-width: 5px;"/>
          <path d="M798.86,646.29c-.72,1.18-2.27,1.54-3.44.81l-32.57-20.05-4.4,37.99c-.16,1.37-1.4,2.36-2.77,2.2-1.37-.16-2.35-1.41-2.2-2.78l4.85-41.89c.1-.85.62-1.59,1.39-1.96.77-.37,1.68-.33,2.4.12l35.91,22.11c.42.26.74.62.94,1.04.36.74.35,1.65-.12,2.41Z" style="fill: #d98d39;"/>
        </g>
        <g>
          <line x1="700.92" y1="116.08" x2="693.77" y2="16.96" style="fill: none; stroke: #d98d39; stroke-linecap: round; stroke-miterlimit: 40; stroke-width: 5px;"/>
          <path d="M720.14,49.01c-1.11.82-2.67.59-3.5-.52l-22.81-30.7-18.17,33.65c-.66,1.22-2.18,1.67-3.39,1.02s-1.66-2.19-1.01-3.39l20.04-37.11c.41-.75,1.17-1.24,2.02-1.31s1.68.32,2.19,1l25.16,33.85c.29.4.45.85.49,1.31.06.82-.29,1.66-1,2.19Z" style="fill: #d98d39;"/>
        </g>
        <g>
          <line x1="892.33" y1="223.5" x2="896.1" y2="124.2" style="fill: none; stroke: #d98d39; stroke-linecap: round; stroke-miterlimit: 40; stroke-width: 5px;"/>
          <path d="M918.8,158.94c-1.19.7-2.72.29-3.42-.9l-19.31-33.02-21.76,31.46c-.79,1.14-2.35,1.43-3.48.64-1.13-.79-1.41-2.36-.63-3.48l23.99-34.69c.49-.7,1.3-1.11,2.15-1.08.85.03,1.63.5,2.06,1.24l21.29,36.41c.25.43.36.9.34,1.36-.03.82-.47,1.62-1.24,2.07Z" style="fill: #d98d39;"/>
        </g>
        <g>
          <line x1="1010.15" y1="486.22" x2="1031.11" y2="389.08" style="fill: none; stroke: #d98d39; stroke-linecap: round; stroke-miterlimit: 40; stroke-width: 5px;"/>
          <path d="M1047.42,427.24c-1.29.48-2.73-.19-3.21-1.48l-13.28-35.87-26.89,27.2c-.97.98-2.56,1-3.54.03-.98-.97-.98-2.56-.02-3.54l29.65-29.99c.6-.6,1.47-.87,2.31-.69s1.52.78,1.82,1.58l14.64,39.55c.17.47.2.95.1,1.4-.17.81-.75,1.51-1.58,1.82Z" style="fill: #d98d39;"/>
        </g>
      </g>
    </g>
  </g>
</svg>