<svg xmlns="http://www.w3.org/2000/svg" data-name="Calque 2" viewBox="0 0 1930 438.44"><defs><clipPath id="a"><path d="M12.1 80.56h707.54v986.86H12.1z" style="fill:none"/></clipPath><clipPath id="b"><path d="M-176.15 80.56h707.54v986.86h-707.54z" style="fill:none"/></clipPath><clipPath id="c"><path d="M-364.4 80.56h707.54v986.86H-364.4z" style="fill:none"/></clipPath><clipPath id="d"><path d="M-552.65 80.56h707.54v986.86h-707.54z" style="fill:none"/></clipPath><clipPath id="e"><path d="M12.1-107.69h707.54v986.86H12.1z" style="fill:none"/></clipPath><clipPath id="f"><path d="M-176.15-107.69h707.54v986.86h-707.54z" style="fill:none"/></clipPath><clipPath id="g"><path d="M-364.4-107.69h707.54v986.86H-364.4z" style="fill:none"/></clipPath><clipPath id="h"><path d="M-552.65-107.69h707.54v986.86h-707.54z" style="fill:none"/></clipPath><clipPath id="i"><path d="M12.1-295.94h707.54v986.86H12.1z" style="fill:none"/></clipPath><clipPath id="j"><path d="M-176.15-295.94h707.54v986.86h-707.54z" style="fill:none"/></clipPath><clipPath id="k"><path d="M-364.4-295.94h707.54v986.86H-364.4z" style="fill:none"/></clipPath><clipPath id="l"><path d="M-552.65-295.94h707.54v986.86h-707.54z" style="fill:none"/></clipPath><clipPath id="m"><path d="M12.1-484.2h707.54v986.86H12.1z" style="fill:none"/></clipPath><clipPath id="n"><path d="M-176.15-484.2h707.54v986.86h-707.54z" style="fill:none"/></clipPath><clipPath id="o"><path d="M-364.4-484.2h707.54v986.86H-364.4z" style="fill:none"/></clipPath><clipPath id="p"><path d="M-552.65-484.2h707.54v986.86h-707.54z" style="fill:none"/></clipPath><clipPath id="q"><path d="M12.1-672.45h707.54v986.86H12.1z" style="fill:none"/></clipPath><clipPath id="r"><path d="M-176.15-672.45h707.54v986.86h-707.54z" style="fill:none"/></clipPath><clipPath id="s"><path d="M-364.4-672.45h707.54v986.86H-364.4z" style="fill:none"/></clipPath><clipPath id="t"><path d="M-552.65-672.45h707.54v986.86h-707.54z" style="fill:none"/></clipPath><clipPath id="u"><path d="M12.1-860.7h707.54v986.86H12.1z" style="fill:none"/></clipPath><clipPath id="v"><path d="M-176.15-860.7h707.54v986.86h-707.54z" style="fill:none"/></clipPath><clipPath id="w"><path d="M-364.4-860.7h707.54v986.86H-364.4z" style="fill:none"/></clipPath><clipPath id="x"><path d="M-552.65-860.7h707.54v986.86h-707.54z" style="fill:none"/></clipPath><pattern id="y" width="188.25" height="188.25" x="0" y="0" data-name="Nouvelle nuance de motif 4" patternTransform="translate(-864.21 -35.91)" patternUnits="userSpaceOnUse"><path d="M0 0h188.25v188.25H0z" style="fill:none"/><g style="clip-path:url(#a)"><path d="M66.15 50.98h346.56v244.03H66.15z" style="fill:none"/><path d="M66.84 51.46h345.18v243.06H66.84z" style="fill:#346e65"/><path d="M-280.41 50.98H66.15v244.03h-346.56z" style="fill:none"/><path d="M-279.72 51.46H65.46v243.06h-345.18z" style="fill:#346e65"/></g><g style="clip-path:url(#b)"><path d="M-122.1 50.98h346.56v244.03H-122.1z" style="fill:none"/><path d="M-121.41 51.46h345.18v243.06h-345.18z" style="fill:#346e65"/></g><g style="clip-path:url(#c)"><path d="M36.21 50.98h346.56v244.03H36.21z" style="fill:none"/><path d="M36.9 51.46h345.18v243.06H36.9z" style="fill:#346e65"/><path d="M-310.35 50.98H36.21v244.03h-346.56z" style="fill:none"/><path d="M-309.66 51.46H35.52v243.06h-345.18z" style="fill:#346e65"/></g><g style="clip-path:url(#d)"><path d="M-152.04 50.98h346.56v244.03h-346.56z" style="fill:none"/><path d="M-151.35 51.46h345.18v243.06h-345.18z" style="fill:#346e65"/></g><g style="clip-path:url(#e)"><path d="M66.15-137.27h346.56v244.03H66.15z" style="fill:none"/><path d="M66.84-136.79h345.18v243.06H66.84z" style="fill:#346e65"/><path d="M66.15 106.75h346.56v244.03H66.15z" style="fill:none"/><path d="M66.84 107.24h345.18V350.3H66.84z" style="fill:#346e65"/><path d="M-280.41-137.27H66.15v244.03h-346.56z" style="fill:none"/><path d="M-279.72-136.79H65.46v243.06h-345.18z" style="fill:#346e65"/><path d="M-280.41 106.75H66.15v244.03h-346.56z" style="fill:none"/><path d="M-279.72 107.24H65.46V350.3h-345.18z" style="fill:#346e65"/></g><g style="clip-path:url(#f)"><path d="M224.46-137.27h346.56v244.03H224.46z" style="fill:none"/><path d="M225.15-136.79h345.18v243.06H225.15z" style="fill:#346e65"/><path d="M224.46 106.75h346.56v244.03H224.46z" style="fill:none"/><path d="M225.15 107.24h345.18V350.3H225.15z" style="fill:#346e65"/><path d="M224.46 350.78h346.56v244.03H224.46z" style="fill:none"/><path d="M225.15 351.27h345.18v243.06H225.15z" style="fill:#346e65"/><path d="M224.46 594.81h346.56v244.03H224.46z" style="fill:none"/><path d="M225.15 595.3h345.18v243.06H225.15z" style="fill:#346e65"/><path d="M224.46 838.84h346.56v244.03H224.46z" style="fill:none"/><path d="M225.15 839.33h345.18v243.06H225.15z" style="fill:#346e65"/><path d="M-122.1-137.27h346.56v244.03H-122.1z" style="fill:none"/><path d="M-121.41-136.79h345.18v243.06h-345.18z" style="fill:#346e65"/><path d="M-122.1 106.75h346.56v244.03H-122.1z" style="fill:none"/><path d="M-121.41 107.24h345.18V350.3h-345.18z" style="fill:#346e65"/><path d="M-122.1 350.78h346.56v244.03H-122.1z" style="fill:none"/><path d="M-121.41 351.27h345.18v243.06h-345.18z" style="fill:#346e65"/><path d="M-122.1 594.81h346.56v244.03H-122.1z" style="fill:none"/><path d="M-121.41 595.3h345.18v243.06h-345.18z" style="fill:#346e65"/><path d="M-122.1 838.84h346.56v244.03H-122.1z" style="fill:none"/><path d="M-121.41 839.33h345.18v243.06h-345.18z" style="fill:#346e65"/><path d="M-468.66-137.27h346.56v244.03h-346.56z" style="fill:none"/><path d="M-467.97-136.79h345.18v243.06h-345.18z" style="fill:#346e65"/><path d="M-468.66 106.75h346.56v244.03h-346.56z" style="fill:none"/><path d="M-467.97 107.24h345.18V350.3h-345.18z" style="fill:#346e65"/><path d="M-468.66 350.78h346.56v244.03h-346.56z" style="fill:none"/><path d="M-467.97 351.27h345.18v243.06h-345.18z" style="fill:#346e65"/><path d="M-468.66 594.81h346.56v244.03h-346.56z" style="fill:none"/><path d="M-467.97 595.3h345.18v243.06h-345.18z" style="fill:#346e65"/><path d="M-468.66 838.84h346.56v244.03h-346.56z" style="fill:none"/><path d="M-467.97 839.33h345.18v243.06h-345.18z" style="fill:#346e65"/></g><g style="clip-path:url(#g)"><path d="M36.21-137.27h346.56v244.03H36.21z" style="fill:none"/><path d="M36.9-136.79h345.18v243.06H36.9z" style="fill:#346e65"/><path d="M36.21 106.75h346.56v244.03H36.21z" style="fill:none"/><path d="M36.9 107.24h345.18V350.3H36.9z" style="fill:#346e65"/><path d="M-310.35-137.27H36.21v244.03h-346.56z" style="fill:none"/><path d="M-309.66-136.79H35.52v243.06h-345.18z" style="fill:#346e65"/><path d="M-310.35 106.75H36.21v244.03h-346.56z" style="fill:none"/><path d="M-309.66 107.24H35.52V350.3h-345.18z" style="fill:#346e65"/></g><g style="clip-path:url(#h)"><path d="M-152.04-137.27h346.56v244.03h-346.56z" style="fill:none"/><path d="M-151.35-136.79h345.18v243.06h-345.18z" style="fill:#346e65"/><path d="M-152.04 106.75h346.56v244.03h-346.56z" style="fill:none"/><path d="M-151.35 107.24h345.18V350.3h-345.18z" style="fill:#346e65"/></g><g style="clip-path:url(#i)"><path d="M66.15-81.5h346.56v244.03H66.15z" style="fill:none"/><path d="M66.84-81.01h345.18v243.06H66.84z" style="fill:#346e65"/><path d="M66.15 162.53h346.56v244.03H66.15z" style="fill:none"/><path d="M66.84 163.02h345.18v243.06H66.84z" style="fill:#346e65"/><path d="M-280.41-81.5H66.15v244.03h-346.56z" style="fill:none"/><path d="M-279.72-81.01H65.46v243.06h-345.18z" style="fill:#346e65"/><path d="M-280.41 162.53H66.15v244.03h-346.56z" style="fill:none"/><path d="M-279.72 163.02H65.46v243.06h-345.18z" style="fill:#346e65"/></g><g style="clip-path:url(#j)"><path d="M-122.1-81.5h346.56v244.03H-122.1z" style="fill:none"/><path d="M-121.41-81.01h345.18v243.06h-345.18z" style="fill:#346e65"/><path d="M-122.1 162.53h346.56v244.03H-122.1z" style="fill:none"/><path d="M-121.41 163.02h345.18v243.06h-345.18z" style="fill:#346e65"/></g><g style="clip-path:url(#k)"><path d="M36.21-81.5h346.56v244.03H36.21z" style="fill:none"/><path d="M36.9-81.01h345.18v243.06H36.9z" style="fill:#346e65"/><path d="M36.21 162.53h346.56v244.03H36.21z" style="fill:none"/><path d="M36.9 163.02h345.18v243.06H36.9z" style="fill:#346e65"/><path d="M-310.35-81.5H36.21v244.03h-346.56z" style="fill:none"/><path d="M-309.66-81.01H35.52v243.06h-345.18z" style="fill:#346e65"/><path d="M-310.35 162.53H36.21v244.03h-346.56z" style="fill:none"/><path d="M-309.66 163.02H35.52v243.06h-345.18z" style="fill:#346e65"/></g><g style="clip-path:url(#l)"><path d="M-152.04-81.5h346.56v244.03h-346.56z" style="fill:none"/><path d="M-151.35-81.01h345.18v243.06h-345.18z" style="fill:#346e65"/><path d="M-152.04 162.53h346.56v244.03h-346.56z" style="fill:none"/><path d="M-151.35 163.02h345.18v243.06h-345.18z" style="fill:#346e65"/></g><g style="clip-path:url(#m)"><path d="M66.15-25.72h346.56v244.03H66.15z" style="fill:none"/><path d="M66.84-25.23h345.18v243.06H66.84z" style="fill:#346e65"/><path d="M-280.41-25.72H66.15v244.03h-346.56z" style="fill:none"/><path d="M-279.72-25.23H65.46v243.06h-345.18z" style="fill:#346e65"/></g><g style="clip-path:url(#n)"><path d="M-122.1-25.72h346.56v244.03H-122.1z" style="fill:none"/><path d="M-121.41-25.23h345.18v243.06h-345.18z" style="fill:#346e65"/></g><g style="clip-path:url(#o)"><path d="M36.21-25.72h346.56v244.03H36.21z" style="fill:none"/><path d="M36.9-25.23h345.18v243.06H36.9z" style="fill:#346e65"/><path d="M-310.35-25.72H36.21v244.03h-346.56z" style="fill:none"/><path d="M-309.66-25.23H35.52v243.06h-345.18z" style="fill:#346e65"/></g><g style="clip-path:url(#p)"><path d="M-152.04-25.72h346.56v244.03h-346.56z" style="fill:none"/><path d="M-151.35-25.23h345.18v243.06h-345.18z" style="fill:#346e65"/></g><g style="clip-path:url(#q)"><path d="M66.15-213.97h346.56V30.06H66.15z" style="fill:none"/><path d="M66.84-213.48h345.18V29.58H66.84z" style="fill:#346e65"/><path d="M66.15 30.06h346.56v244.03H66.15z" style="fill:none"/><path d="M66.84 30.54h345.18V273.6H66.84z" style="fill:#346e65"/><path d="M-280.41-213.97H66.15V30.06h-346.56z" style="fill:none"/><path d="M-279.72-213.48H65.46V29.58h-345.18z" style="fill:#346e65"/><path d="M-280.41 30.06H66.15v244.03h-346.56z" style="fill:none"/><path d="M-279.72 30.54H65.46V273.6h-345.18z" style="fill:#346e65"/></g><g style="clip-path:url(#r)"><path d="M-122.1-213.97h346.56V30.06H-122.1z" style="fill:none"/><path d="M-121.41-213.48h345.18V29.58h-345.18z" style="fill:#346e65"/><path d="M-122.1 30.06h346.56v244.03H-122.1z" style="fill:none"/><path d="M-121.41 30.54h345.18V273.6h-345.18z" style="fill:#346e65"/></g><g style="clip-path:url(#s)"><path d="M36.21-213.97h346.56V30.06H36.21z" style="fill:none"/><path d="M36.9-213.48h345.18V29.58H36.9z" style="fill:#346e65"/><path d="M36.21 30.06h346.56v244.03H36.21z" style="fill:none"/><path d="M36.9 30.54h345.18V273.6H36.9z" style="fill:#346e65"/><path d="M-310.35-213.97H36.21V30.06h-346.56z" style="fill:none"/><path d="M-309.66-213.48H35.52V29.58h-345.18z" style="fill:#346e65"/><path d="M-310.35 30.06H36.21v244.03h-346.56z" style="fill:none"/><path d="M-309.66 30.54H35.52V273.6h-345.18z" style="fill:#346e65"/></g><g style="clip-path:url(#t)"><path d="M-152.04-213.97h346.56V30.06h-346.56z" style="fill:none"/><path d="M-151.35-213.48h345.18V29.58h-345.18z" style="fill:#346e65"/><path d="M-152.04 30.06h346.56v244.03h-346.56z" style="fill:none"/><path d="M-151.35 30.54h345.18V273.6h-345.18z" style="fill:#346e65"/></g><g style="clip-path:url(#u)"><path d="M66.15-158.19h346.56V85.84H66.15z" style="fill:none"/><path d="M66.84-157.71h345.18V85.35H66.84z" style="fill:#346e65"/><path d="M66.15 85.84h346.56v244.03H66.15z" style="fill:none"/><path d="M66.84 86.32h345.18v243.06H66.84z" style="fill:#346e65"/><path d="M-280.41-158.19H66.15V85.84h-346.56z" style="fill:none"/><path d="M-279.72-157.71H65.46V85.35h-345.18z" style="fill:#346e65"/><path d="M-280.41 85.84H66.15v244.03h-346.56z" style="fill:none"/><path d="M-279.72 86.32H65.46v243.06h-345.18z" style="fill:#346e65"/></g><g style="clip-path:url(#v)"><path d="M-122.1-158.19h346.56V85.84H-122.1z" style="fill:none"/><path d="M-121.41-157.71h345.18V85.35h-345.18z" style="fill:#346e65"/><path d="M-122.1 85.84h346.56v244.03H-122.1z" style="fill:none"/><path d="M-121.41 86.32h345.18v243.06h-345.18z" style="fill:#346e65"/></g><g style="clip-path:url(#w)"><path d="M36.21-158.19h346.56V85.84H36.21z" style="fill:none"/><path d="M36.9-157.71h345.18V85.35H36.9z" style="fill:#346e65"/><path d="M36.21 85.84h346.56v244.03H36.21z" style="fill:none"/><path d="M36.9 86.32h345.18v243.06H36.9z" style="fill:#346e65"/><path d="M-310.35-158.19H36.21V85.84h-346.56z" style="fill:none"/><path d="M-309.66-157.71H35.52V85.35h-345.18z" style="fill:#346e65"/><path d="M-310.35 85.84H36.21v244.03h-346.56z" style="fill:none"/><path d="M-309.66 86.32H35.52v243.06h-345.18z" style="fill:#346e65"/></g><g style="clip-path:url(#x)"><path d="M-152.04-158.19h346.56V85.84h-346.56z" style="fill:none"/><path d="M-151.35-157.71h345.18V85.35h-345.18z" style="fill:#346e65"/><path d="M-152.04 85.84h346.56v244.03h-346.56z" style="fill:none"/><path d="M-151.35 86.32h345.18v243.06h-345.18z" style="fill:#346e65"/></g></pattern></defs><g data-name="illu cylindre motif"><g data-name="1_herbe"><path d="M1930 111.59v219.78s0 107.07-965 107.07S0 331.37 0 331.37V111.59S0 4.52 965 4.52s965 107.07 965 107.07" style="fill:url(#y)"/><ellipse cx="965" cy="107.65" rx="965" ry="107.65" style="fill:url(#y)"/></g></g></svg>