<svg xmlns="http://www.w3.org/2000/svg" data-name="Calque 2" viewBox="0 0 1930 602.97"><defs><pattern id="a" width="188.25" height="188.25" x="0" y="0" data-name="Nouvelle nuance de motif 9" patternTransform="translate(-864.21 -367.45)" patternUnits="userSpaceOnUse"><path d="M0 0h188.25v188.25H0z" style="fill:none"/><path d="M172.05 172.05H392.7V392.7H172.05z" style="fill:#54969b"/><path d="M-16.2 172.05h220.65V392.7H-16.2z" style="fill:#54969b"/><path d="M-204.45 172.05H16.2V392.7h-220.65zM172.05-16.2H392.7v220.65H172.05z" style="fill:#54969b"/><path d="M-16.2-16.2h220.65v220.65H-16.2z" style="fill:#54969b"/><path d="M-204.45-16.2H16.2v220.65h-220.65zM172.05-204.45H392.7V16.2H172.05z" style="fill:#54969b"/><path d="M-16.2-204.45h220.65V16.2H-16.2z" style="fill:#54969b"/><path d="M-204.45-204.45H16.2V16.2h-220.65z" style="fill:#54969b"/></pattern></defs><g data-name="illu cylindre motif"><path d="M1930 107.07V495.9s0 107.07-965 107.07S0 495.9 0 495.9V107.07S0 0 965 0s965 107.07 965 107.07" data-name="3_terre" style="fill:url(#a)"/></g></svg>