<svg xmlns="http://www.w3.org/2000/svg" data-name="Calque 2" viewBox="0 0 1930 1355.66"><defs><pattern id="a" width="188.25" height="188.25" x="0" y="0" data-name="Nouvelle nuance de motif 11" patternTransform="translate(-864.21 -758.98)" patternUnits="userSpaceOnUse"><path d="M0 0h188.25v188.25H0z" style="fill:none"/><path d="M175.79 175.79h213.18v213.18H175.79z" style="fill:#30566b"/><path d="M-12.46 175.79h213.18v213.18H-12.46z" style="fill:#30566b"/><path d="M-200.71 175.79H12.47v213.18h-213.18zM175.79-12.46h213.18v213.18H175.79z" style="fill:#30566b"/><path d="M-12.46-12.46h213.18v213.18H-12.46z" style="fill:#30566b"/><path d="M-200.71-12.46H12.47v213.18h-213.18zM175.79-200.71h213.18V12.47H175.79z" style="fill:#30566b"/><path d="M-12.46-200.71h213.18V12.47H-12.46z" style="fill:#30566b"/><path d="M-200.71-200.71H12.47V12.47h-213.18z" style="fill:#30566b"/></pattern></defs><g data-name="illu cylindre motif"><path d="M1930 1248.59V107.07S1930 0 965 0 0 107.07 0 107.07v1141.52s0 107.07 965 107.07 965-107.07 965-107.07" data-name="4_terre" style="fill:url(#a)"/></g></svg>