<svg xmlns="http://www.w3.org/2000/svg" data-name="Calque 2" viewBox="0 0 1930 829.86"><defs><pattern id="a" width="188.25" height="188.25" x="0" y="0" data-name="Nouvelle nuance de motif 13" patternTransform="translate(-864.21 -1864.43)" patternUnits="userSpaceOnUse"><path d="M0 0h188.25v188.25H0z" style="fill:none"/><path d="M180.51 180.51h203.73v203.73H180.51z" style="fill:#7a808c"/><path d="M-7.74 180.51h203.73v203.73H-7.74z" style="fill:#7a808c"/><path d="M-195.99 180.51H7.74v203.73h-203.73zM180.51-7.74h203.73v203.73H180.51z" style="fill:#7a808c"/><path d="M-7.74-7.74h203.73v203.73H-7.74z" style="fill:#7a808c"/><path d="M-195.99-7.74H7.74v203.73h-203.73zM180.51-195.99h203.73V7.74H180.51z" style="fill:#7a808c"/><path d="M-7.74-195.99h203.73V7.74H-7.74z" style="fill:#7a808c"/><path d="M-195.99-195.99H7.74V7.74h-203.73z" style="fill:#7a808c"/></pattern></defs><g data-name="illu cylindre motif"><path d="M1930 107.07v615.71s0 107.07-965 107.07S0 722.79 0 722.79V107.07S0 0 965 0s965 107.07 965 107.07" data-name="5_caprock" style="fill:url(#a)"/></g></svg>