<svg xmlns="http://www.w3.org/2000/svg" data-name="Calque 2" viewBox="0 0 1930 1391.96"><defs><pattern id="a" width="188.25" height="188.25" x="0" y="0" data-name="Nouvelle nuance de motif 15" patternTransform="translate(-864.21 -2483.34)" patternUnits="userSpaceOnUse"><path d="M0 0h188.25v188.25H0z" style="fill:none"/><path d="M166.64 166.64h231.48v231.48H166.64z" style="fill:#998e70"/><path d="M-21.61 166.64h231.48v231.48H-21.61z" style="fill:#998e70"/><path d="M-209.86 166.64H21.62v231.48h-231.48zM166.64-21.61h231.48v231.48H166.64z" style="fill:#998e70"/><path d="M-21.61-21.61h231.48v231.48H-21.61z" style="fill:#998e70"/><path d="M-209.86-21.61H21.62v231.48h-231.48zM166.64-209.86h231.48V21.62H166.64z" style="fill:#998e70"/><path d="M-21.61-209.86h231.48V21.62H-21.61z" style="fill:#998e70"/><path d="M-209.86-209.86H21.62V21.62h-231.48z" style="fill:#998e70"/></pattern></defs><g data-name="illu cylindre motif"><path d="M1930 107.07v1177.82s0 107.07-965 107.07S0 1284.89 0 1284.89V107.07S0 0 965 0s965 107.07 965 107.07" data-name="6_reservoir" style="fill:url(#a)"/></g></svg>