<svg xmlns="http://www.w3.org/2000/svg" viewBox="0 0 1930 438.44">
  <defs>
    <!-- Single dot definition -->
    <circle id="dot" r="1" fill="#0a3b33" />

    <!-- Pattern with lots of dots and varied scales -->
    <pattern id="z" width="73.55" height="72.88" patternUnits="userSpaceOnUse">
      <use href="#dot" x="20" y="5"  transform="scale(1.2)"/>
      <use href="#dot" x="58" y="63" transform="scale(0.8)"/>
      <use href="#dot" x="67" y="15" transform="scale(1.1)"/>
      <use href="#dot" x="73" y="40" transform="scale(0.7)"/>
      <use href="#dot" x="72" y="52" transform="scale(1.3)"/>
      <use href="#dot" x="25" y="70" transform="scale(1.0)"/>
      <use href="#dot" x="6"  y="42" transform="scale(0.9)"/>
      <use href="#dot" x="17" y="35" transform="scale(1.1)"/>
      <use href="#dot" x="7"  y="19" transform="scale(1.4)"/>
      <use href="#dot" x="45" y="20" transform="scale(0.8)"/>
      <use href="#dot" x="42" y="26" transform="scale(1.2)"/>
      <use href="#dot" x="11" y="54" transform="scale(1.0)"/>
      <use href="#dot" x="48" y="42" transform="scale(0.9)"/>
      <use href="#dot" x="6"  y="72" transform="scale(1.1)"/>
      <use href="#dot" x="5"  y="59" transform="scale(1.3)"/>
      <use href="#dot" x="24" y="21" transform="scale(0.7)"/>
      <use href="#dot" x="30" y="11" transform="scale(1.2)"/>
      <use href="#dot" x="53" y="5"  transform="scale(0.9)"/>
      <use href="#dot" x="70" y="29" transform="scale(1.0)"/>
      <use href="#dot" x="61" y="46" transform="scale(1.1)"/>
      <use href="#dot" x="30" y="53" transform="scale(1.4)"/>
      <use href="#dot" x="50" y="73" transform="scale(0.8)"/>
      <use href="#dot" x="63" y="18" transform="scale(1.2)"/>
      <use href="#dot" x="70" y="73" transform="scale(0.9)"/>
      <use href="#dot" x="39" y="63" transform="scale(1.1)"/>
      <use href="#dot" x="52" y="33" transform="scale(1.3)"/>
      <use href="#dot" x="21" y="42" transform="scale(1.0)"/>
      <use href="#dot" x="5"  y="31" transform="scale(1.2)"/>
      <use href="#dot" x="39" y="15" transform="scale(0.7)"/>
      <use href="#dot" x="0"  y="40" transform="scale(1.1)"/>
    </pattern>

    <!-- Cylinder body path -->
    <path id="cylinder-body"
      d="M1930 111.59
         v219.78
         c0 59.1-432.15 107.07-965 107.07S0 390.47 0 331.37V111.59
         Z" />
  </defs>

  <g>
    <!-- Cylinder body with pattern -->
    <use href="#cylinder-body" fill="#346e65"/>
    <use href="#cylinder-body" fill="url(#z)"/>
    <!-- Top cap (solid) -->
    <ellipse cx="965" cy="111.59" rx="965" ry="107.07" fill="#346e65"/>
  </g>
</svg>
