<svg xmlns="http://www.w3.org/2000/svg" viewBox="0 0 1930 438.44"><defs><pattern id="prefix__c" width="73.55" height="72.88" patternUnits="userSpaceOnUse"><use href="#prefix__a" x="5" y="5" transform="scale(1.2)"/><use href="#prefix__a" x="10" y="12" transform="scale(.7)"/><use href="#prefix__a" x="18" y="30" transform="scale(1.5)"/><use href="#prefix__a" x="25" y="8" transform="scale(.9)"/><use href="#prefix__a" x="32" y="45" transform="scale(2)"/><use href="#prefix__a" x="40" y="20" transform="scale(.6)"/><use href="#prefix__a" x="48" y="15" transform="scale(1.8)"/><use href="#prefix__a" x="55" y="50" transform="scale(2.5)"/><use href="#prefix__a" x="60" y="35" transform="scale(.5)"/><use href="#prefix__a" x="65" y="10" transform="scale(1.3)"/><use href="#prefix__a" x="5" y="25"/><use href="#prefix__a" x="12" y="40" transform="scale(1.6)"/><use href="#prefix__a" x="20" y="55" transform="scale(.8)"/><use href="#prefix__a" x="28" y="18" transform="scale(2.2)"/><use href="#prefix__a" x="36" y="60" transform="scale(1.1)"/><use href="#prefix__a" x="44" y="5" transform="scale(.9)"/><use href="#prefix__a" x="52" y="28" transform="scale(2.7)"/><use href="#prefix__a" x="60" y="48" transform="scale(1.5)"/><use href="#prefix__a" x="68" y="20" transform="scale(.7)"/><use href="#prefix__a" x="10" y="5" transform="scale(1.9)"/><use href="#prefix__a" x="15" y="15" transform="scale(2.3)"/><use href="#prefix__a" x="23" y="33" transform="scale(.6)"/><use href="#prefix__a" x="30" y="50" transform="scale(1.7)"/><use href="#prefix__a" x="38" y="8" transform="scale(1.2)"/><use href="#prefix__a" x="45" y="40"/><use href="#prefix__a" x="53" y="12" transform="scale(2.1)"/><use href="#prefix__a" x="60" y="55" transform="scale(.5)"/><use href="#prefix__a" x="5" y="35" transform="scale(2.8)"/><use href="#prefix__a" x="12" y="20" transform="scale(1.4)"/><use href="#prefix__a" x="20" y="60" transform="scale(1.1)"/><use href="#prefix__a" x="28" y="10" transform="scale(2.4)"/><use href="#prefix__a" x="35" y="45" transform="scale(.8)"/><use href="#prefix__a" x="42" y="25" transform="scale(1.6)"/><use href="#prefix__a" x="50" y="5" transform="scale(2)"/><use href="#prefix__a" x="57" y="38" transform="scale(1.3)"/><use href="#prefix__a" x="65" y="15" transform="scale(.9)"/><use href="#prefix__a" x="70" y="50" transform="scale(2.5)"/><use href="#prefix__a" x="5" y="10"/><use href="#prefix__a" x="12" y="55" transform="scale(2.2)"/><use href="#prefix__a" x="20" y="28" transform="scale(.7)"/><use href="#prefix__a" x="28" y="40" transform="scale(1.5)"/><use href="#prefix__a" x="36" y="5" transform="scale(1.8)"/><use href="#prefix__a" x="44" y="48" transform="scale(2)"/><use href="#prefix__a" x="52" y="20" transform="scale(.6)"/><use href="#prefix__a" x="60" y="33" transform="scale(1.9)"/><use href="#prefix__a" x="68" y="8" transform="scale(1.2)"/><use href="#prefix__a" x="5" y="50" transform="scale(1.7)"/><use href="#prefix__a" x="15" y="38"/><use href="#prefix__a" x="25" y="15" transform="scale(2.3)"/></pattern><circle id="prefix__a" r="1" fill="#0a3b33"/><path id="prefix__b" d="M1930 111.59v219.78c0 59.1-432.15 107.07-965 107.07S0 390.47 0 331.37V111.59z"/></defs><use href="#prefix__b" fill="#346e65"/><use href="#prefix__b" fill="url(#prefix__c)"/><ellipse cx="965" cy="111.59" rx="965" ry="107.07" fill="#346e65"/></svg>