<svg xmlns="http://www.w3.org/2000/svg" viewBox="0 0 1930 438.44">
    <defs><pattern id="p_c" width="73.55" height="72.88" patternUnits="userSpaceOnUse"><use href="#p_a" x="20" y="5" transform="scale(1.2)"/><use href="#p_a" x="58" y="63" transform="scale(.8)"/><use href="#p_a" x="67" y="15" transform="scale(1.1)"/><use href="#p_a" x="73" y="40" transform="scale(.7)"/><use href="#p_a" x="72" y="52" transform="scale(1.3)"/><use href="#p_a" x="25" y="70"/><use href="#p_a" x="6" y="42" transform="scale(.9)"/><use href="#p_a" x="17" y="35" transform="scale(1.1)"/><use href="#p_a" x="7" y="19" transform="scale(1.4)"/><use href="#p_a" x="45" y="20" transform="scale(.8)"/><use href="#p_a" x="42" y="26" transform="scale(1.2)"/><use href="#p_a" x="11" y="54"/><use href="#p_a" x="48" y="42" transform="scale(.9)"/><use href="#p_a" x="6" y="72" transform="scale(1.1)"/><use href="#p_a" x="5" y="59" transform="scale(1.3)"/><use href="#p_a" x="24" y="21" transform="scale(.7)"/><use href="#p_a" x="30" y="11" transform="scale(1.2)"/><use href="#p_a" x="53" y="5" transform="scale(.9)"/><use href="#p_a" x="70" y="29"/><use href="#p_a" x="61" y="46" transform="scale(1.1)"/><use href="#p_a" x="30" y="53" transform="scale(1.4)"/><use href="#p_a" x="50" y="73" transform="scale(.8)"/><use href="#p_a" x="63" y="18" transform="scale(1.2)"/><use href="#p_a" x="70" y="73" transform="scale(.9)"/><use href="#p_a" x="39" y="63" transform="scale(1.1)"/><use href="#p_a" x="52" y="33" transform="scale(1.3)"/><use href="#p_a" x="21" y="42"/><use href="#p_a" x="5" y="31" transform="scale(1.2)"/><use href="#p_a" x="39" y="15" transform="scale(.7)"/><use href="#p_a" y="40" transform="scale(1.1)"/></pattern><circle id="p_a" r="1" fill="#0a3b33"/><path id="p_b" d="M1930 111.59v219.78c0 59.1-432.15 107.07-965 107.07S0 390.47 0 331.37V111.59z"/></defs><use href="#p_b" fill="#346e65"/><use href="#p_b" fill="url(#p_c)"/><ellipse cx="965" cy="111.59" rx="965" ry="107.07" fill="#346e65"/>
</svg>