<svg xmlns="http://www.w3.org/2000/svg" viewBox="0 0 1930 438.44">
  <defs>
    <!-- Single dot definition -->
    <circle id="dot" r="1" fill="#0a3b33" />

    <!-- Pattern with ~50 random dots, scaled 0.5–3, fully inside tile -->
    <pattern id="z" width="73.55" height="72.88" patternUnits="userSpaceOnUse">
      <use href="#dot" x="5"  y="5"  transform="scale(1.2)"/>
      <use href="#dot" x="10" y="12" transform="scale(0.7)"/>
      <use href="#dot" x="18" y="30" transform="scale(1.5)"/>
      <use href="#dot" x="25" y="8" transform="scale(0.9)"/>
      <use href="#dot" x="32" y="45" transform="scale(2.0)"/>
      <use href="#dot" x="40" y="20" transform="scale(0.6)"/>
      <use href="#dot" x="48" y="15" transform="scale(1.8)"/>
      <use href="#dot" x="55" y="50" transform="scale(2.5)"/>
      <use href="#dot" x="60" y="35" transform="scale(0.5)"/>
      <use href="#dot" x="65" y="10" transform="scale(1.3)"/>
      <use href="#dot" x="5"  y="25" transform="scale(1.0)"/>
      <use href="#dot" x="12" y="40" transform="scale(1.6)"/>
      <use href="#dot" x="20" y="55" transform="scale(0.8)"/>
      <use href="#dot" x="28" y="18" transform="scale(2.2)"/>
      <use href="#dot" x="36" y="60" transform="scale(1.1)"/>
      <use href="#dot" x="44" y="5"  transform="scale(0.9)"/>
      <use href="#dot" x="52" y="28" transform="scale(2.7)"/>
      <use href="#dot" x="60" y="48" transform="scale(1.5)"/>
      <use href="#dot" x="68" y="20" transform="scale(0.7)"/>
      <use href="#dot" x="10" y="5"  transform="scale(1.9)"/>
      <use href="#dot" x="15" y="15" transform="scale(2.3)"/>
      <use href="#dot" x="23" y="33" transform="scale(0.6)"/>
      <use href="#dot" x="30" y="50" transform="scale(1.7)"/>
      <use href="#dot" x="38" y="8"  transform="scale(1.2)"/>
      <use href="#dot" x="45" y="40" transform="scale(1.0)"/>
      <use href="#dot" x="53" y="12" transform="scale(2.1)"/>
      <use href="#dot" x="60" y="55" transform="scale(0.5)"/>
      <use href="#dot" x="5"  y="35" transform="scale(2.8)"/>
      <use href="#dot" x="12" y="20" transform="scale(1.4)"/>
      <use href="#dot" x="20" y="60" transform="scale(1.1)"/>
      <use href="#dot" x="28" y="10" transform="scale(2.4)"/>
      <use href="#dot" x="35" y="45" transform="scale(0.8)"/>
      <use href="#dot" x="42" y="25" transform="scale(1.6)"/>
      <use href="#dot" x="50" y="5"  transform="scale(2.0)"/>
      <use href="#dot" x="57" y="38" transform="scale(1.3)"/>
      <use href="#dot" x="65" y="15" transform="scale(0.9)"/>
      <use href="#dot" x="70" y="50" transform="scale(2.5)"/>
      <use href="#dot" x="5"  y="10" transform="scale(1.0)"/>
      <use href="#dot" x="12" y="55" transform="scale(2.2)"/>
      <use href="#dot" x="20" y="28" transform="scale(0.7)"/>
      <use href="#dot" x="28" y="40" transform="scale(1.5)"/>
      <use href="#dot" x="36" y="5"  transform="scale(1.8)"/>
      <use href="#dot" x="44" y="48" transform="scale(2.0)"/>
      <use href="#dot" x="52" y="20" transform="scale(0.6)"/>
      <use href="#dot" x="60" y="33" transform="scale(1.9)"/>
      <use href="#dot" x="68" y="8"  transform="scale(1.2)"/>
      <use href="#dot" x="5"  y="50" transform="scale(1.7)"/>
      <use href="#dot" x="15" y="38" transform="scale(1.0)"/>
      <use href="#dot" x="25" y="15" transform="scale(2.3)"/>
    </pattern>

    <!-- Cylinder body path -->
    <path id="cylinder-body"
      d="M1930 111.59
         v219.78
         c0 59.1-432.15 107.07-965 107.07S0 390.47 0 331.37V111.59
         Z" />
  </defs>

  <g>
    <!-- Cylinder body with pattern -->
    <use href="#cylinder-body" fill="#346e65"/>
    <use href="#cylinder-body" fill="url(#z)"/>
    <!-- Top cap (solid) -->
    <ellipse cx="965" cy="111.59" rx="965" ry="107.07" fill="#346e65"/>
  </g>
</svg>
