<svg xmlns="http://www.w3.org/2000/svg" data-name="Calque 2" viewBox="0 0 1930 321.21"><defs><pattern id="a" width="188.25" height="188.25" x="0" y="0" data-name="Nouvelle nuance de motif 7" patternTransform="translate(-864.21 -260.33)" patternUnits="userSpaceOnUse"><path d="M0 0h188.25v188.25H0z" style="fill:none"/><path d="M0 0h188.25v188.25H0z" style="fill:#3c7aa3"/></pattern><pattern id="b" width="72" height="72" x="0" y="0" data-name="3bleu" patternTransform="translate(1291.64 -260.33)" patternUnits="userSpaceOnUse"><path d="M0 0h72v72H0z" style="fill:none"/><path d="M21.15 13.98c-.12 0-.25-.05-.35-.14-.08-.1-.14-.22-.14-.35s.06-.25.14-.35c.19-.18.5-.18.68 0 .1.1.15.22.15.35s-.06.25-.14.35a.57.57 0 0 1-.35.14ZM48.49 4.98c-.12 0-.25-.05-.35-.14a.57.57 0 0 1-.14-.35c0-.14.06-.26.15-.35.17-.18.48-.18.68 0 .08.08.14.21.14.35 0 .12-.06.25-.14.35a.57.57 0 0 1-.35.14ZM16.65 66.24c-.12 0-.25-.05-.35-.14a.57.57 0 0 1-.14-.35c0-.14.06-.26.15-.35.17-.17.5-.18.68 0 .08.08.14.21.14.35 0 .12-.06.25-.14.35a.57.57 0 0 1-.35.14ZM70.3 71.44a.497.497 0 0 1-.49-.48c0-.12.06-.25.14-.35.18-.18.5-.18.69 0 .08.1.14.21.14.35 0 .12-.06.25-.14.35a.57.57 0 0 1-.35.14ZM21.15 19.52c-.12 0-.25-.05-.35-.14-.08-.1-.14-.22-.14-.35s.06-.25.14-.35c.19-.18.5-.18.69 0 .08.1.14.22.14.35s-.06.25-.14.35a.57.57 0 0 1-.35.14ZM66.15 25.06c-.12 0-.25-.05-.35-.14-.08-.1-.14-.22-.14-.35s.06-.25.14-.35c.17-.17.5-.19.69 0 .08.1.14.22.14.35s-.06.25-.14.35a.57.57 0 0 1-.35.14ZM13.19 44.44c-.12 0-.25-.05-.35-.14a.57.57 0 0 1-.14-.35c0-.14.06-.26.15-.35.18-.18.5-.18.68 0 .08.08.14.21.14.35 0 .12-.06.25-.14.35-.1.08-.21.14-.35.14ZM27.73 4.98c-.12 0-.25-.05-.35-.14-.08-.1-.14-.22-.14-.35s.06-.25.14-.35c.19-.18.5-.18.68 0 .1.1.15.22.15.35s-.06.25-.14.35a.57.57 0 0 1-.35.14ZM21.84 5.67c-.12 0-.25-.05-.35-.14-.08-.1-.14-.22-.14-.35s.06-.25.14-.35c.19-.18.5-.18.68 0 .1.1.15.22.15.35s-.06.25-.14.35a.57.57 0 0 1-.35.14ZM43.99 7.06c-.12 0-.25-.05-.35-.14-.08-.1-.14-.22-.14-.35s.06-.25.14-.35c.19-.18.5-.18.68 0 .1.1.15.22.15.35s-.06.25-.14.35a.57.57 0 0 1-.35.14ZM13.88 35.44c-.12 0-.25-.05-.35-.14-.08-.1-.14-.22-.14-.35s.06-.25.14-.35c.19-.18.5-.18.69 0 .08.1.14.22.14.35s-.06.25-.14.35a.57.57 0 0 1-.35.14ZM37.07 24.71c-.12 0-.25-.05-.35-.14-.08-.1-.14-.22-.14-.35s.04-.25.14-.35c.18-.18.5-.18.69 0 .08.1.14.22.14.35s-.06.25-.14.35c-.1.08-.21.14-.35.14ZM47.46 21.94c-.12 0-.25-.05-.35-.14-.08-.1-.14-.22-.14-.35s.06-.25.14-.35c.18-.18.51-.18.69 0 .08.1.14.22.14.35s-.06.25-.14.35a.57.57 0 0 1-.35.14ZM40.19 12.94c-.12 0-.25-.05-.35-.14-.1-.11-.14-.22-.14-.35s.04-.25.14-.33c.22-.21.51-.19.69-.01.08.1.14.22.14.35s-.06.25-.14.35a.57.57 0 0 1-.35.14ZM61.65 16.75c-.14 0-.26-.05-.35-.15-.08-.08-.14-.21-.14-.33s.06-.25.14-.35c.19-.18.5-.18.68 0 .1.1.15.22.15.35s-.06.25-.14.35c-.1.08-.21.14-.35.14ZM66.49 12.25a.497.497 0 0 1-.49-.48c0-.14.06-.26.15-.35.15-.17.48-.18.68 0 .08.08.14.21.14.35 0 .12-.06.25-.14.35a.57.57 0 0 1-.35.14ZM52.99 58.63c-.12 0-.25-.05-.35-.14a.57.57 0 0 1-.14-.35c0-.14.06-.26.15-.35.17-.18.5-.18.68 0 .08.08.14.21.14.35 0 .12-.06.25-.14.35a.57.57 0 0 1-.35.14ZM61.99 69.43c-.24 0-.47-.1-.64-.26-.17-.17-.26-.4-.26-.64s.1-.47.26-.64c.32-.33.94-.33 1.27 0 .17.17.26.4.26.64s-.1.47-.26.64a.9.9 0 0 1-.64.26ZM24.61 20.63c-.24 0-.47-.1-.64-.26a.917.917 0 0 1 0-1.28c.32-.33.94-.33 1.27 0 .17.17.26.4.26.64s-.1.46-.26.64a.9.9 0 0 1-.64.26ZM55.07 52.82c-.24 0-.47-.1-.64-.26-.17-.17-.26-.4-.26-.64s.1-.47.26-.64c.32-.33.94-.33 1.27 0 .17.17.26.4.26.64s-.1.47-.26.64a.9.9 0 0 1-.64.26ZM5.23 37.59c-.24 0-.47-.1-.64-.26a.9.9 0 0 1-.26-.64c0-.25.1-.47.26-.64.35-.35.96-.33 1.27 0 .17.17.26.4.26.64s-.1.47-.26.64a.9.9 0 0 1-.64.26ZM22.88 26.86c-.24 0-.47-.1-.64-.26a.917.917 0 0 1 0-1.28c.32-.33.94-.35 1.27 0 .17.17.26.39.26.64 0 .24-.1.47-.26.64a.9.9 0 0 1-.64.26ZM7.31 13.36c-.24 0-.47-.1-.64-.26-.17-.17-.26-.4-.26-.64s.1-.47.26-.64c.35-.35.94-.33 1.27 0 .17.17.26.4.26.64s-.1.47-.26.64a.9.9 0 0 1-.64.26ZM71.34 15.43c-.24 0-.47-.1-.64-.26-.17-.17-.26-.4-.26-.64s.1-.47.26-.64c.35-.33.93-.33 1.27 0 .17.17.26.39.26.64 0 .24-.1.47-.26.64a.9.9 0 0 1-.64.26ZM4.88 56.62c-.24 0-.47-.1-.64-.26a.917.917 0 0 1 0-1.28c.33-.33.94-.33 1.27 0 .17.17.26.4.26.64s-.1.46-.26.64a.9.9 0 0 1-.64.26ZM20.11 60.43c-.24 0-.47-.1-.64-.26-.17-.17-.26-.39-.26-.64s.1-.48.28-.64c.3-.33.93-.33 1.26 0 .17.17.26.4.26.64s-.1.46-.26.64a.9.9 0 0 1-.64.26M25.65 33.78c-.24 0-.47-.1-.64-.26-.17-.17-.26-.4-.26-.64s.1-.47.26-.64c.35-.35.94-.33 1.27 0 .17.17.26.4.26.64s-.1.47-.26.64a.9.9 0 0 1-.64.26ZM41.23 26.16c-.24 0-.47-.1-.64-.26a.917.917 0 0 1 0-1.28c.33-.33.93-.33 1.27 0 .17.17.26.4.26.64s-.1.46-.26.64a.9.9 0 0 1-.64.26ZM-.66 15.43c-.24 0-.47-.1-.64-.26-.17-.17-.26-.4-.26-.64s.1-.47.26-.64c.35-.33.93-.33 1.27 0 .17.17.26.39.26.64 0 .24-.1.47-.26.64a.9.9 0 0 1-.64.26Z" style="fill:#084670"/></pattern></defs><g data-name="illu cylindre motif"><g data-name="2_aquifer"><path d="M1930 107.07v107.07s0 107.07-965 107.07S0 214.14 0 214.14V107.07S0 0 965 0s965 107.07 965 107.07" style="fill:url(#a)"/><path d="M1930 107.07v107.07s0 107.07-965 107.07S0 214.14 0 214.14V107.07S0 0 965 0s965 107.07 965 107.07" style="fill:url(#b)"/></g></g></svg>