<svg xmlns="http://www.w3.org/2000/svg" data-name="Calque 2" viewBox="0 0 1930 602.97"><defs><pattern id="a" width="188.25" height="188.25" x="0" y="0" data-name="Nouvelle nuance de motif 9" patternTransform="translate(-864.21 -367.45)" patternUnits="userSpaceOnUse"><path d="M0 0h188.25v188.25H0z" style="fill:none"/><path d="M172.05 172.05H392.7V392.7H172.05z" style="fill:#54969b"/><path d="M-16.2 172.05h220.65V392.7H-16.2z" style="fill:#54969b"/><path d="M-204.45 172.05H16.2V392.7h-220.65zM172.05-16.2H392.7v220.65H172.05z" style="fill:#54969b"/><path d="M-16.2-16.2h220.65v220.65H-16.2z" style="fill:#54969b"/><path d="M-204.45-16.2H16.2v220.65h-220.65zM172.05-204.45H392.7V16.2H172.05z" style="fill:#54969b"/><path d="M-16.2-204.45h220.65V16.2H-16.2z" style="fill:#54969b"/><path d="M-204.45-204.45H16.2V16.2h-220.65z" style="fill:#54969b"/></pattern><pattern id="b" width="72" height="72" x="0" y="0" data-name="3bleu-vert" patternTransform="translate(1291.64 -367.45)" patternUnits="userSpaceOnUse"><path d="M0 0h72v72H0z" style="fill:none"/><path d="M7.84 35.52c-.41 0-.81-.18-1.08-.45-.32-.32-.5-.72-.5-1.13 0-.45.18-.86.5-1.13.54-.54 1.63-.59 2.21 0 .27.27.46.68.46 1.13 0 .41-.18.81-.46 1.13-.31.27-.72.45-1.13.45M54.2 45.7c-.41 0-.81-.18-1.13-.45-.27-.32-.45-.72-.45-1.13s.18-.81.45-1.13c.68-.59 1.63-.59 2.22 0 .32.32.5.72.5 1.13s-.18.81-.46 1.13c-.31.27-.72.45-1.13.45M19.15 15.17c-.41 0-.81-.18-1.13-.45-.27-.32-.45-.72-.45-1.13 0-.45.18-.86.5-1.13.54-.59 1.58-.59 2.21 0 .27.27.46.68.46 1.13 0 .41-.18.81-.46 1.13-.31.27-.72.45-1.13.45M60.99 32.36c-.77 0-1.54-.32-2.08-.86s-.86-1.31-.86-2.08.31-1.54.86-2.08c1.09-1.09 3.08-1.09 4.16 0 .54.54.86 1.31.86 2.08s-.32 1.49-.86 2.08c-.54.54-1.31.86-2.08.86M14.63 45.93c-.77 0-1.54-.32-2.08-.86-.54-.59-.86-1.31-.86-2.08s.31-1.54.86-2.08c1.09-1.09 3.08-1.09 4.16 0 .54.54.86 1.31.86 2.08s-.32 1.49-.86 2.08c-.54.54-1.31.86-2.08.86M32.9 31.63c-.41 0-.81-.18-1.08-.45-.32-.32-.5-.72-.5-1.13 0-.45.18-.86.5-1.13.54-.54 1.63-.59 2.21 0 .27.27.46.68.46 1.13 0 .41-.18.81-.46 1.13-.31.27-.72.45-1.13.45M18.2 7.88c-.41 0-.81-.18-1.13-.45-.27-.32-.45-.72-.45-1.13s.18-.81.45-1.13c.59-.59 1.67-.59 2.26 0 .27.32.46.72.46 1.13s-.18.81-.46 1.13c-.31.27-.72.45-1.13.45M24.98 61.03c-.41 0-.81-.18-1.13-.45-.27-.32-.45-.72-.45-1.13s.18-.81.45-1.13c.59-.59 1.67-.59 2.26 0 .27.32.46.72.46 1.13s-.18.81-.46 1.13c-.31.27-.72.45-1.13.45M14.81 67.81c-.41 0-.81-.18-1.13-.45-.27-.32-.45-.72-.45-1.13s.18-.81.45-1.13c.59-.59 1.63-.59 2.26 0 .27.32.46.72.46 1.13s-.18.81-.46 1.13c-.31.27-.72.45-1.13.45M44.21 11.28c-.41 0-.81-.18-1.13-.45-.27-.32-.45-.72-.45-1.13 0-.45.18-.86.5-1.13.54-.59 1.58-.59 2.21 0 .27.27.46.68.46 1.13 0 .41-.18.81-.46 1.13-.31.27-.72.45-1.13.45M52.12 58.77c-.41 0-.81-.18-1.13-.45-.27-.32-.45-.72-.45-1.13s.18-.81.45-1.13c.64-.59 1.63-.59 2.26 0 .27.32.46.72.46 1.13s-.18.81-.46 1.13c-.31.27-.72.45-1.13.45M39.68 42.04c-.77 0-1.54-.32-2.08-.86-.54-.59-.86-1.31-.86-2.08s.31-1.54.86-2.08c1.09-1.09 3.08-1.09 4.16 0 .54.54.86 1.31.86 2.08s-.32 1.49-.86 2.08c-.54.54-1.31.86-2.08.86M15.94 26.21c-.77 0-1.54-.32-2.08-.86S13 24.04 13 23.27s.31-1.54.86-2.08c1.13-1.13 3.08-1.09 4.16 0 .54.54.86 1.31.86 2.08s-.32 1.54-.86 2.08-1.31.86-2.08.86M7.73 9.41c-.41 0-.81-.18-1.13-.45-.27-.32-.45-.72-.45-1.13 0-.45.18-.86.5-1.13.49-.54 1.63-.59 2.21 0 .27.32.46.72.46 1.13s-.18.81-.46 1.09c-.31.32-.72.49-1.13.49M38.26 3.75c-.41 0-.81-.18-1.13-.45-.27-.32-.45-.72-.45-1.13s.18-.81.45-1.13c.64-.59 1.63-.59 2.22 0 .32.32.5.72.5 1.13s-.18.81-.46 1.13c-.31.27-.72.45-1.13.45M17.9 58.03c-.41 0-.81-.18-1.13-.45-.27-.32-.45-.72-.45-1.13s.18-.81.45-1.13c.64-.59 1.63-.59 2.22 0 .32.32.5.72.5 1.13s-.18.81-.46 1.13c-.31.27-.72.45-1.13.45M33.73 47.85c-.41 0-.81-.18-1.08-.45-.32-.32-.5-.72-.5-1.13 0-.45.18-.86.5-1.13.54-.54 1.63-.59 2.21 0 .27.27.46.68.46 1.13 0 .41-.18.81-.46 1.13-.31.27-.72.45-1.13.45M45.04 27.5c-.41 0-.81-.18-1.13-.45-.27-.32-.45-.72-.45-1.13 0-.45.18-.86.5-1.13.54-.59 1.58-.59 2.21 0 .27.27.46.68.46 1.13 0 .41-.18.81-.46 1.13-.31.27-.72.45-1.13.45M54.09 12.8c-.41 0-.81-.18-1.13-.45-.27-.32-.45-.72-.45-1.13s.14-.81.45-1.13c.59-.59 1.63-.59 2.26 0 .27.32.46.72.46 1.13s-.18.81-.46 1.13c-.31.27-.68.45-1.13.45M7.73 19.81c-.77 0-1.54-.32-2.08-.86-.54-.59-.86-1.31-.86-2.08s.31-1.54.86-2.08c1.04-1.09 3.08-1.13 4.16 0 .54.54.86 1.27.86 2.08 0 .77-.32 1.54-.86 2.08s-1.31.86-2.08.86M40.52 58.26c-.77 0-1.54-.32-2.08-.86-.54-.59-.86-1.31-.86-2.08s.31-1.54.86-2.08c1.09-1.09 3.08-1.09 4.16 0 .54.54.86 1.31.86 2.08s-.32 1.49-.86 2.08c-.54.54-1.31.86-2.08.86M67.65 17.55c-.77 0-1.54-.32-2.08-.86-.54-.59-.86-1.31-.86-2.08s.31-1.54.86-2.08c1.09-1.09 3.03-1.09 4.16 0 .54.54.86 1.31.86 2.08s-.32 1.49-.86 2.08c-.54.54-1.31.86-2.08.86M32.78 5.51c-.41 0-.81-.18-1.13-.45-.27-.32-.45-.72-.45-1.13 0-.45.18-.86.5-1.13.49-.54 1.63-.59 2.21 0 .27.32.46.72.46 1.13s-.18.81-.46 1.09c-.31.32-.72.49-1.13.49M58.79 43.96c-.41 0-.81-.18-1.08-.45-.32-.32-.5-.72-.5-1.13 0-.45.18-.86.5-1.13.54-.54 1.63-.59 2.21 0 .27.27.46.68.46 1.13 0 .41-.18.81-.46 1.13-.31.27-.72.45-1.13.45M44.09 20.21c-.41 0-.81-.18-1.13-.45-.27-.32-.45-.72-.45-1.13s.18-.81.45-1.13c.59-.59 1.67-.59 2.26 0 .27.32.46.72.46 1.13s-.18.81-.46 1.13c-.31.27-.72.45-1.13.45M20.34 50.74c-.41 0-.81-.18-1.13-.45-.27-.32-.45-.72-.45-1.13s.18-.86.45-1.13c.54-.54 1.63-.59 2.22 0 .32.32.5.72.5 1.13s-.18.81-.46 1.13c-.31.27-.72.45-1.13.45M3.38 43.96c-.41 0-.81-.18-1.13-.45-.27-.32-.45-.72-.45-1.13s.18-.81.45-1.13c.64-.59 1.63-.59 2.26 0 .27.32.46.72.46 1.13s-.18.81-.46 1.13c-.31.27-.72.45-1.13.45M70.1 23.61c-.41 0-.81-.18-1.13-.45-.27-.32-.45-.72-.45-1.13 0-.45.18-.86.5-1.13.54-.59 1.58-.59 2.21 0 .27.27.46.68.46 1.13 0 .41-.18.81-.46 1.13-.31.27-.72.45-1.13.45M32.78 15.92c-.77 0-1.54-.32-2.08-.86-.54-.59-.86-1.31-.86-2.08s.31-1.54.86-2.08c1.04-1.09 3.08-1.13 4.16 0 .54.54.86 1.27.86 2.08 0 .77-.32 1.54-.86 2.08s-1.31.86-2.08.86M65.57 54.36c-.77 0-1.54-.32-2.08-.86-.54-.59-.86-1.31-.86-2.08s.31-1.54.86-2.08c1.09-1.09 3.08-1.09 4.16 0 .54.54.86 1.31.86 2.08s-.32 1.49-.86 2.08c-.54.54-1.31.86-2.08.86" style="fill:#196268"/></pattern></defs><g data-name="illu cylindre motif"><g data-name="3_terre"><path d="M1930 107.07V495.9s0 107.07-965 107.07S0 495.9 0 495.9V107.07S0 0 965 0s965 107.07 965 107.07" style="fill:url(#a)"/><path d="M1930 107.07V495.9s0 107.07-965 107.07S0 495.9 0 495.9V107.07S0 0 965 0s965 107.07 965 107.07" style="fill:url(#b)"/></g></g></svg>