<svg xmlns="http://www.w3.org/2000/svg" data-name="Calque 2" viewBox="0 0 1930 829.86"><defs><pattern id="a" width="188.25" height="188.25" x="0" y="0" data-name="Nouvelle nuance de motif 13" patternTransform="translate(-864.21 -1864.43)" patternUnits="userSpaceOnUse"><path d="M0 0h188.25v188.25H0z" style="fill:none"/><path d="M180.51 180.51h203.73v203.73H180.51z" style="fill:#7a808c"/><path d="M-7.74 180.51h203.73v203.73H-7.74z" style="fill:#7a808c"/><path d="M-195.99 180.51H7.74v203.73h-203.73zM180.51-7.74h203.73v203.73H180.51z" style="fill:#7a808c"/><path d="M-7.74-7.74h203.73v203.73H-7.74z" style="fill:#7a808c"/><path d="M-195.99-7.74H7.74v203.73h-203.73zM180.51-195.99h203.73V7.74H180.51z" style="fill:#7a808c"/><path d="M-7.74-195.99h203.73V7.74H-7.74z" style="fill:#7a808c"/><path d="M-195.99-195.99H7.74V7.74h-203.73z" style="fill:#7a808c"/></pattern><pattern id="b" width="72" height="72" x="0" y="0" data-name="6gris" patternTransform="translate(1291.64 -1795.26)" patternUnits="userSpaceOnUse"><path d="M0 0h72v72H0z" style="fill:none"/><path d="M51.53 72.87c-.62 0-1.24-.27-1.73-.69-.41-.49-.69-1.11-.69-1.73s.28-1.24.69-1.73c.9-.9 2.49-.9 3.45 0 .42.49.69 1.11.69 1.73s-.28 1.24-.69 1.73c-.48.42-1.03.69-1.73.69ZM3.2 74.6c-.62 0-1.24-.27-1.73-.69-.41-.49-.69-1.11-.69-1.73 0-.69.28-1.31.76-1.73.83-.9 2.41-.9 3.38 0 .42.42.69 1.04.69 1.73 0 .62-.28 1.24-.69 1.73-.48.42-1.1.69-1.73.69ZM51.53.87c-.62 0-1.24-.27-1.73-.69-.41-.49-.69-1.11-.69-1.73s.28-1.24.69-1.73c.9-.9 2.49-.9 3.45 0 .42.49.69 1.11.69 1.73s-.28 1.24-.69 1.73c-.48.42-1.03.69-1.73.69ZM56.71 49.21c-.62 0-1.24-.27-1.73-.69-.41-.49-.69-1.11-.69-1.73s.28-1.24.69-1.73c1.04-.9 2.49-.9 3.38 0 .49.49.76 1.11.76 1.73s-.28 1.24-.69 1.73c-.48.42-1.1.69-1.73.69ZM3.2 2.6c-.62 0-1.24-.27-1.73-.69C1.06 1.42.78.8.78.18c0-.69.28-1.31.76-1.73.83-.9 2.41-.9 3.38 0 .42.42.69 1.04.69 1.73 0 .62-.28 1.24-.69 1.73-.48.42-1.1.69-1.73.69ZM15.28 75.1c-.62 0-1.24-.27-1.73-.69-.41-.49-.69-1.11-.69-1.73s.28-1.24.69-1.73c.97-.9 2.49-.9 3.45 0 .42.49.69 1.11.69 1.73s-.28 1.24-.69 1.73c-.48.42-1.1.69-1.73.69ZM67.07 28.84c-1.17 0-2.35-.49-3.18-1.31-.83-.83-1.31-2-1.31-3.18s.48-2.35 1.31-3.18c1.66-1.66 4.7-1.66 6.35 0 .83.83 1.31 2 1.31 3.18s-.49 2.28-1.31 3.18c-.82.83-2 1.31-3.18 1.31ZM17.7 44.87c-.62 0-1.24-.27-1.65-.69-.49-.49-.76-1.11-.76-1.73 0-.69.28-1.31.76-1.73.83-.83 2.48-.9 3.38 0 .42.42.69 1.04.69 1.73 0 .62-.28 1.24-.69 1.73-.48.42-1.1.69-1.73.69M34.96 13.8c-.62 0-1.24-.27-1.73-.69-.41-.49-.69-1.11-.69-1.73 0-.69.28-1.31.76-1.73.83-.9 2.41-.9 3.38 0 .42.42.69 1.04.69 1.73 0 .62-.28 1.24-.69 1.73-.48.42-1.1.69-1.73.69ZM28.06 60.76c-1.17 0-2.35-.49-3.18-1.31-.83-.9-1.31-2-1.31-3.18s.48-2.35 1.31-3.18c1.66-1.66 4.7-1.66 6.35 0 .83.83 1.31 2 1.31 3.18s-.49 2.28-1.31 3.18c-.82.83-2 1.31-3.18 1.31ZM15.28 3.1c-.62 0-1.24-.27-1.73-.69-.41-.49-.69-1.11-.69-1.73s.28-1.24.69-1.73c.97-.9 2.49-.9 3.45 0 .42.49.69 1.11.69 1.73s-.28 1.24-.69 1.73c-.48.42-1.1.69-1.73.69Z" style="fill:#334059"/></pattern></defs><g data-name="illu cylindre motif"><g data-name="5_caprock"><path d="M1930 107.07v615.71s0 107.07-965 107.07S0 722.79 0 722.79V107.07S0 0 965 0s965 107.07 965 107.07" style="fill:url(#a)"/><path d="M1930 167.07v555.71s0 107.07-965 107.07S0 722.79 0 722.79V167.07S0 60 965 60s965 107.07 965 107.07" style="fill:url(#b)"/></g></g></svg>