<svg xmlns="http://www.w3.org/2000/svg" data-name="Calque 2" viewBox="0 0 1930 1391.96"><defs><pattern id="a" width="188.25" height="188.25" x="0" y="0" data-name="Nouvelle nuance de motif 15" patternTransform="translate(-864.21 -2483.34)" patternUnits="userSpaceOnUse"><path d="M0 0h188.25v188.25H0z" style="fill:none"/><path d="M166.64 166.64h231.48v231.48H166.64z" style="fill:#998e70"/><path d="M-21.61 166.64h231.48v231.48H-21.61z" style="fill:#998e70"/><path d="M-209.86 166.64H21.62v231.48h-231.48zM166.64-21.61h231.48v231.48H166.64z" style="fill:#998e70"/><path d="M-21.61-21.61h231.48v231.48H-21.61z" style="fill:#998e70"/><path d="M-209.86-21.61H21.62v231.48h-231.48zM166.64-209.86h231.48V21.62H166.64z" style="fill:#998e70"/><path d="M-21.61-209.86h231.48V21.62H-21.61z" style="fill:#998e70"/><path d="M-209.86-209.86H21.62V21.62h-231.48z" style="fill:#998e70"/></pattern><pattern id="b" width="75.49" height="70.58" x="0" y="0" data-name="7beige" patternTransform="translate(1291.64 -2412.77)" patternUnits="userSpaceOnUse"><path d="M0 0h75.49v70.58H0z" style="fill:none"/><path d="M48.64 15.35c-.38 0-.75-.16-1.05-.42-.25-.29-.42-.67-.42-1.05s.17-.75.42-1.05c.55-.55 1.51-.55 2.1 0 .25.29.42.67.42 1.05s-.17.75-.42 1.05c-.29.25-.63.42-1.05.42M1.47 62.53c-.38 0-.75-.16-1.05-.42-.25-.29-.42-.67-.42-1.05s.17-.75.42-1.05c.55-.55 1.55-.55 2.1 0 .25.29.42.67.42 1.05s-.17.75-.42 1.05c-.29.25-.67.42-1.05.42M72.76 11.37c-.71 0-1.43-.29-1.93-.8-.5-.5-.79-1.22-.79-1.93s.29-1.43.79-1.93c.97-1.01 2.9-1.01 3.86 0 .5.46.8 1.18.8 1.93s-.29 1.43-.84 1.93c-.46.5-1.18.8-1.89.8M58.08 32.34c-.71 0-1.43-.29-1.93-.8-.5-.5-.79-1.22-.79-1.93s.29-1.43.79-1.93c1.01-1.01 2.85-1.01 3.86 0 .5.5.8 1.22.8 1.93s-.29 1.38-.8 1.93c-.5.5-1.22.8-1.93.8M15.1 44.92c-.71 0-1.43-.29-1.93-.8-.5-.54-.79-1.22-.79-1.93s.29-1.43.79-1.93c1.01-1.01 2.85-1.01 3.86 0 .5.5.8 1.22.8 1.93s-.29 1.38-.8 1.93c-.5.5-1.22.8-1.93.8M53.17 3.48c-.38 0-.75-.16-1.05-.42-.25-.29-.42-.67-.42-1.05s.17-.75.42-1.05c.59-.55 1.51-.55 2.06 0 .3.29.46.67.46 1.05s-.17.75-.42 1.05c-.29.25-.67.42-1.05.42M16.48 20.26c-.38 0-.75-.16-1.05-.42-.25-.29-.42-.67-.42-1.05s.17-.75.42-1.05c.59-.55 1.51-.55 2.06 0 .3.29.46.67.46 1.05s-.17.75-.42 1.05c-.29.25-.63.42-1.05.42M1.8 43.32c-.38 0-.75-.16-1.05-.42-.25-.29-.42-.67-.42-1.05s.17-.75.42-1.05c.55-.5 1.51-.55 2.06 0 .3.25.46.63.46 1.05 0 .38-.17.75-.42 1.05-.29.25-.67.42-1.05.42M11.24 70.58c-.38 0-.75-.16-1.05-.42-.25-.29-.42-.67-.42-1.05 0-.42.17-.79.46-1.05.46-.5 1.47-.55 2.05 0 .25.25.42.63.42 1.05 0 .38-.17.75-.42 1.05-.29.25-.63.42-1.05.42ZM68.9 46.47c-.38 0-.75-.16-1.05-.42-.25-.29-.42-.67-.42-1.05s.17-.75.42-1.05c.55-.55 1.55-.55 2.1 0 .25.29.42.67.42 1.05s-.17.75-.42 1.05c-.29.25-.67.42-1.05.42M40.59 30.74c-.38 0-.75-.16-1.05-.42-.25-.29-.42-.67-.42-1.05s.17-.79.42-1.05c.5-.5 1.51-.55 2.06 0 .3.29.46.67.46 1.05s-.17.75-.42 1.05c-.29.25-.67.42-1.05.42M24.87 52.76c-.38 0-.75-.16-1.05-.42-.25-.29-.42-.67-.42-1.05s.17-.75.42-1.05c.5-.5 1.51-.55 2.1 0 .25.29.42.67.42 1.05s-.17.75-.42 1.05c-.29.25-.67.42-1.05.42M31.16 68.48c-.38 0-.75-.16-1.05-.42-.25-.29-.42-.67-.42-1.05s.17-.75.42-1.05c.59-.55 1.51-.55 2.1 0 .25.29.42.67.42 1.05s-.17.75-.42 1.05c-.29.25-.67.42-1.05.42M63.66 23.61c-.71 0-1.43-.29-1.93-.8-.5-.54-.79-1.22-.79-1.93s.29-1.43.79-1.93c.97-1.01 2.85-1.01 3.86 0 .5.5.8 1.22.8 1.93s-.29 1.38-.8 1.93c-.5.5-1.22.8-1.93.8M29.06 40.39c-.71 0-1.43-.29-1.93-.8-.5-.5-.79-1.22-.79-1.93s.29-1.43.79-1.93c1.05-1.01 2.85-1.01 3.86 0 .5.5.8 1.22.8 1.93s-.29 1.43-.8 1.93c-.5.5-1.17.8-1.93.8M66.8 63.45c-.71 0-1.43-.29-1.93-.8-.5-.5-.79-1.22-.79-1.93s.29-1.43.79-1.93c1.05-1.05 2.85-1.01 3.86 0 .5.5.8 1.22.8 1.93s-.29 1.43-.8 1.93c-.5.5-1.22.8-1.93.8M56.95 50.78c-.71 0-1.43-.29-1.93-.8-.5-.54-.79-1.22-.79-1.93s.29-1.43.79-1.93c1.01-1.01 2.81-1.01 3.86 0 .5.5.8 1.22.8 1.93s-.29 1.38-.8 1.93c-.5.5-1.22.8-1.93.8M19.83 68.99c-.38 0-.75-.16-1.05-.46-.25-.25-.42-.63-.42-1.01s.17-.75.42-1.05c.55-.55 1.51-.55 2.1 0 .25.29.42.67.42 1.05s-.17.75-.42 1.05c-.29.25-.67.42-1.05.42M31.37 2.94c-.38 0-.75-.16-1.05-.42-.29-.29-.42-.67-.42-1.05s.17-.75.42-1.01c.63-.63 1.51-.59 2.06-.04.3.29.46.67.46 1.05s-.17.75-.42 1.05c-.29.25-.67.42-1.05.42M39.75 37.53c-.38 0-.75-.16-1-.42-.3-.29-.46-.67-.46-1.05s.17-.75.42-1.05c.5-.55 1.55-.55 2.1.04.25.25.42.59.42 1.01 0 .38-.17.75-.42 1.05-.29.25-.67.42-1.05.42ZM38.71 54.31c-.42 0-.79-.16-1.05-.46-.25-.25-.42-.63-.42-1.01s.17-.75.42-1.05c.5-.5 1.51-.55 2.1 0 .25.29.42.67.42 1.05s-.17.75-.42 1.05c-.29.25-.67.42-1.05.42M61.77 70.03c-.38 0-.79-.16-1.05-.46-.25-.21-.42-.59-.42-1.01s.17-.75.46-1.05c.46-.5 1.47-.55 2.05 0 .25.29.42.67.42 1.05s-.17.75-.42 1.05c-.29.25-.67.42-1.05.42ZM2.01 10.28c-.38 0-.75-.16-1.05-.42-.25-.29-.42-.67-.42-1.05s.17-.75.42-1.05c.55-.55 1.51-.55 2.1 0 .25.29.42.67.42 1.05s-.17.75-.42 1.05c-.29.25-.63.42-1.05.42M56.53 40.68c-.38 0-.75-.16-1.05-.46-.25-.25-.42-.63-.42-1.01 0-.42.17-.79.46-1.05.46-.5 1.47-.55 2.05 0 .25.25.42.63.42 1.05 0 .38-.17.75-.42 1.05-.29.25-.67.42-1.05.42ZM5.16 39.63c-.38 0-.75-.16-1.05-.42-.25-.29-.42-.67-.42-1.05s.17-.75.42-1.05c.63-.55 1.51-.55 2.06 0 .3.29.46.67.46 1.05s-.17.75-.42 1.05c-.29.25-.67.42-1.05.42M58.63 18.66c-.38 0-.75-.16-1.05-.46-.25-.25-.42-.63-.42-1.01 0-.42.17-.79.46-1.05.46-.5 1.47-.55 2.05 0 .25.25.42.63.42 1.05 0 .38-.17.75-.42 1.05-.29.25-.67.42-1.05.42ZM36.61 22.86c-.38 0-.75-.16-1.05-.46-.25-.25-.42-.63-.42-1.01 0-.42.17-.79.46-1.05.46-.5 1.47-.55 2.05 0 .25.25.42.63.42 1.05 0 .38-.17.75-.42 1.05-.29.25-.67.42-1.05.42ZM67.01 56.41c-.38 0-.75-.16-1.05-.46-.25-.21-.42-.63-.42-1.01s.17-.75.42-1.05c.55-.55 1.51-.55 2.1 0 .25.29.42.67.42 1.05s-.17.79-.46 1.05c-.25.25-.63.42-1.01.42M26.12 6.29c-.71 0-1.43-.29-1.93-.8-.5-.5-.79-1.22-.79-1.93s.29-1.43.79-1.93c.97-1.01 2.9-1.01 3.86 0 .5.46.8 1.18.8 1.93s-.29 1.43-.84 1.93c-.46.5-1.18.8-1.89.8M55.48 62.91c-.71 0-1.43-.29-1.93-.8-.5-.5-.79-1.22-.79-1.93s.29-1.43.79-1.93c.97-1.01 2.81-1.05 3.86 0 .5.5.8 1.18.8 1.93 0 .71-.29 1.43-.8 1.93-.5.5-1.22.8-1.93.8M11.45 27.26c-.71 0-1.43-.29-1.93-.8-.5-.5-.79-1.22-.79-1.93s.29-1.43.79-1.93c1.01-1.01 2.85-1.01 3.86 0 .5.5.8 1.22.8 1.93s-.29 1.38-.8 1.93c-.5.5-1.22.8-1.93.8M42.19 12.04c-.38 0-.75-.16-1.05-.42-.25-.29-.42-.67-.42-1.05 0-.42.17-.79.46-1.05.5-.55 1.47-.55 2.05 0 .25.25.42.63.42 1.05 0 .38-.17.75-.42 1.05-.29.25-.63.42-1.05.42ZM6.54 15.18c-.38 0-.75-.16-1.05-.42-.25-.29-.42-.67-.42-1.05s.17-.75.42-1.05c.59-.55 1.51-.55 2.1 0 .25.29.42.67.42 1.05s-.17.75-.42 1.05c-.29.25-.67.42-1.05.42M35.9 63.41c-.38 0-.75-.16-1-.42-.3-.29-.46-.67-.46-1.05 0-.42.17-.79.46-1.05.5-.5 1.51-.55 2.05 0 .25.25.42.63.42 1.05 0 .38-.17.75-.42 1.05-.29.25-.67.42-1.05.42M22.27 41.39c-.38 0-.75-.16-1.05-.42-.25-.29-.42-.67-.42-1.05s.17-.75.42-1.05c.55-.55 1.55-.55 2.1 0 .25.29.42.67.42 1.05s-.17.75-.42 1.05c-.29.25-.67.42-1.05.42M46.38 44.54c-.38 0-.75-.16-1.05-.42-.25-.29-.42-.67-.42-1.05 0-.42.17-.79.46-1.05.5-.55 1.47-.55 2.05 0 .25.25.42.63.42 1.05 0 .38-.17.75-.42 1.05-.29.25-.67.42-1.05.42ZM58.96 13.3c-.75 0-1.43-.29-1.93-.8-.5-.5-.79-1.22-.79-1.93s.29-1.43.79-1.93c1.01-1.01 2.85-1.01 3.86 0 .5.5.8 1.18.8 1.93s-.29 1.43-.8 1.93c-.5.5-1.17.8-1.93.8M20.17 58.38c-.71 0-1.43-.29-1.93-.8-.5-.5-.79-1.22-.79-1.93s.29-1.43.79-1.93c1.05-1.05 2.85-1.01 3.86 0 .5.5.8 1.22.8 1.93s-.29 1.43-.8 1.93c-.5.5-1.22.8-1.93.8M67.35 35.31c-.71 0-1.43-.29-1.93-.8-.5-.54-.79-1.22-.79-1.93s.29-1.43.79-1.93c1.01-1.01 2.81-1.01 3.86 0 .5.5.8 1.22.8 1.93s-.29 1.38-.8 1.93c-.5.5-1.22.8-1.93.8" style="fill:#66562c"/></pattern></defs><g data-name="illu cylindre motif"><g data-name="6_reservoir"><path d="M1930 107.07v1177.82s0 107.07-965 107.07S0 1284.89 0 1284.89V107.07S0 0 965 0s965 107.07 965 107.07" style="fill:url(#a)"/><path d="M1930 107.07v1177.82s0 107.07-965 107.07S0 1284.89 0 1284.89V107.07S0 0 965 0s965 107.07 965 107.07" style="fill:url(#b)"/></g></g></svg>