<svg xmlns="http://www.w3.org/2000/svg" data-name="Calque 2" viewBox="0 0 143 225.41"><g data-name="illu cylindre motif"><path d="M96.15 80.75v-11.1" style="fill:none;stroke:#69584d;stroke-miterlimit:10;stroke-width:3px"/><path d="M101.77 64.89s0-.06-.02-.11l-5.61-32.36-5.6 32.33c-.01.05-.02.1-.02.13 0 3.11 2.52 5.62 5.62 5.62s5.62-2.52 5.62-5.62Z" style="fill:#506f71"/><path d="M105.18 51.76v-11.1" style="fill:none;stroke:#69584d;stroke-miterlimit:10;stroke-width:3px"/><path d="M110.81 35.9s0-.06-.02-.11l-5.61-32.36-5.6 32.33c-.01.05-.02.1-.02.13 0 3.11 2.52 5.62 5.62 5.62s5.62-2.52 5.62-5.62Z" style="fill:#506f71"/><path d="M137.37 68.89v-11.1" style="fill:none;stroke:#69584d;stroke-miterlimit:10;stroke-width:3px"/><path d="M143 53.03s0-.06-.02-.11l-5.61-32.36-5.6 32.33c-.01.05-.02.1-.02.13 0 3.11 2.52 5.62 5.62 5.62s5.62-2.52 5.62-5.62Z" style="fill:#506f71"/><path d="M104.98 94.04v-11.1" style="fill:none;stroke:#69584d;stroke-miterlimit:10;stroke-width:3px"/><path d="M110.6 78.18s0-.06-.02-.11l-5.61-32.36-5.6 32.33c-.01.05-.02.1-.02.13 0 3.11 2.52 5.62 5.62 5.62s5.62-2.52 5.62-5.62Z" style="fill:#506f71"/><path d="M83.3 85.05V66.38" style="fill:none;stroke:#69584d;stroke-miterlimit:10;stroke-width:3px"/><path d="M92.76 58.37s-.01-.11-.03-.18L83.3 3.76l-9.42 54.39c-.02.09-.04.17-.04.22 0 5.22 4.24 9.46 9.46 9.46s9.46-4.23 9.46-9.46" style="fill:#506f71"/><path d="M89.73 118.53V99.86" style="fill:none;stroke:#69584d;stroke-miterlimit:10;stroke-width:3px"/><path d="M99.19 91.85s-.01-.11-.03-.18l-9.43-54.42-9.42 54.39c-.02.09-.04.17-.04.22 0 5.22 4.24 9.46 9.46 9.46s9.46-4.23 9.46-9.46Z" style="fill:#506f71"/><path d="M116.62 81.29V62.61" style="fill:none;stroke:#69584d;stroke-miterlimit:10;stroke-width:3px"/><path d="M126.08 54.61s-.01-.11-.03-.18L116.62 0l-9.42 54.39c-.02.09-.04.17-.04.22 0 5.22 4.24 9.46 9.46 9.46s9.46-4.23 9.46-9.46" style="fill:#506f71"/><path d="M74.83 146.3v-26.29" style="fill:none;stroke:#665a51;stroke-miterlimit:10;stroke-width:6px"/><path d="M88.14 108.74c0-.06-.02-.15-.04-.25L74.83 31.88l-13.26 76.55c-.03.13-.05.24-.05.31 0 7.35 5.96 13.31 13.31 13.31s13.31-5.96 13.31-13.31" style="fill:#2b433f"/><path d="M57.87 193.9v-27.75" style="fill:none;stroke:#665a51;stroke-miterlimit:10;stroke-width:6px"/><path d="M71.93 154.25c0-.07-.02-.16-.05-.27L57.87 73.12l-14 80.81c-.03.14-.06.25-.06.33 0 7.76 6.29 14.05 14.05 14.05s14.05-6.29 14.05-14.05Z" style="fill:#2b433f"/><path d="M42.63 178.65V150.9" style="fill:none;stroke:#665a51;stroke-miterlimit:10;stroke-width:6px"/><path d="M56.68 139c0-.07-.02-.16-.05-.27L42.62 57.87l-14 80.81c-.03.14-.06.25-.06.33 0 7.76 6.29 14.05 14.05 14.05s14.05-6.29 14.05-14.05Z" style="fill:#2b433f"/><path d="M20.18 225.41v-39.84" style="fill:none;stroke:#665a51;stroke-miterlimit:10;stroke-width:6px"/><path d="M40.37 168.48c0-.09-.03-.23-.07-.39L20.18 51.97.08 168.01c-.05.2-.08.36-.08.47 0 11.15 9.04 20.18 20.18 20.18s20.18-9.04 20.18-20.18Z" style="fill:#2b433f"/></g></svg>