<svg xmlns="http://www.w3.org/2000/svg" data-name="Calque 2" viewBox="0 0 989.7 550.67"><g data-name="illu cylindre motif"><path d="M437.23 0 218.82 274.54.63 549.08h873.41L655.63 274.54z" style="fill:#96b2c0"/><path d="M640.28 171.15 465.95 360.7 292.36 549.78l347.92.48 349.42-.48L814.62 360.7z" style="fill:#96b2c0"/><path d="m378.81 73.41-45.94 148.28 185.49 106.9-13.44 100.42-27.57 48.17 56.56 71.33-36.55.79-218.08-350.76zM203.43 293.91l-54.38 188.21 155.55 49.02 120.72-25.09 28.06 43.73L0 549.94zM740.4 280.78l2.58 21.76 22.95 25.29-20.49-12.91-1.23 27.4 18.03 57.95 137.3 149.61-16.6-.07-181.35-197.75z" style="fill:#c7deeb"/><path d="M698.51 234.45s-108.55 54.77-109.11 55.84-2.22 38.21-2.22 38.21l60.56 62.13 88.89 158.9-18.05.26L529.4 292.08l110.88-120.93z" style="fill:#c7deeb"/><g style="opacity:.7"><path d="M292.36 549.78h-4.1zM924.89 549.78H292.36h161.02l-54.58-84.32 13.19-14.84-8.66-21.5 11.34-12.32 65.47 52.86 30.37 12.38 73.34-10 40.74-54.27-9.63 47.61 88.89-9.05 74.08-14.28 86.67 8.57 11.11-2.38 27.41 10.95 1.96-1.41 84.62 92zM287.93 549.72H.16l51.51-64.89 158.5-13.33 127.42-20 35.99 9.55-81.55 88.67z" style="fill:#96b2c0"/><path d="m292.36 549.78 81.55-88.67 23.27 6.17 1.62-1.82 54.58 84.32z" style="fill:#96b2c0"/><path d="m292.36 549.78 81.55-88.67 23.27 6.17 1.62-1.82 54.58 84.32z" style="fill:#96b2c0"/></g><path d="M378.81 73.41c-5.04 20.53-11.58 45.46-16.95 65.85-2.35 9.42-5.66 18.56-8.42 27.86-3.54 11.5-13.54 43.63-17.23 55.61l-.04-2.21c.08-.12 56.65 159.62 55.4 156.42 24.73 38.59 69.54 109.14 93.85 147.13 4.47 6.94 9.12 13.97 13.1 21.22l-2.36-1.44c6.73 1.1 13.46 2.14 20.18 3.3 6.72 1.11 13.44 2.31 20.16 3.51-13.64-.02-27.27-.25-40.9-.57l-1.37-.03-.99-1.41c-8.25-11.48-19.24-29.77-27.12-41.84-16.86-26.44-62.96-98.69-80.45-126.11-.6-.3-55.65-157.32-56.09-157.85l-.39-1.1c6.68-21.69 16.77-53.75 23.23-75.28 7.95-23.35 17.84-49.9 26.4-73.08Z" style="fill:#3dd0ff"/></g></svg>