<svg xmlns="http://www.w3.org/2000/svg" data-name="Calque 2" viewBox="0 0 1841.95 424.67"><g data-name="illu cylindre motif"><path d="M904.79 269.62v-22.23" style="fill:none;stroke:#69584d;stroke-miterlimit:10;stroke-width:3px"/><path d="M916.05 237.85c0-.05-.01-.13-.04-.22l-11.22-64.79-11.22 64.74c-.03.11-.05.2-.05.26 0 6.22 5.04 11.26 11.26 11.26s11.26-5.04 11.26-11.26Z" style="fill:#506f71"/><path d="M979.89 274v-17.75" style="fill:none;stroke:#69584d;stroke-miterlimit:10;stroke-width:3px"/><path d="M988.88 248.63s-.01-.1-.03-.17l-8.97-51.75-8.96 51.72c-.02.09-.04.16-.04.21 0 4.97 4.03 9 9 9s8.99-4.03 9-8.99Z" style="fill:#506f71"/><path d="M607.79 265.38v-16.47" style="fill:none;stroke:#69584d;stroke-miterlimit:10;stroke-width:3px"/><path d="M616.13 241.85s-.01-.09-.03-.16l-8.31-47.99-8.31 47.95a1 1 0 0 0-.03.19c0 4.61 3.73 8.34 8.34 8.34s8.34-3.73 8.34-8.34Z" style="fill:#506f71"/><path d="M828.09 276.79v-22.23" style="fill:none;stroke:#69584d;stroke-miterlimit:10;stroke-width:3px"/><path d="M839.35 245.03c0-.05-.01-.13-.04-.22l-11.22-64.79-11.22 64.74c-.03.11-.05.2-.05.26 0 6.22 5.04 11.26 11.26 11.26s11.26-5.04 11.26-11.26Z" style="fill:#506f71"/><path d="M800.15 255.86v-22.23" style="fill:none;stroke:#69584d;stroke-miterlimit:10;stroke-width:3px"/><path d="M811.42 224.1c0-.05-.01-.13-.04-.22l-11.22-64.79-11.22 64.74c-.03.11-.05.2-.05.26 0 6.22 5.04 11.26 11.26 11.26s11.26-5.04 11.26-11.26Z" style="fill:#506f71"/><path d="M383.15 299.46v-22.23" style="fill:none;stroke:#69584d;stroke-miterlimit:10;stroke-width:3px"/><path d="M394.41 267.69c0-.05-.01-.13-.04-.22l-11.22-64.79-11.22 64.74c-.03.11-.05.2-.05.26 0 6.22 5.04 11.26 11.26 11.26s11.26-5.04 11.26-11.26Z" style="fill:#506f71"/><path d="M880.32 278.43V256.2" style="fill:none;stroke:#69584d;stroke-miterlimit:10;stroke-width:3px"/><path d="M891.58 246.67c0-.05-.01-.13-.04-.22l-11.22-64.79-11.22 64.74c-.03.11-.05.2-.05.26 0 6.22 5.04 11.26 11.26 11.26s11.26-5.04 11.26-11.26Z" style="fill:#506f71"/><path d="M931.29 256.97v-11.1" style="fill:none;stroke:#69584d;stroke-miterlimit:10;stroke-width:3px"/><path d="M936.92 241.11s0-.06-.02-.11l-5.61-32.36-5.6 32.33c-.01.05-.02.1-.02.13 0 3.11 2.52 5.62 5.62 5.62s5.62-2.52 5.62-5.62Z" style="fill:#506f71"/><path d="M1004.8 255.77v-11.1" style="fill:none;stroke:#69584d;stroke-miterlimit:10;stroke-width:3px"/><path d="M1010.43 239.91s0-.06-.02-.11l-5.61-32.36-5.6 32.33c-.01.05-.02.1-.02.13 0 3.11 2.52 5.62 5.62 5.62s5.62-2.52 5.62-5.62Z" style="fill:#506f71"/><path d="M942.81 301.8v-22.23" style="fill:none;stroke:#69584d;stroke-miterlimit:10;stroke-width:3px"/><path d="M954.07 270.03c0-.05-.01-.13-.04-.22l-11.22-64.79-11.22 64.74c-.03.11-.05.2-.05.26 0 6.22 5.04 11.26 11.26 11.26s11.26-5.04 11.26-11.26Z" style="fill:#506f71"/><path d="M1033.34 283.65v-22.23" style="fill:none;stroke:#69584d;stroke-miterlimit:10;stroke-width:3px"/><path d="M1044.6 251.88c0-.05-.01-.13-.04-.22l-11.22-64.79-11.22 64.74c-.03.11-.05.2-.05.26 0 6.22 5.04 11.26 11.26 11.26s11.26-5.04 11.26-11.26Z" style="fill:#506f71"/><path d="M770.74 278.64v-21.5" style="fill:none;stroke:#69584d;stroke-miterlimit:10;stroke-width:3px"/><ellipse cx="770.74" cy="242.17" rx="18.32" ry="16.05" style="fill:#506f71"/><path d="M557.56 288.51v-21.5" style="fill:none;stroke:#69584d;stroke-miterlimit:10;stroke-width:3px"/><ellipse cx="557.56" cy="252.04" rx="18.32" ry="16.05" style="fill:#506f71"/><path d="M139.35 309.8v-21.5" style="fill:none;stroke:#69584d;stroke-miterlimit:10;stroke-width:3px"/><ellipse cx="139.35" cy="273.33" rx="18.32" ry="16.05" style="fill:#506f71"/><path d="M859.1 269.21v-16.83" style="fill:none;stroke:#69584d;stroke-miterlimit:10;stroke-width:3px"/><ellipse cx="859.1" cy="240.66" rx="14.34" ry="12.57" style="fill:#506f71"/><path d="M1096.11 264.02v-.96c0-.26.22-.48.48-.48s.48.21.48.48v1.03c-.02.25-.22.44-.48.44s-.45-.2-.48-.44v-.04Z"/><path d="M1097.89 268.06c-.11.02-.21.02-.32.02-.57-.03-2.62-.05-2.81 1.22-.21 1.48-.49 6.78-.76 7.03s-2.51.38-2.91 0-.46-3.84-.58-3.97-.78-1.39-1.08-1.4-.97-.18-1.19.05-.94 1.73-2.02 1.76-1.4-.21-1.62-.08-1.05.64-1.44.65-.08 3.02-.33 3.12-1.78.13-1.92-.05-.16-4.21-.11-4.44.82-1.34.82-1.68-.91-1.38-.91-2.41c0-1.21 1.06-3.12 2.82-3.11h8.65c.27 0 .54-.08.77-.22.51-.32 1.52-.86 2.45-.85 1.32.02 3.43 2.09 3.62 2.33.16.21.6 1.71-1.15 2.05Z" style="fill:#fff"/><path d="m1093.42 270.69-.65.74-.02 5.12" style="fill:none;opacity:.15;stroke:#000;stroke-linecap:round;stroke-miterlimit:10;stroke-width:.5px"/><path d="M1086.07 272.25s1.09 3.92.84 4.13-1.86.18-2.02-.03-1.08-3.62-1.08-3.62z" style="fill:#fff"/><path d="M1094.33 265.27s-.12 1.8-1.08 1.79-.84-.58-.45-1.31" style="fill:none;stroke:#665a51;stroke-linecap:round;stroke-miterlimit:10"/><path d="M1089.98 269.81s-.31.9-.67.88-1.94.02-1.94.02M1085.65 269.96s.16 2.13-.86 2.68" style="fill:none;opacity:.15;stroke:#000;stroke-linecap:round;stroke-miterlimit:10;stroke-width:.5px"/><path d="M1094.35 264.02v-.96c0-.26.22-.48.48-.48s.48.21.48.48v1.03c-.02.25-.22.44-.48.44s-.45-.2-.48-.44v-.04Z"/><circle cx="1096.49" cy="265.26" r=".36"/><circle cx="1098.33" cy="266.4" r=".24"/><path d="M1089.82 264.75s.06 1.57-1.38 1.57c-1.56 0-1.56-1.56-1.56-1.56h2.94Z" style="fill:#665a51"/><ellipse cx="1084.82" cy="268.2" rx="2.37" ry="1.15" style="fill:#665a51"/><ellipse cx="1093.15" cy="269.31" rx="1.43" ry=".83" style="fill:#665a51" transform="rotate(-30 1093.14 269.306)"/><path d="M1081.5 266.83s-1.65-.13-1.51.94-.35 1.49-.48 1.51" style="fill:none;stroke:#fff;stroke-miterlimit:10"/><path d="M1078.71 269.67s.43.17.78 0 .47-.62.47-.62-.43-.17-.78 0-.47.62-.47.62" style="fill:#594a3e"/><path d="M1127.11 259.9v-.96c0-.26.22-.48.48-.48s.48.21.48.48v1.03c-.02.25-.22.44-.48.44s-.45-.2-.48-.44v-.04Z"/><path d="M1128.89 263.93c-.11.02-.21.02-.32.02-.57-.03-2.62-.05-2.81 1.22-.21 1.48-.49 6.78-.76 7.03s-2.51.38-2.91 0-.46-3.84-.58-3.97-.78-1.39-1.08-1.4-.97-.18-1.19.05-.94 1.73-2.02 1.76-1.4-.21-1.62-.08-1.05.64-1.44.65-.08 3.02-.33 3.12-1.78.13-1.92-.05-.16-4.21-.11-4.44.82-1.34.82-1.68-.91-1.38-.91-2.41c0-1.21 1.06-3.12 2.82-3.11h8.65c.27 0 .54-.08.77-.22.51-.32 1.52-.86 2.45-.85 1.32.02 3.43 2.09 3.62 2.33.16.21.6 1.71-1.15 2.05Z" style="fill:#fff"/><path d="m1124.42 266.56-.66.74-.01 5.12" style="fill:none;opacity:.15;stroke:#000;stroke-linecap:round;stroke-miterlimit:10;stroke-width:.5px"/><path d="M1117.06 268.12s1.09 3.92.84 4.13-1.86.18-2.02-.03-1.08-3.62-1.08-3.62z" style="fill:#fff"/><path d="M1125.33 261.14s-.12 1.8-1.08 1.79-.84-.58-.45-1.31" style="fill:none;stroke:#665a51;stroke-linecap:round;stroke-miterlimit:10"/><path d="M1120.98 265.69s-.31.9-.67.88-1.94.02-1.94.02M1116.65 265.83s.16 2.13-.86 2.68" style="fill:none;opacity:.15;stroke:#000;stroke-linecap:round;stroke-miterlimit:10;stroke-width:.5px"/><path d="M1125.34 259.9v-.96c0-.26.22-.48.48-.48s.48.21.48.48v1.03c-.02.25-.22.44-.48.44s-.45-.2-.48-.44v-.04Z"/><circle cx="1127.49" cy="261.13" r=".36"/><circle cx="1129.33" cy="262.28" r=".24"/><path d="M1120.82 260.62s.06 1.57-1.38 1.57c-1.56 0-1.56-1.56-1.56-1.56h2.94Z" style="fill:#665a51"/><ellipse cx="1115.81" cy="264.07" rx="2.37" ry="1.15" style="fill:#665a51"/><ellipse cx="1124.14" cy="265.18" rx="1.43" ry=".83" style="fill:#665a51" transform="rotate(-30 1124.147 265.174)"/><path d="M1112.5 262.7s-1.65-.13-1.51.94-.35 1.49-.48 1.51" style="fill:none;stroke:#fff;stroke-miterlimit:10"/><path d="M1109.71 265.54s.43.17.78 0 .47-.62.47-.62-.43-.17-.78 0-.47.62-.47.62" style="fill:#594a3e"/><path d="M21.44 311.28c22.15 6.49 44.21 13.2 66.26 19.94s44.06 13.6 66.06 20.47c21.98 6.93 43.97 13.83 65.91 20.87 10.97 3.52 21.97 6.96 32.91 10.56 10.93 3.63 21.47 8.28 32.18 12.47l-5.39-.99 617.98-1.37-1.51.08 180.62-18.65-9.56 4.84c1.76-1.91 3.46-3.88 5.1-5.9s3.31-4.01 5.18-5.82 3.92-3.46 5.89-5.18l5.97-5.11c7.93-6.84 15.96-13.59 23.97-20.35 8.05-6.73 16.11-13.45 24.24-20.1 4.04-3.35 8.18-6.61 12.26-9.93 4.09-3.31 8.19-6.6 12.35-9.84a910 910 0 0 1-8.61 13.24c-2.9 4.38-5.76 8.81-8.7 13.16-5.84 8.74-11.76 17.4-17.69 26.06-5.97 8.62-11.92 17.26-17.96 25.81l-4.52 6.43c-1.52 2.13-2.96 4.33-4.59 6.36-1.62 2.04-3.44 3.89-5.3 5.72-1.85 1.83-3.65 3.7-5.38 5.64l-3.79 4.24-5.77.6-180.62 18.65-.75.08h-.76l-617.98 1.44h-2.72l-2.67-.99c-10.78-4-21.74-7.55-32.31-12.12-10.56-4.6-21.05-9.36-31.58-14.03-21.06-9.35-42.06-18.85-63.07-28.31-20.99-9.52-41.98-19.06-62.92-28.71-20.94-9.64-41.87-19.33-62.72-29.24Z" style="fill:url(#Dégradé_sans_nom_152)"/><path d="M813.24 327.66v-32.4" style="fill:none;stroke:#665a51;stroke-miterlimit:10;stroke-width:6px"/><path d="M829.65 281.37c0-.08-.02-.19-.05-.31l-16.36-94.43L796.89 281c-.04.16-.07.29-.07.38 0 9.07 7.35 16.41 16.41 16.41s16.41-7.35 16.41-16.41Z" style="fill:#2b433f"/><path d="M155.69 378.62v-34" style="fill:none;stroke:#665a51;stroke-miterlimit:10;stroke-width:6px"/><ellipse cx="155.69" cy="320.95" rx="28.97" ry="25.39" style="fill:#2b433f"/><path d="M960.74 380.42v-44.46" style="fill:none;stroke:#665a51;stroke-miterlimit:10;stroke-width:6px"/><path d="M983.26 316.89c0-.1-.03-.26-.07-.43l-22.45-129.58-22.43 129.49c-.06.22-.09.4-.09.52 0 12.44 10.08 22.52 22.52 22.52s22.52-10.08 22.52-22.52" style="fill:#2b433f"/><path d="M893.53 365.68v-39.85" style="fill:none;stroke:#665a51;stroke-miterlimit:10;stroke-width:6px"/><path d="M913.71 308.74c0-.09-.03-.23-.07-.39l-20.12-116.13-20.1 116.04c-.05.2-.08.36-.08.47 0 11.15 9.04 20.18 20.18 20.18s20.18-9.04 20.18-20.18Z" style="fill:#2b433f"/><path d="M923.62 329.79v-33.97" style="fill:none;stroke:#665a51;stroke-miterlimit:10;stroke-width:6px"/><path d="M940.83 281.25c0-.08-.02-.2-.06-.33l-17.15-98.99-17.14 98.92c-.04.17-.07.31-.07.4 0 9.5 7.7 17.21 17.21 17.21s17.21-7.7 17.21-17.2Z" style="fill:#2b433f"/><path d="M988.88 334.71v-31.42" style="fill:none;stroke:#665a51;stroke-miterlimit:10;stroke-width:6px"/><path d="M1004.8 289.81c0-.07-.02-.18-.05-.3l-15.87-91.58-15.85 91.52c-.04.15-.06.28-.06.37 0 8.79 7.13 15.92 15.92 15.92s15.92-7.13 15.92-15.92Z" style="fill:#2b433f"/><path d="M786.62 375.72v-44.46" style="fill:none;stroke:#665a51;stroke-miterlimit:10;stroke-width:6px"/><path d="M809.14 312.19c0-.1-.03-.26-.07-.43l-22.45-129.58-22.43 129.49c-.06.22-.09.4-.09.52 0 12.44 10.08 22.52 22.52 22.52s22.52-10.08 22.52-22.52" style="fill:#2b433f"/><path d="M849.65 389.67v-44.46" style="fill:none;stroke:#665a51;stroke-miterlimit:10;stroke-width:6px"/><path d="M872.18 326.14c0-.1-.03-.26-.07-.43l-22.45-129.58-22.43 129.49c-.06.22-.09.4-.09.52 0 12.44 10.08 22.52 22.52 22.52s22.52-10.08 22.52-22.52" style="fill:#2b433f"/><path d="M1126.59 273.25v-1.5c0-.41-.34-.73-.74-.73s-.74.33-.74.73v1.58h.01a.732.732 0 0 0 1.46 0h.01v-.07Z"/><path d="M1123.84 279.46c.16.03.33.04.49.03.88-.05 4.04-.08 4.32 1.88.33 2.28.75 10.45 1.17 10.83s3.87.58 4.49 0 .71-5.91.9-6.11 1.2-2.14 1.66-2.16 1.5-.28 1.83.08 1.45 2.66 3.11 2.71 2.16-.33 2.5-.13 1.61.99 2.22 1 .13 4.65.51 4.8 2.74.2 2.95-.08.25-6.49.16-6.85-1.27-2.07-1.27-2.59 1.39-2.13 1.39-3.71c0-1.86-1.64-4.8-4.35-4.79-2.31.01-10.86 0-13.32-.01-.42 0-.83-.12-1.18-.34-.78-.49-2.33-1.32-3.77-1.31-2.03.03-5.29 3.22-5.58 3.59-.25.32-.92 2.64 1.77 3.15Z" style="fill:#fff"/><path d="m1130.72 283.51 1.02 1.14.02 7.89" style="fill:none;opacity:.15;stroke:#000;stroke-linecap:round;stroke-miterlimit:10;stroke-width:.5px"/><path d="M1142.06 285.92s-1.67 6.03-1.29 6.36 2.87.28 3.12-.05 1.66-5.58 1.66-5.58l-3.49-.74Z" style="fill:#fff"/><path d="M1129.33 275.17s.18 2.78 1.66 2.75 1.29-.89.7-2.02" style="fill:none;stroke:#665a51;stroke-linecap:round;stroke-miterlimit:10"/><path d="M1136.02 282.17s.48 1.38 1.04 1.36 2.99.03 2.99.03M1142.7 282.39s-.24 3.28 1.33 4.12" style="fill:none;opacity:.15;stroke:#000;stroke-linecap:round;stroke-miterlimit:10;stroke-width:.5px"/><path d="M1129.3 273.25v-1.5c0-.41-.34-.73-.74-.73s-.74.33-.74.73v1.58h.01a.732.732 0 0 0 1.46 0h.01v-.07Z"/><circle cx="1126" cy="275.15" r=".55"/><circle cx="1123.16" cy="276.91" r=".36"/><path d="M1136.28 274.37s-.09 2.42 2.12 2.42c2.4 0 2.4-2.4 2.4-2.4z" style="fill:#665a51"/><ellipse cx="1143.98" cy="279.68" rx="3.65" ry="1.77" style="fill:#665a51"/><ellipse cx="1131.15" cy="281.38" rx="1.28" ry="2.21" style="fill:#665a51" transform="rotate(-60 1131.153 281.385)"/><path d="M1149.09 277.57s2.54-.2 2.33 1.45.54 2.3.74 2.33" style="fill:none;stroke:#fff;stroke-miterlimit:10"/><path d="M1153.38 281.94s-.67.25-1.2-.01-.73-.95-.73-.95.67-.25 1.2.01.73.95.73.95M1077.07 273.59v-1.68c0-.45.38-.82.84-.82s.83.37.84.82v1.78h-.01c-.04.43-.39.77-.82.77s-.78-.34-.82-.77h-.01v-.07999999999999999Z" style="fill:#594a3e"/><path d="M1080.16 280.57c-.18.03-.37.04-.55.03-.99-.05-4.53-.09-4.85 2.11-.37 2.56-.84 11.72-1.31 12.14s-4.34.65-5.03 0c-.7-.65-.8-6.63-1.01-6.85s-1.35-2.4-1.86-2.42-1.68-.31-2.05.09-1.62 2.99-3.48 3.04c-1.86.06-2.42-.37-2.8-.14s-1.81 1.11-2.49 1.12-.14 5.22-.57 5.39-3.07.23-3.31-.09-.28-7.28-.18-7.68 1.42-2.32 1.42-2.9-1.56-2.39-1.56-4.17c0-2.09 1.83-5.39 4.88-5.37 2.59.01 12.18 0 14.94-.01.47 0 .93-.14 1.33-.39.88-.55 2.62-1.48 4.23-1.46 2.27.03 5.93 3.61 6.26 4.02.28.36 1.03 2.96-1.99 3.53Z" style="fill:#fff"/><path d="m1072.44 285.11-1.14 1.28-.03 8.84" style="fill:none;opacity:.15;stroke:#000;stroke-linecap:round;stroke-miterlimit:10;stroke-width:.5px"/><path d="M1059.73 287.81s1.88 6.77 1.45 7.14-3.21.31-3.5-.06-1.86-6.26-1.86-6.26z" style="fill:#fff"/><path d="M1074 275.75s-.2 3.11-1.86 3.09c-1.66-.03-1.45-1-.78-2.26" style="fill:none;stroke:#000;stroke-miterlimit:10"/><path d="M1066.49 283.6s-.54 1.55-1.17 1.52-3.36.03-3.36.03M1059.01 283.85s.27 3.68-1.49 4.62" style="fill:none;opacity:.15;stroke:#000;stroke-linecap:round;stroke-miterlimit:10;stroke-width:.5px"/><path d="M1074.03 273.59v-1.68c0-.45.38-.82.84-.82s.83.37.84.82v1.78h-.01c-.04.43-.39.77-.82.77s-.78-.34-.82-.77h-.01v-.08Z" style="fill:#594a3e"/><circle cx="1077.73" cy="275.73" r=".62"/><circle cx="1080.92" cy="277.71" r=".41"/><path d="M1066.21 274.85s.1 2.71-2.38 2.71c-2.69 0-2.69-2.69-2.69-2.69z"/><ellipse cx="1057.57" cy="280.81" rx="4.09" ry="1.99"/><ellipse cx="1071.96" cy="282.72" rx="2.48" ry="1.44" transform="rotate(-30 1071.962 282.731)"/><path d="M1051.84 278.44s-2.84-.23-2.62 1.63-.61 2.58-.83 2.62" style="fill:none;stroke:#fff;stroke-miterlimit:10"/><path d="M1046.85 283.43s.7.2 1.3-.1.86-.98.86-.98-.7-.2-1.3.1-.86.98-.86.98"/><path d="M1107.76 269.49v-.51c0-.14.12-.25.26-.25s.25.11.26.25v.55c-.01.13-.12.24-.25.24s-.24-.1-.25-.24v-.02Z" style="fill:#594a3e"/><path d="M1108.71 271.64c-.06.01-.11.01-.17 0-.3-.02-1.4-.03-1.49.65-.11.79-.26 3.61-.4 3.74s-1.34.2-1.55 0-.25-2.04-.31-2.11-.42-.74-.57-.74-.52-.1-.63.03-.5.92-1.07.94-.74-.11-.86-.04-.56.34-.77.35-.04 1.61-.18 1.66-.95.07-1.02-.03-.09-2.24-.06-2.37.44-.71.44-.89-.48-.74-.48-1.28c0-.64.57-1.66 1.5-1.66h4.6c.15 0 .29-.04.41-.12.27-.17.81-.46 1.3-.45.7 0 1.83 1.11 1.93 1.24.09.11.32.91-.61 1.09Z" style="fill:#fff"/><path d="m1106.34 273.04-.35.39-.01 2.73" style="fill:none;opacity:.15;stroke:#000;stroke-linecap:round;stroke-miterlimit:10;stroke-width:.25px"/><path d="M1102.42 273.87s.58 2.08.45 2.2-.99.1-1.08-.02-.57-1.93-.57-1.93z" style="fill:#fff"/><path d="M1106.82 270.16s-.06.96-.57.95-.45-.31-.24-.7" style="fill:none;stroke:#000;stroke-miterlimit:10;stroke-width:.5px"/><path d="M1104.51 272.57s-.17.48-.36.47-1.03 0-1.03 0M1102.2 272.65s.08 1.13-.46 1.42" style="fill:none;opacity:.15;stroke:#000;stroke-linecap:round;stroke-miterlimit:10;stroke-width:.25px"/><path d="M1106.83 269.49v-.51c0-.14.12-.25.26-.25s.25.11.26.25v.55c-.01.13-.12.24-.25.24s-.24-.1-.25-.24v-.02Z" style="fill:#594a3e"/><circle cx="1107.97" cy="270.15" r=".19"/><circle cx="1108.95" cy="270.76" r=".13"/><path d="M1104.42 269.88s.03.84-.73.84c-.83 0-.83-.83-.83-.83h1.56Z"/><ellipse cx="1101.75" cy="271.71" rx="1.26" ry=".61"/><ellipse cx="1106.19" cy="272.3" rx=".76" ry=".44" transform="rotate(-30 1106.196 272.304)"/><path d="M1099.99 270.98s-.88-.07-.81.5-.19.79-.26.81" style="fill:none;stroke:#fff;stroke-miterlimit:10"/><path d="M1098.45 272.52s.22.06.4-.03.26-.3.26-.3-.22-.06-.4.03-.26.3-.26.3"/><path d="M1095.94 280.31v-1.64c0-.44-.37-.8-.81-.8s-.8.36-.81.8v1.73h.01c.04.42.38.75.8.75s.76-.33.8-.75h.01v-.08Z" style="fill:#594a3e"/><path d="M1092.94 287.1q.27.045.54.03c.96-.05 4.42-.09 4.73 2.05.36 2.49.82 11.41 1.27 11.83s4.22.64 4.9 0 .78-6.45.98-6.68 1.32-2.34 1.81-2.35 1.63-.3 1.99.08 1.58 2.91 3.39 2.96c1.81.06 2.35-.36 2.73-.14s1.76 1.08 2.42 1.09.14 5.08.55 5.25 2.99.22 3.23-.08.28-7.09.18-7.48-1.39-2.26-1.39-2.83 1.52-2.33 1.52-4.06c0-2.04-1.79-5.25-4.75-5.24-2.53.01-11.86 0-14.56-.01-.46 0-.9-.13-1.29-.38-.85-.53-2.55-1.45-4.12-1.43-2.22.03-5.78 3.52-6.09 3.92-.28.35-1.01 2.88 1.94 3.44Z" style="fill:#fff"/><path d="m1100.46 291.52 1.11 1.25.03 8.62" style="fill:none;opacity:.15;stroke:#000;stroke-linecap:round;stroke-miterlimit:10;stroke-width:.5px"/><path d="M1112.84 294.16s-1.83 6.59-1.41 6.95 3.13.3 3.41-.06 1.81-6.09 1.81-6.09z" style="fill:#fff"/><path d="M1098.94 282.41s.19 3.03 1.81 3.01c1.62-.03 1.41-.97.76-2.2" style="fill:none;stroke:#000;stroke-miterlimit:10"/><path d="M1106.25 290.05s.53 1.51 1.14 1.48 3.27.03 3.27.03M1113.55 290.3s-.27 3.58 1.45 4.5" style="fill:none;opacity:.15;stroke:#000;stroke-linecap:round;stroke-miterlimit:10;stroke-width:.5px"/><path d="M1098.91 280.31v-1.64c0-.44-.37-.8-.81-.8s-.8.36-.81.8v1.73h.01c.04.42.38.75.8.75s.76-.33.8-.75h.01v-.08Z" style="fill:#594a3e"/><circle cx="1095.3" cy="282.39" r=".6"/><circle cx="1092.2" cy="284.31" r=".4"/><path d="M1106.53 281.53s-.1 2.64 2.32 2.64c2.62 0 2.62-2.62 2.62-2.62z"/><ellipse cx="1114.95" cy="287.34" rx="3.99" ry="1.94"/><ellipse cx="1100.93" cy="289.2" rx="1.4" ry="2.41" transform="rotate(-60 1100.927 289.199)"/><path d="M1120.53 285.03s2.77-.22 2.55 1.59.59 2.51.81 2.55" style="fill:none;stroke:#fff;stroke-miterlimit:10"/><path d="M1125.39 289.89s-.69.19-1.27-.1-.84-.96-.84-.96.69-.19 1.27.1.84.96.84.96M1085.18 294.68v-1.93c-.01-.52-.43-.94-.96-.94s-.95.42-.96.94v2.04h.02c.04.49.44.88.95.88s.9-.39.95-.88h.01v-.09Z"/><path d="M1081.64 302.68c.21.04.42.05.64.03 1.13-.06 5.2-.11 5.57 2.42.42 2.94.96 13.45 1.5 13.94s4.98.75 5.78 0 .91-7.61 1.16-7.87 1.55-2.76 2.14-2.78 1.93-.36 2.35.1 1.86 3.43 4 3.49c2.14.07 2.78-.42 3.22-.16s2.07 1.27 2.86 1.29.16 5.99.65 6.19 3.53.26 3.8-.1.33-8.36.21-8.82-1.63-2.66-1.63-3.33 1.8-2.74 1.8-4.78c0-2.4-2.11-6.19-5.6-6.17-2.98.01-13.98 0-17.16-.01-.54 0-1.07-.16-1.52-.44-1.01-.63-3.01-1.7-4.86-1.68-2.61.03-6.81 4.15-7.18 4.62-.33.41-1.19 3.4 2.29 4.06Z" style="fill:#fff"/><path d="m1090.51 307.9 1.3 1.47.04 10.15" style="fill:none;opacity:.15;stroke:#000;stroke-linecap:round;stroke-miterlimit:10;stroke-width:.5px"/><path d="M1105.1 311s-2.16 7.77-1.67 8.2 3.69.36 4.02-.07 2.14-7.18 2.14-7.18z" style="fill:#fff"/><path d="M1088.71 297.15s.23 3.58 2.14 3.54 1.67-1.14.9-2.6" style="fill:none;stroke:#665a51;stroke-linecap:round;stroke-miterlimit:10"/><path d="M1097.33 306.16s.62 1.78 1.34 1.75 3.85.03 3.85.03M1105.93 306.45s-.31 4.22 1.71 5.31" style="fill:none;opacity:.15;stroke:#000;stroke-linecap:round;stroke-miterlimit:10;stroke-width:.5px"/><path d="M1088.68 294.68v-1.93c-.01-.52-.43-.94-.96-.94s-.95.42-.96.94v2.04h.02c.04.49.44.88.95.88s.9-.39.95-.88h.01v-.09Z"/><circle cx="1084.43" cy="297.13" r=".71"/><circle cx="1080.77" cy="299.4" r=".47"/><path d="M1097.66 296.12s-.12 3.11 2.73 3.11c3.09 0 3.09-3.09 3.09-3.09z" style="fill:#665a51"/><ellipse cx="1107.59" cy="302.97" rx="4.7" ry="2.29" style="fill:#665a51"/><ellipse cx="1091.06" cy="305.16" rx="1.65" ry="2.84" style="fill:#665a51" transform="rotate(-60 1091.058 305.152)"/><path d="M1114.16 300.24s3.27-.26 3 1.87c-.26 2.13.7 2.96.96 3" style="fill:none;stroke:#fff;stroke-miterlimit:10"/><path d="M1119.69 305.87s-.86.33-1.54-.02-.93-1.23-.93-1.23.86-.33 1.54.02.93 1.23.93 1.23" style="fill:#594a3e"/><path d="M1055.18 306.23v-27.74" style="fill:none;stroke:#665a51;stroke-miterlimit:10;stroke-width:6px"/><path d="M1069.24 266.59c0-.07-.02-.16-.05-.27l-14.01-80.86-14 80.81c-.03.14-.06.25-.06.33 0 7.76 6.29 14.05 14.05 14.05s14.05-6.29 14.05-14.05Z" style="fill:#2b433f"/><path d="M1028.54 295v-2.2c-.01-.59-.49-1.07-1.09-1.07s-1.07.48-1.09 1.07v2.31h.02c.05.56.5 1 1.07 1s1.02-.44 1.07-1h.02v-.12Z" style="fill:#594a3e"/><path d="M1024.53 304.08c.24.05.48.05.72.04 1.29-.07 5.9-.12 6.32 2.75.48 3.33 1.09 15.26 1.7 15.81s5.65.85 6.55 0 1.04-8.63 1.31-8.92 1.76-3.13 2.43-3.15 2.18-.41 2.67.11 2.11 3.89 4.54 3.96 3.15-.48 3.65-.19 2.35 1.44 3.24 1.46.19 6.79.74 7.02 4 .3 4.31-.11.37-9.48.24-10-1.85-3.02-1.85-3.78 2.04-3.11 2.04-5.42c0-2.72-2.39-7.02-6.35-7-3.38.02-15.86 0-19.46-.02-.61 0-1.21-.18-1.73-.5-1.14-.71-3.41-1.93-5.51-1.91-2.96.04-7.72 4.7-8.15 5.24-.37.47-1.34 3.86 2.59 4.6Z" style="fill:#fff"/><path d="m1034.58 309.99 1.48 1.67.04 11.51" style="fill:none;opacity:.15;stroke:#000;stroke-linecap:round;stroke-miterlimit:10;stroke-width:.5px"/><path d="M1051.13 313.51s-2.44 8.81-1.89 9.29 4.18.41 4.55-.07 2.43-8.15 2.43-8.15z" style="fill:#fff"/><path d="M1032.55 297.81s.26 4.05 2.43 4.02c2.17-.04 1.89-1.3 1.02-2.94" style="fill:none;stroke:#000;stroke-miterlimit:10"/><path d="M1042.32 308.03s.7 2.02 1.52 1.98 4.37.04 4.37.04M1052.07 308.35s-.35 4.79 1.94 6.02" style="fill:none;opacity:.15;stroke:#000;stroke-linecap:round;stroke-miterlimit:10;stroke-width:.5px"/><path d="M1032.51 295v-2.2c-.01-.59-.49-1.07-1.09-1.07s-1.07.48-1.09 1.07v2.31h.02c.05.56.5 1 1.07 1s1.02-.44 1.07-1h.02v-.12Z" style="fill:#594a3e"/><circle cx="1027.69" cy="297.78" r=".81"/><circle cx="1023.54" cy="300.35" r=".53"/><path d="M1042.69 296.64s-.13 3.53 3.1 3.53c3.5 0 3.51-3.51 3.51-3.51l-6.6-.02Z"/><ellipse cx="1053.95" cy="304.4" rx="5.33" ry="2.59"/><ellipse cx="1035.21" cy="306.89" rx="1.87" ry="3.23" transform="rotate(-60 1035.207 306.889)"/><path d="M1061.4 301.31s3.7-.3 3.41 2.12c-.3 2.42.79 3.36 1.09 3.41" style="fill:none;stroke:#fff;stroke-miterlimit:10"/><path d="M1067.9 307.8s-.92.26-1.69-.13c-.78-.39-1.12-1.28-1.12-1.28s.92-.26 1.69.13 1.12 1.28 1.12 1.28"/><path d="M1018.26 367.35V327.5" style="fill:none;stroke:#665a51;stroke-miterlimit:10;stroke-width:6px"/><path d="M1038.44 310.41c0-.09-.03-.23-.07-.39l-20.12-116.13-20.1 116.04c-.05.2-.08.36-.08.47 0 11.15 9.04 20.18 20.18 20.18s20.18-9.04 20.18-20.18Z" style="fill:#2b433f"/><path d="M24.91 131.88h60.13v222.77H24.91z" style="fill:#fcd5a2"/><path d="M85.05 131.88h7.05v222.77h-7.05z" style="fill:#ecbc7f"/><path d="M146.91 101.58h58.52v222.77h-58.52z" style="fill:#fcd5a2"/><path d="M205.43 101.58h6.86v222.77h-6.86z" style="fill:#ecbc7f"/><path d="M273.25 52.37h66.48v268.58h-66.48z" style="fill:#fcd5a2"/><path d="M339.73 52.37h6.86v268.58h-6.86z" style="fill:#ecbc7f"/><path d="M692.99 213.44h-55.23l23.06 12.91h56.39v-.03z" style="fill:#fce0ba"/><path d="M660.82 226.35h56.39v37.59h-56.39z" style="fill:#edbd80"/><path d="m637.76 213.44-22.66 12.7v37.81h45.72v-37.6z" style="fill:#fcd4a1"/><path d="M516.54 218.38h-70.01l29.22 14.39h71.48v-.03z" style="fill:#fce0ba"/><path d="M475.75 232.77h71.48v41.91h-71.48z" style="fill:#edbd80"/><path d="m446.53 218.38-28.72 14.15v42.15h57.94v-41.91z" style="fill:#fcd4a1"/><path d="M1459.71 125.89h23.65c-1.54 44.75 9.41 94.09 26.59 145.7h-76.82c17.47-47.04 26.92-95.5 26.59-145.7Z" style="fill:#a39082"/><path d="M1379.24 41.67h44.89c-2.92 84.94 17.87 178.58 50.46 276.54h-145.81c33.16-89.28 51.1-181.27 50.46-276.54M1587.99 108.05l64.66.09c4.51 80.44 28.87 141.18 65.95 192.74h-196.77c39.11-51.86 61.46-115.43 66.16-192.83" style="fill:#84756a"/><path d="M1290.36 0h59.41c-3.87 111.6 23.65 234.62 66.79 363.33h-192.99c43.89-117.3 67.63-238.15 66.79-363.33M1684.75 145.22l77.82.11c5.43 92.26 34.75 161.93 79.37 221.07h-236.82c47.06-59.48 73.97-132.39 79.63-221.17Z" style="fill:#665a51"/><path d="M13.74 346.56v-27.13" style="fill:none;stroke:#69584d;stroke-miterlimit:10;stroke-width:3px"/><path d="M27.48 307.8c0-.06-.02-.16-.05-.26l-13.69-79.05L.06 307.48c-.03.13-.06.24-.06.32 0 7.59 6.15 13.74 13.74 13.74s13.74-6.15 13.74-13.74" style="fill:#506f71"/><path d="M242.06 297.61v-21.5" style="fill:none;stroke:#69584d;stroke-miterlimit:10;stroke-width:3px"/><ellipse cx="242.06" cy="261.14" rx="18.32" ry="16.05" style="fill:#506f71"/><path d="M90.2 159.08h56.47v243.64H90.2z" style="fill:#f5a24b"/><path d="M146.67 159.08h14.99v243.64h-14.99z" style="fill:#cb8234"/><path d="M179.01 139.91h53.78v214.42h-53.78z" style="fill:#f5a24b"/><path d="M232.79 139.91h14.28v214.42h-14.28z" style="fill:#cb8234"/><path d="M253.38 264.39h63.51v113.16h-63.51z" style="fill:#f5a24b"/><path d="M316.9 264.39h14.6v113.16h-14.6z" style="fill:#cb8234"/><path d="M337.66 389.52v-44.46" style="fill:none;stroke:#665a51;stroke-miterlimit:10;stroke-width:6px"/><path d="M360.19 325.99c0-.1-.03-.26-.07-.43l-22.45-129.58-22.43 129.49c-.06.22-.09.4-.09.52 0 12.44 10.08 22.52 22.52 22.52s22.52-10.08 22.52-22.52" style="fill:#2b433f"/><path d="M569.11 374v-23.61" style="fill:none;stroke:#665a51;stroke-miterlimit:10;stroke-width:6px"/><ellipse cx="569.11" cy="333.96" rx="20.12" ry="17.63" style="fill:#2b433f"/><path d="M504.96 255.49h-71.72l29.94 25.81h73.23v-.06z" style="fill:#f5a554"/><path d="M463.18 281.3h73.23v75.16h-73.23z" style="fill:#cb8232"/><path d="m433.24 255.49-29.43 25.38v75.59h59.37V281.3z" style="fill:#f5a24a"/><path d="M412.52 327.92h15.23v28.54h-15.23z" style="fill:#a36123"/><path d="M432.48 288.24h19.95v19.95h-19.95z" style="fill:#e5e5e6"/><path d="M699.82 282.16h-88.09l36.77 21.76h89.95v-.04z" style="fill:#f5a554"/><path d="M648.5 303.92h89.94v63.38H648.5z" style="fill:#cb8232"/><path d="m611.73 282.16-36.14 21.4v63.74h72.91v-63.38z" style="fill:#f5a24a"/><path d="M669.51 325.64h19.95v19.95h-19.95zM697.49 325.64h19.95v19.95h-19.95z" style="fill:#e5e5e6"/><path d="M584.3 338.77h15.23v28.54H584.3z" style="fill:#a36123"/></g></svg>