<svg xmlns="http://www.w3.org/2000/svg" data-name="Calque 2" viewBox="0 0 171.2 68.59"><g data-name="illu cylindre motif"><path d="M25.21 2.15s-7.1.5-8.75.7-2.36.44-2.41.9 2.36 2.21 4.27 2.59z" style="fill:#4a433c"/><path d="M134.49 55.76s-107.83 2.2-110.4 2.26c-2.57.05-21.4-3.46-21.99-3.89S.2 51.94.14 49.08C.08 46.21.02 43.34 0 42.24s1.97-3.68 1.91-6.16-.21-10.14-.23-11.03c-.02-.88 3.4-6.47 5.11-8.87C8.51 13.77 20.69 2.72 25.47 1.9 30.25 1.09 74.22-.75 83.23.33S99.6 5.07 106.35 8.9s17.3 9.74 18.68 10.04 17.3 2.07 26.16 3.66c8.86 1.58 14.8 3.67 15.93 4.8s1.34 1.96 1.76 4.23c.41 2.27.66 3.74 1.05 4.57s1.06 1.3 1.09 2.92.16 7.61.18 8.67c.02 1.07-5.61 6.07-7.77 6.48s-20.49 1.3-28.94 1.47Z" style="fill:#4a433c"/><path d="M170.74 37.66c.16.37.27.83.29 1.47.03 1.62.16 7.61.18 8.67.02 1.07-5.61 6.07-7.77 6.48s-20.49 1.3-28.94 1.47c0 0-107.83 2.2-110.4 2.26-2.57.05-21.4-3.46-21.99-3.89S.21 51.93.15 49.07C.08 46.21.02 43.34 0 42.24s1.97-3.68 1.91-6.16c-.02-1.02-.06-2.91-.1-4.85l168.93 6.42Z" style="fill:#665a51"/><path d="m37.18 16.08.35.27c-2.06 2.62-3.89 5.57-3.39 9.36.39 2.93 4.03 5.89 8.24 9.31 1.32 1.07 2.68 2.18 4.02 3.34 3.7 3.23 6 7.82 6.84 13.63v.1c.21 1.33.91 1.99 2.1 1.97l23.04-.47c.2-.77 1.07-4.48.97-9.51-.11-5.56-1.44-16.78-2.65-20.65-.09-.67-.19-1.51-.31-2.45-.3-2.46-.68-5.51-1.08-7.74-.56-3.16-1.45-8.93-1.61-9.96-1.49-.09-3.14-.17-4.79-.21v-.44c5.26.13 10.52.63 10.57.64l-.04.44s-2.28-.22-5.29-.41c.19 1.26 1.05 6.8 1.59 9.86.4 2.24.78 5.3 1.09 7.76.12.93.22 1.77.3 2.4 1.21 3.87 2.55 15.15 2.67 20.74.1 4.85-.7 8.5-.95 9.5l40.82-.83c1.7-.03 2.22-.85 2.5-2.16.29-1.35 1.24-10.94 1.14-15.75v-.69c-.1-4.38-.14-6.58-2.18-10.26-2.12-3.82-6.47-6.19-6.51-6.21l.21-.39c.18.1 4.51 2.45 6.69 6.39 2.1 3.78 2.14 6.02 2.23 10.47v.69c.11 4.94-.84 14.44-1.14 15.85-.28 1.28-.82 2.47-2.92 2.51l-64.31 1.31c-.99.02-2.24-.37-2.53-2.35v-.1c-.84-5.7-3.09-10.2-6.71-13.36-1.33-1.16-2.69-2.27-4.01-3.34-4.29-3.48-7.99-6.49-8.4-9.6-.52-3.96 1.47-7.12 3.48-9.69ZM128.59 55.88c-.25-1.09-.39-2.21-.41-3.37-.19-9.17 7.1-16.76 16.27-16.95s16.76 7.1 16.95 16.27c.02.92-.06 1.81-.18 2.69-5.63.45-19.64 1.1-26.72 1.24l-5.9.12Z" style="fill:#332e2a"/><path d="M15.6 56.83c-.09-.66-.16-1.33-.18-2.01-.19-9.17 7.1-16.76 16.27-16.95s16.76 7.1 16.95 16.27c.02 1.16-.07 2.29-.28 3.39-13.6.28-23.52.48-24.28.5-1.01.02-4.55-.51-8.49-1.19Z" style="fill:#332e2a"/><circle cx="144.79" cy="52.17" r="14.12" style="fill:#404040"/><path d="M135.14 52.36c.11 5.33 4.52 9.56 9.84 9.45s9.56-4.52 9.45-9.84c-.11-5.33-4.52-9.56-9.84-9.45s-9.56 4.52-9.45 9.84" style="fill:#efefef"/><circle cx="32.03" cy="54.47" r="14.12" style="fill:#404040"/><path d="M22.39 54.67c.11 5.33 4.52 9.56 9.84 9.45 5.33-.11 9.56-4.52 9.45-9.84-.11-5.33-4.52-9.56-9.84-9.45s-9.56 4.52-9.45 9.84" style="fill:#efefef"/><path d="M79.89 22.28c-.5 0-1.06-.46-1.4-1.39S76.27 7.2 75.96 5.39s-.32-2.47.72-2.42c4.01.22 8.01.55 11.61 1.01 2.42.31 7.76 1.97 12.15 4.24 4.38 2.26 16.65 10.27 17.36 11.04 1.65 1.81.66 3.37-2.28 3.36-1.35 0-17.94-.16-35.61-.34ZM35.14 19.55c1.6-4.3 10.42-15.43 16.28-16.44 2.74-.47 10.83-.68 19.76-.39.55.02 1.31.1 1.43 1.24.12 1.2 1.43 13.54 1.59 15.68s-1.22 2.56-1.22 2.56c-18.72-.19-36.6-.37-36.99-.4-.81-.06-1.22-1.27-.85-2.26ZM130.52 24.18c-1.36-.08-2.95-.5-3.43-1.25-.28-.44-1.51-2.63-2.31-4.07.11.04.2.07.27.08.07.02.18.03.32.06.79 1.42 1.85 3.3 2.1 3.69.33.52 1.63.96 3.09 1.05.73.04 9.79 1.64 18.55 3.19 7.52 1.33 15.29 2.7 15.76 2.72.71.04 2.56-.02 3.59-.06.04.14.08.29.11.44-.55.02-1.36.05-2.12.06-.65.01-1.25.02-1.61 0-.5-.03-7.6-1.28-15.82-2.73-8.34-1.47-17.79-3.14-18.5-3.19Z" style="fill:#332e2a"/><path d="M164.74 27.95c.82.34 3.21 3.24 3.55 5.17.34 1.92.08 2.56-.94 2.42s-5.29-1.27-6.72-2.07c-1.42-.8-5.78-4.65-6.09-5.31-.32-.66.88-1.42 1.79-1.55s5.32.06 8.41 1.34" style="fill:#efefef"/><path d="M13.75 19.95c-2.03.09-6.63.17-9.54.21.91-1.5 1.89-3.01 2.59-3.99 1.08-1.52 6.33-6.48 11.26-10.14 5.64-.31 20.2-1.09 20.68-.86.59.28.39 1.02-.81 1.89S23.29 17.47 20.85 18.62s-4.02 1.18-7.11 1.32Z" style="fill:#332e2a"/><path d="M10.41 33.64c-1.19.02-6.28.13-8.54.17-.06-2.9-.14-7.02-.17-8.38l2.92-.06c.77-.02 3.31 2.89 4.78 4.39 1.46 1.5 2.56 3.84 1.02 3.88Z" style="fill:#ef3061"/></g></svg>