<svg xmlns="http://www.w3.org/2000/svg" data-name="Calque 2" viewBox="0 0 202.16 182.21"><g data-name="illu cylindre motif"><circle cx="32.38" cy="149.83" r="32.38" style="fill:#efe1d7"/><circle cx="108.42" cy="131.01" r="31.25" style="fill:#efe1d7"/><circle cx="165.65" cy="33.13" r="33.13" style="fill:#efe1d7"/><circle cx="71.15" cy="52.33" r="31.25" style="fill:#efe1d7"/><circle cx="114.45" cy="35.39" r="17.69" style="fill:#efe1d7"/><circle cx="135.15" cy="92.61" r="21.46" style="fill:#efe1d7"/><circle cx="94.87" cy="90.35" r="19.95" style="fill:#efe1d7"/><circle cx="83.58" cy="139.29" r="18.45" style="fill:#efe1d7"/><circle cx="60.99" cy="130.64" r="18.82" style="fill:#efe1d7"/><circle cx="36.89" cy="101.27" r="7.91" style="fill:#efe1d7"/><circle cx="27.48" cy="116.71" r="13.93" style="fill:#efe1d7"/><circle cx="76.05" cy="107.07" r="16.41" style="fill:#efe1d7"/><circle cx="51.58" cy="109.18" r="18.45" style="fill:#efe1d7"/><circle cx="38.4" cy="70.78" r="16.94" style="fill:#efe1d7"/><circle cx="57.22" cy="82.82" r="15.81" style="fill:#efe1d7"/><circle cx="106.92" cy="81.69" r="17.69" style="fill:#efe1d7"/><circle cx="118.59" cy="115.2" r="15.81" style="fill:#efe1d7"/><circle cx="147.58" cy="124.61" r="19.95" style="fill:#efe1d7"/><circle cx="170.54" cy="98.26" r="10.92" style="fill:#efe1d7"/><circle cx="143.06" cy="67.39" r="11.67" style="fill:#efe1d7"/><circle cx="166.02" cy="78.31" r="14.31" style="fill:#efe1d7"/><circle cx="130.26" cy="41.04" r="15.81" style="fill:#efe1d7"/><circle cx="115.58" cy="64.75" r="16.56" style="fill:#efe1d7"/><circle cx="96.75" cy="35.39" r="12.8" style="fill:#efe1d7"/><circle cx="71.15" cy="22.96" r="10.92" style="fill:#efe1d7"/><circle cx="128.38" cy="24.85" r="13.18" style="fill:#efe1d7"/><circle cx="191.62" cy="58.35" r="10.54" style="fill:#efe1d7"/></g></svg>