<?xml version="1.0" encoding="UTF-8"?>
<svg id="Calque_2" data-name="Calque 2" xmlns="http://www.w3.org/2000/svg" xmlns:xlink="http://www.w3.org/1999/xlink" viewBox="0 0 1930 321.21">
  <defs>
    <pattern id="Nouvelle_nuance_de_motif_7" data-name="Nouvelle nuance de motif 7" x="0" y="0" width="188.25" height="188.25" patternTransform="translate(-864.21 -260.33)" patternUnits="userSpaceOnUse" viewBox="0 0 188.25 188.25">
      <g>
        <rect width="188.25" height="188.25" style="fill: none;"/>
        <rect x="0" y="0" width="188.25" height="188.25" style="fill: #3c7aa3;"/>
      </g>
    </pattern>
    <pattern id="_3bleu" data-name="3bleu" x="0" y="0" width="72" height="72" patternTransform="translate(3140.87 -1402.37)" patternUnits="userSpaceOnUse" viewBox="0 0 72 72">
      <g>
        <rect width="72" height="72" style="fill: none;"/>
        <g>
          <path d="M29.63,73.77c-.24,0-.47-.1-.64-.26-.17-.18-.26-.4-.26-.64s.1-.47.26-.64c.35-.35.93-.33,1.27,0,.17.17.26.4.26.64s-.1.46-.26.64c-.18.17-.4.26-.64.26Z" style="fill: #084670;"/>
          <path d="M44.86,73.07c-.24,0-.46-.1-.64-.26-.17-.18-.26-.4-.26-.64s.1-.47.26-.64c.33-.33.94-.33,1.27,0,.17.15.26.39.26.64,0,.24-.1.46-.26.64-.17.17-.4.26-.64.26Z" style="fill: #084670;"/>
        </g>
        <g>
          <path d="M72.21,51.95c-.25,0-.47-.1-.64-.26-.17-.18-.26-.4-.26-.64s.1-.47.26-.64c.33-.33.94-.33,1.27,0,.17.17.26.4.26.64s-.1.46-.26.64c-.16.17-.39.26-.64.26Z" style="fill: #084670;"/>
          <path d="M71.17,8.69c-.25,0-.47-.1-.64-.28-.17-.15-.26-.39-.26-.62s.1-.47.26-.64c.33-.33.94-.35,1.27,0,.17.17.26.4.26.64s-.1.47-.26.64c-.16.17-.39.26-.64.26Z" style="fill: #084670;"/>
          <path d="M71.52,21.49c-.25,0-.47-.1-.64-.26-.17-.17-.26-.4-.26-.64s.1-.47.26-.64c.33-.33.94-.33,1.27,0,.17.17.26.39.26.64,0,.24-.1.47-.26.64-.16.17-.39.26-.64.26Z" style="fill: #084670;"/>
        </g>
        <g>
          <path d="M17.17,1c-.12,0-.25-.05-.35-.14-.08-.1-.14-.22-.14-.35s.06-.25.14-.35c.18-.18.5-.18.69,0,.08.1.14.22.14.35s-.06.25-.14.35c-.1.08-.22.14-.35.14Z" style="fill: #084670;"/>
          <path d="M10.25,1c-.12,0-.25-.05-.35-.14-.08-.1-.14-.22-.14-.35,0-.14.06-.25.14-.35.17-.17.5-.18.69,0,.08.1.14.22.14.35s-.06.25-.14.35c-.1.08-.22.14-.35.14Z" style="fill: #084670;"/>
          <path d="M20.63,14.16c-.12,0-.25-.05-.35-.14-.08-.1-.14-.22-.14-.35s.06-.25.14-.35c.19-.18.5-.18.68,0,.1.1.15.22.15.35s-.06.25-.14.35c-.1.08-.22.14-.35.14Z" style="fill: #084670;"/>
          <path d="M10.25,18.31c-.12,0-.25-.05-.35-.14-.08-.1-.14-.22-.14-.35,0-.14.06-.26.15-.35.15-.17.48-.18.68,0,.08.08.14.21.14.35,0,.12-.06.25-.14.35-.1.08-.22.14-.35.14Z" style="fill: #084670;"/>
          <path d="M8.52,19.69c-.12,0-.25-.05-.35-.14-.08-.1-.14-.22-.14-.35s.06-.25.14-.35c.19-.18.5-.18.68,0,.1.1.15.22.15.35s-.06.25-.14.35c-.1.08-.21.14-.35.14Z" style="fill: #084670;"/>
          <path d="M22.36,23.85c-.12,0-.25-.05-.35-.14-.08-.1-.14-.22-.14-.35,0-.14.06-.26.15-.35.15-.17.5-.18.68,0,.08.1.14.22.14.35s-.06.25-.14.33c-.1.1-.22.15-.35.15Z" style="fill: #084670;"/>
          <path d="M31.71,22.12c-.12,0-.25-.05-.35-.14-.08-.1-.14-.22-.14-.35s.06-.25.14-.35c.19-.18.5-.18.68,0,.1.1.15.22.15.35s-.06.25-.14.35c-.1.08-.22.14-.35.14Z" style="fill: #084670;"/>
          <path d="M32.4,18.65c-.12,0-.25-.05-.35-.14-.08-.1-.14-.22-.14-.35,0-.14.06-.26.15-.35.17-.18.48-.18.68,0,.08.08.14.21.14.35,0,.12-.06.25-.14.35-.1.08-.21.14-.35.14Z" style="fill: #084670;"/>
          <path d="M29.63,11.73c-.12,0-.25-.05-.35-.14-.08-.1-.14-.22-.14-.35s.06-.25.14-.35c.19-.18.5-.18.68,0,.1.1.15.22.15.35s-.06.25-.14.35c-.1.08-.22.14-.35.14Z" style="fill: #084670;"/>
          <path d="M36.21,13.81c-.12,0-.25-.05-.35-.14-.08-.1-.14-.22-.14-.35s.06-.25.14-.35c.19-.18.5-.18.68,0,.1.1.15.22.15.35s-.06.25-.14.35c-.1.08-.22.14-.35.14Z" style="fill: #084670;"/>
          <path d="M32.74,6.89c-.12,0-.25-.05-.35-.14-.08-.1-.14-.22-.14-.35s.06-.25.14-.35c.19-.18.5-.18.68,0,.1.1.15.22.15.35s-.06.25-.14.35c-.1.08-.22.14-.35.14Z" style="fill: #084670;"/>
          <path d="M33.09,2.73c-.12,0-.25-.05-.35-.14-.08-.1-.14-.22-.14-.35s.06-.25.14-.35c.19-.18.5-.18.69,0,.08.1.14.22.14.35s-.06.25-.14.35c-.1.08-.22.14-.35.14Z" style="fill: #084670;"/>
          <path d="M47.97,5.16c-.12,0-.25-.05-.35-.14-.08-.1-.14-.22-.14-.35,0-.14.06-.26.15-.35.17-.18.48-.18.68,0,.08.08.14.21.14.35,0,.12-.06.25-.14.35-.1.08-.22.14-.35.14Z" style="fill: #084670;"/>
          <path d="M54.2,6.19c-.12,0-.25-.05-.35-.14-.08-.1-.14-.22-.14-.35,0-.14.06-.26.15-.35.17-.18.48-.18.68,0,.08.1.14.22.14.35s-.04.24-.14.33c-.1.1-.22.15-.35.15Z" style="fill: #084670;"/>
          <path d="M54.2,8.96c-.12,0-.25-.05-.35-.14-.08-.1-.14-.22-.14-.35,0-.14.06-.26.15-.35.17-.18.5-.18.68,0,.08.1.14.22.14.35s-.06.24-.14.33c-.1.1-.22.15-.35.15Z" style="fill: #084670;"/>
          <path d="M43.13,15.19c-.12,0-.25-.05-.35-.14-.08-.1-.14-.22-.14-.35s.06-.25.14-.35c.19-.18.5-.18.68,0,.1.08.15.22.15.35s-.06.25-.14.35c-.1.08-.22.14-.35.14Z" style="fill: #084670;"/>
          <path d="M58.7,5.16c-.12,0-.25-.05-.35-.14-.1-.1-.14-.22-.14-.35s.04-.25.14-.35c.19-.18.51-.18.69,0,.08.1.14.22.14.35s-.06.25-.14.35c-.1.08-.22.14-.35.14Z" style="fill: #084670;"/>
          <path d="M61.47,3.08c-.12,0-.25-.05-.35-.15-.08-.08-.14-.21-.14-.33,0-.14.06-.26.15-.35.17-.17.48-.18.68,0,.08.08.14.21.14.35,0,.12-.06.25-.14.35-.1.08-.22.14-.35.14Z" style="fill: #084670;"/>
          <path d="M64.93,1.69c-.12,0-.25-.05-.35-.15-.08-.08-.14-.21-.14-.33,0-.14.06-.26.15-.35.17-.18.48-.18.68,0,.08.08.14.21.14.35,0,.12-.06.25-.14.35-.1.08-.22.14-.35.14Z" style="fill: #084670;"/>
          <path d="M11.63,72.65c-.12,0-.25-.05-.35-.14-.08-.1-.14-.22-.14-.35s.06-.25.14-.35c.17-.18.5-.18.69,0,.08.1.14.22.14.35s-.06.25-.14.35c-.1.08-.22.14-.35.14Z" style="fill: #084670;"/>
          <path d="M16.13,66.42c-.12,0-.25-.05-.35-.14-.08-.1-.14-.22-.14-.35,0-.14.06-.26.15-.35.17-.17.5-.18.68,0,.08.08.14.21.14.35,0,.12-.06.25-.14.35-.1.08-.22.14-.35.14Z" style="fill: #084670;"/>
          <path d="M15.09,63.65c-.12,0-.25-.05-.35-.14-.08-.1-.14-.22-.14-.35,0-.14.06-.26.15-.35.15-.17.48-.18.68,0,.08.08.14.21.14.35,0,.12-.06.25-.14.35-.1.08-.22.14-.35.14Z" style="fill: #084670;"/>
          <path d="M11.63,62.27c-.12,0-.25-.05-.35-.14-.08-.1-.14-.22-.14-.35,0-.14.06-.26.15-.35.15-.17.48-.18.68,0,.08.08.14.21.14.35,0,.12-.06.25-.14.35-.1.08-.22.14-.35.14Z" style="fill: #084670;"/>
          <path d="M15.78,57.07c-.12,0-.25-.05-.35-.14-.08-.1-.14-.22-.14-.35,0-.14.06-.26.15-.35.17-.17.5-.18.68,0,.08.08.14.21.14.35,0,.12-.06.25-.14.35-.1.08-.22.14-.35.14Z" style="fill: #084670;"/>
          <path d="M15.44,51.54c-.12,0-.25-.05-.35-.14-.08-.1-.14-.22-.14-.35s.06-.25.14-.35c.17-.17.5-.18.69,0,.08.1.14.22.14.35s-.06.25-.14.35c-.1.08-.22.14-.35.14Z" style="fill: #084670;"/>
          <path d="M11.63,51.88c-.12,0-.25-.05-.35-.14-.08-.1-.14-.22-.14-.35s.06-.25.14-.35c.17-.18.5-.18.69,0,.08.1.14.22.14.35s-.06.25-.14.35c-.1.08-.22.14-.35.14Z" style="fill: #084670;"/>
          <path d="M34.13,56.73c-.12,0-.25-.05-.35-.14-.08-.1-.14-.22-.14-.35,0-.14.06-.26.15-.35.17-.18.48-.18.68,0,.08.08.14.21.14.35,0,.12-.06.25-.14.35-.1.08-.22.14-.35.14Z" style="fill: #084670;"/>
          <path d="M26.86,61.57c-.12,0-.25-.05-.35-.14-.08-.1-.14-.22-.14-.35s.06-.25.14-.35c.18-.18.5-.18.69,0,.08.1.14.22.14.35s-.06.25-.14.35c-.1.08-.22.14-.35.14Z" style="fill: #084670;"/>
          <path d="M33.44,63.65c-.12,0-.25-.05-.35-.14-.08-.1-.14-.22-.14-.35s.06-.25.14-.35c.18-.18.5-.18.69,0,.08.1.14.22.14.35s-.06.25-.14.35c-.1.08-.22.14-.35.14Z" style="fill: #084670;"/>
          <path d="M33.44,66.07c-.12,0-.25-.05-.33-.14-.1-.1-.15-.22-.15-.35,0-.14.06-.26.14-.35.18-.18.5-.18.69,0,.08.08.14.21.14.35,0,.12-.06.25-.14.35-.1.08-.22.14-.35.14Z" style="fill: #084670;"/>
          <path d="M36.21,67.11c-.12,0-.25-.05-.35-.14-.08-.1-.14-.22-.14-.35s.06-.25.14-.35c.18-.18.51-.18.69,0,.08.1.14.22.14.35s-.06.25-.14.35c-.1.08-.22.14-.35.14Z" style="fill: #084670;"/>
          <path d="M38.97,64.34c-.12,0-.25-.05-.35-.14-.08-.1-.14-.22-.14-.35s.06-.25.14-.35c.21-.18.5-.18.68,0,.1.1.15.22.15.35s-.06.25-.14.35c-.1.08-.22.14-.35.14Z" style="fill: #084670;"/>
          <path d="M43.47,64c-.12,0-.25-.05-.33-.14-.1-.1-.15-.22-.15-.35s.06-.25.14-.35c.19-.18.5-.18.69,0,.08.1.14.22.14.35s-.06.25-.14.35c-.1.08-.22.14-.35.14Z" style="fill: #084670;"/>
          <path d="M46.94,56.73c-.12,0-.25-.05-.35-.14-.08-.1-.14-.22-.14-.35s.06-.25.14-.35c.19-.18.5-.18.69,0,.08.1.14.22.14.35s-.06.25-.14.35c-.1.08-.22.14-.35.14Z" style="fill: #084670;"/>
          <path d="M49.36,48.42c-.12,0-.25-.05-.35-.15-.08-.08-.14-.21-.14-.33s.06-.25.14-.35c.18-.18.5-.18.69,0,.08.1.14.22.14.35s-.06.25-.14.35c-.1.08-.22.14-.35.14Z" style="fill: #084670;"/>
          <path d="M59.74,56.38c-.12,0-.25-.05-.35-.14-.1-.11-.14-.22-.14-.35s.06-.25.14-.35c.19-.19.5-.18.69,0,.08.1.14.22.14.35s-.06.25-.14.35c-.1.08-.22.14-.35.14Z" style="fill: #084670;"/>
          <path d="M61.13,50.84c-.12,0-.25-.05-.35-.15-.08-.08-.14-.21-.14-.33,0-.14.06-.26.15-.35.15-.17.48-.18.68,0,.08.08.14.21.14.35,0,.12-.06.25-.14.35-.1.08-.22.14-.35.14Z" style="fill: #084670;"/>
          <path d="M65.28,51.54c-.14,0-.26-.05-.35-.15-.08-.08-.14-.21-.14-.33s.06-.26.14-.35c.18-.18.5-.18.68,0,.1.1.15.21.15.35,0,.12-.06.25-.14.35-.1.08-.22.14-.35.14Z" style="fill: #084670;"/>
          <path d="M65.28,61.57c-.14,0-.26-.05-.35-.15-.08-.08-.14-.21-.14-.33,0-.14.06-.26.15-.35.15-.17.48-.18.68,0,.08.08.14.21.14.35,0,.12-.06.25-.14.35-.1.08-.22.14-.35.14Z" style="fill: #084670;"/>
          <path d="M60.09,64.34c-.12,0-.25-.05-.35-.14-.08-.1-.14-.22-.14-.35s.06-.25.14-.35c.18-.18.51-.18.69,0,.1.1.14.22.14.35s-.06.25-.14.35c-.1.08-.21.14-.35.14Z" style="fill: #084670;"/>
          <path d="M69.78,71.61c-.12,0-.25-.05-.35-.15-.08-.08-.14-.21-.14-.33s.06-.25.14-.35c.18-.18.5-.18.69,0,.08.1.14.21.14.35,0,.12-.06.25-.14.35-.1.08-.22.14-.35.14Z" style="fill: #084670;"/>
          <path d="M18.21,23.85c-.12,0-.25-.05-.35-.14-.08-.1-.14-.22-.14-.35s.06-.25.14-.35c.19-.18.5-.18.68,0,.1.1.15.22.15.35s-.06.25-.14.35c-.1.08-.22.14-.35.14Z" style="fill: #084670;"/>
          <path d="M20.63,19.69c-.12,0-.25-.05-.35-.14-.08-.1-.14-.22-.14-.35s.06-.25.14-.35c.19-.18.5-.18.69,0,.08.1.14.22.14.35s-.06.25-.14.35c-.1.08-.22.14-.35.14Z" style="fill: #084670;"/>
          <path d="M43.13,20.73c-.12,0-.25-.05-.35-.14-.08-.1-.14-.22-.14-.35s.06-.25.14-.35c.18-.18.51-.18.69,0,.08.1.14.22.14.35s-.06.25-.14.35c-.1.08-.22.14-.35.14Z" style="fill: #084670;"/>
          <path d="M53.17,26.62c-.12,0-.25-.05-.35-.14-.1-.1-.14-.22-.14-.35s.06-.25.14-.33c.21-.21.5-.19.68-.01.1.1.15.22.15.35s-.06.25-.14.35c-.1.08-.22.14-.35.14Z" style="fill: #084670;"/>
          <path d="M65.63,25.23c-.12,0-.25-.05-.35-.14-.08-.1-.14-.22-.14-.35s.06-.25.14-.35c.17-.17.5-.19.69,0,.08.1.14.22.14.35s-.06.25-.14.35c-.1.08-.22.14-.35.14Z" style="fill: #084670;"/>
          <path d="M60.09,21.42c-.12,0-.25-.05-.35-.14-.08-.1-.14-.22-.14-.35s.06-.25.14-.35c.18-.18.51-.18.69,0,.1.1.14.22.14.35s-.06.25-.14.35c-.1.08-.22.14-.35.14Z" style="fill: #084670;"/>
          <path d="M61.13,27.31c-.14,0-.25-.05-.35-.14-.08-.1-.14-.22-.14-.35s.06-.25.14-.35c.19-.18.5-.18.68,0,.1.1.15.22.15.35s-.06.25-.14.35c-.1.08-.22.14-.35.14Z" style="fill: #084670;"/>
          <path d="M67.7,40.46c-.12,0-.25-.05-.35-.14-.08-.1-.14-.22-.14-.35s.06-.25.14-.35c.18-.18.5-.18.68,0,.1.1.15.22.15.35s-.06.25-.14.35c-.1.08-.22.14-.35.14Z" style="fill: #084670;"/>
          <path d="M55.93,38.04c-.12,0-.25-.05-.33-.14-.1-.1-.15-.22-.15-.35s.06-.25.14-.35c.17-.18.51-.18.69.01.08.08.14.19.14.33,0,.12-.06.25-.14.35-.1.08-.22.14-.35.14Z" style="fill: #084670;"/>
          <path d="M55.59,43.58c-.14,0-.26-.05-.35-.15-.08-.08-.14-.21-.14-.33s.06-.25.14-.35c.17-.17.5-.18.69,0,.08.1.14.22.14.35s-.06.25-.14.35c-.1.08-.22.14-.35.14Z" style="fill: #084670;"/>
          <path d="M63.2,48.77c-.12,0-.26-.05-.35-.15-.08-.07-.14-.19-.14-.33s.06-.25.15-.35c.15-.17.48-.18.68,0,.08.1.14.22.14.35s-.06.25-.14.35c-.1.08-.22.14-.35.14Z" style="fill: #084670;"/>
          <path d="M72.2,40.46c-.14,0-.26-.05-.35-.15-.08-.08-.14-.21-.14-.33s.06-.26.15-.35c.17-.18.48-.18.68,0,.08.1.14.22.14.35s-.06.25-.14.35c-.1.08-.21.14-.35.14Z" style="fill: #084670;"/>
          <path d="M34.13,51.54c-.12,0-.25-.05-.35-.14-.08-.1-.14-.22-.14-.35s.06-.25.14-.35c.19-.18.5-.18.68,0,.1.1.15.22.15.35s-.06.25-.14.35c-.1.08-.22.14-.35.14Z" style="fill: #084670;"/>
          <path d="M25.48,38.73c-.12,0-.25-.05-.35-.14-.08-.1-.14-.22-.14-.35s.06-.25.14-.35c.19-.18.5-.18.68,0,.1.1.15.22.15.35s-.06.25-.14.35c-.1.08-.22.14-.35.14Z" style="fill: #084670;"/>
          <path d="M30.32,35.61c-.12,0-.25-.05-.33-.14-.1-.1-.15-.22-.15-.35,0-.14.06-.26.15-.35.17-.17.5-.18.68,0,.08.08.14.21.14.35,0,.12-.06.25-.14.35-.1.08-.22.14-.35.14Z" style="fill: #084670;"/>
          <path d="M3.67,27.31c-.12,0-.25-.05-.35-.14-.08-.1-.14-.22-.14-.35s.06-.25.14-.35c.18-.17.5-.18.68,0,.1.08.15.21.15.35,0,.12-.06.25-.14.35-.1.08-.22.14-.35.14Z" style="fill: #084670;"/>
          <path d="M12.67,44.61c-.12,0-.25-.05-.35-.14-.08-.1-.14-.22-.14-.35,0-.14.06-.26.15-.35.18-.18.5-.18.68,0,.08.08.14.21.14.35,0,.12-.06.25-.14.35-.1.08-.21.14-.35.14Z" style="fill: #084670;"/>
          <path d="M6.78,36.31c-.12,0-.25-.05-.35-.14-.08-.1-.14-.22-.14-.35,0-.14.06-.26.15-.35.15-.17.48-.18.68,0,.08.08.14.21.14.35,0,.12-.06.25-.14.35-.1.08-.21.14-.35.14Z" style="fill: #084670;"/>
          <path d="M25.82,28.35c-.12,0-.25-.05-.35-.14-.08-.1-.14-.22-.14-.35s.06-.25.14-.35c.18-.18.51-.18.69,0,.08.1.14.22.14.35s-.06.25-.14.35c-.1.08-.22.14-.35.14Z" style="fill: #084670;"/>
          <path d="M43.47,29.04c-.12,0-.25-.05-.35-.14-.08-.1-.14-.22-.14-.35s.06-.25.14-.35c.18-.18.5-.18.69,0,.08.1.14.22.14.35s-.06.25-.14.35c-.1.08-.21.14-.35.14Z" style="fill: #084670;"/>
          <path d="M42.09,31.81c-.12,0-.25-.05-.35-.14-.08-.1-.14-.22-.14-.35s.06-.25.14-.35c.18-.18.51-.18.69,0,.08.1.14.22.14.35s-.06.25-.14.35c-.1.08-.22.14-.35.14Z" style="fill: #084670;"/>
          <path d="M27.9,44.61c-.12,0-.25-.05-.35-.14-.08-.1-.14-.22-.14-.35s.06-.25.14-.35c.18-.18.51-.18.69,0,.08.1.14.22.14.35s-.06.25-.14.35c-.1.08-.22.14-.35.14Z" style="fill: #084670;"/>
          <path d="M2.63,12.42c-.12,0-.25-.05-.35-.14-.08-.1-.14-.22-.14-.35s.06-.25.14-.35c.18-.18.5-.18.68,0,.1.1.15.22.15.35s-.06.25-.14.35c-.1.08-.22.14-.35.14Z" style="fill: #084670;"/>
          <path d="M5.4,19c-.12,0-.25-.05-.35-.14-.08-.1-.14-.22-.14-.35,0-.14.06-.26.15-.35.15-.17.48-.18.68,0,.08.08.14.21.14.35,0,.12-.06.25-.14.35-.1.08-.21.14-.35.14Z" style="fill: #084670;"/>
          <path d="M6.78,6.19c-.12,0-.25-.05-.35-.14-.08-.1-.14-.22-.14-.35s.06-.25.14-.35c.18-.18.5-.18.68,0,.1.1.15.22.15.35s-.06.25-.14.35c-.1.08-.22.14-.35.14Z" style="fill: #084670;"/>
          <path d="M14.75,13.12c-.12,0-.25-.05-.35-.14-.08-.1-.14-.22-.14-.35s.06-.26.14-.35c.18-.18.5-.18.68,0,.1.1.15.22.15.35s-.06.25-.14.35c-.1.08-.22.14-.35.14Z" style="fill: #084670;"/>
          <path d="M18.55,37.69c-.12,0-.25-.05-.35-.14-.08-.1-.14-.22-.14-.35s.06-.26.14-.35c.17-.17.5-.18.68,0,.1.1.15.22.15.35s-.06.25-.14.35c-.1.08-.22.14-.35.14Z" style="fill: #084670;"/>
          <path d="M25.82,68.84c-.12,0-.25-.05-.35-.14-.08-.1-.14-.22-.14-.35s.06-.25.14-.35c.19-.18.5-.18.68,0,.1.1.15.22.15.35s-.06.25-.14.35c-.1.08-.22.14-.35.14Z" style="fill: #084670;"/>
          <path d="M40.7,53.61c-.12,0-.25-.05-.35-.14-.08-.1-.14-.22-.14-.35,0-.14.06-.25.14-.35.19-.18.5-.18.69,0,.08.1.14.22.14.35s-.06.25-.14.35c-.1.08-.21.14-.35.14Z" style="fill: #084670;"/>
          <path d="M1.25,42.19c-.12,0-.25-.05-.35-.14-.08-.1-.14-.22-.14-.35s.06-.25.14-.35c.18-.18.49-.18.68,0,.1.1.15.22.15.35s-.06.25-.14.35c-.1.08-.22.14-.35.14Z" style="fill: #084670;"/>
          <path d="M61.47,39.08c-.12,0-.25-.05-.35-.15-.08-.08-.14-.21-.14-.33,0-.14.06-.26.15-.35.15-.17.48-.18.68,0,.08.08.14.21.14.35,0,.12-.06.25-.14.35-.1.08-.22.14-.35.14Z" style="fill: #084670;"/>
          <path d="M44.51,38.73c-.12,0-.25-.05-.35-.14-.08-.1-.14-.22-.14-.35s.06-.25.14-.35c.21-.18.5-.18.68,0,.1.1.15.22.15.35s-.06.25-.14.35c-.1.08-.22.14-.35.14Z" style="fill: #084670;"/>
          <path d="M27.21,5.16c-.12,0-.25-.05-.35-.14-.08-.1-.14-.22-.14-.35s.06-.25.14-.35c.19-.18.5-.18.68,0,.1.1.15.22.15.35s-.06.25-.14.35c-.1.08-.22.14-.35.14Z" style="fill: #084670;"/>
          <path d="M16.48,23.15c-.12,0-.25-.05-.35-.14-.08-.1-.14-.22-.14-.35s.06-.26.14-.35c.17-.17.5-.18.68,0,.1.1.15.22.15.35s-.06.25-.14.35c-.1.08-.22.14-.35.14Z" style="fill: #084670;"/>
          <path d="M21.32,5.85c-.12,0-.25-.05-.35-.14-.08-.1-.14-.22-.14-.35s.06-.25.14-.35c.19-.18.5-.18.68,0,.1.1.15.22.15.35s-.06.25-.14.35c-.1.08-.22.14-.35.14Z" style="fill: #084670;"/>
          <path d="M17.51,10.35c-.12,0-.25-.05-.35-.14-.08-.1-.14-.22-.14-.35s.06-.25.14-.35c.19-.18.5-.18.69,0,.08.1.14.22.14.35s-.06.25-.14.35c-.1.08-.22.14-.35.14Z" style="fill: #084670;"/>
          <path d="M9.55,10.35c-.12,0-.25-.05-.35-.14-.08-.1-.14-.22-.14-.35,0-.14.06-.26.15-.35.15-.17.48-.18.68,0,.08.08.14.21.14.35,0,.12-.06.25-.14.35-.1.08-.22.14-.35.14Z" style="fill: #084670;"/>
          <path d="M38.63,1.69c-.12,0-.25-.05-.35-.14-.08-.1-.14-.22-.14-.35,0-.14.06-.25.14-.35.19-.18.5-.18.68,0,.1.1.15.22.15.35s-.06.25-.14.35c-.1.08-.22.14-.35.14Z" style="fill: #084670;"/>
          <path d="M43.47,7.23c-.12,0-.25-.05-.35-.14-.08-.1-.14-.22-.14-.35s.06-.25.14-.35c.19-.18.5-.18.68,0,.1.1.15.22.15.35s-.06.25-.14.35c-.1.08-.22.14-.35.14Z" style="fill: #084670;"/>
          <path d="M23.4,11.39c-.12,0-.25-.05-.35-.14-.08-.1-.14-.22-.14-.35s.06-.25.14-.35c.19-.18.5-.18.68,0,.1.1.15.22.15.35s-.06.25-.14.35c-.1.08-.22.14-.35.14Z" style="fill: #084670;"/>
          <path d="M.55,24.19c-.12,0-.25-.05-.35-.14-.08-.1-.14-.22-.14-.35s.06-.25.14-.35c.18-.18.5-.18.68,0,.1.1.15.22.15.35s-.06.25-.14.35c-.1.08-.22.14-.35.14Z" style="fill: #084670;"/>
          <path d="M11.28,30.42c-.12,0-.25-.05-.35-.14-.08-.1-.14-.22-.14-.35s.06-.25.14-.35c.17-.17.5-.18.69,0,.08.1.14.22.14.35s-.06.25-.14.35c-.1.08-.22.14-.35.14Z" style="fill: #084670;"/>
          <path d="M3.67,32.85c-.12,0-.25-.05-.35-.14-.08-.1-.14-.22-.14-.35,0-.14.06-.26.15-.35.15-.17.48-.18.68,0,.08.08.14.21.14.35s-.06.25-.14.35c-.1.08-.22.14-.35.14Z" style="fill: #084670;"/>
          <path d="M17.51,29.04c-.12,0-.25-.05-.35-.14-.08-.1-.14-.22-.14-.35,0-.14.06-.26.15-.35.18-.18.48-.18.68,0,.08.08.14.21.14.35,0,.12-.06.25-.14.35-.1.08-.22.14-.35.14Z" style="fill: #084670;"/>
          <path d="M13.36,35.61c-.12,0-.25-.05-.35-.14-.08-.1-.14-.22-.14-.35s.06-.25.14-.35c.19-.18.5-.18.69,0,.08.1.14.22.14.35s-.06.25-.14.35c-.1.08-.22.14-.35.14Z" style="fill: #084670;"/>
          <path d="M11.28,40.46c-.12,0-.25-.05-.35-.14-.08-.1-.14-.22-.14-.35,0-.14.06-.26.15-.35.15-.17.48-.18.68,0,.08.08.14.21.14.35,0,.12-.06.25-.14.35-.1.08-.21.14-.35.14Z" style="fill: #084670;"/>
          <path d="M6.78,43.58c-.12,0-.25-.05-.35-.14-.08-.1-.14-.22-.14-.35,0-.14.06-.26.15-.35.15-.17.48-.18.68,0,.08.08.14.21.14.35,0,.12-.06.25-.14.35-.1.08-.22.14-.35.14Z" style="fill: #084670;"/>
          <path d="M6.78,50.84c-.12,0-.25-.05-.35-.14-.08-.1-.14-.22-.14-.35,0-.14.06-.26.15-.35.15-.17.48-.18.68,0,.08.08.14.21.14.35,0,.12-.06.25-.14.35-.1.08-.22.14-.35.14Z" style="fill: #084670;"/>
          <path d="M4.36,61.92c-.12,0-.25-.05-.35-.14-.08-.1-.14-.22-.14-.35s.06-.25.14-.35c.17-.17.51-.18.69,0,.08.1.14.22.14.35s-.06.25-.14.35c-.1.08-.22.14-.35.14Z" style="fill: #084670;"/>
          <path d="M10.59,67.46c-.12,0-.25-.05-.35-.14-.08-.1-.14-.22-.14-.35s.06-.25.14-.35c.18-.18.51-.18.69,0,.08.1.14.22.14.35s-.06.25-.14.35c-.1.08-.22.14-.35.14Z" style="fill: #084670;"/>
          <path d="M19.94,69.53c-.12,0-.25-.05-.35-.14-.08-.1-.14-.22-.14-.35s.06-.25.14-.35c.17-.17.5-.18.69,0,.08.1.14.22.14.35s-.06.25-.14.35c-.1.08-.21.14-.35.14Z" style="fill: #084670;"/>
          <path d="M22.71,66.07c-.12,0-.25-.05-.35-.14-.08-.1-.14-.22-.14-.35,0-.14.06-.25.14-.35.17-.17.5-.18.69,0,.08.1.14.21.14.35,0,.12-.06.25-.14.35-.1.08-.21.14-.35.14Z" style="fill: #084670;"/>
          <path d="M25.48,52.57c-.12,0-.25-.05-.35-.14-.08-.1-.14-.22-.14-.35s.06-.25.14-.35c.18-.18.5-.18.69,0,.08.1.14.22.14.35s-.06.25-.14.35c-.1.08-.22.14-.35.14Z" style="fill: #084670;"/>
          <path d="M24.78,46.69c-.12,0-.25-.05-.35-.14-.08-.1-.14-.22-.14-.35s.06-.25.14-.35c.18-.18.5-.18.69,0,.08.1.14.22.14.35s-.06.25-.14.35c-.1.08-.22.14-.35.14Z" style="fill: #084670;"/>
          <path d="M33.78,29.38c-.12,0-.25-.05-.35-.14-.08-.1-.14-.22-.14-.35,0-.14.06-.26.15-.35.17-.18.48-.18.68,0,.08.08.14.21.14.35,0,.12-.06.25-.14.35-.1.08-.22.14-.35.14Z" style="fill: #084670;"/>
          <path d="M36.55,24.88c-.12,0-.25-.05-.35-.14-.08-.1-.14-.22-.14-.35s.04-.25.14-.35c.18-.18.5-.18.69,0,.08.1.14.22.14.35s-.06.25-.14.35c-.1.08-.21.14-.35.14Z" style="fill: #084670;"/>
          <path d="M46.94,22.12c-.12,0-.25-.05-.35-.14-.08-.1-.14-.22-.14-.35s.06-.25.14-.35c.18-.18.51-.18.69,0,.08.1.14.22.14.35s-.06.25-.14.35c-.1.08-.22.14-.35.14Z" style="fill: #084670;"/>
          <path d="M48.67,15.19c-.12,0-.25-.05-.35-.15-.08-.08-.14-.19-.14-.33,0-.12.06-.25.14-.35.18-.18.5-.18.69,0,.08.1.14.22.14.35,0,.14-.06.25-.15.35-.08.08-.21.14-.33.14Z" style="fill: #084670;"/>
          <path d="M39.67,13.12c-.12,0-.25-.05-.35-.14-.1-.11-.14-.22-.14-.35s.04-.25.14-.33c.22-.21.51-.19.69-.01.08.1.14.22.14.35s-.06.25-.14.35c-.1.08-.22.14-.35.14Z" style="fill: #084670;"/>
          <path d="M27.55,17.27c-.12,0-.25-.05-.35-.14-.08-.1-.14-.22-.14-.35s.06-.25.14-.35c.18-.18.51-.18.69,0,.08.1.14.22.14.35s-.06.25-.14.35c-.1.08-.22.14-.35.14Z" style="fill: #084670;"/>
          <path d="M61.13,16.92c-.14,0-.26-.05-.35-.15-.08-.08-.14-.21-.14-.33s.06-.25.14-.35c.19-.18.5-.18.68,0,.1.1.15.22.15.35s-.06.25-.14.35c-.1.08-.21.14-.35.14Z" style="fill: #084670;"/>
          <path d="M49.01,11.04c-.12,0-.26-.05-.35-.14-.08-.1-.14-.22-.14-.35s.06-.25.14-.35c.17-.17.5-.18.69,0,.08.1.14.22.14.35s-.06.25-.14.35c-.1.08-.22.14-.35.14Z" style="fill: #084670;"/>
          <path d="M59.05,11.39c-.14,0-.25-.05-.35-.14-.08-.1-.14-.22-.14-.35s.06-.25.14-.35c.19-.18.5-.18.68,0,.1.1.15.22.15.35s-.06.25-.14.35c-.1.08-.22.14-.35.14Z" style="fill: #084670;"/>
          <path d="M71.51,10.35c-.12,0-.25-.05-.35-.14-.08-.1-.14-.22-.14-.35,0-.14.06-.26.15-.35.15-.17.48-.18.68,0,.08.08.14.21.14.35,0,.12-.06.25-.14.35-.1.08-.22.14-.35.14Z" style="fill: #084670;"/>
          <path d="M69.78,5.85c-.14,0-.25-.05-.35-.14-.08-.1-.14-.22-.14-.35s.06-.25.14-.35c.19-.18.5-.18.68,0,.1.1.15.22.15.35s-.06.25-.14.35c-.1.08-.22.14-.35.14Z" style="fill: #084670;"/>
          <path d="M65.97,19.35c-.12,0-.25-.05-.35-.14-.08-.1-.14-.22-.14-.35s.06-.25.14-.35c.17-.17.51-.18.69,0,.08.1.14.22.14.35s-.06.25-.14.35c-.1.08-.22.14-.35.14Z" style="fill: #084670;"/>
          <path d="M65.97,12.42c-.12,0-.26-.05-.35-.15-.08-.08-.14-.21-.14-.33,0-.14.06-.26.15-.35.15-.17.48-.18.68,0,.08.08.14.21.14.35,0,.12-.06.25-.14.35-.1.08-.22.14-.35.14Z" style="fill: #084670;"/>
          <path d="M69.09,29.04c-.14,0-.26-.05-.35-.15-.08-.08-.14-.21-.14-.33,0-.14.06-.26.15-.35.15-.17.48-.18.68,0,.08.08.14.21.14.35,0,.12-.06.25-.14.35-.1.08-.22.14-.35.14Z" style="fill: #084670;"/>
          <path d="M62.16,31.81c-.12,0-.25-.05-.35-.15-.08-.08-.14-.21-.14-.33,0-.14.06-.26.15-.35.15-.17.48-.18.68,0,.08.08.14.21.14.35,0,.12-.06.25-.14.35-.1.08-.22.14-.35.14Z" style="fill: #084670;"/>
          <path d="M54.9,33.19c-.12,0-.25-.05-.35-.15-.08-.08-.14-.21-.14-.33,0-.14.06-.26.15-.35.15-.17.48-.18.68,0,.08.08.14.21.14.35,0,.12-.06.25-.14.35-.1.08-.22.14-.35.14Z" style="fill: #084670;"/>
          <path d="M50.4,40.81c-.12,0-.25-.05-.35-.15-.08-.08-.14-.21-.14-.33s.06-.25.14-.35c.19-.18.5-.18.69,0,.08.1.14.21.14.35s-.06.26-.15.35c-.08.08-.21.14-.33.14Z" style="fill: #084670;"/>
          <path d="M36.21,43.92c-.12,0-.25-.05-.35-.14-.08-.1-.14-.22-.14-.35s.06-.25.14-.35c.19-.18.5-.18.69,0,.08.1.14.22.14.35s-.06.25-.14.35c-.1.08-.22.14-.35.14Z" style="fill: #084670;"/>
          <path d="M45.55,52.92c-.12,0-.25-.05-.35-.14-.08-.1-.14-.22-.14-.35s.06-.25.14-.35c.19-.18.5-.18.68,0,.1.08.15.22.15.35s-.06.25-.14.35c-.1.08-.22.14-.35.14Z" style="fill: #084670;"/>
          <path d="M52.47,58.8c-.12,0-.25-.05-.35-.14-.08-.1-.14-.22-.14-.35,0-.14.06-.26.15-.35.17-.18.5-.18.68,0,.08.08.14.21.14.35,0,.12-.06.25-.14.35-.1.08-.22.14-.35.14Z" style="fill: #084670;"/>
          <path d="M53.51,65.04c-.12,0-.25-.05-.35-.14-.08-.1-.14-.22-.14-.35s.06-.25.14-.35c.21-.19.5-.18.68,0,.1.1.15.22.15.35s-.06.25-.14.35c-.1.08-.22.14-.35.14Z" style="fill: #084670;"/>
          <path d="M47.28,68.84c-.12,0-.25-.05-.33-.14-.1-.1-.15-.22-.15-.35s.06-.25.14-.35c.19-.18.5-.18.69,0,.08.1.14.22.14.35s-.06.25-.14.35c-.1.08-.22.14-.35.14Z" style="fill: #084670;"/>
          <path d="M39.67,59.5c-.12,0-.25-.05-.35-.14-.1-.1-.14-.22-.14-.35s.06-.25.14-.35c.19-.18.53-.18.69.01.08.07.14.19.14.33,0,.12-.06.25-.14.35-.1.08-.22.14-.35.14Z" style="fill: #084670;"/>
          <path d="M72.2,56.73c-.14,0-.26-.05-.35-.15-.08-.08-.14-.21-.14-.33s.06-.26.15-.35c.17-.18.48-.18.66,0,.1.1.15.22.15.35s-.06.25-.14.35c-.1.08-.21.14-.35.14Z" style="fill: #084670;"/>
          <path d="M64.59,56.38c-.12,0-.25-.05-.35-.14-.08-.1-.14-.21-.14-.35s.06-.26.14-.35c.19-.18.5-.18.68,0,.1.1.15.22.15.35s-.06.25-.14.33c-.1.1-.21.15-.35.15Z" style="fill: #084670;"/>
          <path d="M64.93,44.27c-.12,0-.25-.05-.35-.15-.08-.07-.14-.21-.14-.33s.06-.25.14-.35c.18-.18.5-.18.69,0,.08.1.14.22.14.35s-.06.26-.15.35c-.08.08-.21.14-.33.14Z" style="fill: #084670;"/>
          <path d="M14.05,4.53c-.24,0-.46-.1-.64-.26-.17-.18-.26-.4-.26-.64s.1-.47.26-.64c.33-.33.94-.33,1.27,0,.17.17.26.4.26.64s-.1.47-.26.64c-.17.17-.4.26-.64.26Z" style="fill: #084670;"/>
          <path d="M29.63,1.77c-.24,0-.47-.1-.64-.26-.17-.18-.26-.4-.26-.64s.1-.47.26-.64c.35-.35.93-.33,1.27,0,.17.17.26.4.26.64s-.1.46-.26.64c-.18.17-.4.26-.64.26Z" style="fill: #084670;"/>
          <path d="M44.86,1.07c-.24,0-.46-.1-.64-.26-.17-.18-.26-.4-.26-.64s.1-.47.26-.64c.33-.33.94-.33,1.27,0,.17.15.26.39.26.64,0,.24-.1.46-.26.64-.17.17-.4.26-.64.26Z" style="fill: #084670;"/>
          <path d="M51.43,3.15c-.25,0-.47-.1-.64-.28-.17-.16-.26-.39-.26-.62s.1-.47.26-.64c.33-.33.94-.33,1.27,0,.17.15.26.39.26.64s-.1.47-.28.64c-.15.17-.37.26-.62.26Z" style="fill: #084670;"/>
          <path d="M54.55,18.38c-.24,0-.47-.1-.64-.26-.17-.17-.26-.4-.26-.64s.1-.47.26-.64c.32-.33.94-.33,1.27,0,.17.17.26.4.26.64s-.1.47-.26.64c-.17.17-.4.26-.64.26Z" style="fill: #084670;"/>
          <path d="M.21,51.95c-.25,0-.47-.1-.64-.26-.17-.18-.26-.4-.26-.64s.1-.47.26-.64c.33-.33.94-.33,1.27,0,.17.17.26.4.26.64s-.1.46-.26.64c-.16.17-.39.26-.64.26Z" style="fill: #084670;"/>
          <path d="M15.78,73.07c-.24,0-.47-.1-.64-.26-.17-.17-.26-.4-.26-.64,0-.25.1-.47.26-.64.32-.33.94-.35,1.27,0,.17.17.26.4.26.64s-.1.46-.26.64c-.17.17-.4.26-.64.26Z" style="fill: #084670;"/>
          <path d="M18.21,49.53c-.24,0-.47-.1-.64-.26-.17-.17-.26-.4-.26-.64,0-.25.1-.47.26-.64.32-.33.94-.35,1.27,0,.17.17.26.4.26.64s-.1.46-.26.64c-.17.17-.39.26-.64.26Z" style="fill: #084670;"/>
          <path d="M28.59,57.49c-.24,0-.47-.1-.64-.26-.17-.17-.26-.4-.26-.64s.1-.47.26-.64c.33-.33.94-.35,1.27,0,.17.17.26.4.26.64s-.1.46-.26.64c-.17.17-.39.26-.64.26Z" style="fill: #084670;"/>
          <path d="M36.21,70.3c-.24,0-.47-.1-.64-.26-.17-.17-.26-.4-.26-.64,0-.25.1-.47.26-.64.33-.33.94-.33,1.27,0,.17.15.26.39.26.64s-.1.47-.26.64c-.17.17-.4.26-.64.26Z" style="fill: #084670;"/>
          <path d="M46.94,63.03c-.24,0-.47-.1-.64-.26-.17-.17-.26-.4-.26-.64s.1-.47.26-.64c.33-.33.94-.33,1.27,0,.17.17.26.4.26.64s-.1.47-.26.64c-.17.17-.4.26-.64.26Z" style="fill: #084670;"/>
          <path d="M61.47,69.6c-.24,0-.47-.1-.64-.26-.17-.17-.26-.4-.26-.64s.1-.47.26-.64c.32-.33.94-.33,1.27,0,.17.17.26.4.26.64s-.1.47-.26.64c-.17.17-.4.26-.64.26Z" style="fill: #084670;"/>
          <path d="M24.09,20.8c-.24,0-.47-.1-.64-.26-.17-.18-.26-.4-.26-.64s.1-.47.26-.64c.32-.33.94-.33,1.27,0,.17.17.26.4.26.64s-.1.46-.26.64c-.17.17-.4.26-.64.26Z" style="fill: #084670;"/>
          <path d="M37.94,19.07c-.25,0-.47-.1-.64-.26-.17-.17-.26-.4-.26-.64s.1-.47.26-.64c.33-.33.94-.33,1.27,0,.17.17.26.39.26.64s-.1.47-.26.64c-.17.17-.39.26-.64.26Z" style="fill: #084670;"/>
          <path d="M51.43,27.72c-.24,0-.47-.1-.64-.26-.17-.17-.26-.4-.26-.64s.1-.47.26-.64c.32-.33.96-.33,1.27,0,.17.15.26.39.26.64s-.1.47-.28.64c-.15.17-.39.26-.62.26Z" style="fill: #084670;"/>
          <path d="M61.13,46.41c-.24,0-.47-.1-.64-.26-.17-.17-.26-.4-.26-.64s.1-.47.26-.64c.32-.33.93-.35,1.27,0,.17.17.26.39.26.64,0,.24-.1.47-.26.64-.17.17-.4.26-.64.26Z" style="fill: #084670;"/>
          <path d="M54.55,52.99c-.24,0-.47-.1-.64-.26-.17-.17-.26-.4-.26-.64s.1-.47.26-.64c.32-.33.94-.33,1.27,0,.17.17.26.4.26.64s-.1.47-.26.64c-.17.17-.4.26-.64.26Z" style="fill: #084670;"/>
          <path d="M40.36,48.49c-.24,0-.47-.1-.64-.26-.17-.18-.26-.4-.26-.64s.1-.47.26-.64c.33-.33.94-.33,1.27,0,.17.17.26.4.26.64s-.1.46-.26.64c-.17.17-.4.26-.64.26Z" style="fill: #084670;"/>
          <path d="M12.67,26.34c-.24,0-.47-.1-.64-.26-.17-.17-.26-.4-.26-.64s.1-.47.26-.64c.35-.33.94-.33,1.27,0,.17.17.26.4.26.64s-.1.47-.26.64c-.17.17-.39.26-.64.26Z" style="fill: #084670;"/>
          <path d="M4.71,37.76c-.24,0-.47-.1-.64-.26-.17-.17-.26-.4-.26-.64,0-.25.1-.47.26-.64.35-.35.96-.33,1.27,0,.17.17.26.4.26.64s-.1.47-.26.64c-.17.17-.4.26-.64.26Z" style="fill: #084670;"/>
          <path d="M-.83,8.69c-.25,0-.47-.1-.64-.28-.17-.15-.26-.39-.26-.62s.1-.47.26-.64c.33-.33.94-.35,1.27,0,.17.17.26.4.26.64s-.1.47-.26.64c-.16.17-.39.26-.64.26Z" style="fill: #084670;"/>
          <path d="M19.59,44.68c-.24,0-.47-.1-.64-.26-.17-.17-.26-.39-.26-.64s.1-.47.26-.64c.33-.33.93-.33,1.27,0,.17.17.26.4.26.64s-.1.47-.26.64c-.17.17-.4.26-.64.26Z" style="fill: #084670;"/>
          <path d="M22.36,27.03c-.24,0-.47-.1-.64-.26-.17-.18-.26-.4-.26-.64s.1-.47.26-.64c.32-.33.94-.35,1.27,0,.17.17.26.39.26.64,0,.24-.1.47-.26.64-.17.17-.4.26-.64.26Z" style="fill: #084670;"/>
          <path d="M46.59,34.65c-.24,0-.47-.1-.64-.26-.17-.17-.26-.4-.26-.64s.1-.47.26-.64c.33-.33.94-.33,1.27,0,.17.17.26.4.26.64s-.1.46-.26.64c-.17.17-.4.26-.64.26Z" style="fill: #084670;"/>
          <path d="M62.86,7.65c-.24,0-.47-.1-.64-.26-.17-.17-.26-.4-.26-.64s.1-.47.26-.64c.33-.33.94-.33,1.27,0,.17.17.26.4.26.64s-.1.46-.26.64c-.17.17-.4.26-.64.26Z" style="fill: #084670;"/>
          <path d="M36.21,9.03c-.24,0-.47-.1-.64-.26-.17-.18-.26-.4-.26-.64,0-.25.1-.47.26-.64.33-.33.96-.33,1.27,0,.17.17.26.39.26.64,0,.24-.1.47-.26.64-.17.17-.4.26-.64.26Z" style="fill: #084670;"/>
          <path d="M6.78,13.53c-.24,0-.47-.1-.64-.26-.17-.17-.26-.4-.26-.64s.1-.47.26-.64c.35-.35.94-.33,1.27,0,.17.17.26.4.26.64s-.1.47-.26.64c-.17.17-.4.26-.64.26Z" style="fill: #084670;"/>
          <path d="M70.82,15.61c-.24,0-.47-.1-.64-.26-.17-.17-.26-.4-.26-.64s.1-.47.26-.64c.35-.33.93-.33,1.27,0,.17.17.26.39.26.64,0,.24-.1.47-.26.64-.17.17-.4.26-.64.26Z" style="fill: #084670;"/>
          <path d="M-.48,21.49c-.25,0-.47-.1-.64-.26-.17-.17-.26-.4-.26-.64s.1-.47.26-.64c.33-.33.94-.33,1.27,0,.17.17.26.39.26.64,0,.24-.1.47-.26.64-.16.17-.39.26-.64.26Z" style="fill: #084670;"/>
          <path d="M4.36,56.8c-.24,0-.47-.1-.64-.26-.17-.18-.26-.4-.26-.64,0-.25.1-.47.26-.64.33-.33.94-.33,1.27,0,.17.17.26.4.26.64s-.1.46-.26.64c-.17.17-.4.26-.64.26Z" style="fill: #084670;"/>
          <path d="M2.98,69.6c-.25,0-.47-.1-.64-.26-.17-.17-.26-.4-.26-.64s.1-.47.26-.64c.33-.33.94-.33,1.27,0,.17.17.26.4.26.64s-.1.47-.26.64c-.17.17-.39.26-.64.26Z" style="fill: #084670;"/>
          <path d="M19.59,60.61c-.24,0-.47-.1-.64-.26-.17-.17-.26-.39-.26-.64s.1-.48.28-.64c.3-.33.93-.33,1.26,0,.17.17.26.4.26.64s-.1.46-.26.64c-.17.17-.4.26-.64.26Z" style="fill: #084670;"/>
          <path d="M32.4,38.8c-.24,0-.47-.1-.64-.26-.17-.18-.26-.4-.26-.64s.1-.47.26-.64c.33-.33.94-.33,1.27,0,.17.17.26.4.26.64s-.1.46-.26.64c-.17.17-.4.26-.64.26Z" style="fill: #084670;"/>
          <path d="M25.13,33.95c-.24,0-.47-.1-.64-.26-.17-.17-.26-.4-.26-.64s.1-.47.26-.64c.35-.35.94-.33,1.27,0,.17.17.26.4.26.64s-.1.47-.26.64c-.17.17-.4.26-.64.26Z" style="fill: #084670;"/>
          <path d="M40.7,26.34c-.24,0-.47-.1-.64-.26-.17-.18-.26-.4-.26-.64s.1-.47.26-.64c.33-.33.93-.33,1.27,0,.17.17.26.4.26.64s-.1.46-.26.64c-.17.17-.4.26-.64.26Z" style="fill: #084670;"/>
          <path d="M70.47,65.8c-.24,0-.47-.1-.64-.26-.17-.18-.26-.4-.26-.64s.1-.47.26-.64c.33-.33.94-.33,1.27,0,.17.17.26.4.26.64s-.1.46-.26.64c-.17.17-.4.26-.64.26Z" style="fill: #084670;"/>
          <path d="M71.16,48.15c-.25,0-.47-.1-.64-.26-.17-.17-.26-.4-.26-.64s.1-.47.26-.64c.33-.33.94-.33,1.27,0,.17.17.26.4.26.64s-.1.47-.26.64c-.17.17-.39.26-.64.26Z" style="fill: #084670;"/>
          <path d="M66.32,36.03c-.24,0-.47-.1-.64-.26-.17-.18-.26-.4-.26-.64s.1-.47.26-.64c.33-.33.94-.33,1.27,0,.17.17.26.4.26.64s-.1.46-.26.64c-.17.17-.4.26-.64.26Z" style="fill: #084670;"/>
        </g>
        <g>
          <path d="M.2,40.46c-.14,0-.26-.05-.35-.15-.08-.08-.14-.21-.14-.33s.06-.26.15-.35c.17-.18.48-.18.68,0,.08.1.14.22.14.35s-.06.25-.14.35c-.1.08-.21.14-.35.14Z" style="fill: #084670;"/>
          <path d="M.2,56.73c-.14,0-.26-.05-.35-.15-.08-.08-.14-.21-.14-.33s.06-.26.15-.35c.17-.18.48-.18.66,0,.1.1.15.22.15.35s-.06.25-.14.35c-.1.08-.21.14-.35.14Z" style="fill: #084670;"/>
          <path d="M-.84,48.15c-.25,0-.47-.1-.64-.26-.17-.17-.26-.4-.26-.64s.1-.47.26-.64c.33-.33.94-.33,1.27,0,.17.17.26.4.26.64s-.1.47-.26.64c-.17.17-.39.26-.64.26Z" style="fill: #084670;"/>
        </g>
        <g>
          <path d="M11.63.65c-.12,0-.25-.05-.35-.14-.08-.1-.14-.22-.14-.35s.06-.25.14-.35c.17-.18.5-.18.69,0,.08.1.14.22.14.35s-.06.25-.14.35c-.1.08-.22.14-.35.14Z" style="fill: #084670;"/>
          <path d="M15.78,1.07c-.24,0-.47-.1-.64-.26-.17-.17-.26-.4-.26-.64,0-.25.1-.47.26-.64.32-.33.94-.35,1.27,0,.17.17.26.4.26.64s-.1.46-.26.64c-.17.17-.4.26-.64.26Z" style="fill: #084670;"/>
        </g>
      </g>
    </pattern>
  </defs>
  <g id="illu_cylindre_motif" data-name="illu cylindre motif">
    <g id="layers">
      <g id="eau">
        <path d="M1930,107.07v107.07s0,107.07-965,107.07S0,214.14,0,214.14v-107.07S0,0,965,0s965,107.07,965,107.07Z" style="fill: url(#Nouvelle_nuance_de_motif_7);"/>
        <path d="M1930,107.07v107.07s0,107.07-965,107.07S0,214.14,0,214.14v-107.07S0,0,965,0s965,107.07,965,107.07Z" style="fill: url(#_3bleu);"/>
      </g>
    </g>
  </g>
</svg>