<?xml version="1.0" encoding="UTF-8"?>
<svg id="Calque_2" data-name="Calque 2" xmlns="http://www.w3.org/2000/svg" xmlns:xlink="http://www.w3.org/1999/xlink" viewBox="0 0 1930 172.79">
  <defs>
    <pattern id="Nouvelle_nuance_de_motif_19" data-name="Nouvelle nuance de motif 19" x="0" y="0" width="187.5" height="187.5" patternTransform="translate(-864.21 -2585.71)" patternUnits="userSpaceOnUse" viewBox="0 0 187.5 187.5">
      <g>
        <rect width="187.5" height="187.5" style="fill: none;"/>
        <rect width="187.5" height="187.5" style="fill: #d98d39;"/>
      </g>
    </pattern>
    <pattern id="_8orange" data-name="8orange" x="0" y="0" width="72" height="72" patternTransform="translate(143.84 -2585.71)" patternUnits="userSpaceOnUse" viewBox="0 0 72 72">
      <g>
        <rect width="72" height="72" style="fill: none;"/>
        <path d="M72.25,57.97c-.09,0-.18-.04-.25-.1-.06-.07-.1-.16-.1-.25s.04-.18.1-.25c.12-.12.36-.13.5,0,.06.07.1.16.1.25s-.04.18-.1.25c-.07.06-.16.1-.25.1Z" style="fill: #a65700;"/>
        <g>
          <path d="M20.75,3.22c-.09,0-.18-.04-.25-.1-.06-.07-.1-.16-.1-.25s.04-.18.1-.25c.14-.13.36-.13.49,0,.07.07.11.16.11.25s-.04.18-.1.25c-.07.06-.16.1-.25.1Z" style="fill: #a65700;"/>
          <path d="M19.75,8.47c-.09,0-.18-.04-.25-.1-.06-.07-.1-.16-.1-.25,0-.1.04-.19.11-.25.11-.12.35-.13.49,0,.06.06.1.15.1.25,0,.09-.04.18-.1.25-.07.06-.15.1-.25.1Z" style="fill: #a65700;"/>
          <path d="M20,10.72c-.09,0-.18-.04-.25-.1-.06-.07-.1-.16-.1-.25s.04-.18.1-.25c.13-.13.36-.13.5,0,.06.07.1.16.1.25s-.04.18-.1.25c-.07.06-.16.1-.25.1Z" style="fill: #a65700;"/>
          <path d="M15,10.72c-.09,0-.18-.04-.25-.1-.06-.07-.1-.16-.1-.25,0-.1.04-.18.1-.25.12-.12.36-.13.5,0,.06.07.1.16.1.25s-.04.18-.1.25c-.07.06-.16.1-.25.1Z" style="fill: #a65700;"/>
          <path d="M22.5,20.22c-.09,0-.18-.04-.25-.1-.06-.07-.1-.16-.1-.25s.04-.18.1-.25c.14-.13.36-.13.49,0,.07.07.11.16.11.25s-.04.18-.1.25c-.07.06-.16.1-.25.1Z" style="fill: #a65700;"/>
          <path d="M15,23.22c-.09,0-.18-.04-.25-.1-.06-.07-.1-.16-.1-.25,0-.1.04-.19.11-.25.11-.12.35-.13.49,0,.06.06.1.15.1.25,0,.09-.04.18-.1.25-.07.06-.16.1-.25.1Z" style="fill: #a65700;"/>
          <path d="M13.75,24.22c-.09,0-.18-.04-.25-.1-.06-.07-.1-.16-.1-.25s.04-.18.1-.25c.14-.13.36-.13.49,0,.07.07.11.16.11.25s-.04.18-.1.25c-.07.06-.15.1-.25.1Z" style="fill: #a65700;"/>
          <path d="M23.75,27.22c-.09,0-.18-.04-.25-.1-.06-.07-.1-.16-.1-.25,0-.1.04-.19.11-.25.11-.12.36-.13.49,0,.06.07.1.16.1.25s-.04.18-.1.24c-.07.07-.16.11-.25.11Z" style="fill: #a65700;"/>
          <path d="M30.5,25.97c-.09,0-.18-.04-.25-.1-.06-.07-.1-.16-.1-.25s.04-.18.1-.25c.14-.13.36-.13.49,0,.07.07.11.16.11.25s-.04.18-.1.25c-.07.06-.16.1-.25.1Z" style="fill: #a65700;"/>
          <path d="M31,23.47c-.09,0-.18-.04-.25-.1-.06-.07-.1-.16-.1-.25,0-.1.04-.19.11-.25.12-.13.35-.13.49,0,.06.06.1.15.1.25,0,.09-.04.18-.1.25-.07.06-.15.1-.25.1Z" style="fill: #a65700;"/>
          <path d="M29,18.47c-.09,0-.18-.04-.25-.1-.06-.07-.1-.16-.1-.25s.04-.18.1-.25c.14-.13.36-.13.49,0,.07.07.11.16.11.25s-.04.18-.1.25c-.07.06-.16.1-.25.1Z" style="fill: #a65700;"/>
          <path d="M33.75,19.97c-.09,0-.18-.04-.25-.1-.06-.07-.1-.16-.1-.25s.04-.18.1-.25c.14-.13.36-.13.49,0,.07.07.11.16.11.25s-.04.18-.1.25c-.07.06-.16.1-.25.1Z" style="fill: #a65700;"/>
          <path d="M31.25,14.97c-.09,0-.18-.04-.25-.1-.06-.07-.1-.16-.1-.25s.04-.18.1-.25c.14-.13.36-.13.49,0,.07.07.11.16.11.25s-.04.18-.1.25c-.07.06-.16.1-.25.1Z" style="fill: #a65700;"/>
          <path d="M31.5,11.97c-.09,0-.18-.04-.25-.1-.06-.07-.1-.16-.1-.25s.04-.18.1-.25c.14-.13.36-.13.5,0,.06.07.1.16.1.25s-.04.18-.1.25c-.07.06-.16.1-.25.1Z" style="fill: #a65700;"/>
          <path d="M32,7.22c-.09,0-.18-.04-.25-.1-.06-.07-.1-.16-.1-.25s.04-.18.1-.25c.14-.13.36-.13.49,0,.07.07.11.16.11.25s-.04.18-.1.25c-.07.06-.16.1-.25.1Z" style="fill: #a65700;"/>
          <path d="M31.75,3.22c-.09,0-.18-.04-.25-.1-.06-.07-.1-.16-.1-.25,0-.1.04-.19.11-.25.12-.13.35-.13.49,0,.06.06.1.15.1.25,0,.09-.04.18-.1.25-.07.06-.16.1-.25.1Z" style="fill: #a65700;"/>
          <path d="M33.75,1.47c-.09,0-.18-.04-.25-.11-.06-.05-.1-.15-.1-.24,0-.1.04-.19.11-.25.12-.13.36-.13.49,0,.06.06.1.15.1.25,0,.09-.04.19-.11.25-.06.06-.15.1-.24.1Z" style="fill: #a65700;"/>
          <path d="M41.25,7.22c-.09,0-.18-.04-.25-.1-.07-.07-.1-.16-.1-.25s.04-.18.1-.25c.15-.14.36-.13.49,0,.07.07.11.16.11.25s-.04.18-.1.25c-.07.06-.16.1-.25.1Z" style="fill: #a65700;"/>
          <path d="M45.25,6.97c-.09,0-.18-.04-.25-.1-.06-.07-.1-.15-.1-.25s.04-.18.1-.25c.14-.13.36-.13.49,0,.07.07.11.16.11.25s-.04.18-.1.25c-.07.06-.16.1-.25.1Z" style="fill: #a65700;"/>
          <path d="M42.25,13.72c-.09,0-.18-.04-.25-.1-.06-.07-.1-.16-.1-.25,0-.1.04-.19.11-.25.12-.13.35-.13.49,0,.06.06.1.15.1.25,0,.09-.04.18-.1.25-.07.06-.16.1-.25.1Z" style="fill: #a65700;"/>
          <path d="M46.75,14.47c-.09,0-.18-.04-.25-.1-.06-.07-.1-.16-.1-.25,0-.1.04-.19.11-.25.12-.13.35-.13.49,0,.06.07.1.16.1.25s-.03.17-.1.24c-.07.07-.16.11-.25.11Z" style="fill: #a65700;"/>
          <path d="M46.75,16.47c-.09,0-.18-.04-.25-.1-.06-.07-.1-.16-.1-.25,0-.1.04-.19.11-.25.12-.13.36-.13.49,0,.06.07.1.16.1.25s-.04.17-.1.24c-.07.07-.16.11-.25.11Z" style="fill: #a65700;"/>
          <path d="M38.75,20.97c-.09,0-.18-.04-.25-.1-.06-.07-.1-.16-.1-.25s.04-.18.1-.25c.14-.13.36-.13.49,0,.07.06.11.16.11.25s-.04.18-.1.25c-.07.06-.16.1-.25.1Z" style="fill: #a65700;"/>
          <path d="M50,13.72c-.09,0-.18-.04-.25-.1-.07-.07-.1-.16-.1-.25s.03-.18.1-.25c.14-.13.37-.13.5,0,.06.07.1.16.1.25s-.04.18-.1.25c-.07.06-.16.1-.25.1Z" style="fill: #a65700;"/>
          <path d="M52,12.22c-.09,0-.18-.04-.25-.11-.06-.06-.1-.15-.1-.24,0-.1.04-.19.11-.25.12-.12.35-.13.49,0,.06.06.1.15.1.25,0,.09-.04.18-.1.25-.07.06-.16.1-.25.1Z" style="fill: #a65700;"/>
          <path d="M54.5,11.22c-.09,0-.18-.04-.25-.11-.06-.06-.1-.15-.1-.24,0-.1.04-.19.11-.25.12-.13.35-.13.49,0,.06.06.1.15.1.25,0,.09-.04.18-.1.25-.07.06-.16.1-.25.1Z" style="fill: #a65700;"/>
          <path d="M56.25.97c-.09,0-.18-.04-.25-.1-.06-.07-.1-.16-.1-.25s.04-.18.1-.25c.12-.13.37-.13.5,0,.06.06.1.15.1.24s-.04.18-.1.25c-.07.06-.16.1-.25.1Z" style="fill: #a65700;"/>
          <path d="M67.75,3.22c-.09,0-.18-.04-.25-.1-.06-.07-.1-.16-.1-.25,0-.1.04-.19.11-.25.11-.12.35-.13.49,0,.06.06.1.15.1.25,0,.09-.04.18-.1.25-.07.06-.15.1-.25.1Z" style="fill: #a65700;"/>
          <path d="M67.75,10.47c-.09,0-.18-.04-.25-.11-.06-.06-.1-.15-.1-.24s.04-.18.1-.25c.13-.13.36-.13.5,0,.06.07.1.16.1.25,0,.1-.04.18-.11.25-.06.06-.15.1-.24.1Z" style="fill: #a65700;"/>
          <path d="M64,12.47c-.09,0-.18-.04-.25-.1-.06-.07-.1-.16-.1-.25s.04-.18.1-.25c.13-.13.36-.13.49,0,.07.07.11.16.11.25s-.04.18-.1.25c-.07.06-.16.1-.25.1Z" style="fill: #a65700;"/>
          <path d="M65,15.97c-.09,0-.18-.04-.25-.1-.06-.07-.1-.16-.1-.25,0-.1.04-.18.1-.25.12-.12.37-.13.5,0,.06.07.1.16.1.25s-.04.18-.1.25c-.07.06-.16.1-.25.1Z" style="fill: #a65700;"/>
          <path d="M63.75,19.97c-.09,0-.18-.04-.25-.11-.06-.06-.1-.15-.1-.24s.04-.18.1-.25c.13-.13.37-.13.5,0,.06.07.1.16.1.25,0,.1-.04.18-.11.25-.06.06-.15.1-.24.1Z" style="fill: #a65700;"/>
          <path d="M66,19.97c-.09,0-.18-.04-.25-.1-.06-.07-.1-.16-.1-.25,0-.1.04-.19.11-.25.11-.12.35-.13.49,0,.06.06.1.15.1.25,0,.09-.04.18-.1.25-.07.06-.16.1-.25.1Z" style="fill: #a65700;"/>
          <path d="M67.75,21.47c-.09,0-.18-.04-.25-.1-.06-.07-.1-.16-.1-.25s.04-.18.1-.25c.13-.13.36-.13.5,0,.06.07.1.16.1.25s-.04.18-.1.25c-.07.06-.16.1-.25.1Z" style="fill: #a65700;"/>
          <path d="M6.75,52.47c-.09,0-.18-.04-.25-.1-.06-.07-.1-.16-.1-.25s.04-.18.1-.25c.12-.12.36-.13.5,0,.06.07.1.16.1.25s-.04.18-.1.25c-.07.06-.16.1-.25.1Z" style="fill: #a65700;"/>
          <path d="M7,54.72c-.09,0-.18-.04-.25-.1-.06-.07-.1-.16-.1-.25s.04-.18.1-.25c.12-.13.36-.13.5,0,.06.07.1.16.1.25s-.04.18-.1.25c-.07.06-.16.1-.25.1Z" style="fill: #a65700;"/>
          <path d="M2,54.72c-.09,0-.18-.04-.25-.1-.06-.07-.1-.16-.1-.25s.04-.18.1-.25c.12-.12.36-.13.5,0,.06.07.1.16.1.25s-.04.18-.1.25c-.07.06-.16.1-.25.1Z" style="fill: #a65700;"/>
          <path d="M9.5,64.22c-.09,0-.18-.04-.25-.1-.06-.07-.1-.16-.1-.25s.04-.18.1-.25c.13-.13.36-.13.49,0,.07.07.11.16.11.25s-.04.18-.1.25c-.07.06-.16.1-.25.1Z" style="fill: #a65700;"/>
          <path d="M.75,68.22c-.09,0-.18-.04-.25-.1-.06-.07-.1-.16-.1-.25s.04-.18.1-.25c.12-.12.36-.13.5,0,.06.07.1.16.1.25s-.04.18-.1.25c-.07.06-.16.1-.25.1Z" style="fill: #a65700;"/>
          <path d="M10.75,71.22c-.09,0-.18-.04-.25-.1-.06-.07-.1-.16-.1-.25s.04-.18.1-.25c.12-.12.37-.13.5,0,.06.07.1.16.1.25s-.04.18-.1.25c-.07.06-.16.1-.25.1Z" style="fill: #a65700;"/>
          <path d="M18,67.47c-.09,0-.18-.04-.25-.1-.06-.07-.1-.16-.1-.25s.04-.19.1-.25c.12-.12.36-.13.49,0,.07.07.11.16.11.25s-.04.18-.1.25c-.07.06-.16.1-.25.1Z" style="fill: #a65700;"/>
          <path d="M16,62.47c-.09,0-.18-.04-.25-.1-.06-.07-.1-.16-.1-.25s.04-.18.1-.25c.12-.13.36-.13.5,0,.06.07.1.16.1.25s-.04.18-.1.25c-.07.06-.16.1-.25.1Z" style="fill: #a65700;"/>
          <path d="M19.25,57.97c-.09,0-.18-.04-.25-.1-.06-.07-.1-.16-.1-.25,0-.1.04-.19.11-.25.12-.12.36-.13.49,0,.06.06.1.15.1.25,0,.09-.04.18-.1.25-.07.06-.16.1-.25.1Z" style="fill: #a65700;"/>
          <path d="M18.5,55.97c-.09,0-.18-.04-.25-.1-.06-.07-.1-.16-.1-.25,0-.1.04-.19.11-.25.11-.12.35-.13.49,0,.06.06.1.15.1.25,0,.09-.04.18-.1.25-.07.06-.16.1-.25.1Z" style="fill: #a65700;"/>
          <path d="M16,54.97c-.09,0-.18-.04-.25-.1-.06-.07-.1-.16-.1-.25,0-.1.04-.19.11-.25.11-.12.35-.13.49,0,.06.06.1.15.1.25,0,.09-.04.18-.1.25-.07.06-.16.1-.25.1Z" style="fill: #a65700;"/>
          <path d="M19,51.22c-.09,0-.18-.04-.25-.1-.06-.07-.1-.16-.1-.25,0-.1.04-.19.11-.25.12-.12.36-.13.49,0,.06.06.1.15.1.25,0,.09-.04.18-.1.25-.07.06-.16.1-.25.1Z" style="fill: #a65700;"/>
          <path d="M18.75,47.22c-.09,0-.18-.04-.25-.1-.06-.07-.1-.16-.1-.25s.04-.18.1-.25c.12-.12.36-.13.5,0,.06.07.1.16.1.25s-.04.18-.1.25c-.07.06-.16.1-.25.1Z" style="fill: #a65700;"/>
          <path d="M16,47.47c-.09,0-.18-.04-.25-.1-.06-.07-.1-.16-.1-.25s.04-.18.1-.25c.12-.13.36-.13.5,0,.06.07.1.16.1.25s-.04.18-.1.25c-.07.06-.16.1-.25.1Z" style="fill: #a65700;"/>
          <path d="M32.25,50.97c-.09,0-.18-.04-.25-.1-.06-.07-.1-.16-.1-.25,0-.1.04-.19.11-.25.12-.13.35-.13.49,0,.06.06.1.15.1.25,0,.09-.04.18-.1.25-.07.06-.16.1-.25.1Z" style="fill: #a65700;"/>
          <path d="M27,54.47c-.09,0-.18-.04-.25-.1-.06-.07-.1-.16-.1-.25s.04-.18.1-.25c.13-.13.36-.13.5,0,.06.07.1.16.1.25s-.04.18-.1.25c-.07.06-.16.1-.25.1Z" style="fill: #a65700;"/>
          <path d="M31.75,55.97c-.09,0-.18-.04-.25-.1-.06-.07-.1-.16-.1-.25s.04-.18.1-.25c.13-.13.36-.13.5,0,.06.07.1.16.1.25s-.04.18-.1.25c-.07.06-.16.1-.25.1Z" style="fill: #a65700;"/>
          <path d="M31.75,57.72c-.09,0-.18-.04-.24-.1-.07-.07-.11-.16-.11-.25,0-.1.04-.19.1-.25.13-.13.36-.13.5,0,.06.06.1.15.1.25,0,.09-.04.18-.1.25-.07.06-.16.1-.25.1Z" style="fill: #a65700;"/>
          <path d="M33.75,58.47c-.09,0-.18-.04-.25-.1-.06-.07-.1-.16-.1-.25s.04-.18.1-.25c.13-.13.37-.13.5,0,.06.07.1.16.1.25s-.04.18-.1.25c-.07.06-.16.1-.25.1Z" style="fill: #a65700;"/>
          <path d="M25.75,64.97c-.09,0-.18-.04-.25-.1-.06-.07-.1-.16-.1-.25s.04-.18.1-.25c.14-.13.36-.13.49,0,.07.07.11.16.11.25s-.04.18-.1.25c-.07.06-.16.1-.25.1Z" style="fill: #a65700;"/>
          <path d="M35.75,56.47c-.09,0-.18-.04-.25-.1-.06-.07-.1-.16-.1-.25s.04-.18.1-.25c.15-.13.36-.13.49,0,.07.07.11.16.11.25s-.04.18-.1.25c-.07.06-.16.1-.25.1Z" style="fill: #a65700;"/>
          <path d="M39,56.22c-.09,0-.18-.04-.24-.1-.07-.07-.11-.16-.11-.25s.04-.18.1-.25c.14-.13.36-.13.5,0,.06.07.1.16.1.25s-.04.18-.1.25c-.07.06-.16.1-.25.1Z" style="fill: #a65700;"/>
          <path d="M41.5,50.97c-.09,0-.18-.04-.25-.1-.06-.07-.1-.16-.1-.25s.04-.18.1-.25c.14-.13.36-.13.5,0,.06.07.1.16.1.25s-.04.18-.1.25c-.07.06-.16.1-.25.1Z" style="fill: #a65700;"/>
          <path d="M43.25,44.97c-.09,0-.18-.04-.25-.11-.06-.06-.1-.15-.1-.24s.04-.18.1-.25c.13-.13.36-.13.5,0,.06.07.1.16.1.25s-.04.18-.1.25c-.07.06-.16.1-.25.1Z" style="fill: #a65700;"/>
          <path d="M50.75,50.72c-.09,0-.18-.04-.25-.1-.07-.08-.1-.16-.1-.25s.04-.18.1-.25c.14-.14.36-.13.5,0,.06.07.1.16.1.25s-.04.18-.1.25c-.07.06-.16.1-.25.1Z" style="fill: #a65700;"/>
          <path d="M51.75,46.72c-.09,0-.18-.04-.25-.11-.06-.06-.1-.15-.1-.24,0-.1.04-.19.11-.25.11-.12.35-.13.49,0,.06.06.1.15.1.25,0,.09-.04.18-.1.25-.07.06-.16.1-.25.1Z" style="fill: #a65700;"/>
          <path d="M54.75,47.22c-.1,0-.19-.04-.25-.11-.06-.06-.1-.15-.1-.24s.04-.19.1-.25c.13-.13.36-.13.49,0,.07.07.11.15.11.25,0,.09-.04.18-.1.25-.07.06-.16.1-.25.1Z" style="fill: #a65700;"/>
          <path d="M54.75,54.47c-.1,0-.19-.04-.25-.11-.06-.06-.1-.15-.1-.24,0-.1.04-.19.11-.25.11-.12.35-.13.49,0,.06.06.1.15.1.25,0,.09-.04.18-.1.25-.07.06-.16.1-.25.1Z" style="fill: #a65700;"/>
          <path d="M51,56.47c-.09,0-.18-.04-.25-.1-.06-.07-.1-.16-.1-.25s.04-.18.1-.25c.13-.13.37-.13.5,0,.07.07.1.16.1.25s-.04.18-.1.25c-.07.06-.15.1-.25.1Z" style="fill: #a65700;"/>
          <path d="M50.75,63.97c-.09,0-.18-.04-.25-.1-.06-.07-.1-.16-.1-.25s.03-.18.1-.24c.15-.15.36-.14.49,0,.07.07.11.16.11.25s-.04.18-.1.25c-.07.06-.15.1-.25.1Z" style="fill: #a65700;"/>
          <path d="M53,63.97c-.09,0-.18-.04-.25-.1-.06-.07-.1-.16-.1-.25,0-.1.04-.19.11-.25.11-.12.36-.13.49,0,.06.05.1.14.1.24,0,.09-.04.18-.1.25-.07.06-.16.1-.25.1Z" style="fill: #a65700;"/>
          <path d="M55.75,63.22c-.09,0-.18-.04-.25-.1-.06-.07-.1-.16-.1-.25s.04-.18.1-.25c.13-.13.35-.13.49,0,.07.07.11.16.11.25s-.04.18-.1.25c-.07.06-.16.1-.25.1Z" style="fill: #a65700;"/>
          <path d="M58,61.72c-.09,0-.18-.04-.25-.11-.06-.06-.1-.15-.1-.24s.04-.18.1-.25c.13-.13.36-.13.5,0,.06.07.1.15.1.25,0,.09-.04.18-.1.25-.07.06-.16.1-.25.1Z" style="fill: #a65700;"/>
          <path d="M20.75,27.22c-.09,0-.18-.04-.25-.1-.06-.07-.1-.16-.1-.25s.04-.18.1-.25c.14-.13.36-.13.49,0,.07.07.11.16.11.25s-.04.18-.1.25c-.07.06-.16.1-.25.1Z" style="fill: #a65700;"/>
          <path d="M22.5,24.22c-.09,0-.18-.04-.25-.1-.06-.07-.1-.16-.1-.25s.04-.18.1-.25c.14-.13.36-.13.5,0,.06.07.1.16.1.25s-.04.18-.1.25c-.07.06-.16.1-.25.1Z" style="fill: #a65700;"/>
          <path d="M38.75,24.97c-.09,0-.18-.04-.25-.1-.06-.07-.1-.16-.1-.25s.04-.18.1-.25c.13-.13.37-.13.5,0,.06.07.1.16.1.25s-.04.18-.1.25c-.07.06-.16.1-.25.1Z" style="fill: #a65700;"/>
          <path d="M46,29.22c-.09,0-.18-.04-.25-.1-.07-.07-.1-.16-.1-.25s.04-.18.1-.24c.15-.15.36-.14.49,0,.07.07.11.16.11.25s-.04.18-.1.25c-.07.06-.16.1-.25.1Z" style="fill: #a65700;"/>
          <path d="M55,28.22c-.09,0-.18-.04-.25-.1-.06-.07-.1-.16-.1-.25s.04-.18.1-.25c.12-.12.36-.14.5,0,.06.07.1.16.1.25s-.04.18-.1.25c-.07.06-.16.1-.25.1Z" style="fill: #a65700;"/>
          <path d="M51,25.47c-.09,0-.18-.04-.25-.1-.06-.07-.1-.16-.1-.25s.04-.18.1-.25c.13-.13.37-.13.5,0,.07.07.1.16.1.25s-.04.18-.1.25c-.07.06-.16.1-.25.1Z" style="fill: #a65700;"/>
          <path d="M51.75,29.72c-.1,0-.18-.04-.25-.1-.06-.07-.1-.16-.1-.25s.04-.18.1-.25c.14-.13.36-.13.49,0,.07.07.11.16.11.25s-.04.18-.1.25c-.07.06-.16.1-.25.1Z" style="fill: #a65700;"/>
          <path d="M62.25,35.72c-.09,0-.18-.04-.25-.1-.06-.07-.1-.16-.1-.25,0-.1.04-.19.11-.25.11-.12.36-.13.49,0,.06.05.1.14.1.24,0,.09-.04.18-.1.25-.07.06-.16.1-.25.1Z" style="fill: #a65700;"/>
          <path d="M56.5,39.22c-.09,0-.18-.04-.25-.1-.06-.07-.1-.16-.1-.25s.04-.18.1-.25c.13-.13.36-.13.49,0,.07.07.11.16.11.25s-.04.18-.1.25c-.07.06-.16.1-.25.1Z" style="fill: #a65700;"/>
          <path d="M48,37.47c-.09,0-.18-.04-.24-.1-.07-.07-.11-.16-.11-.25s.04-.18.1-.25c.12-.13.37-.13.5,0,.06.06.1.14.1.24,0,.09-.04.18-.1.25-.07.06-.16.1-.25.1Z" style="fill: #a65700;"/>
          <path d="M47.75,41.47c-.1,0-.19-.04-.25-.11-.06-.06-.1-.15-.1-.24s.04-.18.1-.25c.12-.12.36-.13.5,0,.06.07.1.16.1.25s-.04.18-.1.25c-.07.06-.16.1-.25.1Z" style="fill: #a65700;"/>
          <path d="M53.25,45.22c-.09,0-.19-.04-.25-.11-.06-.05-.1-.14-.1-.24s.04-.18.11-.25c.11-.12.35-.13.49,0,.06.07.1.16.1.25s-.04.18-.1.25c-.07.06-.16.1-.25.1Z" style="fill: #a65700;"/>
          <path d="M62,48.22c-.09,0-.18-.04-.25-.1-.06-.07-.1-.16-.1-.25,0-.1.04-.19.11-.25.11-.12.36-.13.49,0,.06.05.1.14.1.24,0,.09-.04.18-.1.25-.07.06-.16.1-.25.1Z" style="fill: #a65700;"/>
          <path d="M64.75,51.97c-.09,0-.18-.04-.25-.1-.06-.07-.1-.16-.1-.25,0-.1.04-.19.11-.25.11-.12.35-.13.49,0,.06.06.1.15.1.25,0,.09-.04.18-.1.25-.07.06-.16.1-.25.1Z" style="fill: #a65700;"/>
          <path d="M69.25,45.22c-.09,0-.18-.04-.25-.1-.06-.07-.1-.16-.1-.25s.04-.18.1-.25c.12-.13.36-.13.5,0,.06.07.1.16.1.25s-.04.18-.1.25c-.07.06-.16.1-.25.1Z" style="fill: #a65700;"/>
          <path d="M59.75,39.22c-.1,0-.19-.04-.25-.11-.06-.06-.1-.15-.1-.24s.04-.19.11-.25c.12-.13.35-.13.49,0,.06.07.1.16.1.25s-.04.18-.1.25c-.07.06-.15.1-.25.1Z" style="fill: #a65700;"/>
          <path d="M32.25,47.22c-.09,0-.18-.04-.25-.1-.06-.07-.1-.16-.1-.25s.04-.18.1-.25c.14-.13.36-.13.49,0,.07.07.11.16.11.25s-.04.18-.1.25c-.07.06-.16.1-.25.1Z" style="fill: #a65700;"/>
          <path d="M26,37.97c-.09,0-.18-.04-.25-.1-.06-.07-.1-.16-.1-.25s.04-.18.1-.25c.14-.13.36-.13.49,0,.07.07.11.16.11.25s-.04.18-.1.25c-.07.06-.16.1-.25.1Z" style="fill: #a65700;"/>
          <path d="M29.5,35.72c-.09,0-.18-.04-.24-.1-.07-.07-.11-.16-.11-.25,0-.1.04-.19.11-.25.12-.12.36-.13.49,0,.06.06.1.15.1.25,0,.09-.04.18-.1.25-.07.06-.16.1-.25.1Z" style="fill: #a65700;"/>
          <path d="M10.25,29.72c-.09,0-.18-.04-.25-.1-.06-.07-.1-.16-.1-.25s.04-.18.1-.25c.13-.12.36-.13.49,0,.07.06.11.15.11.25,0,.09-.04.18-.1.25-.07.06-.16.1-.25.1Z" style="fill: #a65700;"/>
          <path d="M5.75,31.72c-.09,0-.18-.04-.25-.1-.06-.07-.1-.16-.1-.25s.04-.18.1-.25c.13-.13.36-.13.49,0,.07.06.11.15.11.25s-.04.18-.1.25c-.07.06-.16.1-.25.1Z" style="fill: #a65700;"/>
          <path d="M2.25,35.47c-.09,0-.18-.04-.25-.1-.06-.07-.1-.16-.1-.25s.04-.18.1-.25c.12-.13.37-.13.5,0,.07.07.1.16.1.25s-.03.17-.1.24c-.07.07-.16.11-.25.11Z" style="fill: #a65700;"/>
          <path d="M16.75,42.22c-.09,0-.18-.04-.25-.1-.06-.07-.1-.16-.1-.25,0-.1.04-.19.11-.25.13-.13.36-.13.49,0,.06.06.1.15.1.25,0,.09-.04.18-.1.25-.07.06-.15.1-.25.1Z" style="fill: #a65700;"/>
          <path d="M12.5,36.22c-.09,0-.18-.04-.25-.1-.06-.07-.1-.16-.1-.25,0-.1.04-.19.11-.25.11-.12.35-.13.49,0,.06.06.1.15.1.25,0,.09-.04.18-.1.25-.07.06-.15.1-.25.1Z" style="fill: #a65700;"/>
          <path d="M26.25,30.47c-.09,0-.18-.04-.25-.1-.06-.07-.1-.16-.1-.25s.04-.18.1-.25c.13-.13.37-.13.5,0,.06.07.1.16.1.25s-.04.18-.1.25c-.07.06-.16.1-.25.1Z" style="fill: #a65700;"/>
          <path d="M39,30.97c-.09,0-.18-.04-.25-.1-.06-.07-.1-.16-.1-.25s.04-.18.1-.25c.13-.13.36-.13.5,0,.06.07.1.16.1.25s-.04.18-.1.25c-.07.06-.15.1-.25.1Z" style="fill: #a65700;"/>
          <path d="M38,32.97c-.09,0-.18-.04-.25-.1-.06-.07-.1-.16-.1-.25s.04-.18.1-.25c.13-.13.37-.13.5,0,.06.07.1.16.1.25s-.04.18-.1.25c-.07.06-.16.1-.25.1Z" style="fill: #a65700;"/>
          <path d="M27.75,42.22c-.09,0-.18-.04-.25-.1-.06-.07-.1-.16-.1-.25s.04-.18.1-.25c.13-.13.37-.13.5,0,.06.07.1.16.1.25s-.04.18-.1.25c-.07.06-.16.1-.25.1Z" style="fill: #a65700;"/>
          <path d="M6.25,20.72c-.09,0-.18-.04-.25-.1-.06-.07-.1-.16-.1-.25s.04-.18.1-.25c.12-.13.36-.13.5,0,.06.07.1.16.1.25s-.04.18-.1.25c-.07.06-.16.1-.25.1Z" style="fill: #a65700;"/>
          <path d="M9.5,18.97c-.09,0-.18-.04-.25-.1-.06-.07-.1-.16-.1-.25s.04-.18.1-.25c.13-.13.36-.13.49,0,.07.07.11.16.11.25s-.04.18-.1.25c-.07.06-.16.1-.25.1Z" style="fill: #a65700;"/>
          <path d="M11.5,23.72c-.09,0-.18-.04-.25-.1-.06-.07-.1-.16-.1-.25,0-.1.04-.19.11-.25.11-.12.35-.13.49,0,.06.06.1.15.1.25,0,.09-.04.18-.1.25-.07.06-.15.1-.25.1Z" style="fill: #a65700;"/>
          <path d="M2.75,25.97c-.09,0-.18-.04-.25-.1-.06-.07-.1-.16-.1-.25s.04-.18.1-.25c.12-.12.37-.13.5,0,.06.07.1.16.1.25s-.04.18-.1.25c-.07.06-.16.1-.25.1Z" style="fill: #a65700;"/>
          <path d="M64,29.72c-.09,0-.18-.04-.24-.1-.07-.07-.11-.16-.11-.25s.04-.18.1-.25c.13-.13.36-.13.49,0,.07.07.11.16.11.25s-.04.18-.1.25c-.07.06-.16.1-.25.1Z" style="fill: #a65700;"/>
          <path d="M69.25,29.97c-.09,0-.18-.04-.25-.1-.06-.07-.1-.16-.1-.25s.04-.19.11-.25c.11-.12.35-.13.49,0,.06.06.1.15.1.25,0,.09-.04.18-.1.25-.07.06-.15.1-.25.1Z" style="fill: #a65700;"/>
          <path d="M1.25,9.22c-.09,0-.18-.04-.25-.1-.06-.07-.1-.16-.1-.25s.04-.18.1-.25c.12-.12.37-.13.5,0,.06.07.1.16.1.25s-.04.18-.1.25c-.07.06-.16.1-.25.1Z" style="fill: #a65700;"/>
          <path d="M16.25,6.22c-.09,0-.18-.04-.25-.1-.06-.07-.1-.16-.1-.25,0-.1.04-.18.1-.25.12-.12.36-.13.5,0,.06.07.1.16.1.25s-.04.18-.1.25c-.07.06-.16.1-.25.1Z" style="fill: #a65700;"/>
          <path d="M3.5,6.22c-.09,0-.18-.04-.25-.1-.06-.07-.1-.16-.1-.25s.04-.18.1-.25c.13-.13.36-.13.49,0,.07.07.11.16.11.25s-.04.18-.1.25c-.07.06-.16.1-.25.1Z" style="fill: #a65700;"/>
          <path d="M12.5,14.47c-.09,0-.18-.04-.25-.1-.06-.07-.1-.16-.1-.25s.04-.18.1-.25c.13-.13.36-.13.49,0,.07.07.11.16.11.25s-.04.18-.1.25c-.07.06-.16.1-.25.1Z" style="fill: #a65700;"/>
          <path d="M18.25,19.47c-.09,0-.18-.04-.25-.1-.06-.07-.1-.16-.1-.25s.04-.19.1-.25c.13-.13.36-.13.49,0,.07.07.11.16.11.25s-.04.18-.1.25c-.07.06-.16.1-.25.1Z" style="fill: #a65700;"/>
          <path d="M21,37.22c-.09,0-.18-.04-.25-.1-.06-.07-.1-.16-.1-.25s.04-.19.1-.25c.12-.12.36-.13.49,0,.07.07.11.16.11.25s-.04.18-.1.25c-.07.06-.16.1-.25.1Z" style="fill: #a65700;"/>
          <path d="M.5,44.47c-.09,0-.18-.04-.25-.1-.06-.07-.1-.16-.1-.25,0-.1.04-.19.11-.25.11-.12.35-.13.49,0,.06.06.1.15.1.25,0,.09-.04.18-.1.25-.07.06-.16.1-.25.1Z" style="fill: #a65700;"/>
          <path d="M67.75,66.22c-.09,0-.18-.04-.25-.1-.06-.07-.1-.16-.1-.25,0-.1.04-.19.11-.25.11-.12.35-.13.49,0,.06.06.1.15.1.25,0,.09-.04.18-.1.25-.07.06-.16.1-.25.1Z" style="fill: #a65700;"/>
          <path d="M59.5,69.97c-.09,0-.18-.04-.25-.1-.07-.07-.1-.16-.1-.25s.04-.18.1-.25c.14-.13.36-.13.5,0,.06.06.1.15.1.25s-.04.18-.1.25c-.07.06-.16.1-.25.1Z" style="fill: #a65700;"/>
          <path d="M40.25,68.22c-.09,0-.18-.04-.25-.1-.06-.07-.1-.16-.1-.25s.04-.18.1-.25c.13-.13.37-.13.5,0,.06.07.1.16.1.25s-.04.18-.1.25c-.07.06-.15.1-.25.1Z" style="fill: #a65700;"/>
          <path d="M4.25,60.22c-.09,0-.18-.04-.25-.1-.06-.07-.1-.16-.1-.25s.04-.18.1-.25c.13-.13.36-.13.49,0,.07.07.11.16.11.25s-.04.18-.1.25c-.07.06-.16.1-.25.1Z" style="fill: #a65700;"/>
          <path d="M26.25,59.72c-.09,0-.18-.04-.25-.1-.06-.07-.1-.16-.1-.25s.04-.18.1-.25c.14-.13.36-.13.49,0,.07.07.11.16.11.25s-.04.18-.1.25c-.07.06-.16.1-.25.1Z" style="fill: #a65700;"/>
          <path d="M37,48.72c-.09,0-.18-.04-.25-.1-.06-.07-.1-.16-.1-.25,0-.1.04-.18.1-.25.14-.13.36-.13.5,0,.06.07.1.16.1.25s-.04.18-.1.25c-.07.06-.15.1-.25.1Z" style="fill: #a65700;"/>
          <path d="M8.5,40.47c-.09,0-.18-.04-.25-.1-.06-.07-.1-.16-.1-.25s.04-.18.1-.25c.13-.13.35-.13.49,0,.07.07.11.16.11.25s-.04.18-.1.25c-.07.06-.16.1-.25.1Z" style="fill: #a65700;"/>
          <path d="M52,38.22c-.09,0-.18-.04-.25-.11-.06-.06-.1-.15-.1-.24,0-.1.04-.19.11-.25.11-.12.35-.13.49,0,.06.06.1.15.1.25,0,.09-.04.18-.1.25-.07.06-.16.1-.25.1Z" style="fill: #a65700;"/>
          <path d="M60.5,46.22c-.09,0-.18-.04-.25-.1-.06-.07-.1-.16-.1-.25,0-.1.04-.19.11-.25.11-.12.35-.13.49,0,.06.06.1.15.1.25,0,.09-.04.18-.1.25-.07.06-.16.1-.25.1Z" style="fill: #a65700;"/>
          <path d="M51,66.47c-.09,0-.18-.04-.25-.1-.06-.07-.1-.16-.1-.25s.04-.18.1-.25c.14-.13.36-.13.5,0,.06.07.1.16.1.25s-.03.18-.1.25c-.07.06-.16.1-.25.1Z" style="fill: #a65700;"/>
          <path d="M39.75,37.97c-.09,0-.18-.04-.25-.1-.06-.07-.1-.16-.1-.25s.04-.18.1-.25c.15-.13.36-.13.49,0,.07.07.11.16.11.25s-.04.18-.1.25c-.07.06-.16.1-.25.1Z" style="fill: #a65700;"/>
          <path d="M27.25,13.72c-.09,0-.18-.04-.25-.1-.06-.07-.1-.16-.1-.25s.04-.18.1-.25c.14-.13.36-.13.49,0,.07.07.11.16.11.25s-.04.18-.1.25c-.07.06-.16.1-.25.1Z" style="fill: #a65700;"/>
          <path d="M19.5,26.72c-.09,0-.18-.04-.25-.1-.06-.07-.1-.16-.1-.25s.04-.19.1-.25c.12-.12.36-.13.49,0,.07.07.11.16.11.25s-.04.18-.1.25c-.07.06-.16.1-.25.1Z" style="fill: #a65700;"/>
          <path d="M11.5,1.97c-.09,0-.18-.04-.25-.1-.06-.07-.1-.16-.1-.25s.04-.18.1-.25c.12-.12.36-.13.5,0,.06.07.1.16.1.25s-.04.18-.1.25c-.07.06-.16.1-.25.1Z" style="fill: #a65700;"/>
          <path d="M55,3.97c-.09,0-.18-.04-.25-.1-.06-.07-.1-.16-.1-.25,0-.1.04-.19.11-.25.11-.12.35-.13.49,0,.06.06.1.15.1.25,0,.09-.04.18-.1.25-.07.06-.16.1-.25.1Z" style="fill: #a65700;"/>
          <path d="M47,69.97c-.09,0-.18-.04-.25-.1-.06-.07-.1-.15-.1-.25,0-.09.04-.18.1-.25.14-.13.36-.13.49,0,.07.07.11.16.11.25s-.04.18-.1.25c-.07.06-.16.1-.25.1Z" style="fill: #a65700;"/>
          <path d="M4.5,40.47c-.09,0-.18-.04-.25-.1-.06-.07-.1-.16-.1-.25,0-.1.04-.19.11-.25.11-.12.35-.13.49,0,.06.06.1.15.1.25,0,.09-.04.18-.1.25-.07.06-.16.1-.25.1Z" style="fill: #a65700;"/>
          <path d="M68.5,13.47c-.09,0-.18-.04-.25-.1-.06-.07-.1-.16-.1-.25s.04-.18.1-.25c.13-.13.36-.13.5,0,.06.07.1.15.1.25s-.04.18-.1.25c-.07.06-.16.1-.25.1Z" style="fill: #a65700;"/>
          <path d="M23,14.22c-.09,0-.18-.04-.25-.1-.06-.07-.1-.16-.1-.25s.04-.18.1-.25c.14-.13.36-.13.49,0,.07.07.11.16.11.25s-.04.18-.1.25c-.07.06-.16.1-.25.1Z" style="fill: #a65700;"/>
          <path d="M20.25,17.47c-.09,0-.18-.04-.25-.1-.06-.07-.1-.16-.1-.25s.04-.18.1-.25c.14-.13.36-.13.5,0,.06.07.1.16.1.25s-.04.18-.1.25c-.07.06-.16.1-.25.1Z" style="fill: #a65700;"/>
          <path d="M14.5,17.47c-.09,0-.18-.04-.25-.1-.06-.07-.1-.16-.1-.25,0-.1.04-.19.11-.25.11-.12.35-.13.49,0,.06.06.1.15.1.25,0,.09-.04.18-.1.25-.07.06-.16.1-.25.1Z" style="fill: #a65700;"/>
          <path d="M5.75,11.97c-.09,0-.18-.04-.25-.1-.06-.07-.1-.16-.1-.25s.04-.18.1-.25c.13-.13.36-.13.49,0,.07.06.11.15.11.25,0,.09-.04.18-.1.25-.07.06-.16.1-.25.1Z" style="fill: #a65700;"/>
          <path d="M6.75,2.97c-.09,0-.17-.04-.24-.1-.07-.07-.11-.16-.11-.25s.04-.18.1-.25c.13-.13.36-.13.49,0,.07.07.11.16.11.25s-.04.18-.1.25c-.07.06-.16.1-.25.1Z" style="fill: #a65700;"/>
          <path d="M9.75,8.47c-.09,0-.18-.04-.25-.1-.06-.07-.1-.16-.1-.25s.04-.18.1-.25c.13-.13.36-.13.49,0,.07.07.11.16.11.25s-.04.18-.1.25c-.07.06-.16.1-.25.1Z" style="fill: #a65700;"/>
          <path d="M14,8.47c-.09,0-.18-.04-.25-.1-.06-.07-.1-.16-.1-.25,0-.1.04-.19.11-.25.11-.12.35-.13.49,0,.06.06.1.15.1.25,0,.09-.04.18-.1.25-.07.06-.16.1-.25.1Z" style="fill: #a65700;"/>
          <path d="M25.5,7.22c-.09,0-.18-.04-.25-.1-.06-.07-.1-.16-.1-.25s.04-.18.1-.25c.14-.13.36-.13.49,0,.07.07.11.16.11.25s-.04.18-.1.25c-.07.06-.16.1-.25.1Z" style="fill: #a65700;"/>
          <path d="M36.75,7.72c-.09,0-.18-.04-.25-.1-.06-.07-.1-.16-.1-.25s.04-.18.1-.25c.13-.13.36-.13.5,0,.06.07.1.16.1.25s-.04.18-.1.25c-.07.06-.16.1-.25.1Z" style="fill: #a65700;"/>
          <path d="M37.25,4.47c-.09,0-.18-.04-.25-.1-.06-.07-.1-.16-.1-.25,0-.1.04-.19.11-.25.12-.13.36-.13.49,0,.06.06.1.15.1.25,0,.09-.04.18-.1.25-.07.06-.16.1-.25.1Z" style="fill: #a65700;"/>
          <path d="M43,2.47c-.09,0-.18-.04-.25-.1-.06-.07-.1-.16-.1-.25s.04-.18.1-.25c.13-.13.36-.13.5,0,.06.07.1.16.1.25s-.04.18-.1.25c-.08.06-.16.1-.25.1Z" style="fill: #a65700;"/>
          <path d="M49.25,8.47c-.09,0-.18-.04-.25-.1-.07-.07-.1-.16-.1-.25s.03-.18.1-.25c.14-.13.37-.13.5,0,.06.07.1.16.1.25s-.04.18-.1.25c-.07.06-.16.1-.25.1Z" style="fill: #a65700;"/>
          <path d="M45.75,9.47c-.09,0-.18-.04-.25-.1-.06-.07-.1-.16-.1-.25s.04-.18.1-.25c.14-.13.36-.13.5,0,.06.07.1.16.1.25s-.04.18-.1.25c-.07.06-.15.1-.25.1Z" style="fill: #a65700;"/>
          <path d="M35.5,11.22c-.09,0-.18-.04-.25-.1-.06-.07-.1-.16-.1-.25,0-.1.04-.18.1-.25.14-.13.36-.13.49,0,.07.07.11.16.11.25s-.04.18-.1.25c-.07.06-.16.1-.25.1Z" style="fill: #a65700;"/>
          <path d="M39,15.22c-.09,0-.18-.04-.25-.1-.06-.07-.1-.16-.1-.25s.04-.18.1-.25c.14-.13.36-.13.49,0,.07.07.11.16.11.25s-.04.18-.1.25c-.07.06-.16.1-.25.1Z" style="fill: #a65700;"/>
          <path d="M24.5,18.22c-.09,0-.18-.04-.25-.1-.06-.07-.1-.16-.1-.25s.04-.18.1-.25c.14-.13.36-.13.49,0,.07.07.11.16.11.25s-.04.18-.1.25c-.07.06-.16.1-.25.1Z" style="fill: #a65700;"/>
          <path d="M8,27.47c-.09,0-.18-.04-.25-.1-.06-.07-.1-.16-.1-.25s.04-.18.1-.25c.13-.13.36-.13.49,0,.07.07.11.16.11.25s-.04.18-.1.25c-.07.06-.16.1-.25.1Z" style="fill: #a65700;"/>
          <path d="M15.75,31.97c-.09,0-.18-.04-.25-.1-.06-.07-.1-.16-.1-.25s.04-.18.1-.25c.12-.12.36-.13.5,0,.06.07.1.16.1.25s-.04.18-.1.25c-.07.06-.16.1-.25.1Z" style="fill: #a65700;"/>
          <path d="M10.25,33.72c-.09,0-.18-.04-.25-.1-.06-.07-.1-.16-.1-.25,0-.1.04-.19.11-.25.11-.12.35-.13.49,0,.06.06.1.15.1.25s-.04.18-.1.25c-.07.06-.16.1-.25.1Z" style="fill: #a65700;"/>
          <path d="M5,37.22c-.09,0-.18-.04-.25-.1-.06-.07-.1-.16-.1-.25s.04-.18.1-.25c.12-.12.37-.13.5,0,.06.07.1.15.1.25,0,.09-.04.18-.1.25-.07.06-.16.1-.25.1Z" style="fill: #a65700;"/>
          <path d="M3,20.72c-.09,0-.18-.04-.25-.1-.06-.07-.1-.16-.1-.25s.04-.18.1-.25c.12-.12.36-.13.5,0,.06.07.1.16.1.25s-.04.18-.1.25c-.07.06-.16.1-.25.1Z" style="fill: #a65700;"/>
          <path d="M20.25,30.97c-.09,0-.18-.04-.25-.1-.06-.07-.1-.16-.1-.25,0-.1.04-.19.11-.25.13-.13.35-.13.49,0,.06.06.1.15.1.25,0,.09-.04.18-.1.25-.07.06-.16.1-.25.1Z" style="fill: #a65700;"/>
          <path d="M17.25,35.72c-.09,0-.18-.04-.25-.1-.06-.07-.1-.16-.1-.25s.04-.18.1-.25c.14-.13.36-.13.5,0,.06.07.1.16.1.25s-.04.18-.1.25c-.07.06-.16.1-.25.1Z" style="fill: #a65700;"/>
          <path d="M15.75,39.22c-.09,0-.18-.04-.25-.1-.06-.07-.1-.16-.1-.25,0-.1.04-.19.11-.25.11-.12.35-.13.49,0,.06.06.1.15.1.25,0,.09-.04.18-.1.25-.07.06-.15.1-.25.1Z" style="fill: #a65700;"/>
          <path d="M12.5,41.47c-.09,0-.18-.04-.25-.1-.06-.07-.1-.16-.1-.25,0-.1.04-.19.11-.25.11-.12.35-.13.49,0,.06.06.1.15.1.25,0,.09-.04.18-.1.25-.07.06-.16.1-.25.1Z" style="fill: #a65700;"/>
          <path d="M12.5,46.72c-.09,0-.18-.04-.25-.1-.06-.07-.1-.16-.1-.25,0-.1.04-.19.11-.25.11-.12.35-.13.49,0,.06.06.1.15.1.25,0,.09-.04.18-.1.25-.07.06-.16.1-.25.1Z" style="fill: #a65700;"/>
          <path d="M5.5,48.72c-.09,0-.18-.04-.25-.1-.06-.07-.1-.16-.1-.25s.04-.18.1-.25c.12-.12.37-.13.5,0,.06.07.1.16.1.25s-.04.18-.1.25c-.07.06-.16.1-.25.1Z" style="fill: #a65700;"/>
          <path d="M10.75,54.72c-.09,0-.18-.04-.25-.1-.06-.07-.1-.16-.1-.25s.04-.18.1-.25c.12-.12.37-.13.5,0,.06.07.1.16.1.25s-.04.18-.1.25c-.07.06-.16.1-.25.1Z" style="fill: #a65700;"/>
          <path d="M15.25,58.72c-.09,0-.18-.04-.25-.1-.06-.07-.1-.16-.1-.25s.04-.18.1-.25c.13-.13.37-.13.5,0,.06.07.1.16.1.25s-.04.18-.1.25c-.07.06-.16.1-.25.1Z" style="fill: #a65700;"/>
          <path d="M5.75,63.72c-.09,0-.18-.04-.25-.1-.06-.07-.1-.16-.1-.25s.04-.18.1-.25c.12-.12.36-.13.5,0,.06.06.1.15.1.25,0,.09-.04.18-.1.25-.07.06-.16.1-.25.1Z" style="fill: #a65700;"/>
          <path d="M2,62.22c-.09,0-.18-.04-.25-.1-.06-.07-.1-.16-.1-.25s.04-.18.1-.25c.13-.12.36-.13.49,0,.07.07.11.15.11.25,0,.09-.04.18-.1.25-.07.06-.16.1-.25.1Z" style="fill: #a65700;"/>
          <path d="M8.75,68.22c-.09,0-.18-.04-.25-.1-.06-.07-.1-.16-.1-.25s.04-.18.1-.25c.13-.13.35-.13.49,0,.07.07.11.16.11.25s-.04.18-.1.25c-.07.06-.15.1-.25.1Z" style="fill: #a65700;"/>
          <path d="M13.25,69.72c-.09,0-.18-.04-.25-.1-.06-.07-.1-.16-.1-.25s.04-.18.1-.25c.12-.12.37-.13.5,0,.06.07.1.16.1.25s-.04.18-.1.25c-.07.06-.16.1-.25.1Z" style="fill: #a65700;"/>
          <path d="M21.25,68.72c-.09,0-.18-.04-.25-.1-.06-.07-.1-.16-.1-.25,0-.1.04-.19.11-.25.12-.13.36-.13.49,0,.06.06.1.15.1.25,0,.09-.04.18-.1.25-.07.06-.16.1-.25.1Z" style="fill: #a65700;"/>
          <path d="M22.75,65.97c-.09,0-.18-.04-.25-.1-.06-.07-.1-.16-.1-.25s.04-.18.1-.25c.13-.13.36-.13.5,0,.06.07.1.16.1.25s-.04.18-.1.25c-.07.06-.15.1-.25.1Z" style="fill: #a65700;"/>
          <path d="M22,60.22c-.09,0-.18-.04-.25-.1-.06-.07-.1-.16-.1-.25s.04-.18.1-.25c.12-.12.36-.13.5,0,.06.07.1.16.1.25s-.04.18-.1.25c-.07.06-.15.1-.25.1Z" style="fill: #a65700;"/>
          <path d="M24,57.72c-.09,0-.18-.04-.25-.1-.06-.07-.1-.16-.1-.25,0-.1.04-.18.1-.25.12-.12.36-.13.5,0,.06.07.1.15.1.25,0,.09-.04.18-.1.25-.07.06-.15.1-.25.1Z" style="fill: #a65700;"/>
          <path d="M26,47.97c-.09,0-.18-.04-.25-.1-.06-.07-.1-.16-.1-.25s.04-.18.1-.25c.13-.13.36-.13.5,0,.06.07.1.16.1.25s-.04.18-.1.25c-.07.06-.16.1-.25.1Z" style="fill: #a65700;"/>
          <path d="M25.5,43.72c-.09,0-.18-.04-.25-.1-.06-.07-.1-.16-.1-.25s.04-.18.1-.25c.13-.13.36-.13.5,0,.06.07.1.16.1.25s-.04.18-.1.25c-.07.06-.16.1-.25.1Z" style="fill: #a65700;"/>
          <path d="M32,31.22c-.09,0-.18-.04-.25-.1-.06-.07-.1-.16-.1-.25,0-.1.04-.19.11-.25.12-.13.35-.13.49,0,.06.06.1.15.1.25,0,.09-.04.18-.1.25-.07.06-.16.1-.25.1Z" style="fill: #a65700;"/>
          <path d="M34,27.97c-.09,0-.18-.04-.25-.1-.06-.07-.1-.16-.1-.25s.03-.18.1-.25c.13-.13.36-.13.5,0,.06.07.1.16.1.25s-.04.18-.1.25c-.07.06-.15.1-.25.1Z" style="fill: #a65700;"/>
          <path d="M41.5,25.97c-.09,0-.18-.04-.25-.1-.06-.07-.1-.16-.1-.25s.04-.18.1-.25c.13-.13.37-.13.5,0,.06.07.1.16.1.25s-.04.18-.1.25c-.07.06-.16.1-.25.1Z" style="fill: #a65700;"/>
          <path d="M42.75,20.97c-.09,0-.18-.04-.25-.11-.06-.06-.1-.14-.1-.24,0-.09.04-.18.1-.25.13-.13.36-.13.5,0,.06.07.1.16.1.25,0,.1-.04.18-.11.25-.06.06-.15.1-.24.1Z" style="fill: #a65700;"/>
          <path d="M36.25,19.47c-.09,0-.18-.04-.25-.1-.07-.08-.1-.16-.1-.25s.03-.18.1-.24c.16-.15.37-.14.5,0,.06.07.1.16.1.25s-.04.18-.1.25c-.07.06-.16.1-.25.1Z" style="fill: #a65700;"/>
          <path d="M27.5,22.47c-.09,0-.18-.04-.25-.1-.06-.07-.1-.16-.1-.25s.04-.18.1-.25c.13-.13.37-.13.5,0,.06.07.1.16.1.25s-.04.18-.1.25c-.07.06-.16.1-.25.1Z" style="fill: #a65700;"/>
          <path d="M51.75,22.22c-.1,0-.19-.04-.25-.11-.06-.06-.1-.15-.1-.24s.04-.18.1-.25c.14-.13.36-.13.49,0,.07.07.11.16.11.25s-.04.18-.1.25c-.07.06-.15.1-.25.1Z" style="fill: #a65700;"/>
          <path d="M43,17.97c-.09,0-.19-.04-.25-.1-.06-.07-.1-.16-.1-.25s.04-.18.1-.25c.12-.12.36-.13.5,0,.06.07.1.16.1.25s-.04.18-.1.25c-.07.06-.16.1-.25.1Z" style="fill: #a65700;"/>
          <path d="M50.25,18.22c-.1,0-.18-.04-.25-.1-.06-.07-.1-.16-.1-.25s.04-.18.1-.25c.14-.13.36-.13.49,0,.07.07.11.16.11.25s-.04.18-.1.25c-.07.06-.16.1-.25.1Z" style="fill: #a65700;"/>
          <path d="M59.25,17.47c-.09,0-.18-.04-.25-.1-.06-.07-.1-.16-.1-.25,0-.1.04-.19.11-.25.11-.12.35-.13.49,0,.06.06.1.15.1.25,0,.09-.04.18-.1.25-.07.06-.16.1-.25.1Z" style="fill: #a65700;"/>
          <path d="M58,14.22c-.1,0-.18-.04-.25-.1-.06-.07-.1-.16-.1-.25s.04-.18.1-.25c.14-.13.36-.13.49,0,.07.07.11.16.11.25s-.04.18-.1.25c-.07.06-.16.1-.25.1Z" style="fill: #a65700;"/>
          <path d="M61.25,11.22c-.09,0-.18-.04-.25-.1-.06-.07-.1-.16-.1-.25,0-.1.04-.19.11-.25.11-.12.36-.13.49,0,.06.05.1.14.1.24,0,.09-.04.18-.1.25-.07.06-.16.1-.25.1Z" style="fill: #a65700;"/>
          <path d="M58.5,7.72c-.09,0-.18-.04-.25-.1-.07-.07-.1-.16-.1-.25s.03-.18.1-.24c.15-.15.36-.14.49,0,.07.07.11.15.11.25,0,.09-.04.18-.1.25-.07.06-.16.1-.25.1Z" style="fill: #a65700;"/>
          <path d="M59.75,4.97c-.09,0-.19-.04-.25-.11-.06-.06-.1-.15-.1-.24,0-.1.04-.19.11-.25.11-.12.35-.13.49,0,.06.06.1.15.1.25,0,.09-.04.18-.1.25-.07.06-.16.1-.25.1Z" style="fill: #a65700;"/>
          <path d="M67.25,6.22c-.09,0-.18-.04-.25-.1-.06-.06-.1-.15-.1-.25s.04-.18.1-.25c.13-.12.37-.13.5,0,.06.07.1.16.1.25s-.04.18-.1.25c-.07.06-.16.1-.25.1Z" style="fill: #a65700;"/>
          <path d="M70.5,8.72c-.09,0-.18-.04-.25-.1-.06-.06-.1-.15-.1-.25s.04-.18.1-.25c.13-.12.36-.13.49,0,.07.07.11.16.11.25s-.04.18-.1.25c-.07.06-.16.1-.25.1Z" style="fill: #a65700;"/>
          <path d="M65.5,9.97c-.09,0-.18-.04-.25-.1-.06-.07-.1-.16-.1-.25,0-.1.04-.18.1-.25.12-.12.37-.13.5,0,.06.07.1.16.1.25s-.04.18-.1.25c-.07.06-.16.1-.25.1Z" style="fill: #a65700;"/>
          <path d="M60,23.97c-.09,0-.18-.04-.25-.1-.06-.07-.1-.16-.1-.25s.04-.18.1-.25c.12-.13.37-.13.5,0,.06.07.1.16.1.25s-.04.18-.1.25c-.07.06-.16.1-.25.1Z" style="fill: #a65700;"/>
          <path d="M55.25,23.97c-.09,0-.18-.04-.25-.1-.06-.07-.1-.16-.1-.25s.04-.18.1-.25c.12-.12.37-.13.5,0,.06.07.1.16.1.25s-.04.18-.1.25c-.07.06-.16.1-.25.1Z" style="fill: #a65700;"/>
          <path d="M55.25,18.97c-.09,0-.19-.04-.25-.11-.06-.06-.1-.15-.1-.24,0-.1.04-.19.11-.25.11-.12.35-.13.49,0,.06.06.1.15.1.25,0,.09-.04.18-.1.25-.07.06-.16.1-.25.1Z" style="fill: #a65700;"/>
          <path d="M64.75,25.97c-.09,0-.18-.04-.25-.1-.06-.07-.1-.16-.1-.25,0-.1.04-.19.11-.25.11-.12.35-.13.49,0,.06.06.1.15.1.25,0,.09-.04.18-.1.25-.07.06-.16.1-.25.1Z" style="fill: #a65700;"/>
          <path d="M57.5,30.97c-.1,0-.19-.04-.25-.11-.06-.06-.1-.15-.1-.24,0-.1.04-.19.11-.25.11-.12.35-.13.49,0,.06.06.1.15.1.25,0,.09-.04.18-.1.25-.07.06-.16.1-.25.1Z" style="fill: #a65700;"/>
          <path d="M52.5,32.97c-.09,0-.18-.04-.25-.11-.06-.06-.1-.15-.1-.24,0-.1.04-.19.11-.25.11-.12.35-.13.49,0,.06.06.1.15.1.25,0,.09-.04.18-.1.25-.07.06-.16.1-.25.1Z" style="fill: #a65700;"/>
          <path d="M47.25,33.97c-.09,0-.18-.04-.25-.11-.06-.06-.1-.15-.1-.24,0-.1.04-.19.11-.25.11-.12.35-.13.49,0,.06.06.1.15.1.25,0,.09-.04.18-.1.25-.07.06-.16.1-.25.1Z" style="fill: #a65700;"/>
          <path d="M44,39.47c-.09,0-.18-.04-.25-.11-.06-.06-.1-.15-.1-.24s.04-.18.1-.25c.14-.13.36-.13.5,0,.06.07.1.15.1.25s-.04.19-.11.25c-.06.06-.15.1-.24.1Z" style="fill: #a65700;"/>
          <path d="M33.75,41.72c-.09,0-.18-.04-.25-.1-.06-.07-.1-.16-.1-.25s.04-.18.1-.25c.14-.13.36-.13.5,0,.06.07.1.16.1.25s-.04.18-.1.25c-.07.06-.16.1-.25.1Z" style="fill: #a65700;"/>
          <path d="M40.5,48.22c-.09,0-.18-.04-.25-.1-.06-.07-.1-.16-.1-.25s.04-.18.1-.25c.14-.13.36-.13.49,0,.07.06.11.16.11.25s-.04.18-.1.25c-.07.06-.16.1-.25.1Z" style="fill: #a65700;"/>
          <path d="M45.5,52.47c-.09,0-.18-.04-.25-.1-.06-.07-.1-.16-.1-.25,0-.1.04-.19.11-.25.12-.13.36-.13.49,0,.06.06.1.15.1.25,0,.09-.04.18-.1.25-.07.06-.16.1-.25.1Z" style="fill: #a65700;"/>
          <path d="M46.25,56.97c-.09,0-.18-.04-.25-.1-.06-.07-.1-.16-.1-.25s.04-.18.1-.25c.15-.14.36-.13.49,0,.07.07.11.16.11.25s-.04.18-.1.25c-.07.06-.16.1-.25.1Z" style="fill: #a65700;"/>
          <path d="M41.75,59.72c-.09,0-.18-.04-.24-.1-.07-.07-.11-.16-.11-.25s.04-.18.1-.25c.14-.13.36-.13.5,0,.06.07.1.16.1.25s-.04.18-.1.25c-.07.06-.16.1-.25.1Z" style="fill: #a65700;"/>
          <path d="M39.75,62.97c-.09,0-.18-.04-.25-.1-.06-.07-.1-.16-.1-.25s.04-.18.1-.25c.13-.13.37-.13.5,0,.06.07.1.16.1.25s-.04.18-.1.25c-.07.06-.15.1-.25.1Z" style="fill: #a65700;"/>
          <path d="M35.75,62.97c-.09,0-.18-.04-.25-.1-.06-.07-.1-.16-.1-.25,0-.1.04-.19.11-.25.12-.13.35-.13.49,0,.06.06.1.15.1.25,0,.09-.04.18-.1.25-.07.06-.16.1-.25.1Z" style="fill: #a65700;"/>
          <path d="M36.25,52.97c-.09,0-.18-.04-.25-.1-.07-.07-.1-.16-.1-.25s.04-.18.1-.25c.14-.13.38-.13.5,0,.06.05.1.14.1.24,0,.09-.04.18-.1.25-.07.06-.16.1-.25.1Z" style="fill: #a65700;"/>
          <path d="M29.75,63.72c-.09,0-.18-.04-.24-.1-.07-.07-.11-.16-.11-.25,0-.1.04-.19.11-.25.12-.12.36-.13.49,0,.06.06.1.15.1.25,0,.09-.04.18-.1.25-.07.06-.16.1-.25.1Z" style="fill: #a65700;"/>
          <path d="M31.25,68.72c-.09,0-.18-.04-.25-.1-.06-.07-.1-.16-.1-.25s.04-.18.1-.25c.13-.13.36-.13.5,0,.06.07.1.16.1.25s-.04.18-.1.25c-.07.06-.16.1-.25.1Z" style="fill: #a65700;"/>
          <path d="M36.75,71.22c-.09,0-.18-.04-.25-.1-.06-.06-.1-.16-.1-.25,0-.1.04-.19.11-.25.12-.12.36-.13.49,0,.06.06.1.15.1.25,0,.09-.04.19-.1.25-.07.06-.16.1-.25.1Z" style="fill: #a65700;"/>
          <path d="M62.75,57.22c-.09,0-.18-.04-.25-.1-.06-.07-.1-.16-.1-.25,0-.1.04-.19.11-.25.11-.12.35-.13.49,0,.06.06.1.15.1.25,0,.09-.04.18-.1.25-.07.06-.16.1-.25.1Z" style="fill: #a65700;"/>
          <path d="M59.75,50.97c-.1,0-.19-.04-.25-.11-.06-.06-.1-.15-.1-.24s.04-.19.11-.25c.12-.13.35-.13.48,0,.07.07.11.16.11.25s-.04.18-.1.25c-.07.06-.15.1-.25.1Z" style="fill: #a65700;"/>
          <path d="M54.25,50.72c-.09,0-.18-.04-.25-.1-.06-.07-.1-.15-.1-.25s.04-.19.1-.25c.14-.13.36-.13.49,0,.07.07.11.16.11.25s-.04.18-.1.24c-.07.07-.15.11-.25.11Z" style="fill: #a65700;"/>
          <path d="M54.5,41.97c-.09,0-.18-.04-.25-.11-.06-.05-.1-.15-.1-.24s.04-.18.1-.25c.13-.13.36-.13.5,0,.06.07.1.16.1.25s-.04.19-.11.25c-.06.06-.15.1-.24.1Z" style="fill: #a65700;"/>
          <path d="M62.25,42.47c-.09,0-.18-.04-.25-.1-.06-.07-.1-.16-.1-.25s.04-.18.1-.25c.13-.13.36-.13.5,0,.06.07.1.16.1.25s-.04.18-.1.25c-.07.06-.16.1-.25.1Z" style="fill: #a65700;"/>
          <path d="M66.75,47.72c-.09,0-.18-.04-.24-.1-.07-.07-.11-.16-.11-.25s.04-.18.1-.25c.13-.13.36-.13.49,0,.08.07.11.16.11.25s-.04.18-.1.25c-.07.06-.16.1-.25.1Z" style="fill: #a65700;"/>
          <path d="M69.25,54.47c-.09,0-.18-.04-.24-.1-.07-.07-.11-.16-.11-.25s.04-.18.1-.25c.13-.13.36-.13.49,0,.07.07.11.16.11.25s-.04.18-.1.25c-.07.06-.16.1-.25.1Z" style="fill: #a65700;"/>
          <path d="M63.25,61.97c-.09,0-.18-.04-.24-.1-.07-.07-.11-.16-.11-.25s.04-.18.1-.25c.13-.13.36-.13.49,0,.08.07.11.16.11.25s-.04.18-.1.25c-.07.06-.16.1-.25.1Z" style="fill: #a65700;"/>
          <path d="M70,61.22c-.09,0-.18-.04-.25-.1-.06-.07-.1-.16-.1-.25,0-.1.04-.19.11-.25.1-.12.35-.13.49,0,.06.06.1.15.1.25,0,.09-.04.18-.1.25-.07.06-.16.1-.25.1Z" style="fill: #a65700;"/>
          <path d="M64.5,65.72c-.09,0-.18-.04-.25-.1-.06-.07-.1-.16-.1-.25s.04-.18.1-.25c.12-.13.37-.13.5,0,.06.06.1.15.1.24s-.04.18-.1.25c-.07.06-.16.1-.25.1Z" style="fill: #a65700;"/>
          <path d="M65.5,68.47c-.09,0-.18-.04-.25-.1-.06-.07-.1-.16-.1-.25s.04-.18.1-.25c.12-.13.37-.13.5,0,.06.07.1.16.1.25s-.04.18-.1.25c-.07.06-.16.1-.25.1Z" style="fill: #a65700;"/>
          <path d="M62.25,70.47c-.09,0-.18-.04-.25-.1-.06-.07-.1-.16-.1-.25s.04-.19.11-.25c.11-.12.36-.13.49,0,.06.05.1.14.1.24,0,.09-.04.18-.1.25-.07.06-.16.1-.25.1Z" style="fill: #a65700;"/>
          <path d="M52.5,69.97c-.1,0-.19-.04-.25-.1-.06-.07-.1-.16-.1-.25s.04-.18.1-.25c.14-.13.36-.13.49,0,.07.07.11.16.11.25s-.04.18-.1.25c-.07.06-.15.1-.25.1Z" style="fill: #a65700;"/>
          <path d="M44.5,66.72c-.1,0-.18-.04-.25-.11-.06-.06-.1-.15-.1-.24,0-.1.04-.19.11-.25.11-.12.35-.13.49,0,.06.06.1.15.1.25,0,.09-.04.18-.1.25-.07.06-.16.1-.25.1Z" style="fill: #a65700;"/>
          <path d="M28.25,71.47c-.09,0-.18-.04-.25-.1-.06-.06-.1-.15-.1-.25s.04-.19.11-.25c.12-.13.35-.13.49,0,.06.06.1.15.1.25s-.04.19-.11.25c-.06.06-.15.1-.24.1Z" style="fill: #a65700;"/>
          <path d="M2.75,29.72c-.09,0-.18-.04-.25-.1-.06-.07-.1-.16-.1-.25s.04-.18.1-.25c.12-.12.36-.13.5,0,.06.07.1.16.1.25s-.04.18-.1.25c-.07.06-.16.1-.25.1Z" style="fill: #a65700;"/>
          <path d="M13,5.22c-.09,0-.18-.04-.25-.11-.06-.05-.1-.14-.1-.24,0-.09.04-.19.1-.25.13-.13.36-.13.49,0,.07.07.11.16.11.25,0,.1-.04.19-.11.25-.06.06-.15.1-.24.1Z" style="fill: #a65700;"/>
          <path d="M70,34.72c-.09,0-.18-.04-.25-.1-.06-.07-.1-.16-.1-.25,0-.1.04-.19.11-.25.11-.12.35-.13.49,0,.06.06.1.15.1.25,0,.09-.04.18-.1.25-.07.06-.16.1-.25.1Z" style="fill: #a65700;"/>
          <path d="M71,41.47c-.09,0-.18-.04-.25-.1-.06-.07-.1-.16-.1-.25s.04-.18.1-.25c.13-.13.36-.13.5,0,.06.07.1.16.1.25s-.04.18-.1.25c-.07.06-.16.1-.25.1Z" style="fill: #a65700;"/>
          <path d="M.75,51.97c-.09,0-.18-.04-.25-.1-.06-.07-.1-.16-.1-.25,0-.1.04-.19.11-.25.11-.12.35-.13.49,0,.06.06.1.15.1.25,0,.09-.04.18-.1.25-.07.06-.16.1-.25.1Z" style="fill: #a65700;"/>
          <path d="M71.75,23.72c-.09,0-.18-.04-.25-.1-.06-.07-.1-.16-.1-.25s.04-.18.1-.25c.12-.12.36-.13.5,0,.06.07.1.16.1.25s-.04.18-.1.25c-.07.06-.16.1-.25.1Z" style="fill: #a65700;"/>
          <path d="M68.75,26.72c-.09,0-.18-.04-.25-.1-.06-.07-.1-.16-.1-.25s.04-.18.1-.25c.12-.13.36-.13.5,0,.06.07.1.16.1.25s-.03.18-.1.25c-.07.06-.16.1-.25.1Z" style="fill: #a65700;"/>
          <path d="M68.25,60.47c-.09,0-.18-.04-.25-.1-.06-.07-.1-.16-.1-.25,0-.1.04-.18.1-.25.12-.12.37-.13.5,0,.06.07.1.16.1.25s-.04.18-.1.25c-.07.06-.16.1-.25.1Z" style="fill: #a65700;"/>
          <path d="M71.25,68.47c-.09,0-.18-.04-.25-.1-.06-.07-.1-.16-.1-.25s.04-.18.1-.25c.12-.13.36-.13.5,0,.06.07.1.16.1.25s-.03.18-.1.25c-.07.06-.16.1-.25.1Z" style="fill: #a65700;"/>
          <path d="M.25,57.97c-.09,0-.18-.04-.25-.1-.06-.07-.1-.16-.1-.25s.04-.18.1-.25c.12-.12.36-.13.5,0,.06.07.1.16.1.25s-.04.18-.1.25c-.07.06-.16.1-.25.1Z" style="fill: #a65700;"/>
          <path d="M2.5,71.47c-.09,0-.18-.04-.25-.1-.06-.07-.1-.16-.1-.25s.04-.18.1-.25c.13-.13.36-.13.49,0,.07.07.11.16.11.25s-.04.18-.1.25c-.07.06-.16.1-.25.1Z" style="fill: #a65700;"/>
          <path d="M70,24.22c-.09,0-.18-.04-.25-.1-.06-.07-.1-.16-.1-.25,0-.1.04-.19.11-.25.11-.12.35-.13.49,0,.06.06.1.15.1.25,0,.09-.04.18-.1.25-.07.06-.16.1-.25.1Z" style="fill: #a65700;"/>
          <path d="M1,16.97c-.09,0-.18-.04-.25-.1-.06-.07-.1-.16-.1-.25s.04-.18.1-.25c.12-.12.36-.13.5,0,.06.07.1.16.1.25s-.04.18-.1.25c-.07.06-.16.1-.25.1Z" style="fill: #a65700;"/>
          <path d="M17.75,13.27c-.17,0-.33-.07-.46-.19-.12-.13-.19-.29-.19-.46s.07-.34.19-.46c.24-.24.68-.24.92,0,.12.12.19.29.19.46s-.07.34-.19.46c-.12.12-.29.19-.46.19Z" style="fill: #a65700;"/>
          <path d="M29,11.27c-.17,0-.34-.07-.46-.19-.12-.13-.19-.29-.19-.46s.07-.34.19-.46c.25-.25.67-.24.92,0,.12.12.19.29.19.46s-.07.33-.19.46c-.13.12-.29.19-.46.19Z" style="fill: #a65700;"/>
          <path d="M29,3.77c-.17,0-.34-.07-.46-.19-.12-.12-.19-.29-.19-.46,0-.18.07-.34.19-.46.24-.24.68-.24.92,0,.12.12.19.29.19.46s-.07.34-.19.46c-.13.12-.29.19-.46.19Z" style="fill: #a65700;"/>
          <path d="M40,10.77c-.17,0-.33-.07-.46-.19-.12-.13-.19-.29-.19-.46s.07-.34.19-.46c.24-.24.68-.24.92,0,.12.11.19.28.19.46,0,.17-.07.33-.19.46-.12.12-.29.19-.46.19Z" style="fill: #a65700;"/>
          <path d="M44.75,12.27c-.18,0-.34-.07-.46-.2-.12-.12-.19-.28-.19-.45s.07-.34.19-.46c.24-.24.68-.24.92,0,.12.11.19.28.19.46s-.07.34-.2.46c-.11.12-.27.19-.45.19Z" style="fill: #a65700;"/>
          <path d="M47,23.27c-.17,0-.34-.07-.46-.19-.12-.12-.19-.29-.19-.46s.07-.34.19-.46c.23-.24.68-.24.92,0,.12.12.19.29.19.46s-.07.34-.19.46c-.12.12-.29.19-.46.19Z" style="fill: #a65700;"/>
          <path d="M54.5,7.27c-.18,0-.34-.07-.46-.19-.12-.12-.19-.29-.19-.46s.07-.34.19-.46c.23-.24.69-.24.92,0,.12.12.19.28.19.46,0,.17-.07.34-.19.46-.12.12-.28.19-.46.19Z" style="fill: #a65700;"/>
          <path d="M63.75,7.02c-.17,0-.34-.07-.46-.19-.12-.12-.19-.29-.19-.46s.07-.34.19-.46c.24-.24.68-.24.92,0,.12.12.19.29.19.46s-.07.34-.19.46c-.12.12-.29.19-.46.19Z" style="fill: #a65700;"/>
          <path d="M64.75,3.02c-.17,0-.34-.07-.46-.19-.12-.13-.19-.29-.19-.46s.07-.34.19-.46c.25-.24.67-.24.92,0,.12.13.19.29.19.46s-.06.33-.18.45c-.13.13-.3.2-.47.2Z" style="fill: #a65700;"/>
          <path d="M69.25,18.52c-.17,0-.34-.07-.46-.19-.12-.12-.19-.29-.19-.46s.07-.34.19-.46c.24-.24.67-.25.92,0,.12.12.19.29.19.46s-.07.34-.19.46c-.12.12-.29.19-.46.19Z" style="fill: #a65700;"/>
          <path d="M7.75,47.52c-.18,0-.34-.07-.46-.19-.12-.13-.19-.29-.19-.46s.07-.34.19-.46c.24-.24.68-.24.92,0,.12.12.19.29.19.46s-.07.33-.19.46c-.12.12-.28.19-.46.19Z" style="fill: #a65700;"/>
          <path d="M4.75,57.27c-.18,0-.34-.07-.46-.19-.12-.12-.19-.29-.19-.46s.07-.34.19-.46c.25-.25.68-.24.92,0,.12.12.19.29.19.46s-.07.34-.19.46c-.12.12-.28.19-.46.19Z" style="fill: #a65700;"/>
          <path d="M2,67.52c-.17,0-.34-.07-.46-.19-.12-.13-.19-.29-.19-.46s.07-.34.19-.46c.24-.24.68-.24.92,0,.12.12.19.29.19.46s-.07.33-.19.46c-.12.12-.29.19-.46.19Z" style="fill: #a65700;"/>
          <path d="M17.5,70.27c-.17,0-.34-.07-.46-.19-.12-.13-.19-.29-.19-.46s.07-.34.19-.46c.24-.24.68-.24.92,0,.12.12.19.29.19.46s-.07.33-.19.46c-.12.12-.29.19-.46.19Z" style="fill: #a65700;"/>
          <path d="M19,62.77c-.17,0-.34-.07-.46-.19-.12-.12-.19-.29-.19-.46,0-.18.07-.34.19-.46.23-.24.68-.25.92,0,.12.12.19.29.19.46s-.07.33-.19.46c-.12.12-.29.19-.46.19Z" style="fill: #a65700;"/>
          <path d="M20.75,45.77c-.17,0-.34-.07-.46-.19-.12-.12-.19-.29-.19-.46,0-.18.07-.34.19-.46.23-.24.68-.25.92,0,.12.12.19.29.19.46s-.07.33-.19.46c-.12.12-.28.19-.46.19Z" style="fill: #a65700;"/>
          <path d="M28.25,51.52c-.17,0-.34-.07-.46-.19-.12-.12-.19-.29-.19-.46s.07-.34.19-.46c.24-.24.68-.25.92,0,.12.12.19.29.19.46s-.07.33-.19.46c-.12.12-.28.19-.46.19Z" style="fill: #a65700;"/>
          <path d="M33.75,60.77c-.17,0-.34-.07-.46-.19-.12-.12-.19-.29-.19-.46,0-.18.07-.34.19-.46.24-.24.68-.24.92,0,.12.11.19.28.19.46s-.07.34-.19.46c-.12.12-.29.19-.46.19Z" style="fill: #a65700;"/>
          <path d="M34,67.27c-.18,0-.34-.07-.46-.19-.12-.12-.19-.29-.19-.46s.07-.34.19-.46c.25-.25.68-.24.92,0,.12.12.19.28.19.46s-.07.34-.19.46c-.12.12-.29.19-.46.19Z" style="fill: #a65700;"/>
          <path d="M41.5,55.52c-.17,0-.34-.07-.46-.19-.12-.12-.19-.29-.19-.46s.07-.34.19-.46c.24-.24.68-.24.92,0,.12.12.19.29.19.46s-.07.34-.19.46c-.12.12-.29.19-.46.19Z" style="fill: #a65700;"/>
          <path d="M52,60.27c-.17,0-.34-.07-.46-.19-.12-.12-.19-.29-.19-.46s.07-.34.19-.46c.23-.24.68-.24.92,0,.12.12.19.29.19.46s-.07.34-.19.46c-.12.12-.29.19-.46.19Z" style="fill: #a65700;"/>
          <path d="M54.75,65.77c-.17,0-.34-.07-.46-.19-.12-.13-.19-.29-.19-.46,0-.18.07-.34.19-.46.23-.24.68-.24.92,0,.12.12.19.28.19.46,0,.17-.07.33-.19.46-.12.12-.29.19-.46.19Z" style="fill: #a65700;"/>
          <path d="M25,25.02c-.17,0-.34-.07-.46-.19-.12-.13-.19-.29-.19-.46s.07-.34.19-.46c.23-.24.68-.24.92,0,.12.12.19.29.19.46s-.07.33-.19.46c-.12.12-.29.19-.46.19Z" style="fill: #a65700;"/>
          <path d="M35,23.77c-.18,0-.34-.07-.46-.19-.12-.12-.19-.29-.19-.46s.07-.34.19-.46c.24-.24.68-.24.92,0,.12.12.19.28.19.46s-.07.34-.19.46c-.12.12-.28.19-.46.19Z" style="fill: #a65700;"/>
          <path d="M44.75,30.02c-.17,0-.34-.07-.46-.19-.12-.12-.19-.29-.19-.46s.07-.34.19-.46c.23-.24.69-.24.92,0,.12.11.19.28.19.46s-.07.34-.2.46c-.11.12-.28.19-.45.19Z" style="fill: #a65700;"/>
          <path d="M51.75,43.52c-.17,0-.34-.07-.46-.19-.12-.12-.19-.29-.19-.46s.07-.34.19-.46c.23-.24.67-.25.92,0,.12.12.19.28.19.46,0,.17-.07.34-.19.46-.12.12-.29.19-.46.19Z" style="fill: #a65700;"/>
          <path d="M66.75,52.27c-.17,0-.34-.07-.46-.19-.12-.12-.19-.29-.19-.46,0-.18.07-.34.2-.46.22-.23.67-.24.91,0,.12.12.19.29.19.46s-.07.34-.19.46c-.12.12-.29.19-.46.19Z" style="fill: #a65700;"/>
          <path d="M47,48.27c-.17,0-.34-.07-.46-.19-.12-.12-.19-.29-.19-.46s.07-.34.19-.46c.23-.24.68-.24.92,0,.12.12.19.29.19.46s-.07.34-.19.46c-.12.12-.29.19-.46.19Z" style="fill: #a65700;"/>
          <path d="M36.75,45.02c-.17,0-.34-.07-.46-.19-.12-.13-.19-.29-.19-.46s.07-.34.19-.46c.24-.24.68-.24.92,0,.12.12.19.29.19.46s-.07.33-.19.46c-.12.12-.29.19-.46.19Z" style="fill: #a65700;"/>
          <path d="M16.75,29.02c-.17,0-.34-.07-.46-.19-.12-.12-.19-.29-.19-.46s.07-.34.19-.46c.25-.24.68-.24.92,0,.12.12.19.29.19.46s-.07.34-.19.46c-.12.12-.28.19-.46.19Z" style="fill: #a65700;"/>
          <path d="M11,37.27c-.17,0-.34-.07-.46-.19-.12-.12-.19-.29-.19-.46,0-.18.07-.34.19-.46.25-.25.69-.24.92,0,.12.12.19.29.19.46s-.07.34-.19.46c-.12.12-.29.19-.46.19Z" style="fill: #a65700;"/>
          <path d="M67.25,31.27c-.17,0-.34-.07-.46-.19-.12-.13-.19-.29-.19-.46s.07-.34.19-.46c.24-.24.68-.24.92,0,.12.12.19.28.19.46,0,.17-.07.34-.19.46-.12.12-.29.19-.46.19Z" style="fill: #a65700;"/>
          <path d="M7,16.27c-.18,0-.34-.07-.46-.2-.12-.11-.19-.28-.19-.45s.07-.34.19-.46c.24-.24.68-.25.92,0,.12.12.19.29.19.46s-.07.34-.19.46c-.12.12-.28.19-.46.19Z" style="fill: #a65700;"/>
          <path d="M8.25,5.77c-.17,0-.33-.07-.46-.19-.12-.12-.19-.29-.19-.46,0-.18.07-.34.19-.46.24-.24.68-.25.92,0,.12.12.19.28.19.46,0,.17-.07.34-.19.46-.12.12-.29.19-.46.19Z" style="fill: #a65700;"/>
          <path d="M3.25,3.02c-.17,0-.34-.07-.46-.19-.12-.13-.19-.29-.19-.46s.07-.34.19-.46c.24-.24.67-.24.92,0,.12.12.19.29.19.46s-.07.33-.19.46c-.12.12-.29.19-.46.19Z" style="fill: #a65700;"/>
          <path d="M66.25,37.77c-.17,0-.34-.07-.46-.19-.12-.12-.19-.29-.19-.46s.07-.34.19-.46c.24-.24.68-.24.92,0,.12.12.19.28.19.46,0,.17-.07.34-.19.46-.12.12-.28.19-.46.19Z" style="fill: #a65700;"/>
          <path d="M43.75,63.52c-.17,0-.34-.07-.46-.19-.12-.13-.19-.29-.19-.46s.07-.34.19-.46c.23-.24.67-.25.92,0,.12.12.19.29.19.46s-.07.33-.19.46c-.12.12-.29.19-.46.19Z" style="fill: #a65700;"/>
          <path d="M25.5,70.52c-.17,0-.34-.07-.46-.19-.12-.13-.19-.29-.19-.46s.07-.34.19-.46c.25-.25.68-.24.92,0,.12.12.19.29.19.46s-.07.33-.19.46c-.12.12-.29.19-.46.19Z" style="fill: #a65700;"/>
          <path d="M21.75,42.27c-.17,0-.34-.07-.46-.19-.12-.12-.19-.28-.19-.46s.07-.34.19-.46c.24-.24.67-.24.92,0,.12.12.19.29.19.46s-.07.34-.19.46c-.12.12-.29.19-.46.19Z" style="fill: #a65700;"/>
          <path d="M23.75,29.52c-.17,0-.34-.07-.46-.19-.12-.13-.19-.29-.19-.46s.07-.34.19-.46c.23-.24.68-.25.92,0,.12.12.19.28.19.46,0,.17-.07.34-.19.46-.12.12-.29.19-.46.19Z" style="fill: #a65700;"/>
          <path d="M41.25,35.02c-.17,0-.34-.07-.46-.19-.12-.12-.19-.29-.19-.46s.07-.34.19-.46c.24-.24.68-.24.92,0,.12.12.19.29.19.46s-.07.33-.19.46c-.12.12-.29.19-.46.19Z" style="fill: #a65700;"/>
          <path d="M67.25,44.27c-.17,0-.34-.07-.46-.19-.12-.13-.19-.29-.19-.46s.07-.34.19-.46c.24-.24.68-.24.92,0,.12.12.19.28.19.46,0,.17-.07.34-.19.46-.12.12-.29.19-.46.19Z" style="fill: #a65700;"/>
          <path d="M53,15.52c-.17,0-.34-.07-.46-.19-.12-.12-.19-.29-.19-.46s.07-.34.19-.46c.24-.24.68-.24.92,0,.12.12.19.29.19.46s-.07.33-.19.46c-.12.12-.29.19-.46.19Z" style="fill: #a65700;"/>
          <path d="M33.75,16.52c-.17,0-.34-.07-.46-.19-.12-.13-.19-.29-.19-.46,0-.18.07-.34.19-.46.24-.24.69-.24.92,0,.12.12.19.28.19.46,0,.17-.07.34-.19.46-.12.12-.29.19-.46.19Z" style="fill: #a65700;"/>
          <path d="M12.5,19.77c-.17,0-.34-.07-.46-.19-.12-.12-.19-.29-.19-.46s.07-.34.19-.46c.25-.25.68-.24.92,0,.12.12.19.29.19.46s-.07.34-.19.46c-.12.12-.29.19-.46.19Z" style="fill: #a65700;"/>
          <path d="M49.25,5.02c-.17,0-.34-.07-.46-.19-.12-.12-.19-.29-.19-.46s.07-.34.19-.46c.24-.24.67-.24.92,0,.12.12.19.29.19.46s-.07.34-.19.46c-.12.12-.29.19-.46.19Z" style="fill: #a65700;"/>
          <path d="M58.75,21.27c-.17,0-.34-.07-.46-.19-.12-.12-.19-.29-.19-.46s.07-.34.19-.46c.25-.24.67-.24.92,0,.12.12.19.28.19.46,0,.17-.07.34-.19.46-.12.12-.29.19-.46.19Z" style="fill: #a65700;"/>
          <path d="M67.25,57.77c-.17,0-.34-.07-.46-.19-.12-.13-.19-.29-.19-.46s.07-.34.19-.46c.24-.24.68-.24.92,0,.12.12.19.28.19.46,0,.17-.07.34-.19.46-.12.12-.29.19-.46.19Z" style="fill: #a65700;"/>
          <path d="M5,70.27c-.18,0-.34-.07-.46-.19s-.19-.29-.19-.46.07-.34.19-.46c.25-.25.68-.24.92,0,.12.12.19.29.19.46s-.07.34-.19.46c-.12.12-.28.19-.46.19Z" style="fill: #a65700;"/>
          <path d="M2.5,13.77c-.18,0-.34-.07-.46-.2-.12-.11-.19-.28-.19-.45s.07-.34.19-.46c.24-.25.68-.24.92,0,.12.12.19.29.19.46s-.07.34-.19.46c-.12.12-.28.19-.46.19Z" style="fill: #a65700;"/>
          <path d="M16.25,3.77c-.17,0-.34-.07-.46-.19-.12-.12-.19-.29-.19-.46s.07-.34.19-.46c.24-.24.68-.24.92,0,.12.12.19.29.19.46s-.07.34-.19.46c-.12.12-.29.19-.46.19Z" style="fill: #a65700;"/>
          <path d="M40.25,5.02c-.17,0-.34-.07-.46-.19-.12-.12-.19-.29-.19-.46s.07-.34.19-.46c.25-.24.68-.24.92,0,.12.12.19.28.19.46,0,.17-.07.34-.19.46-.12.12-.29.19-.46.19Z" style="fill: #a65700;"/>
          <path d="M2.5,32.52c-.18,0-.34-.07-.46-.19-.12-.12-.19-.29-.19-.46s.07-.34.19-.46c.24-.24.69-.24.92,0,.12.12.19.29.19.46s-.07.34-.19.46c-.12.12-.29.19-.46.19Z" style="fill: #a65700;"/>
          <path d="M7.25,25.52c-.18,0-.34-.07-.46-.19-.12-.12-.19-.29-.19-.46s.07-.34.19-.46c.24-.24.68-.24.92,0,.12.12.19.28.19.46,0,.17-.07.34-.19.46-.12.12-.28.19-.46.19Z" style="fill: #a65700;"/>
          <path d="M3.75,47.27c-.17,0-.34-.07-.46-.19-.12-.13-.19-.29-.19-.46s.07-.34.19-.46c.23-.24.67-.25.92,0,.12.12.19.29.19.46s-.07.33-.19.46c-.12.12-.28.19-.46.19Z" style="fill: #a65700;"/>
          <path d="M10.75,51.02c-.17,0-.34-.07-.46-.19-.12-.13-.19-.29-.19-.46,0-.18.07-.34.19-.46.24-.24.68-.24.92,0,.12.12.19.29.19.46s-.07.33-.19.46c-.12.12-.29.19-.46.19Z" style="fill: #a65700;"/>
          <path d="M9.75,60.27c-.18,0-.34-.07-.46-.19-.12-.12-.19-.29-.19-.46s.07-.34.19-.46c.24-.24.68-.24.92,0,.12.12.19.29.19.46s-.07.34-.19.46c-.12.12-.28.19-.46.19Z" style="fill: #a65700;"/>
          <path d="M13.25,66.27c-.17,0-.34-.07-.46-.19-.12-.13-.19-.29-.19-.46,0-.18.07-.34.19-.46.24-.24.68-.25.92,0,.12.12.19.29.19.46s-.07.33-.19.46c-.12.12-.29.19-.46.19Z" style="fill: #a65700;"/>
          <path d="M21.75,53.77c-.17,0-.34-.07-.46-.19-.12-.12-.19-.28-.19-.46s.07-.35.2-.46c.22-.24.67-.24.91,0,.12.12.19.29.19.46s-.07.33-.19.46c-.12.12-.29.19-.46.19Z" style="fill: #a65700;"/>
          <path d="M31,38.02c-.17,0-.34-.07-.46-.19-.12-.13-.19-.29-.19-.46s.07-.34.19-.46c.24-.24.68-.24.92,0,.12.12.19.29.19.46s-.07.33-.19.46c-.12.12-.29.19-.46.19Z" style="fill: #a65700;"/>
          <path d="M25.75,34.52c-.17,0-.34-.07-.46-.19-.12-.12-.19-.29-.19-.46s.07-.34.19-.46c.25-.25.68-.24.92,0,.12.12.19.29.19.46s-.07.34-.19.46c-.12.12-.29.19-.46.19Z" style="fill: #a65700;"/>
          <path d="M37,29.02c-.17,0-.34-.07-.46-.19-.12-.13-.19-.29-.19-.46s.07-.34.19-.46c.24-.24.67-.24.92,0,.12.12.19.29.19.46s-.07.33-.19.46c-.12.12-.29.19-.46.19Z" style="fill: #a65700;"/>
          <path d="M61.5,17.02c-.17,0-.34-.07-.46-.19-.12-.13-.19-.29-.19-.46s.07-.34.19-.46c.24-.24.68-.24.92,0,.12.12.19.28.19.46,0,.17-.07.34-.19.46-.12.12-.29.19-.46.19Z" style="fill: #a65700;"/>
          <path d="M61,27.52c-.18,0-.34-.07-.46-.19-.12-.13-.19-.29-.19-.46s.07-.34.19-.46c.24-.24.68-.24.92,0,.12.12.19.29.19.46s-.07.34-.19.46c-.12.12-.28.19-.46.19Z" style="fill: #a65700;"/>
          <path d="M58.5,57.52c-.17,0-.34-.07-.46-.19-.12-.13-.19-.29-.19-.46s.07-.34.19-.46c.24-.24.68-.24.92,0,.12.12.19.29.19.46s-.07.33-.19.46c-.12.12-.29.19-.46.19Z" style="fill: #a65700;"/>
          <path d="M59,44.77c-.18,0-.34-.07-.46-.19-.12-.12-.19-.29-.19-.46s.07-.34.19-.46c.24-.24.68-.24.92,0,.12.12.19.29.19.46s-.07.34-.19.46c-.12.12-.28.19-.46.19Z" style="fill: #a65700;"/>
          <path d="M55.5,36.02c-.17,0-.34-.07-.46-.19-.12-.13-.19-.29-.19-.46s.07-.34.19-.46c.24-.24.68-.24.92,0,.12.12.19.29.19.46s-.07.33-.19.46c-.12.12-.29.19-.46.19Z" style="fill: #a65700;"/>
          <path d="M69,71.02c-.17,0-.33-.07-.46-.19-.12-.12-.19-.29-.19-.46s.07-.34.19-.46c.23-.23.68-.24.92,0,.12.12.19.29.19.46s-.07.34-.19.46c-.12.12-.29.19-.46.19Z" style="fill: #a65700;"/>
          <path d="M60.5,66.27c-.17,0-.34-.07-.46-.19-.12-.12-.19-.29-.19-.46s.07-.34.19-.46c.24-.24.68-.25.92,0,.12.12.19.28.19.46,0,.17-.07.34-.19.46-.12.12-.29.19-.46.19Z" style="fill: #a65700;"/>
          <path d="M44.25,71.77c-.17,0-.34-.07-.46-.19-.12-.12-.19-.29-.19-.46s.07-.34.19-.46c.24-.24.69-.24.92,0,.12.12.19.29.19.46s-.07.34-.19.46c-.12.12-.29.19-.46.19Z" style="fill: #a65700;"/>
          <path d="M24.25,1.52c-.17,0-.34-.07-.46-.19-.12-.12-.19-.29-.19-.46,0-.18.07-.34.19-.46.23-.24.68-.25.92,0,.12.12.19.29.19.46s-.07.33-.19.46c-.12.12-.28.19-.46.19Z" style="fill: #a65700;"/>
        </g>
        <path d="M-.25,23.72c-.09,0-.18-.04-.25-.1-.06-.07-.1-.16-.1-.25s.04-.18.1-.25c.12-.12.36-.13.5,0,.06.07.1.16.1.25s-.04.18-.1.25c-.07.06-.16.1-.25.1Z" style="fill: #a65700;"/>
      </g>
    </pattern>
  </defs>
  <g id="illu_cylindre_motif" data-name="illu cylindre motif">
    <g id="animation">
      <g id="couche_entre_reserv_et_caprock" data-name="couche entre reserv et caprock">
        <path d="M965,109.89C432.05,109.89,0,60.69,0,0v62.9c0,60.69,432.05,109.89,965,109.89s965-49.2,965-109.89V0c0,60.69-432.05,109.89-965,109.89Z" style="fill: url(#Nouvelle_nuance_de_motif_19);"/>
        <path d="M965.03,109.89C432.09,109.89.06,60.69.06,0v62.9C.06,123.59,432.09,172.79,965.03,172.79s964.97-49.2,964.97-109.89V0c0,60.69-432.03,109.89-964.97,109.89Z" style="fill: url(#_8orange);"/>
      </g>
    </g>
  </g>
</svg>