<?xml version="1.0" encoding="UTF-8"?>
<svg id="Calque_2" data-name="Calque 2" xmlns="http://www.w3.org/2000/svg" viewBox="0 0 989.7 550.67">
  <g id="illu_cylindre_motif" data-name="illu cylindre motif">
    <g id="layers">
      <g id="montagnes">
        <polygon points="437.23 0 218.82 274.54 .63 549.08 437.23 549.08 874.04 549.08 655.63 274.54 437.23 0" style="fill: #96b2c0;"/>
        <polygon points="640.28 171.15 465.95 360.7 292.36 549.78 640.28 550.26 989.7 549.78 814.62 360.7 640.28 171.15" style="fill: #96b2c0;"/>
        <g>
          <polygon points="378.81 73.41 332.87 221.69 518.36 328.59 504.92 429.01 477.35 477.18 533.91 548.51 497.36 549.3 279.28 198.54 378.81 73.41" style="fill: #c7deeb;"/>
          <polygon points="203.43 293.91 149.05 482.12 304.6 531.14 425.32 506.05 453.38 549.78 0 549.94 203.43 293.91" style="fill: #c7deeb;"/>
          <polygon points="740.4 280.78 742.98 302.54 765.93 327.83 745.44 314.92 744.21 342.32 762.24 400.27 899.54 549.88 882.94 549.81 701.59 352.06 740.4 280.78" style="fill: #c7deeb;"/>
          <path d="M698.51,234.45s-108.55,54.77-109.11,55.84c-.56,1.07-2.22,38.21-2.22,38.21l60.56,62.13,88.89,158.9-18.05.26-189.18-257.71,110.88-120.93,58.23,63.3Z" style="fill: #c7deeb;"/>
        </g>
        <g style="opacity: .7;">
          <polygon points="292.36 549.78 288.26 549.78 292.36 549.78 292.36 549.78" style="fill: #96b2c0;"/>
          <polygon points="924.89 549.78 292.36 549.78 292.36 549.78 453.38 549.78 398.8 465.46 411.99 450.62 403.33 429.12 414.67 416.8 480.14 469.66 510.51 482.04 583.85 472.04 624.59 417.77 614.96 465.38 703.85 456.33 777.93 442.05 864.6 450.62 875.71 448.24 903.12 459.19 905.08 457.78 989.7 549.78 924.89 549.78" style="fill: #96b2c0;"/>
          <polygon points="287.93 549.72 .16 549.72 51.67 484.83 210.17 471.5 337.59 451.5 373.58 461.05 292.03 549.72 287.93 549.72" style="fill: #96b2c0;"/>
          <polygon points="292.36 549.78 373.91 461.11 397.18 467.28 398.8 465.46 453.38 549.78 292.36 549.78" style="fill: #96b2c0;"/>
          <polygon points="292.36 549.78 373.91 461.11 397.18 467.28 398.8 465.46 453.38 549.78 292.36 549.78" style="fill: #96b2c0;"/>
        </g>
        <path d="M378.81,73.41c-5.04,20.53-11.58,45.46-16.95,65.85-2.35,9.42-5.66,18.56-8.42,27.86-3.54,11.5-13.54,43.63-17.23,55.61,0,0-.04-2.21-.04-2.21.08-.12,56.65,159.62,55.4,156.42,24.73,38.59,69.54,109.14,93.85,147.13,4.47,6.94,9.12,13.97,13.1,21.22,0,0-2.36-1.44-2.36-1.44,6.73,1.1,13.46,2.14,20.18,3.3,6.72,1.11,13.44,2.31,20.16,3.51-13.64-.02-27.27-.25-40.9-.57,0,0-1.37-.03-1.37-.03,0,0-.99-1.41-.99-1.41-8.25-11.48-19.24-29.77-27.12-41.84-16.86-26.44-62.96-98.69-80.45-126.11-.6-.3-55.65-157.32-56.09-157.85,0,0-.39-1.1-.39-1.1,6.68-21.69,16.77-53.75,23.23-75.28,7.95-23.35,17.84-49.9,26.4-73.08h0Z" style="fill: #3dd0ff;"/>
      </g>
    </g>
  </g>
</svg>