<svg xmlns="http://www.w3.org/2000/svg" data-name="Calque 2" viewBox="0 0 1555.64 844.15"><g data-name="illu cylindre motif"><g data-name="co2 points"><circle cx="862.74" cy="173.77" r="24.83" style="fill:#d98d39"/><text style="fill:#fff;font-family:Archivo-Medium,Archivo;font-size:20px;font-weight:500" transform="translate(844.13 178.2)"><tspan x="0" y="0">CO₂</tspan></text></g><g data-name="co2 points"><circle cx="24.83" cy="65.67" r="24.83" style="fill:#d98d39"/><text style="fill:#fff;font-family:Archivo-Medium,Archivo;font-size:20px;font-weight:500" transform="translate(6.22 70.1)"><tspan x="0" y="0">CO₂</tspan></text></g><g data-name="co2 points"><circle cx="243.54" cy="77.53" r="24.83" style="fill:#d98d39"/><text style="fill:#fff;font-family:Archivo-Medium,Archivo;font-size:20px;font-weight:500" transform="translate(224.93 81.96)"><tspan x="0" y="0">CO₂</tspan></text></g><g data-name="co2 points"><circle cx="223.78" cy="156.58" r="24.83" style="fill:#d98d39"/><text style="fill:#fff;font-family:Archivo-Medium,Archivo;font-size:20px;font-weight:500" transform="translate(205.17 161.01)"><tspan x="0" y="0">CO₂</tspan></text></g><g data-name="co2 points"><circle cx="547.9" cy="277.8" r="24.83" style="fill:#d98d39"/><text style="fill:#fff;font-family:Archivo-Medium,Archivo;font-size:20px;font-weight:500" transform="translate(529.3 282.23)"><tspan x="0" y="0">CO₂</tspan></text></g><g data-name="co2 points"><circle cx="450.4" cy="157.9" r="24.83" style="fill:#d98d39"/><text style="fill:#fff;font-family:Archivo-Medium,Archivo;font-size:20px;font-weight:500" transform="translate(431.79 162.33)"><tspan x="0" y="0">CO₂</tspan></text></g><g data-name="co2 points"><circle cx="673.91" cy="101.99" r="24.83" style="fill:#d98d39"/><text style="fill:#fff;font-family:Archivo-Medium,Archivo;font-size:20px;font-weight:500" transform="translate(655.3 106.42)"><tspan x="0" y="0">CO₂</tspan></text></g><g data-name="co2 points"><circle cx="617.25" cy="427.43" r="24.83" style="fill:#d98d39"/><text style="fill:#fff;font-family:Archivo-Medium,Archivo;font-size:20px;font-weight:500" transform="translate(598.64 431.86)"><tspan x="0" y="0">CO₂</tspan></text></g><g data-name="co2 points"><circle cx="875.62" cy="558.27" r="24.83" style="fill:#d98d39"/><text style="fill:#fff;font-family:Archivo-Medium,Archivo;font-size:20px;font-weight:500" transform="translate(857.01 562.69)"><tspan x="0" y="0">CO₂</tspan></text></g><g data-name="co2 points"><circle cx="983.54" cy="340.47" r="24.83" style="fill:#d98d39"/><text style="fill:#fff;font-family:Archivo-Medium,Archivo;font-size:20px;font-weight:500" transform="translate(964.93 344.9)"><tspan x="0" y="0">CO₂</tspan></text></g><g data-name="co2 points"><circle cx="861.17" cy="429.13" r="24.83" style="fill:#d98d39"/><text style="fill:#fff;font-family:Archivo-Medium,Archivo;font-size:20px;font-weight:500" transform="translate(842.56 433.56)"><tspan x="0" y="0">CO₂</tspan></text></g><g data-name="co2 points"><circle cx="859.85" cy="98.42" r="24.83" style="fill:#d98d39"/><text style="fill:#fff;font-family:Archivo-Medium,Archivo;font-size:20px;font-weight:500" transform="translate(841.24 102.85)"><tspan x="0" y="0">CO₂</tspan></text></g><g data-name="co2 points"><circle cx="1002.15" cy="102.37" r="24.83" style="fill:#d98d39"/><text style="fill:#fff;font-family:Archivo-Medium,Archivo;font-size:20px;font-weight:500" transform="translate(983.54 106.8)"><tspan x="0" y="0">CO₂</tspan></text></g><g data-name="co2 points"><circle cx="1121.27" cy="109.75" r="24.83" style="fill:#d98d39"/><text style="fill:#fff;font-family:Archivo-Medium,Archivo;font-size:20px;font-weight:500" transform="translate(1102.66 114.18)"><tspan x="0" y="0">CO₂</tspan></text></g><g data-name="co2 points"><circle cx="1119.73" cy="267.26" r="24.83" style="fill:#d98d39"/><text style="fill:#fff;font-family:Archivo-Medium,Archivo;font-size:20px;font-weight:500" transform="translate(1101.12 271.69)"><tspan x="0" y="0">CO₂</tspan></text></g><g data-name="co2 points"><circle cx="881.93" cy="267.6" r="24.83" style="fill:#d98d39"/><text style="fill:#fff;font-family:Archivo-Medium,Archivo;font-size:20px;font-weight:500" transform="translate(863.32 272.03)"><tspan x="0" y="0">CO₂</tspan></text></g><g data-name="co2 points"><circle cx="1119.55" cy="453.9" r="24.83" style="fill:#d98d39"/><text style="fill:#fff;font-family:Archivo-Medium,Archivo;font-size:20px;font-weight:500" transform="translate(1100.95 458.33)"><tspan x="0" y="0">CO₂</tspan></text></g><g data-name="co2 points"><circle cx="976.58" cy="506.78" r="24.83" style="fill:#d98d39"/><text style="fill:#fff;font-family:Archivo-Medium,Archivo;font-size:20px;font-weight:500" transform="translate(957.97 511.21)"><tspan x="0" y="0">CO₂</tspan></text></g><g data-name="co2 points"><circle cx="1015.36" cy="676.26" r="24.83" style="fill:#d98d39"/><text style="fill:#fff;font-family:Archivo-Medium,Archivo;font-size:20px;font-weight:500" transform="translate(996.75 680.69)"><tspan x="0" y="0">CO₂</tspan></text></g><g data-name="co2 points"><circle cx="1193.52" cy="819.32" r="24.83" style="fill:#d98d39"/><text style="fill:#fff;font-family:Archivo-Medium,Archivo;font-size:20px;font-weight:500" transform="translate(1174.91 823.75)"><tspan x="0" y="0">CO₂</tspan></text></g><g data-name="co2 points"><circle cx="1161.89" cy="646.72" r="24.83" style="fill:#d98d39"/><text style="fill:#fff;font-family:Archivo-Medium,Archivo;font-size:20px;font-weight:500" transform="translate(1143.28 651.15)"><tspan x="0" y="0">CO₂</tspan></text></g><g data-name="co2 points"><circle cx="1246.22" cy="691.52" r="24.83" style="fill:#d98d39"/><text style="fill:#fff;font-family:Archivo-Medium,Archivo;font-size:20px;font-weight:500" transform="translate(1227.61 695.95)"><tspan x="0" y="0">CO₂</tspan></text></g><g data-name="co2 points"><circle cx="1285.26" cy="449.83" r="24.83" style="fill:#d98d39"/><text style="fill:#fff;font-family:Archivo-Medium,Archivo;font-size:20px;font-weight:500" transform="translate(1266.65 454.26)"><tspan x="0" y="0">CO₂</tspan></text></g><g data-name="co2 points"><circle cx="1289.64" cy="316.07" r="24.83" style="fill:#d98d39"/><text style="fill:#fff;font-family:Archivo-Medium,Archivo;font-size:20px;font-weight:500" transform="translate(1271.03 320.5)"><tspan x="0" y="0">CO₂</tspan></text></g><g data-name="co2 points"><circle cx="1362.17" cy="399.02" r="24.83" style="fill:#d98d39"/><text style="fill:#fff;font-family:Archivo-Medium,Archivo;font-size:20px;font-weight:500" transform="translate(1343.56 403.45)"><tspan x="0" y="0">CO₂</tspan></text></g><g data-name="co2 points"><circle cx="1425.41" cy="198.75" r="24.83" style="fill:#d98d39"/><text style="fill:#fff;font-family:Archivo-Medium,Archivo;font-size:20px;font-weight:500" transform="translate(1406.8 203.18)"><tspan x="0" y="0">CO₂</tspan></text></g><g data-name="co2 points"><circle cx="1530.81" cy="24.83" r="24.83" style="fill:#d98d39"/><text style="fill:#fff;font-family:Archivo-Medium,Archivo;font-size:20px;font-weight:500" transform="translate(1512.21 29.26)"><tspan x="0" y="0">CO₂</tspan></text></g><g data-name="co2 points"><circle cx="777.16" cy="95.97" r="24.83" style="fill:#d98d39"/><text style="fill:#fff;font-family:Archivo-Medium,Archivo;font-size:20px;font-weight:500" transform="translate(758.55 100.4)"><tspan x="0" y="0">CO₂</tspan></text></g><g data-name="co2 points"><circle cx="575.57" cy="106.51" r="24.83" style="fill:#d98d39"/><text style="fill:#fff;font-family:Archivo-Medium,Archivo;font-size:20px;font-weight:500" transform="translate(556.96 110.94)"><tspan x="0" y="0">CO₂</tspan></text></g><g data-name="co2 points"><circle cx="351.58" cy="271.21" r="24.83" style="fill:#d98d39"/><text style="fill:#fff;font-family:Archivo-Medium,Archivo;font-size:20px;font-weight:500" transform="translate(332.97 275.64)"><tspan x="0" y="0">CO₂</tspan></text></g><g data-name="co2 points"><circle cx="122.27" cy="85.5" r="24.83" style="fill:#d98d39"/><text style="fill:#fff;font-family:Archivo-Medium,Archivo;font-size:20px;font-weight:500" transform="translate(103.66 89.93)"><tspan x="0" y="0">CO₂</tspan></text></g><g data-name="co2 points"><circle cx="1410.6" cy="49.67" r="24.83" style="fill:#d98d39"/><text style="fill:#fff;font-family:Archivo-Medium,Archivo;font-size:20px;font-weight:500" transform="translate(1391.99 54.1)"><tspan x="0" y="0">CO₂</tspan></text></g><g data-name="co2 points"><circle cx="454.86" cy="84.75" r="24.83" style="fill:#d98d39"/><text style="fill:#fff;font-family:Archivo-Medium,Archivo;font-size:20px;font-weight:500" transform="translate(436.25 89.18)"><tspan x="0" y="0">CO₂</tspan></text></g></g></svg>