<svg xmlns="http://www.w3.org/2000/svg" data-name="Calque 2" viewBox="0 0 1127.91 718.21"><g data-name="illu cylindre motif"><g data-name="flèche reservoir"><path d="m634.71 592.66-73.1-67.32" style="fill:none;stroke:#d98d39;stroke-linecap:round;stroke-miterlimit:40;stroke-width:5px"/><path d="M602.78 530.63a2.503 2.503 0 0 1-2.91 2.02l-37.65-6.74 9.81 36.97c.36 1.34-.44 2.71-1.77 3.06a2.52 2.52 0 0 1-3.06-1.78l-10.82-40.76c-.22-.82 0-1.71.58-2.34s1.44-.92 2.28-.77l41.51 7.43c.49.09.91.31 1.25.62.61.56.93 1.41.77 2.28Z" style="fill:#d98d39"/><path d="m443.9 402.78-73.1-67.32" style="fill:none;stroke:#d98d39;stroke-linecap:round;stroke-miterlimit:40;stroke-width:5px"/><path d="M411.96 340.74a2.503 2.503 0 0 1-2.91 2.02l-37.65-6.74 9.81 36.97c.36 1.34-.44 2.71-1.77 3.06a2.52 2.52 0 0 1-3.06-1.78l-10.82-40.76c-.22-.82 0-1.71.58-2.34s1.44-.92 2.28-.77l41.51 7.43c.49.09.91.31 1.25.62.61.56.93 1.41.77 2.28Z" style="fill:#d98d39"/><path d="M78.41 72.41 5.32 5.09" style="fill:none;stroke:#d98d39;stroke-linecap:round;stroke-miterlimit:40;stroke-width:5px"/><path d="M46.48 10.38a2.503 2.503 0 0 1-2.91 2.02L5.92 5.65l9.81 36.97c.36 1.34-.44 2.71-1.77 3.06s-2.71-.46-3.06-1.78L.08 3.14C-.14 2.32.08 1.43.66.8 1.24.18 2.1-.11 2.94.04l41.51 7.43c.49.09.91.31 1.25.62.61.56.93 1.41.77 2.28Z" style="fill:#d98d39"/><path d="m173.14 264.66-79.27-59.92" style="fill:none;stroke:#d98d39;stroke-linecap:round;stroke-miterlimit:40;stroke-width:5px"/><path d="M135.35 206.01a2.51 2.51 0 0 1-2.7 2.29l-38.13-3.06 13.35 35.84c.48 1.3-.17 2.74-1.47 3.22-1.29.48-2.74-.19-3.22-1.47l-14.72-39.52c-.3-.8-.17-1.7.35-2.38a2.54 2.54 0 0 1 2.19-.99l42.04 3.37c.49.04.94.22 1.31.5.66.5 1.06 1.31.99 2.2Z" style="fill:#d98d39"/><path d="m495.21 256.79-37.85-91.88" style="fill:none;stroke:#d98d39;stroke-linecap:round;stroke-miterlimit:40;stroke-width:5px"/><path d="M492.44 187.07a2.5 2.5 0 0 1-3.49.6l-31.29-22-6.71 37.65a2.505 2.505 0 0 1-2.9 2.03c-1.36-.24-2.26-1.56-2.03-2.9l7.4-41.52c.15-.84.72-1.55 1.51-1.87s1.69-.22 2.39.27l34.5 24.26c.4.29.7.67.87 1.09.31.76.24 1.67-.26 2.4Z" style="fill:#d98d39"/><path d="m883.66 398.72 3.77-99.3" style="fill:none;stroke:#d98d39;stroke-linecap:round;stroke-miterlimit:40;stroke-width:5px"/><path d="M910.13 334.16c-1.19.7-2.72.29-3.42-.9l-19.31-33.02-21.76 31.46c-.79 1.14-2.35 1.43-3.48.64a2.524 2.524 0 0 1-.64-3.48l23.99-34.69c.49-.7 1.3-1.11 2.15-1.08s1.63.5 2.06 1.24l21.29 36.41a2.507 2.507 0 0 1-.9 3.43Z" style="fill:#d98d39"/><path d="m369.8 146.02-37.85-91.88" style="fill:none;stroke:#d98d39;stroke-linecap:round;stroke-miterlimit:40;stroke-width:5px"/><path d="M367.03 76.3a2.5 2.5 0 0 1-3.49.6l-31.29-22-6.71 37.65a2.505 2.505 0 0 1-2.9 2.03c-1.36-.24-2.26-1.56-2.03-2.9l7.4-41.52c.15-.84.72-1.55 1.51-1.87.79-.33 1.69-.22 2.39.27l34.5 24.26c.4.29.7.67.87 1.09.31.76.24 1.67-.26 2.4Z" style="fill:#d98d39"/><path d="m1084.48 222.06 28.23-95.29" style="fill:none;stroke:#d98d39;stroke-linecap:round;stroke-miterlimit:40;stroke-width:5px"/><path d="M1126.1 166.05c-1.32.38-2.71-.39-3.09-1.72l-10.54-36.77-28.86 25.1c-1.04.91-2.63.8-3.53-.24a2.52 2.52 0 0 1 .25-3.53l31.83-27.67c.64-.56 1.53-.75 2.35-.51s1.46.89 1.69 1.71l11.62 40.54c.13.48.12.96 0 1.4-.23.79-.86 1.45-1.71 1.7Z" style="fill:#d98d39"/><path d="m791.91 506.78-43.4-89.4" style="fill:none;stroke:#d98d39;stroke-linecap:round;stroke-miterlimit:40;stroke-width:5px"/><path d="M784.89 437.36a2.49 2.49 0 0 1-3.44.81l-32.57-20.05-4.4 37.99a2.504 2.504 0 0 1-2.77 2.2c-1.37-.16-2.35-1.41-2.2-2.78l4.85-41.89a2.497 2.497 0 0 1 3.79-1.84l35.91 22.11c.42.26.74.62.94 1.04.36.74.35 1.65-.12 2.41Z" style="fill:#d98d39"/><path d="m805.88 715.71-43.39-89.4" style="fill:none;stroke:#d98d39;stroke-linecap:round;stroke-miterlimit:40;stroke-width:5px"/><path d="M798.86 646.29a2.49 2.49 0 0 1-3.44.81l-32.57-20.05-4.4 37.99a2.504 2.504 0 0 1-2.77 2.2c-1.37-.16-2.35-1.41-2.2-2.78l4.85-41.89a2.497 2.497 0 0 1 3.79-1.84l35.91 22.11c.42.26.74.62.94 1.04.36.74.35 1.65-.12 2.41Z" style="fill:#d98d39"/><path d="m700.92 116.08-7.15-99.12" style="fill:none;stroke:#d98d39;stroke-linecap:round;stroke-miterlimit:40;stroke-width:5px"/><path d="M720.14 49.01c-1.11.82-2.67.59-3.5-.52l-22.81-30.7-18.17 33.65c-.66 1.22-2.18 1.67-3.39 1.02s-1.66-2.19-1.01-3.39l20.04-37.11c.41-.75 1.17-1.24 2.02-1.31s1.68.32 2.19 1l25.16 33.85c.29.4.45.85.49 1.31.06.82-.29 1.66-1 2.19Z" style="fill:#d98d39"/><path d="m892.33 223.5 3.77-99.3" style="fill:none;stroke:#d98d39;stroke-linecap:round;stroke-miterlimit:40;stroke-width:5px"/><path d="M918.8 158.94c-1.19.7-2.72.29-3.42-.9l-19.31-33.02-21.76 31.46c-.79 1.14-2.35 1.43-3.48.64s-1.41-2.36-.63-3.48l23.99-34.69c.49-.7 1.3-1.11 2.15-1.08s1.63.5 2.06 1.24l21.29 36.41a2.507 2.507 0 0 1-.9 3.43Z" style="fill:#d98d39"/><path d="m1010.15 486.22 20.96-97.14" style="fill:none;stroke:#d98d39;stroke-linecap:round;stroke-miterlimit:40;stroke-width:5px"/><path d="M1047.42 427.24c-1.29.48-2.73-.19-3.21-1.48l-13.28-35.87-26.89 27.2c-.97.98-2.56 1-3.54.03s-.98-2.56-.02-3.54l29.65-29.99c.6-.6 1.47-.87 2.31-.69s1.52.78 1.82 1.58l14.64 39.55a2.5 2.5 0 0 1-1.48 3.22Z" style="fill:#d98d39"/></g></g></svg>