<?xml version="1.0" encoding="UTF-8"?>
<svg id="Calque_2" data-name="Calque 2" xmlns="http://www.w3.org/2000/svg" xmlns:xlink="http://www.w3.org/1999/xlink" viewBox="0 0 1930 172.79">
  <defs>
    <pattern id="Nouvelle_nuance_de_motif_19" data-name="Nouvelle nuance de motif 19" x="0" y="0" width="187.5" height="187.5" patternTransform="translate(-864.21 -2585.71)" patternUnits="userSpaceOnUse" viewBox="0 0 187.5 187.5">
      <g>
        <rect width="187.5" height="187.5" style="fill: none;"/>
        <rect width="187.5" height="187.5" style="fill: #d98d39;"/>
      </g>
    </pattern>
    <pattern id="_8orange" data-name="8orange" x="0" y="0" width="72" height="72" patternTransform="translate(1291.64 -2515.15)" patternUnits="userSpaceOnUse" viewBox="0 0 72 72">
      <g>
        <rect width="72" height="72" style="fill: none;"/>
        <path d="M60.17,65.91c-.3,0-.6-.13-.83-.36-.2-.2-.33-.5-.33-.8s.13-.6.33-.83c.44-.44,1.2-.44,1.67,0,.2.23.34.53.34.83s-.13.6-.34.83c-.23.2-.53.33-.83.33Z" style="fill: #a65700;"/>
        <path d="M69.33,13.4c-.3,0-.6-.13-.83-.33-.23-.23-.33-.53-.33-.83s.13-.6.33-.8c.5-.5,1.2-.47,1.63-.03.23.23.37.53.37.83s-.13.6-.34.83c-.23.2-.53.33-.83.33Z" style="fill: #a65700;"/>
        <path d="M2.66,42.57c-.3,0-.6-.13-.83-.33-.2-.23-.33-.53-.33-.83s.13-.6.33-.83c.47-.44,1.2-.44,1.63,0,.23.23.37.53.37.83s-.13.6-.34.83c-.23.2-.53.33-.83.33Z" style="fill: #a65700;"/>
        <path d="M14.33,35.07c-.3,0-.6-.13-.8-.33-.23-.23-.37-.53-.37-.83,0-.33.13-.63.37-.83.4-.4,1.2-.44,1.63,0,.2.2.34.5.34.83,0,.3-.13.6-.34.83-.23.2-.53.33-.83.33Z" style="fill: #a65700;"/>
        <path d="M3.5,17.57c-.3,0-.6-.13-.83-.33-.2-.23-.33-.53-.33-.83s.13-.6.33-.83c.44-.44,1.23-.44,1.67,0,.2.23.34.53.34.83s-.13.6-.34.83c-.23.2-.53.33-.83.33Z" style="fill: #a65700;"/>
        <path d="M46,19.24c-.3,0-.6-.13-.83-.33-.2-.23-.33-.53-.33-.83s.13-.6.33-.83c.44-.44,1.2-.44,1.67,0,.2.23.34.53.34.83s-.13.6-.34.83c-.23.2-.5.33-.83.33Z" style="fill: #a65700;"/>
        <path d="M42.67,25.9c-.3,0-.6-.13-.83-.33-.2-.23-.33-.53-.33-.83s.13-.6.33-.83c.44-.44,1.23-.44,1.67,0,.2.23.34.53.34.83s-.13.6-.34.83c-.23.2-.53.33-.83.33Z" style="fill: #a65700;"/>
        <path d="M8.5,56.74c-.3,0-.6-.13-.83-.33-.2-.23-.33-.53-.33-.83s.13-.6.33-.83c.44-.44,1.23-.44,1.67,0,.2.23.34.53.34.83s-.13.6-.34.83c-.23.2-.53.33-.83.33Z" style="fill: #a65700;"/>
        <path d="M48.5,42.57c-.3,0-.6-.13-.83-.33-.2-.23-.33-.53-.33-.83s.13-.6.33-.83c.5-.44,1.2-.44,1.63,0,.23.23.37.53.37.83s-.13.6-.34.83c-.23.2-.53.33-.83.33Z" style="fill: #a65700;"/>
        <path d="M22.66,20.07c-.3,0-.6-.13-.83-.33-.2-.23-.33-.53-.33-.83,0-.33.13-.63.37-.83.4-.44,1.17-.44,1.63,0,.2.2.34.5.34.83,0,.3-.13.6-.34.83-.23.2-.53.33-.83.33Z" style="fill: #a65700;"/>
        <path d="M29.33,9.24c-.3,0-.6-.13-.83-.33-.2-.23-.33-.53-.33-.83s.1-.6.33-.83c.44-.44,1.2-.44,1.67,0,.2.23.34.53.34.83s-.13.6-.34.83c-.23.2-.5.33-.83.33Z" style="fill: #a65700;"/>
        <path d="M62.67,47.57c-.3,0-.6-.13-.83-.36-.2-.2-.33-.5-.33-.8s.13-.6.33-.83c.47-.44,1.2-.44,1.67,0,.2.23.34.5.34.83s-.13.63-.37.83c-.2.2-.5.33-.8.33Z" style="fill: #a65700;"/>
        <path d="M28.5,55.07c-.3,0-.6-.13-.83-.33-.2-.23-.33-.53-.33-.83s.13-.6.33-.83c.47-.44,1.2-.44,1.67,0,.2.23.34.53.34.83s-.13.6-.34.83c-.23.2-.53.33-.83.33Z" style="fill: #a65700;"/>
        <path d="M65.17,16.07c-.57,0-1.13-.23-1.53-.63-.4-.4-.63-.97-.63-1.53s.23-1.13.63-1.53c.77-.8,2.3-.8,3.07,0,.4.37.63.93.63,1.53s-.23,1.13-.67,1.53c-.36.4-.93.63-1.5.63Z" style="fill: #a65700;"/>
        <path d="M38.5,66.08c-.57,0-1.13-.23-1.53-.63-.4-.43-.63-.97-.63-1.53s.23-1.13.63-1.53c.8-.8,2.27-.8,3.07,0,.4.4.63.97.63,1.53s-.23,1.1-.63,1.53c-.4.4-.97.63-1.53.63Z" style="fill: #a65700;"/>
        <path d="M53.5,32.74c-.57,0-1.13-.23-1.53-.63-.4-.4-.63-.97-.63-1.53s.23-1.13.63-1.53c.8-.8,2.27-.8,3.07,0,.4.4.63.97.63,1.53s-.23,1.1-.63,1.53c-.4.4-.97.63-1.53.63Z" style="fill: #a65700;"/>
        <path d="M19.33,42.74c-.57,0-1.13-.23-1.53-.63-.4-.43-.63-.97-.63-1.53s.23-1.13.63-1.53c.8-.8,2.27-.8,3.07,0,.4.4.63.97.63,1.53s-.23,1.1-.63,1.53c-.4.4-.97.63-1.53.63Z" style="fill: #a65700;"/>
        <path d="M39.33,12.74c-.57,0-1.13-.23-1.53-.63-.4-.43-.63-.97-.63-1.53s.23-1.13.63-1.53c.8-.8,2.23-.8,3.07,0,.4.4.63.97.63,1.53s-.23,1.1-.63,1.53c-.4.4-.97.63-1.53.63Z" style="fill: #a65700;"/>
      </g>
    </pattern>
  </defs>
  <g id="illu_cylindre_motif" data-name="illu cylindre motif">
    <g id="reservoir">
      <g id="nappe_co2">
        <path d="M965,109.89C432.05,109.89,0,60.69,0,0v62.9c0,60.69,432.05,109.89,965,109.89s965-49.2,965-109.89V0c0,60.69-432.05,109.89-965,109.89Z" style="fill: url(#Nouvelle_nuance_de_motif_19);"/>
        <path d="M965.03,109.89C432.09,109.89.06,60.69.06,0v62.9C.06,123.59,432.09,172.79,965.03,172.79s964.97-49.2,964.97-109.89V0c0,60.69-432.03,109.89-964.97,109.89Z" style="fill: url(#_8orange);"/>
      </g>
    </g>
  </g>
</svg>