<?xml version="1.0" encoding="UTF-8"?>
<svg id="Calque_2" data-name="Calque 2" xmlns="http://www.w3.org/2000/svg" xmlns:xlink="http://www.w3.org/1999/xlink" viewBox="0 0 1930 602.97">
  <defs>
    <pattern id="Nouvelle_nuance_de_motif_9" data-name="Nouvelle nuance de motif 9" x="0" y="0" width="188.25" height="188.25" patternTransform="translate(-864.21 -367.45)" patternUnits="userSpaceOnUse" viewBox="0 0 188.25 188.25">
      <g>
        <rect width="188.25" height="188.25" style="fill: none;"/>
        <rect x="172.05" y="172.05" width="220.65" height="220.65" style="fill: #54969b;"/>
        <rect x="-16.2" y="172.05" width="220.65" height="220.65" style="fill: #54969b;"/>
        <rect x="-204.45" y="172.05" width="220.65" height="220.65" style="fill: #54969b;"/>
        <rect x="172.05" y="-16.2" width="220.65" height="220.65" style="fill: #54969b;"/>
        <rect x="-16.2" y="-16.2" width="220.65" height="220.65" style="fill: #54969b;"/>
        <rect x="-204.45" y="-16.2" width="220.65" height="220.65" style="fill: #54969b;"/>
        <rect x="172.05" y="-204.45" width="220.65" height="220.65" style="fill: #54969b;"/>
        <rect x="-16.2" y="-204.45" width="220.65" height="220.65" style="fill: #54969b;"/>
        <rect x="-204.45" y="-204.45" width="220.65" height="220.65" style="fill: #54969b;"/>
      </g>
    </pattern>
    <pattern id="_3bleu-vert" data-name="3bleu-vert" x="0" y="0" width="72" height="72" patternTransform="translate(3140.61 -1509.49)" patternUnits="userSpaceOnUse" viewBox="0 0 72 72">
      <g>
        <rect width="72" height="72" style="fill: none;"/>
        <path d="M71.94,72.17c-.33,0-.66-.14-.92-.37-.22-.26-.37-.59-.37-.92s.15-.66.37-.92c.52-.48,1.32-.48,1.8,0,.26.26.41.59.41.92s-.15.66-.37.92c-.25.22-.58.37-.92.37Z" style="fill: #196268;"/>
        <g>
          <path d="M10.94,72.17c-.33,0-.66-.14-.92-.37-.22-.26-.37-.59-.37-.92,0-.37.15-.7.41-.92.4-.44,1.32-.48,1.79,0,.22.26.37.59.37.92s-.15.66-.37.88c-.25.26-.58.4-.92.4Z" style="fill: #196268;"/>
          <path d="M-.06,72.17c-.33,0-.66-.14-.92-.37-.22-.26-.37-.59-.37-.92s.15-.66.37-.92c.52-.48,1.32-.48,1.8,0,.26.26.41.59.41.92s-.15.66-.37.92c-.25.22-.58.37-.92.37Z" style="fill: #196268;"/>
          <path d="M7.03,74.32c-.33,0-.66-.14-.92-.37-.22-.26-.37-.59-.37-.92s.15-.66.37-.92c.52-.48,1.32-.48,1.83,0,.22.26.37.59.37.92s-.15.66-.37.92c-.25.22-.58.37-.92.37Z" style="fill: #196268;"/>
          <path d="M52.89,72.68c-.66,0-1.25-.26-1.69-.7-.44-.44-.69-1.06-.69-1.69s.25-1.25.69-1.69c.88-.88,2.5-.88,3.38,0,.44.44.7,1.03.7,1.69s-.26,1.25-.7,1.69c-.44.44-1.02.7-1.69.7Z" style="fill: #196268;"/>
          <path d="M36.53,74.11c-.62,0-1.25-.26-1.69-.7-.44-.48-.69-1.06-.69-1.69s.25-1.25.69-1.69c.85-.88,2.5-.88,3.38,0,.44.44.7,1.06.7,1.69s-.26,1.21-.7,1.69c-.44.44-1.06.7-1.69.7Z" style="fill: #196268;"/>
        </g>
        <g>
          <path d="M70.87,42.77c-.33,0-.66-.14-.92-.37-.22-.26-.37-.59-.37-.92s.15-.66.37-.92c.52-.48,1.32-.48,1.8,0,.26.26.41.59.41.92s-.15.66-.37.92c-.25.22-.58.37-.92.37Z" style="fill: #196268;"/>
          <path d="M71.79,15.25c-.33,0-.66-.14-.92-.37-.22-.26-.37-.59-.37-.92s.15-.66.37-.92c.48-.48,1.36-.48,1.83,0,.22.26.37.59.37.92s-.15.66-.37.92c-.25.22-.58.37-.92.37Z" style="fill: #196268;"/>
          <path d="M69.95,30.11c-.62,0-1.25-.26-1.69-.7-.44-.44-.69-1.06-.69-1.69s.25-1.25.69-1.69c.92-.92,2.5-.88,3.38,0,.44.44.7,1.06.7,1.69s-.26,1.25-.7,1.69c-.44.44-1.06.7-1.69.7Z" style="fill: #196268;"/>
          <path d="M71.94.17c-.33,0-.66-.14-.92-.37-.22-.26-.37-.59-.37-.92s.15-.66.37-.92c.52-.48,1.32-.48,1.8,0,.26.26.41.59.41.92s-.15.66-.37.92c-.25.22-.58.37-.92.37Z" style="fill: #196268;"/>
          <path d="M72.85,36.86c-.33,0-.66-.14-.92-.37-.22-.26-.37-.59-.37-.92s.15-.7.37-.92c.44-.44,1.32-.48,1.8,0,.26.26.41.59.41.92s-.15.66-.37.92c-.25.22-.58.37-.92.37Z" style="fill: #196268;"/>
          <path d="M71.94,68.23c-.62,0-1.25-.26-1.69-.7-.44-.44-.69-1.06-.69-1.69,0-.66.25-1.25.69-1.69.85-.88,2.5-.92,3.38,0,.44.44.7,1.06.7,1.69s-.26,1.21-.7,1.69c-.44.44-1.02.7-1.69.7Z" style="fill: #196268;"/>
          <path d="M72.61,13.33c-.33,0-.66-.14-.92-.37-.22-.26-.37-.59-.37-.92s.15-.66.37-.92c.52-.48,1.32-.48,1.8,0,.26.26.41.59.41.92s-.15.66-.37.92c-.25.22-.58.37-.92.37Z" style="fill: #196268;"/>
          <path d="M70.78,27.09c-.33,0-.66-.14-.92-.37-.22-.26-.37-.59-.37-.92,0-.37.15-.7.41-.92.48-.48,1.28-.48,1.79,0,.22.22.37.55.37.92,0,.33-.15.66-.37.92-.25.22-.58.37-.92.37Z" style="fill: #196268;"/>
        </g>
        <g>
          <path d="M62.16,68.45c-.33,0-.66-.14-.92-.4-.22-.22-.37-.55-.37-.88s.15-.66.37-.92c.48-.48,1.32-.48,1.83,0,.22.26.37.59.37.92s-.15.66-.37.92c-.25.22-.58.37-.92.37Z" style="fill: #196268;"/>
          <path d="M72.24,10.67c-.33,0-.66-.14-.92-.37-.25-.26-.37-.59-.37-.92s.15-.66.37-.88c.55-.55,1.32-.52,1.8-.04.26.26.41.59.41.92s-.15.66-.37.92c-.25.22-.58.37-.92.37Z" style="fill: #196268;"/>
          <path d="M-1.13,42.77c-.33,0-.66-.14-.92-.37-.22-.26-.37-.59-.37-.92s.15-.66.37-.92c.52-.48,1.32-.48,1.8,0,.26.26.41.59.41.92s-.15.66-.37.92c-.25.22-.58.37-.92.37Z" style="fill: #196268;"/>
          <path d="M11.71,34.51c-.33,0-.66-.14-.88-.37-.26-.26-.41-.59-.41-.92,0-.37.15-.7.41-.92.44-.44,1.32-.48,1.79,0,.22.22.37.55.37.92,0,.33-.15.66-.37.92-.25.22-.58.37-.92.37Z" style="fill: #196268;"/>
          <path d="M-.21,15.25c-.33,0-.66-.14-.92-.37-.22-.26-.37-.59-.37-.92s.15-.66.37-.92c.48-.48,1.36-.48,1.83,0,.22.26.37.59.37.92s-.15.66-.37.92c-.25.22-.58.37-.92.37Z" style="fill: #196268;"/>
          <path d="M46.56,17.09c-.33,0-.66-.14-.92-.37-.22-.26-.37-.59-.37-.92s.15-.66.37-.92c.48-.48,1.32-.48,1.83,0,.22.26.37.59.37.92s-.15.66-.37.92c-.25.22-.55.37-.92.37Z" style="fill: #196268;"/>
          <path d="M42.89,24.42c-.33,0-.66-.14-.92-.37-.22-.26-.37-.59-.37-.92s.15-.66.37-.92c.48-.48,1.36-.48,1.83,0,.22.26.37.59.37.92s-.15.66-.37.92c-.25.22-.58.37-.92.37Z" style="fill: #196268;"/>
          <path d="M5.29,58.36c-.33,0-.66-.14-.92-.37-.22-.26-.37-.59-.37-.92s.15-.66.37-.92c.48-.48,1.36-.48,1.83,0,.22.26.37.59.37.92s-.15.66-.37.92c-.25.22-.58.37-.92.37Z" style="fill: #196268;"/>
          <path d="M49.31,42.77c-.33,0-.66-.14-.92-.37-.22-.26-.37-.59-.37-.92s.15-.66.37-.92c.55-.48,1.32-.48,1.8,0,.26.26.41.59.41.92s-.15.66-.37.92c-.25.22-.58.37-.92.37Z" style="fill: #196268;"/>
          <path d="M20.88,18c-.33,0-.66-.14-.92-.37-.22-.26-.37-.59-.37-.92,0-.37.15-.7.41-.92.44-.48,1.28-.48,1.79,0,.22.22.37.55.37.92,0,.33-.15.66-.37.92-.25.22-.58.37-.92.37Z" style="fill: #196268;"/>
          <path d="M28.22,6.08c-.33,0-.66-.14-.92-.37-.22-.26-.37-.59-.37-.92s.11-.66.37-.92c.48-.48,1.32-.48,1.83,0,.22.26.37.59.37.92s-.15.66-.37.92c-.25.22-.55.37-.92.37Z" style="fill: #196268;"/>
          <path d="M64.91,48.27c-.33,0-.66-.14-.92-.4-.22-.22-.37-.55-.37-.88s.15-.66.37-.92c.52-.48,1.32-.48,1.83,0,.22.26.37.55.37.92s-.15.7-.41.92c-.22.22-.55.37-.88.37Z" style="fill: #196268;"/>
          <path d="M27.3,56.52c-.33,0-.66-.14-.92-.37-.22-.26-.37-.59-.37-.92s.15-.66.37-.92c.52-.48,1.32-.48,1.83,0,.22.26.37.59.37.92s-.15.66-.37.92c-.25.22-.58.37-.92.37Z" style="fill: #196268;"/>
          <path d="M67.66,13.6c-.62,0-1.25-.26-1.69-.7-.44-.44-.69-1.06-.69-1.69s.25-1.25.69-1.69c.85-.88,2.53-.88,3.38,0,.44.41.7,1.03.7,1.69s-.26,1.25-.73,1.69c-.4.44-1.03.7-1.65.7Z" style="fill: #196268;"/>
          <path d="M38.31,68.63c-.62,0-1.25-.26-1.69-.7-.44-.48-.69-1.06-.69-1.69s.25-1.25.69-1.69c.88-.88,2.5-.88,3.38,0,.44.44.7,1.06.7,1.69s-.26,1.21-.7,1.69c-.44.44-1.06.7-1.69.7Z" style="fill: #196268;"/>
          <path d="M54.82,31.95c-.62,0-1.25-.26-1.69-.7-.44-.44-.69-1.06-.69-1.69s.25-1.25.69-1.69c.88-.88,2.5-.88,3.38,0,.44.44.7,1.06.7,1.69s-.26,1.21-.7,1.69c-.44.44-1.06.7-1.69.7Z" style="fill: #196268;"/>
          <path d="M17.21,42.95c-.62,0-1.25-.26-1.69-.7-.44-.48-.69-1.06-.69-1.69s.25-1.25.69-1.69c.88-.88,2.5-.88,3.38,0,.44.44.7,1.06.7,1.69s-.26,1.21-.7,1.69c-.44.44-1.06.7-1.69.7Z" style="fill: #196268;"/>
          <path d="M-2.05,30.11c-.62,0-1.25-.26-1.69-.7-.44-.44-.69-1.06-.69-1.69s.25-1.25.69-1.69c.92-.92,2.5-.88,3.38,0,.44.44.7,1.06.7,1.69s-.26,1.25-.7,1.69c-.44.44-1.06.7-1.69.7Z" style="fill: #196268;"/>
          <path d="M39.23,9.94c-.62,0-1.25-.26-1.69-.7-.44-.48-.69-1.06-.69-1.69s.25-1.25.69-1.69c.88-.88,2.46-.88,3.38,0,.44.44.7,1.06.7,1.69s-.26,1.21-.7,1.69c-.44.44-1.06.7-1.69.7Z" style="fill: #196268;"/>
          <path d="M10.94.17c-.33,0-.66-.14-.92-.37-.22-.26-.37-.59-.37-.92,0-.37.15-.7.41-.92.4-.44,1.32-.48,1.79,0,.22.26.37.59.37.92s-.15.66-.37.88c-.25.26-.58.4-.92.4Z" style="fill: #196268;"/>
          <path d="M-.06.17C-.39.17-.72.03-.98-.19c-.22-.26-.37-.59-.37-.92s.15-.66.37-.92c.52-.48,1.32-.48,1.8,0,.26.26.41.59.41.92s-.15.66-.37.92C.6.03.27.17-.06.17Z" style="fill: #196268;"/>
          <path d="M42.12,73.55c-.33,0-.66-.14-.92-.37-.22-.26-.37-.59-.37-.92s.15-.66.37-.92c.52-.48,1.32-.48,1.8,0,.26.26.41.59.41.92s-.15.66-.37.92c-.25.22-.58.37-.92.37Z" style="fill: #196268;"/>
          <path d="M19.2,39.61c-.33,0-.66-.14-.92-.37-.22-.26-.37-.59-.37-.92s.15-.66.37-.92c.52-.48,1.32-.48,1.8,0,.26.26.41.59.41.92s-.15.66-.37.92c-.25.22-.58.37-.92.37Z" style="fill: #196268;"/>
          <path d="M32.04,31.36c-.33,0-.66-.14-.88-.37-.26-.26-.41-.59-.41-.92,0-.37.15-.7.41-.92.44-.44,1.32-.48,1.79,0,.22.22.37.55.37.92,0,.33-.15.66-.37.92-.25.22-.58.37-.92.37Z" style="fill: #196268;"/>
          <path d="M20.11,12.1c-.33,0-.66-.14-.92-.37-.22-.26-.37-.59-.37-.92s.15-.66.37-.92c.48-.48,1.36-.48,1.83,0,.22.26.37.59.37.92s-.15.66-.37.92c-.25.22-.58.37-.92.37Z" style="fill: #196268;"/>
          <path d="M66.89,13.93c-.33,0-.66-.14-.92-.37-.22-.26-.37-.59-.37-.92s.15-.66.37-.92c.48-.48,1.32-.48,1.83,0,.22.26.37.59.37.92s-.15.66-.37.92c-.25.22-.55.37-.92.37Z" style="fill: #196268;"/>
          <path d="M63.22,21.27c-.33,0-.66-.14-.92-.37-.22-.26-.37-.59-.37-.92s.15-.66.37-.92c.48-.48,1.36-.48,1.83,0,.22.26.37.59.37.92s-.15.66-.37.92c-.25.22-.58.37-.92.37Z" style="fill: #196268;"/>
          <path d="M25.62,55.2c-.33,0-.66-.14-.92-.37-.22-.26-.37-.59-.37-.92s.15-.66.37-.92c.48-.48,1.36-.48,1.83,0,.22.26.37.59.37.92s-.15.66-.37.92c-.25.22-.58.37-.92.37Z" style="fill: #196268;"/>
          <path d="M.85,36.86c-.33,0-.66-.14-.92-.37-.22-.26-.37-.59-.37-.92s.15-.7.37-.92c.44-.44,1.32-.48,1.8,0,.26.26.41.59.41.92s-.15.66-.37.92c-.25.22-.58.37-.92.37Z" style="fill: #196268;"/>
          <path d="M69.64,39.61c-.33,0-.66-.14-.92-.37-.22-.26-.37-.59-.37-.92s.15-.66.37-.92c.55-.48,1.32-.48,1.8,0,.26.26.41.59.41.92s-.15.66-.37.92c-.25.22-.58.37-.92.37Z" style="fill: #196268;"/>
          <path d="M17.36,60.71c-.33,0-.66-.14-.92-.37-.22-.26-.37-.59-.37-.92s.15-.66.37-.92c.48-.48,1.32-.48,1.83,0,.22.26.37.59.37.92s-.15.66-.37.92c-.25.22-.58.37-.92.37Z" style="fill: #196268;"/>
          <path d="M41.21,14.85c-.33,0-.66-.14-.92-.37-.22-.26-.37-.59-.37-.92,0-.37.15-.7.41-.92.44-.48,1.28-.48,1.79,0,.22.22.37.55.37.92,0,.33-.15.66-.37.92-.25.22-.58.37-.92.37Z" style="fill: #196268;"/>
          <path d="M48.54,2.92c-.33,0-.66-.14-.92-.37-.22-.26-.37-.59-.37-.92s.11-.66.37-.92c.48-.48,1.32-.48,1.83,0,.22.26.37.59.37.92s-.15.66-.37.92c-.25.22-.55.37-.92.37Z" style="fill: #196268;"/>
          <path d="M47.63,53.37c-.33,0-.66-.14-.92-.37-.22-.26-.37-.59-.37-.92s.15-.66.37-.92c.52-.48,1.32-.48,1.83,0,.22.26.37.59.37.92s-.15.66-.37.92c-.25.22-.58.37-.92.37Z" style="fill: #196268;"/>
          <path d="M-.06,68.23c-.62,0-1.25-.26-1.69-.7-.44-.44-.69-1.06-.69-1.69,0-.66.25-1.25.69-1.69.85-.88,2.5-.92,3.38,0,.44.44.7,1.06.7,1.69s-.26,1.21-.7,1.69c-.44.44-1.02.7-1.69.7Z" style="fill: #196268;"/>
          <path d="M58.63,65.48c-.62,0-1.25-.26-1.69-.7-.44-.48-.69-1.06-.69-1.69s.25-1.25.69-1.69c.88-.88,2.5-.88,3.38,0,.44.44.7,1.06.7,1.69s-.26,1.21-.7,1.69c-.44.44-1.06.7-1.69.7Z" style="fill: #196268;"/>
          <path d="M3.6,55.39c-.62,0-1.25-.26-1.69-.7-.44-.44-.69-1.03-.69-1.69s.25-1.25.69-1.69c.88-.88,2.46-.88,3.38,0,.44.44.7,1.06.7,1.69s-.26,1.25-.7,1.69c-.44.44-1.06.7-1.69.7Z" style="fill: #196268;"/>
          <path d="M10.94,8.61c-.62,0-1.25-.26-1.69-.7-.44-.48-.69-1.06-.69-1.69s.25-1.25.69-1.69c.85-.88,2.5-.92,3.38,0,.44.44.7,1.03.7,1.69,0,.62-.26,1.25-.7,1.69-.44.44-1.06.7-1.69.7Z" style="fill: #196268;"/>
          <path d="M37.54,39.8c-.62,0-1.25-.26-1.69-.7-.44-.48-.69-1.06-.69-1.69s.25-1.25.69-1.69c.88-.88,2.5-.88,3.38,0,.44.44.7,1.06.7,1.69s-.26,1.21-.7,1.69c-.44.44-1.06.7-1.69.7Z" style="fill: #196268;"/>
          <path d="M18.28,26.96c-.62,0-1.25-.26-1.69-.7-.44-.44-.69-1.06-.69-1.69s.25-1.25.69-1.69c.92-.92,2.5-.88,3.38,0,.44.44.7,1.06.7,1.69s-.26,1.25-.7,1.69c-.44.44-1.06.7-1.69.7Z" style="fill: #196268;"/>
          <path d="M59.55,6.78c-.62,0-1.25-.26-1.69-.7-.44-.48-.69-1.06-.69-1.69s.25-1.25.69-1.69c.88-.88,2.46-.88,3.38,0,.44.44.7,1.06.7,1.69s-.26,1.21-.7,1.69c-.44.44-1.06.7-1.69.7Z" style="fill: #196268;"/>
          <path d="M11.62,13.33c-.33,0-.66-.14-.92-.37-.22-.26-.37-.59-.37-.92,0-.37.15-.7.41-.92.4-.44,1.32-.48,1.79,0,.22.26.37.59.37.92s-.15.66-.37.88c-.25.26-.58.4-.92.4Z" style="fill: #196268;"/>
          <path d="M36.38,8.74c-.33,0-.66-.14-.92-.37-.22-.26-.37-.59-.37-.92s.15-.66.37-.92c.52-.48,1.32-.48,1.8,0,.26.26.41.59.41.92s-.15.66-.37.92c-.25.22-.58.37-.92.37Z" style="fill: #196268;"/>
          <path d="M.61,13.33c-.33,0-.66-.14-.92-.37-.22-.26-.37-.59-.37-.92s.15-.66.37-.92c.52-.48,1.32-.48,1.8,0,.26.26.41.59.41.92s-.15.66-.37.92c-.25.22-.58.37-.92.37Z" style="fill: #196268;"/>
          <path d="M7.03,2.32c-.33,0-.66-.14-.92-.37-.22-.26-.37-.59-.37-.92s.15-.66.37-.92c.52-.48,1.32-.48,1.83,0,.22.26.37.59.37.92s-.15.66-.37.92c-.25.22-.58.37-.92.37Z" style="fill: #196268;"/>
          <path d="M66.65,5.08c-.33,0-.66-.14-.92-.37-.22-.26-.37-.59-.37-.92s.15-.66.37-.92c.48-.48,1.36-.48,1.83,0,.22.26.37.59.37.92s-.15.66-.37.92c-.25.22-.58.37-.92.37Z" style="fill: #196268;"/>
          <path d="M19.87,52.77c-.33,0-.66-.14-.92-.37-.22-.26-.37-.59-.37-.92s.15-.66.37-.92c.52-.48,1.32-.48,1.8,0,.26.26.41.59.41.92s-.15.66-.37.92c-.25.22-.58.37-.92.37Z" style="fill: #196268;"/>
          <path d="M32.71,44.51c-.33,0-.66-.14-.88-.37-.26-.26-.41-.59-.41-.92,0-.37.15-.7.41-.92.44-.44,1.32-.48,1.79,0,.22.22.37.55.37.92,0,.33-.15.66-.37.92-.25.22-.58.37-.92.37Z" style="fill: #196268;"/>
          <path d="M20.79,25.25c-.33,0-.66-.14-.92-.37-.22-.26-.37-.59-.37-.92s.15-.66.37-.92c.48-.48,1.36-.48,1.83,0,.22.26.37.59.37.92s-.15.66-.37.92c-.25.22-.58.37-.92.37Z" style="fill: #196268;"/>
          <path d="M67.56,27.09c-.33,0-.66-.14-.92-.37-.22-.26-.37-.59-.37-.92s.15-.66.37-.92c.48-.48,1.32-.48,1.83,0,.22.26.37.59.37.92s-.15.66-.37.92c-.25.22-.55.37-.92.37Z" style="fill: #196268;"/>
          <path d="M63.89,34.42c-.33,0-.66-.14-.92-.37-.22-.26-.37-.59-.37-.92s.15-.66.37-.92c.48-.48,1.36-.48,1.83,0,.22.26.37.59.37.92s-.15.66-.37.92c-.25.22-.58.37-.92.37Z" style="fill: #196268;"/>
          <path d="M26.29,68.36c-.33,0-.66-.14-.92-.37-.22-.26-.37-.59-.37-.92s.15-.66.37-.92c.48-.48,1.36-.48,1.83,0,.22.26.37.59.37.92s-.15.66-.37.92c-.25.22-.58.37-.92.37Z" style="fill: #196268;"/>
          <path d="M1.53,50.02c-.33,0-.66-.14-.92-.37-.22-.26-.37-.59-.37-.92s.15-.7.37-.92c.44-.44,1.32-.48,1.8,0,.26.26.41.59.41.92s-.15.66-.37.92c-.25.22-.58.37-.92.37Z" style="fill: #196268;"/>
          <path d="M70.31,52.77c-.33,0-.66-.14-.92-.37-.22-.26-.37-.59-.37-.92s.15-.66.37-.92c.55-.48,1.32-.48,1.8,0,.26.26.41.59.41.92s-.15.66-.37.92c-.25.22-.58.37-.92.37Z" style="fill: #196268;"/>
          <path d="M-1.22,27.09c-.33,0-.66-.14-.92-.37-.22-.26-.37-.59-.37-.92,0-.37.15-.7.41-.92.48-.48,1.28-.48,1.79,0,.22.22.37.55.37.92,0,.33-.15.66-.37.92-.25.22-.58.37-.92.37Z" style="fill: #196268;"/>
          <path d="M18.04,73.86c-.33,0-.66-.14-.92-.37-.22-.26-.37-.59-.37-.92s.15-.66.37-.92c.48-.48,1.32-.48,1.83,0,.22.26.37.59.37.92s-.15.66-.37.92c-.25.22-.58.37-.92.37Z" style="fill: #196268;"/>
          <path d="M41.88,28c-.33,0-.66-.14-.92-.37-.22-.26-.37-.59-.37-.92,0-.37.15-.7.41-.92.44-.48,1.28-.48,1.79,0,.22.22.37.55.37.92,0,.33-.15.66-.37.92-.25.22-.58.37-.92.37Z" style="fill: #196268;"/>
          <path d="M49.22,16.08c-.33,0-.66-.14-.92-.37-.22-.26-.37-.59-.37-.92s.11-.66.37-.92c.48-.48,1.32-.48,1.83,0,.22.26.37.59.37.92s-.15.66-.37.92c-.25.22-.55.37-.92.37Z" style="fill: #196268;"/>
          <path d="M48.3,66.52c-.33,0-.66-.14-.92-.37-.22-.26-.37-.59-.37-.92s.15-.66.37-.92c.52-.48,1.32-.48,1.83,0,.22.26.37.59.37.92s-.15.66-.37.92c-.25.22-.58.37-.92.37Z" style="fill: #196268;"/>
          <path d="M16.2,5.26c-.62,0-1.25-.26-1.69-.7-.44-.48-.69-1.06-.69-1.69s.25-1.25.69-1.69c.85-.88,2.5-.88,3.38,0,.44.44.7,1.06.7,1.69s-.26,1.21-.7,1.69c-.44.44-1.06.7-1.69.7Z" style="fill: #196268;"/>
          <path d="M52.89.68c-.66,0-1.25-.26-1.69-.7-.44-.44-.69-1.06-.69-1.69s.25-1.25.69-1.69c.88-.88,2.5-.88,3.38,0,.44.44.7,1.03.7,1.69s-.26,1.25-.7,1.69c-.44.44-1.02.7-1.69.7Z" style="fill: #196268;"/>
          <path d="M4.28,68.55c-.62,0-1.25-.26-1.69-.7-.44-.44-.69-1.03-.69-1.69s.25-1.25.69-1.69c.88-.88,2.46-.88,3.38,0,.44.44.7,1.06.7,1.69s-.26,1.25-.7,1.69c-.44.44-1.06.7-1.69.7Z" style="fill: #196268;"/>
          <path d="M11.62,21.77c-.62,0-1.25-.26-1.69-.7-.44-.48-.69-1.06-.69-1.69s.25-1.25.69-1.69c.85-.88,2.5-.92,3.38,0,.44.44.7,1.03.7,1.69,0,.62-.26,1.25-.7,1.69-.44.44-1.06.7-1.69.7Z" style="fill: #196268;"/>
          <path d="M38.21,52.95c-.62,0-1.25-.26-1.69-.7-.44-.48-.69-1.06-.69-1.69s.25-1.25.69-1.69c.88-.88,2.5-.88,3.38,0,.44.44.7,1.06.7,1.69s-.26,1.21-.7,1.69c-.44.44-1.06.7-1.69.7Z" style="fill: #196268;"/>
          <path d="M18.95,40.11c-.62,0-1.25-.26-1.69-.7-.44-.44-.69-1.06-.69-1.69s.25-1.25.69-1.69c.92-.92,2.5-.88,3.38,0,.44.44.7,1.06.7,1.69s-.26,1.25-.7,1.69c-.44.44-1.06.7-1.69.7Z" style="fill: #196268;"/>
          <path d="M60.23,19.94c-.62,0-1.25-.26-1.69-.7-.44-.48-.69-1.06-.69-1.69s.25-1.25.69-1.69c.88-.88,2.46-.88,3.38,0,.44.44.7,1.06.7,1.69s-.26,1.21-.7,1.69c-.44.44-1.06.7-1.69.7Z" style="fill: #196268;"/>
          <path d="M31.94,10.17c-.33,0-.66-.14-.92-.37-.22-.26-.37-.59-.37-.92,0-.37.15-.7.41-.92.4-.44,1.32-.48,1.79,0,.22.26.37.59.37.92s-.15.66-.37.88c-.25.26-.58.4-.92.4Z" style="fill: #196268;"/>
          <path d="M56.7,5.59c-.33,0-.66-.14-.92-.37-.22-.26-.37-.59-.37-.92s.15-.66.37-.92c.52-.48,1.32-.48,1.8,0,.26.26.41.59.41.92s-.15.66-.37.92c-.25.22-.58.37-.92.37Z" style="fill: #196268;"/>
          <path d="M20.94,10.17c-.33,0-.66-.14-.92-.37-.22-.26-.37-.59-.37-.92s.15-.66.37-.92c.52-.48,1.32-.48,1.8,0,.26.26.41.59.41.92s-.15.66-.37.92c-.25.22-.58.37-.92.37Z" style="fill: #196268;"/>
          <path d="M40.2,49.61c-.33,0-.66-.14-.92-.37-.22-.26-.37-.59-.37-.92s.15-.66.37-.92c.52-.48,1.32-.48,1.8,0,.26.26.41.59.41.92s-.15.66-.37.92c-.25.22-.58.37-.92.37Z" style="fill: #196268;"/>
          <path d="M53.04,41.36c-.33,0-.66-.14-.88-.37-.26-.26-.41-.59-.41-.92,0-.37.15-.7.41-.92.44-.44,1.32-.48,1.79,0,.22.22.37.55.37.92,0,.33-.15.66-.37.92-.25.22-.58.37-.92.37Z" style="fill: #196268;"/>
          <path d="M6.26,65.2c-.33,0-.66-.14-.92-.37-.22-.26-.37-.59-.37-.92,0-.37.15-.7.41-.92.48-.48,1.32-.48,1.79,0,.22.22.37.55.37.92,0,.33-.15.66-.37.92-.25.22-.55.37-.92.37Z" style="fill: #196268;"/>
          <path d="M41.11,22.1c-.33,0-.66-.14-.92-.37-.22-.26-.37-.59-.37-.92s.15-.66.37-.92c.48-.48,1.36-.48,1.83,0,.22.26.37.59.37.92s-.15.66-.37.92c-.25.22-.58.37-.92.37Z" style="fill: #196268;"/>
          <path d="M46.62,65.2c-.33,0-.66-.14-.92-.37-.22-.26-.37-.59-.37-.92s.15-.66.37-.92c.48-.48,1.36-.48,1.83,0,.22.26.37.59.37.92s-.15.66-.37.92c-.25.22-.58.37-.92.37Z" style="fill: #196268;"/>
          <path d="M21.85,46.86c-.33,0-.66-.14-.92-.37-.22-.26-.37-.59-.37-.92s.15-.7.37-.92c.44-.44,1.32-.48,1.8,0,.26.26.41.59.41.92s-.15.66-.37.92c-.25.22-.58.37-.92.37Z" style="fill: #196268;"/>
          <path d="M16.35,8.34c-.33,0-.66-.14-.92-.37-.22-.26-.37-.59-.37-.92s.15-.7.37-.92c.44-.44,1.32-.48,1.8,0,.26.26.41.59.41.92s-.15.66-.37.92c-.25.22-.58.37-.92.37Z" style="fill: #196268;"/>
          <path d="M2.59,27.6c-.33,0-.66-.14-.92-.37-.22-.26-.37-.59-.37-.92s.15-.66.37-.92c.44-.44,1.32-.48,1.83,0,.22.26.37.59.37.92s-.15.66-.37.92c-.25.22-.58.37-.92.37Z" style="fill: #196268;"/>
          <path d="M19.1,23.93c-.33,0-.66-.14-.92-.37-.22-.26-.37-.59-.37-.92,0-.37.15-.7.41-.92.48-.48,1.28-.48,1.79,0,.22.22.37.55.37.92,0,.33-.15.66-.37.92-.25.22-.58.37-.92.37Z" style="fill: #196268;"/>
          <path d="M8.1,41.36c-.33,0-.66-.14-.92-.37-.22-.26-.37-.59-.37-.92s.15-.66.37-.92c.52-.48,1.32-.48,1.83,0,.22.26.37.59.37.92s-.15.66-.37.92c-.25.22-.58.37-.92.37Z" style="fill: #196268;"/>
          <path d="M2.59,54.2c-.33,0-.66-.14-.92-.37-.22-.26-.37-.59-.37-.92,0-.37.15-.7.41-.92.4-.44,1.28-.48,1.79,0,.22.22.37.55.37.92,0,.33-.15.66-.37.92-.25.22-.55.37-.92.37Z" style="fill: #196268;"/>
          <path d="M38.36,70.71c-.33,0-.66-.14-.92-.37-.22-.26-.37-.59-.37-.92s.15-.66.37-.92c.48-.48,1.32-.48,1.83,0,.22.26.37.59.37.92s-.15.66-.37.92c-.25.22-.58.37-.92.37Z" style="fill: #196268;"/>
          <path d="M62.21,24.85c-.33,0-.66-.14-.92-.37-.22-.26-.37-.59-.37-.92,0-.37.15-.7.41-.92.44-.48,1.28-.48,1.79,0,.22.22.37.55.37.92,0,.33-.15.66-.37.92-.25.22-.58.37-.92.37Z" style="fill: #196268;"/>
          <path d="M69.54,12.92c-.33,0-.66-.14-.92-.37-.22-.26-.37-.59-.37-.92s.11-.66.37-.92c.48-.48,1.32-.48,1.83,0,.22.26.37.59.37.92s-.15.66-.37.92c-.25.22-.55.37-.92.37Z" style="fill: #196268;"/>
          <path d="M68.63,63.37c-.33,0-.66-.14-.92-.37-.22-.26-.37-.59-.37-.92s.15-.66.37-.92c.52-.48,1.32-.48,1.83,0,.22.26.37.59.37.92s-.15.66-.37.92c-.25.22-.58.37-.92.37Z" style="fill: #196268;"/>
          <path d="M36.53,2.11c-.62,0-1.25-.26-1.69-.7-.44-.48-.69-1.06-.69-1.69s.25-1.25.69-1.69c.85-.88,2.5-.88,3.38,0,.44.44.7,1.06.7,1.69s-.26,1.21-.7,1.69c-.44.44-1.06.7-1.69.7Z" style="fill: #196268;"/>
          <path d="M6.26,16.78c-.62,0-1.25-.26-1.69-.7-.44-.44-.69-1.06-.69-1.69s.25-1.25.69-1.69c.92-.88,2.5-.88,3.38,0,.44.44.7,1.06.7,1.69s-.26,1.25-.7,1.69c-.44.44-1.02.7-1.69.7Z" style="fill: #196268;"/>
          <path d="M24.6,65.39c-.62,0-1.25-.26-1.69-.7-.44-.44-.69-1.03-.69-1.69s.25-1.25.69-1.69c.88-.88,2.46-.88,3.38,0,.44.44.7,1.06.7,1.69s-.26,1.25-.7,1.69c-.44.44-1.06.7-1.69.7Z" style="fill: #196268;"/>
          <path d="M31.94,18.61c-.62,0-1.25-.26-1.69-.7-.44-.48-.69-1.06-.69-1.69s.25-1.25.69-1.69c.85-.88,2.5-.92,3.38,0,.44.44.7,1.03.7,1.69,0,.62-.26,1.25-.7,1.69-.44.44-1.06.7-1.69.7Z" style="fill: #196268;"/>
          <path d="M58.54,49.8c-.62,0-1.25-.26-1.69-.7-.44-.48-.69-1.06-.69-1.69s.25-1.25.69-1.69c.88-.88,2.5-.88,3.38,0,.44.44.7,1.06.7,1.69s-.26,1.21-.7,1.69c-.44.44-1.06.7-1.69.7Z" style="fill: #196268;"/>
          <path d="M39.28,36.96c-.62,0-1.25-.26-1.69-.7-.44-.44-.69-1.06-.69-1.69s.25-1.25.69-1.69c.92-.92,2.5-.88,3.38,0,.44.44.7,1.06.7,1.69s-.26,1.25-.7,1.69c-.44.44-1.06.7-1.69.7Z" style="fill: #196268;"/>
        </g>
        <path d="M.24,10.67c-.33,0-.66-.14-.92-.37-.25-.26-.37-.59-.37-.92s.15-.66.37-.88c.55-.55,1.32-.52,1.8-.04.26.26.41.59.41.92s-.15.66-.37.92c-.25.22-.58.37-.92.37Z" style="fill: #196268;"/>
        <g>
          <path d="M42.12,1.54c-.33,0-.66-.14-.92-.37-.22-.26-.37-.59-.37-.92s.15-.66.37-.92c.52-.48,1.32-.48,1.8,0,.26.26.41.59.41.92s-.15.66-.37.92c-.25.22-.58.37-.92.37Z" style="fill: #196268;"/>
          <path d="M18.04,1.86c-.33,0-.66-.14-.92-.37-.22-.26-.37-.59-.37-.92s.15-.66.37-.92c.48-.48,1.32-.48,1.83,0,.22.26.37.59.37.92s-.15.66-.37.92c-.25.22-.58.37-.92.37Z" style="fill: #196268;"/>
        </g>
      </g>
    </pattern>
  </defs>
  <g id="illu_cylindre_motif" data-name="illu cylindre motif">
    <g id="layers">
      <g id="sous_terre" data-name="sous terre">
        <path d="M1930,107.07v388.83s0,107.07-965,107.07S0,495.9,0,495.9V107.07S0,0,965,0s965,107.07,965,107.07Z" style="fill: url(#Nouvelle_nuance_de_motif_9);"/>
        <path d="M1930,107.07v388.83s0,107.07-965,107.07S0,495.9,0,495.9V107.07S0,0,965,0s965,107.07,965,107.07Z" style="fill: url(#_3bleu-vert);"/>
      </g>
    </g>
  </g>
</svg>