<?xml version="1.0" encoding="UTF-8"?>
<svg id="Calque_2" data-name="Calque 2" xmlns="http://www.w3.org/2000/svg" xmlns:xlink="http://www.w3.org/1999/xlink" viewBox="0 0 1930 1355.66">
  <defs>
    <pattern id="Nouvelle_nuance_de_motif_11" data-name="Nouvelle nuance de motif 11" x="0" y="0" width="188.25" height="188.25" patternTransform="translate(-864.21 -758.98)" patternUnits="userSpaceOnUse" viewBox="0 0 188.25 188.25">
      <g>
        <rect width="188.25" height="188.25" style="fill: none;"/>
        <rect x="175.79" y="175.79" width="213.18" height="213.18" style="fill: #30566b;"/>
        <rect x="-12.46" y="175.79" width="213.18" height="213.18" style="fill: #30566b;"/>
        <rect x="-200.71" y="175.79" width="213.18" height="213.18" style="fill: #30566b;"/>
        <rect x="175.79" y="-12.46" width="213.18" height="213.18" style="fill: #30566b;"/>
        <rect x="-12.46" y="-12.46" width="213.18" height="213.18" style="fill: #30566b;"/>
        <rect x="-200.71" y="-12.46" width="213.18" height="213.18" style="fill: #30566b;"/>
        <rect x="175.79" y="-200.71" width="213.18" height="213.18" style="fill: #30566b;"/>
        <rect x="-12.46" y="-200.71" width="213.18" height="213.18" style="fill: #30566b;"/>
        <rect x="-200.71" y="-200.71" width="213.18" height="213.18" style="fill: #30566b;"/>
      </g>
    </pattern>
    <pattern id="_5bleufoncé" data-name="5bleufoncé" x="0" y="0" width="72.2" height="71.54" patternTransform="translate(3143.67 -1901.02)" patternUnits="userSpaceOnUse" viewBox="0 0 72.2 71.54">
      <g>
        <rect width="72.2" height="71.54" style="fill: none;"/>
        <g>
          <path d="M67.77,73.7c-.37,0-.74-.16-1.02-.45-.24-.25-.41-.62-.41-.98s.16-.74.41-1.02c.54-.54,1.48-.54,2.05,0,.25.29.41.66.41,1.02s-.16.74-.41,1.02c-.28.25-.65.41-1.02.41Z" style="fill: #082738;"/>
          <path d="M11.41,35.78c-.37,0-.74-.16-.98-.41-.29-.29-.45-.66-.45-1.02,0-.41.16-.78.45-1.02.49-.49,1.47-.54,2.01,0,.25.25.41.62.41,1.02,0,.37-.16.74-.41,1.02-.28.25-.65.41-1.02.41Z" style="fill: #082738;"/>
          <path d="M50.35,16.31c-.37,0-.74-.16-1.02-.41-.24-.29-.41-.66-.41-1.02s.16-.74.41-1.02c.54-.54,1.48-.54,2.05,0,.25.29.41.66.41,1.02s-.16.74-.41,1.02c-.28.25-.61.41-1.02.41Z" style="fill: #082738;"/>
          <path d="M46.25,24.51c-.37,0-.74-.16-1.02-.41-.24-.29-.41-.66-.41-1.02s.16-.74.41-1.02c.54-.54,1.52-.54,2.05,0,.25.29.41.66.41,1.02s-.16.74-.41,1.02c-.28.25-.65.41-1.02.41Z" style="fill: #082738;"/>
          <path d="M4.23,62.43c-.37,0-.74-.16-1.02-.41-.24-.29-.41-.66-.41-1.02s.16-.74.41-1.02c.54-.54,1.52-.54,2.05,0,.25.29.41.66.41,1.02s-.16.74-.41,1.02c-.28.25-.65.41-1.02.41Z" style="fill: #082738;"/>
          <path d="M53.42,45.01c-.37,0-.74-.16-1.02-.41-.24-.29-.41-.66-.41-1.02s.16-.74.41-1.02c.62-.54,1.48-.54,2.01,0,.29.29.45.66.45,1.02s-.16.74-.41,1.02c-.28.25-.65.41-1.02.41Z" style="fill: #082738;"/>
          <path d="M21.65,17.34c-.37,0-.74-.16-1.02-.41-.24-.29-.41-.66-.41-1.02,0-.41.16-.78.45-1.02.49-.54,1.43-.54,2.01,0,.25.25.41.62.41,1.02,0,.37-.16.74-.41,1.02-.28.25-.65.41-1.02.41Z" style="fill: #082738;"/>
          <path d="M29.85,4.01c-.37,0-.74-.16-1.02-.41-.24-.29-.41-.66-.41-1.02s.12-.74.41-1.02c.54-.54,1.48-.54,2.05,0,.25.29.41.66.41,1.02s-.16.74-.41,1.02c-.28.25-.61.41-1.02.41Z" style="fill: #082738;"/>
          <path d="M70.84,51.15c-.37,0-.74-.16-1.02-.45-.24-.25-.41-.62-.41-.98s.16-.74.41-1.02c.58-.54,1.48-.54,2.05,0,.25.29.41.62.41,1.02s-.16.78-.45,1.02c-.24.25-.61.41-.98.41Z" style="fill: #082738;"/>
          <path d="M28.83,60.38c-.37,0-.74-.16-1.02-.41-.24-.29-.41-.66-.41-1.02s.16-.74.41-1.02c.58-.54,1.48-.54,2.05,0,.25.29.41.66.41,1.02s-.16.74-.41,1.02c-.28.25-.65.41-1.02.41Z" style="fill: #082738;"/>
          <path d="M73.92,12.42c-.7,0-1.39-.29-1.89-.78-.49-.49-.78-1.19-.78-1.89s.28-1.39.78-1.89c.94-.98,2.83-.98,3.77,0,.49.45.78,1.15.78,1.89s-.29,1.39-.82,1.89c-.45.49-1.15.78-1.85.78Z" style="fill: #082738;"/>
          <path d="M41.12,73.91c-.7,0-1.39-.29-1.89-.78-.49-.53-.78-1.19-.78-1.89s.28-1.39.78-1.89c.99-.98,2.79-.98,3.77,0,.49.49.78,1.19.78,1.89s-.29,1.35-.78,1.89c-.49.49-1.19.78-1.89.78Z" style="fill: #082738;"/>
          <path d="M59.57,32.92c-.7,0-1.39-.29-1.89-.78-.49-.49-.78-1.19-.78-1.89s.28-1.39.78-1.89c.99-.98,2.79-.98,3.77,0,.49.49.78,1.19.78,1.89s-.29,1.35-.78,1.89c-.49.49-1.19.78-1.89.78Z" style="fill: #082738;"/>
          <path d="M17.55,45.21c-.7,0-1.39-.29-1.89-.78-.49-.53-.78-1.19-.78-1.89s.28-1.39.78-1.89c.99-.98,2.79-.98,3.77,0,.49.49.78,1.19.78,1.89s-.29,1.35-.78,1.89c-.49.49-1.19.78-1.89.78Z" style="fill: #082738;"/>
          <path d="M42.15,8.32c-.7,0-1.39-.29-1.89-.78-.49-.53-.78-1.19-.78-1.89s.28-1.39.78-1.89c.99-.98,2.75-.98,3.77,0,.49.49.78,1.19.78,1.89s-.29,1.35-.78,1.89c-.49.49-1.19.78-1.89.78Z" style="fill: #082738;"/>
        </g>
        <g>
          <path d="M-1.36,51.15c-.37,0-.74-.16-1.02-.45-.24-.25-.41-.62-.41-.98s.16-.74.41-1.02c.58-.54,1.48-.54,2.05,0,.25.29.41.62.41,1.02s-.16.78-.45,1.02c-.24.25-.61.41-.98.41Z" style="fill: #082738;"/>
          <path d="M1.72,12.42c-.7,0-1.39-.29-1.89-.78-.49-.49-.78-1.19-.78-1.89s.28-1.39.78-1.89c.94-.98,2.83-.98,3.77,0,.49.45.78,1.15.78,1.89s-.29,1.39-.82,1.89c-.45.49-1.15.78-1.85.78Z" style="fill: #082738;"/>
        </g>
        <g>
          <path d="M67.77,2.16c-.37,0-.74-.16-1.02-.45-.24-.25-.41-.62-.41-.98s.16-.74.41-1.02c.54-.54,1.48-.54,2.05,0,.25.29.41.66.41,1.02s-.16.74-.41,1.02c-.28.25-.65.41-1.02.41Z" style="fill: #082738;"/>
          <path d="M41.12,2.36c-.7,0-1.39-.29-1.89-.78-.49-.53-.78-1.19-.78-1.89s.28-1.39.78-1.89c.99-.98,2.79-.98,3.77,0,.49.49.78,1.19.78,1.89s-.29,1.35-.78,1.89c-.49.49-1.19.78-1.89.78Z" style="fill: #082738;"/>
        </g>
      </g>
    </pattern>
  </defs>
  <g id="illu_cylindre_motif" data-name="illu cylindre motif">
    <g id="layers">
      <g id="sous_terre" data-name="sous terre">
        <path d="M1930,1248.59V107.07S1930,0,965,0,0,107.07,0,107.07v1141.52s0,107.07,965,107.07,965-107.07,965-107.07Z" style="fill: url(#Nouvelle_nuance_de_motif_11);"/>
        <path d="M1930,1248.59V107.07S1930,0,965,0,0,107.07,0,107.07v1141.52s0,107.07,965,107.07,965-107.07,965-107.07Z" style="fill: url(#_5bleufoncé);"/>
      </g>
    </g>
  </g>
</svg>