<?xml version="1.0" encoding="UTF-8"?>
<svg id="Calque_2" data-name="Calque 2" xmlns="http://www.w3.org/2000/svg" xmlns:xlink="http://www.w3.org/1999/xlink" viewBox="0 0 1930 438.44">
  <defs>
    <clipPath id="clippath">
      <rect x="12.1" y="80.56" width="707.54" height="986.86" style="fill: none;"/>
    </clipPath>
    <clipPath id="clippath-1">
      <rect x="-176.15" y="80.56" width="707.54" height="986.86" style="fill: none;"/>
    </clipPath>
    <clipPath id="clippath-2">
      <rect x="-364.4" y="80.56" width="707.54" height="986.86" style="fill: none;"/>
    </clipPath>
    <clipPath id="clippath-3">
      <rect x="-552.65" y="80.56" width="707.54" height="986.86" style="fill: none;"/>
    </clipPath>
    <clipPath id="clippath-4">
      <rect x="12.1" y="-107.69" width="707.54" height="986.86" style="fill: none;"/>
    </clipPath>
    <clipPath id="clippath-5">
      <rect x="-176.15" y="-107.69" width="707.54" height="986.86" style="fill: none;"/>
    </clipPath>
    <clipPath id="clippath-6">
      <rect x="-364.4" y="-107.69" width="707.54" height="986.86" style="fill: none;"/>
    </clipPath>
    <clipPath id="clippath-7">
      <rect x="-552.65" y="-107.69" width="707.54" height="986.86" style="fill: none;"/>
    </clipPath>
    <clipPath id="clippath-8">
      <rect x="12.1" y="-295.94" width="707.54" height="986.86" style="fill: none;"/>
    </clipPath>
    <clipPath id="clippath-9">
      <rect x="-176.15" y="-295.94" width="707.54" height="986.86" style="fill: none;"/>
    </clipPath>
    <clipPath id="clippath-10">
      <rect x="-364.4" y="-295.94" width="707.54" height="986.86" style="fill: none;"/>
    </clipPath>
    <clipPath id="clippath-11">
      <rect x="-552.65" y="-295.94" width="707.54" height="986.86" style="fill: none;"/>
    </clipPath>
    <clipPath id="clippath-12">
      <rect x="12.1" y="-484.2" width="707.54" height="986.86" style="fill: none;"/>
    </clipPath>
    <clipPath id="clippath-13">
      <rect x="-176.15" y="-484.2" width="707.54" height="986.86" style="fill: none;"/>
    </clipPath>
    <clipPath id="clippath-14">
      <rect x="-364.4" y="-484.2" width="707.54" height="986.86" style="fill: none;"/>
    </clipPath>
    <clipPath id="clippath-15">
      <rect x="-552.65" y="-484.2" width="707.54" height="986.86" style="fill: none;"/>
    </clipPath>
    <clipPath id="clippath-16">
      <rect x="12.1" y="-672.45" width="707.54" height="986.86" style="fill: none;"/>
    </clipPath>
    <clipPath id="clippath-17">
      <rect x="-176.15" y="-672.45" width="707.54" height="986.86" style="fill: none;"/>
    </clipPath>
    <clipPath id="clippath-18">
      <rect x="-364.4" y="-672.45" width="707.54" height="986.86" style="fill: none;"/>
    </clipPath>
    <clipPath id="clippath-19">
      <rect x="-552.65" y="-672.45" width="707.54" height="986.86" style="fill: none;"/>
    </clipPath>
    <clipPath id="clippath-20">
      <rect x="12.1" y="-860.7" width="707.54" height="986.86" style="fill: none;"/>
    </clipPath>
    <clipPath id="clippath-21">
      <rect x="-176.15" y="-860.7" width="707.54" height="986.86" style="fill: none;"/>
    </clipPath>
    <clipPath id="clippath-22">
      <rect x="-364.4" y="-860.7" width="707.54" height="986.86" style="fill: none;"/>
    </clipPath>
    <clipPath id="clippath-23">
      <rect x="-552.65" y="-860.7" width="707.54" height="986.86" style="fill: none;"/>
    </clipPath>
    <pattern id="Nouvelle_nuance_de_motif_4" data-name="Nouvelle nuance de motif 4" x="0" y="0" width="188.25" height="188.25" patternTransform="translate(-864.21 -35.91)" patternUnits="userSpaceOnUse" viewBox="0 0 188.25 188.25">
      <g>
        <rect y="0" width="188.25" height="188.25" style="fill: none;"/>
        <g style="clip-path: url(#clippath);">
          <g>
            <rect x="66.15" y="50.98" width="346.56" height="244.03" style="fill: none;"/>
            <rect x="66.84" y="51.46" width="345.18" height="243.06" style="fill: #346e65;"/>
          </g>
          <g>
            <rect x="-280.41" y="50.98" width="346.56" height="244.03" style="fill: none;"/>
            <rect x="-279.72" y="51.46" width="345.18" height="243.06" style="fill: #346e65;"/>
          </g>
        </g>
        <g style="clip-path: url(#clippath-1);">
          <g>
            <rect x="-122.1" y="50.98" width="346.56" height="244.03" style="fill: none;"/>
            <rect x="-121.41" y="51.46" width="345.18" height="243.06" style="fill: #346e65;"/>
          </g>
        </g>
        <g style="clip-path: url(#clippath-2);">
          <g>
            <rect x="36.21" y="50.98" width="346.56" height="244.03" style="fill: none;"/>
            <rect x="36.9" y="51.46" width="345.18" height="243.06" style="fill: #346e65;"/>
          </g>
          <g>
            <rect x="-310.35" y="50.98" width="346.56" height="244.03" style="fill: none;"/>
            <rect x="-309.66" y="51.46" width="345.18" height="243.06" style="fill: #346e65;"/>
          </g>
        </g>
        <g style="clip-path: url(#clippath-3);">
          <g>
            <rect x="-152.04" y="50.98" width="346.56" height="244.03" style="fill: none;"/>
            <rect x="-151.35" y="51.46" width="345.18" height="243.06" style="fill: #346e65;"/>
          </g>
        </g>
        <g style="clip-path: url(#clippath-4);">
          <g>
            <rect x="66.15" y="-137.27" width="346.56" height="244.03" style="fill: none;"/>
            <rect x="66.84" y="-136.79" width="345.18" height="243.06" style="fill: #346e65;"/>
          </g>
          <g>
            <rect x="66.15" y="106.75" width="346.56" height="244.03" style="fill: none;"/>
            <rect x="66.84" y="107.24" width="345.18" height="243.06" style="fill: #346e65;"/>
          </g>
          <g>
            <rect x="-280.41" y="-137.27" width="346.56" height="244.03" style="fill: none;"/>
            <rect x="-279.72" y="-136.79" width="345.18" height="243.06" style="fill: #346e65;"/>
          </g>
          <g>
            <rect x="-280.41" y="106.75" width="346.56" height="244.03" style="fill: none;"/>
            <rect x="-279.72" y="107.24" width="345.18" height="243.06" style="fill: #346e65;"/>
          </g>
        </g>
        <g style="clip-path: url(#clippath-5);">
          <g>
            <rect x="224.46" y="-137.27" width="346.56" height="244.03" style="fill: none;"/>
            <rect x="225.15" y="-136.79" width="345.18" height="243.06" style="fill: #346e65;"/>
          </g>
          <g>
            <rect x="224.46" y="106.75" width="346.56" height="244.03" style="fill: none;"/>
            <rect x="225.15" y="107.24" width="345.18" height="243.06" style="fill: #346e65;"/>
          </g>
          <g>
            <rect x="224.46" y="350.78" width="346.56" height="244.03" style="fill: none;"/>
            <rect x="225.15" y="351.27" width="345.18" height="243.06" style="fill: #346e65;"/>
          </g>
          <g>
            <rect x="224.46" y="594.81" width="346.56" height="244.03" style="fill: none;"/>
            <rect x="225.15" y="595.3" width="345.18" height="243.06" style="fill: #346e65;"/>
          </g>
          <g>
            <rect x="224.46" y="838.84" width="346.56" height="244.03" style="fill: none;"/>
            <rect x="225.15" y="839.33" width="345.18" height="243.06" style="fill: #346e65;"/>
          </g>
          <g>
            <rect x="-122.1" y="-137.27" width="346.56" height="244.03" style="fill: none;"/>
            <rect x="-121.41" y="-136.79" width="345.18" height="243.06" style="fill: #346e65;"/>
          </g>
          <g>
            <rect x="-122.1" y="106.75" width="346.56" height="244.03" style="fill: none;"/>
            <rect x="-121.41" y="107.24" width="345.18" height="243.06" style="fill: #346e65;"/>
          </g>
          <g>
            <rect x="-122.1" y="350.78" width="346.56" height="244.03" style="fill: none;"/>
            <rect x="-121.41" y="351.27" width="345.18" height="243.06" style="fill: #346e65;"/>
          </g>
          <g>
            <rect x="-122.1" y="594.81" width="346.56" height="244.03" style="fill: none;"/>
            <rect x="-121.41" y="595.3" width="345.18" height="243.06" style="fill: #346e65;"/>
          </g>
          <g>
            <rect x="-122.1" y="838.84" width="346.56" height="244.03" style="fill: none;"/>
            <rect x="-121.41" y="839.33" width="345.18" height="243.06" style="fill: #346e65;"/>
          </g>
          <g>
            <rect x="-468.66" y="-137.27" width="346.56" height="244.03" style="fill: none;"/>
            <rect x="-467.97" y="-136.79" width="345.18" height="243.06" style="fill: #346e65;"/>
          </g>
          <g>
            <rect x="-468.66" y="106.75" width="346.56" height="244.03" style="fill: none;"/>
            <rect x="-467.97" y="107.24" width="345.18" height="243.06" style="fill: #346e65;"/>
          </g>
          <g>
            <rect x="-468.66" y="350.78" width="346.56" height="244.03" style="fill: none;"/>
            <rect x="-467.97" y="351.27" width="345.18" height="243.06" style="fill: #346e65;"/>
          </g>
          <g>
            <rect x="-468.66" y="594.81" width="346.56" height="244.03" style="fill: none;"/>
            <rect x="-467.97" y="595.3" width="345.18" height="243.06" style="fill: #346e65;"/>
          </g>
          <g>
            <rect x="-468.66" y="838.84" width="346.56" height="244.03" style="fill: none;"/>
            <rect x="-467.97" y="839.33" width="345.18" height="243.06" style="fill: #346e65;"/>
          </g>
        </g>
        <g style="clip-path: url(#clippath-6);">
          <g>
            <rect x="36.21" y="-137.27" width="346.56" height="244.03" style="fill: none;"/>
            <rect x="36.9" y="-136.79" width="345.18" height="243.06" style="fill: #346e65;"/>
          </g>
          <g>
            <rect x="36.21" y="106.75" width="346.56" height="244.03" style="fill: none;"/>
            <rect x="36.9" y="107.24" width="345.18" height="243.06" style="fill: #346e65;"/>
          </g>
          <g>
            <rect x="-310.35" y="-137.27" width="346.56" height="244.03" style="fill: none;"/>
            <rect x="-309.66" y="-136.79" width="345.18" height="243.06" style="fill: #346e65;"/>
          </g>
          <g>
            <rect x="-310.35" y="106.75" width="346.56" height="244.03" style="fill: none;"/>
            <rect x="-309.66" y="107.24" width="345.18" height="243.06" style="fill: #346e65;"/>
          </g>
        </g>
        <g style="clip-path: url(#clippath-7);">
          <g>
            <rect x="-152.04" y="-137.27" width="346.56" height="244.03" style="fill: none;"/>
            <rect x="-151.35" y="-136.79" width="345.18" height="243.06" style="fill: #346e65;"/>
          </g>
          <g>
            <rect x="-152.04" y="106.75" width="346.56" height="244.03" style="fill: none;"/>
            <rect x="-151.35" y="107.24" width="345.18" height="243.06" style="fill: #346e65;"/>
          </g>
        </g>
        <g style="clip-path: url(#clippath-8);">
          <g>
            <rect x="66.15" y="-81.5" width="346.56" height="244.03" style="fill: none;"/>
            <rect x="66.84" y="-81.01" width="345.18" height="243.06" style="fill: #346e65;"/>
          </g>
          <g>
            <rect x="66.15" y="162.53" width="346.56" height="244.03" style="fill: none;"/>
            <rect x="66.84" y="163.02" width="345.18" height="243.06" style="fill: #346e65;"/>
          </g>
          <g>
            <rect x="-280.41" y="-81.5" width="346.56" height="244.03" style="fill: none;"/>
            <rect x="-279.72" y="-81.01" width="345.18" height="243.06" style="fill: #346e65;"/>
          </g>
          <g>
            <rect x="-280.41" y="162.53" width="346.56" height="244.03" style="fill: none;"/>
            <rect x="-279.72" y="163.02" width="345.18" height="243.06" style="fill: #346e65;"/>
          </g>
        </g>
        <g style="clip-path: url(#clippath-9);">
          <g>
            <rect x="-122.1" y="-81.5" width="346.56" height="244.03" style="fill: none;"/>
            <rect x="-121.41" y="-81.01" width="345.18" height="243.06" style="fill: #346e65;"/>
          </g>
          <g>
            <rect x="-122.1" y="162.53" width="346.56" height="244.03" style="fill: none;"/>
            <rect x="-121.41" y="163.02" width="345.18" height="243.06" style="fill: #346e65;"/>
          </g>
        </g>
        <g style="clip-path: url(#clippath-10);">
          <g>
            <rect x="36.21" y="-81.5" width="346.56" height="244.03" style="fill: none;"/>
            <rect x="36.9" y="-81.01" width="345.18" height="243.06" style="fill: #346e65;"/>
          </g>
          <g>
            <rect x="36.21" y="162.53" width="346.56" height="244.03" style="fill: none;"/>
            <rect x="36.9" y="163.02" width="345.18" height="243.06" style="fill: #346e65;"/>
          </g>
          <g>
            <rect x="-310.35" y="-81.5" width="346.56" height="244.03" style="fill: none;"/>
            <rect x="-309.66" y="-81.01" width="345.18" height="243.06" style="fill: #346e65;"/>
          </g>
          <g>
            <rect x="-310.35" y="162.53" width="346.56" height="244.03" style="fill: none;"/>
            <rect x="-309.66" y="163.02" width="345.18" height="243.06" style="fill: #346e65;"/>
          </g>
        </g>
        <g style="clip-path: url(#clippath-11);">
          <g>
            <rect x="-152.04" y="-81.5" width="346.56" height="244.03" style="fill: none;"/>
            <rect x="-151.35" y="-81.01" width="345.18" height="243.06" style="fill: #346e65;"/>
          </g>
          <g>
            <rect x="-152.04" y="162.53" width="346.56" height="244.03" style="fill: none;"/>
            <rect x="-151.35" y="163.02" width="345.18" height="243.06" style="fill: #346e65;"/>
          </g>
        </g>
        <g style="clip-path: url(#clippath-12);">
          <g>
            <rect x="66.15" y="-25.72" width="346.56" height="244.03" style="fill: none;"/>
            <rect x="66.84" y="-25.23" width="345.18" height="243.06" style="fill: #346e65;"/>
          </g>
          <g>
            <rect x="-280.41" y="-25.72" width="346.56" height="244.03" style="fill: none;"/>
            <rect x="-279.72" y="-25.23" width="345.18" height="243.06" style="fill: #346e65;"/>
          </g>
        </g>
        <g style="clip-path: url(#clippath-13);">
          <g>
            <rect x="-122.1" y="-25.72" width="346.56" height="244.03" style="fill: none;"/>
            <rect x="-121.41" y="-25.23" width="345.18" height="243.06" style="fill: #346e65;"/>
          </g>
        </g>
        <g style="clip-path: url(#clippath-14);">
          <g>
            <rect x="36.21" y="-25.72" width="346.56" height="244.03" style="fill: none;"/>
            <rect x="36.9" y="-25.23" width="345.18" height="243.06" style="fill: #346e65;"/>
          </g>
          <g>
            <rect x="-310.35" y="-25.72" width="346.56" height="244.03" style="fill: none;"/>
            <rect x="-309.66" y="-25.23" width="345.18" height="243.06" style="fill: #346e65;"/>
          </g>
        </g>
        <g style="clip-path: url(#clippath-15);">
          <g>
            <rect x="-152.04" y="-25.72" width="346.56" height="244.03" style="fill: none;"/>
            <rect x="-151.35" y="-25.23" width="345.18" height="243.06" style="fill: #346e65;"/>
          </g>
        </g>
        <g style="clip-path: url(#clippath-16);">
          <g>
            <rect x="66.15" y="-213.97" width="346.56" height="244.03" style="fill: none;"/>
            <rect x="66.84" y="-213.48" width="345.18" height="243.06" style="fill: #346e65;"/>
          </g>
          <g>
            <rect x="66.15" y="30.06" width="346.56" height="244.03" style="fill: none;"/>
            <rect x="66.84" y="30.54" width="345.18" height="243.06" style="fill: #346e65;"/>
          </g>
          <g>
            <rect x="-280.41" y="-213.97" width="346.56" height="244.03" style="fill: none;"/>
            <rect x="-279.72" y="-213.48" width="345.18" height="243.06" style="fill: #346e65;"/>
          </g>
          <g>
            <rect x="-280.41" y="30.06" width="346.56" height="244.03" style="fill: none;"/>
            <rect x="-279.72" y="30.54" width="345.18" height="243.06" style="fill: #346e65;"/>
          </g>
        </g>
        <g style="clip-path: url(#clippath-17);">
          <g>
            <rect x="-122.1" y="-213.97" width="346.56" height="244.03" style="fill: none;"/>
            <rect x="-121.41" y="-213.48" width="345.18" height="243.06" style="fill: #346e65;"/>
          </g>
          <g>
            <rect x="-122.1" y="30.06" width="346.56" height="244.03" style="fill: none;"/>
            <rect x="-121.41" y="30.54" width="345.18" height="243.06" style="fill: #346e65;"/>
          </g>
        </g>
        <g style="clip-path: url(#clippath-18);">
          <g>
            <rect x="36.21" y="-213.97" width="346.56" height="244.03" style="fill: none;"/>
            <rect x="36.9" y="-213.48" width="345.18" height="243.06" style="fill: #346e65;"/>
          </g>
          <g>
            <rect x="36.21" y="30.06" width="346.56" height="244.03" style="fill: none;"/>
            <rect x="36.9" y="30.54" width="345.18" height="243.06" style="fill: #346e65;"/>
          </g>
          <g>
            <rect x="-310.35" y="-213.97" width="346.56" height="244.03" style="fill: none;"/>
            <rect x="-309.66" y="-213.48" width="345.18" height="243.06" style="fill: #346e65;"/>
          </g>
          <g>
            <rect x="-310.35" y="30.06" width="346.56" height="244.03" style="fill: none;"/>
            <rect x="-309.66" y="30.54" width="345.18" height="243.06" style="fill: #346e65;"/>
          </g>
        </g>
        <g style="clip-path: url(#clippath-19);">
          <g>
            <rect x="-152.04" y="-213.97" width="346.56" height="244.03" style="fill: none;"/>
            <rect x="-151.35" y="-213.48" width="345.18" height="243.06" style="fill: #346e65;"/>
          </g>
          <g>
            <rect x="-152.04" y="30.06" width="346.56" height="244.03" style="fill: none;"/>
            <rect x="-151.35" y="30.54" width="345.18" height="243.06" style="fill: #346e65;"/>
          </g>
        </g>
        <g style="clip-path: url(#clippath-20);">
          <g>
            <rect x="66.15" y="-158.19" width="346.56" height="244.03" style="fill: none;"/>
            <rect x="66.84" y="-157.71" width="345.18" height="243.06" style="fill: #346e65;"/>
          </g>
          <g>
            <rect x="66.15" y="85.84" width="346.56" height="244.03" style="fill: none;"/>
            <rect x="66.84" y="86.32" width="345.18" height="243.06" style="fill: #346e65;"/>
          </g>
          <g>
            <rect x="-280.41" y="-158.19" width="346.56" height="244.03" style="fill: none;"/>
            <rect x="-279.72" y="-157.71" width="345.18" height="243.06" style="fill: #346e65;"/>
          </g>
          <g>
            <rect x="-280.41" y="85.84" width="346.56" height="244.03" style="fill: none;"/>
            <rect x="-279.72" y="86.32" width="345.18" height="243.06" style="fill: #346e65;"/>
          </g>
        </g>
        <g style="clip-path: url(#clippath-21);">
          <g>
            <rect x="-122.1" y="-158.19" width="346.56" height="244.03" style="fill: none;"/>
            <rect x="-121.41" y="-157.71" width="345.18" height="243.06" style="fill: #346e65;"/>
          </g>
          <g>
            <rect x="-122.1" y="85.84" width="346.56" height="244.03" style="fill: none;"/>
            <rect x="-121.41" y="86.32" width="345.18" height="243.06" style="fill: #346e65;"/>
          </g>
        </g>
        <g style="clip-path: url(#clippath-22);">
          <g>
            <rect x="36.21" y="-158.19" width="346.56" height="244.03" style="fill: none;"/>
            <rect x="36.9" y="-157.71" width="345.18" height="243.06" style="fill: #346e65;"/>
          </g>
          <g>
            <rect x="36.21" y="85.84" width="346.56" height="244.03" style="fill: none;"/>
            <rect x="36.9" y="86.32" width="345.18" height="243.06" style="fill: #346e65;"/>
          </g>
          <g>
            <rect x="-310.35" y="-158.19" width="346.56" height="244.03" style="fill: none;"/>
            <rect x="-309.66" y="-157.71" width="345.18" height="243.06" style="fill: #346e65;"/>
          </g>
          <g>
            <rect x="-310.35" y="85.84" width="346.56" height="244.03" style="fill: none;"/>
            <rect x="-309.66" y="86.32" width="345.18" height="243.06" style="fill: #346e65;"/>
          </g>
        </g>
        <g style="clip-path: url(#clippath-23);">
          <g>
            <rect x="-152.04" y="-158.19" width="346.56" height="244.03" style="fill: none;"/>
            <rect x="-151.35" y="-157.71" width="345.18" height="243.06" style="fill: #346e65;"/>
          </g>
          <g>
            <rect x="-152.04" y="85.84" width="346.56" height="244.03" style="fill: none;"/>
            <rect x="-151.35" y="86.32" width="345.18" height="243.06" style="fill: #346e65;"/>
          </g>
        </g>
      </g>
    </pattern>
    <pattern id="_2vertfonce" data-name="2vertfonce" x="0" y="0" width="73.55" height="72.88" patternTransform="translate(3140.67 -1176.58)" patternUnits="userSpaceOnUse" viewBox="0 0 73.55 72.88">
      <g>
        <rect width="73.55" height="72.88" style="fill: none;"/>
        <g>
          <path d="M31.67,74.17c-.2,0-.39-.08-.54-.22-.13-.15-.22-.35-.22-.54s.09-.39.22-.54c.31-.28.78-.28,1.07,0,.15.15.24.35.24.54s-.09.39-.22.54c-.15.13-.35.22-.54.22Z" style="fill: #0a3b33;"/>
          <path d="M37.1,73.09c-.2,0-.39-.08-.54-.22-.15-.17-.22-.35-.22-.54s.07-.39.22-.52c.35-.33.8-.31,1.09-.02.13.15.22.35.22.54s-.09.39-.22.54c-.15.13-.35.22-.54.22Z" style="fill: #0a3b33;"/>
        </g>
        <g>
          <path d="M73.17,69.19c-.2,0-.39-.08-.54-.22-.13-.15-.22-.35-.22-.54,0-.22.09-.41.24-.54.26-.26.78-.28,1.06,0,.13.13.22.33.22.54,0,.2-.09.39-.22.54-.15.13-.35.22-.54.22Z" style="fill: #0a3b33;"/>
          <path d="M74.25,15.96c-.2,0-.39-.08-.54-.22-.13-.15-.22-.35-.22-.54s.09-.41.22-.54c.26-.26.78-.28,1.07,0,.15.15.24.35.24.54s-.09.39-.22.54c-.15.13-.35.22-.54.22Z" style="fill: #0a3b33;"/>
        </g>
        <g>
          <path d="M7.22,1.84c-.2,0-.39-.08-.54-.22-.13-.15-.22-.35-.22-.54s.09-.39.22-.54c.31-.28.78-.28,1.07,0,.15.15.24.35.24.54s-.09.39-.22.54c-.15.13-.35.22-.54.22Z" style="fill: #0a3b33;"/>
          <path d="M9.94,17.05c-.2,0-.39-.08-.54-.22-.13-.15-.22-.35-.22-.54,0-.22.09-.41.24-.54.24-.26.78-.28,1.06,0,.13.15.22.35.22.54s-.09.39-.22.52c-.15.15-.35.24-.54.24Z" style="fill: #0a3b33;"/>
          <path d="M24.61,14.33c-.2,0-.39-.08-.54-.22-.13-.15-.22-.35-.22-.54s.09-.39.22-.54c.31-.28.78-.28,1.07,0,.15.15.24.35.24.54s-.09.39-.22.54c-.15.13-.35.22-.54.22Z" style="fill: #0a3b33;"/>
          <path d="M25.69,8.9c-.2,0-.39-.08-.54-.22-.13-.15-.22-.35-.22-.54,0-.22.09-.41.24-.54.26-.28.76-.28,1.06,0,.13.13.22.33.22.54,0,.2-.09.39-.22.54-.15.13-.32.22-.54.22Z" style="fill: #0a3b33;"/>
          <path d="M31.67,1.29c-.2,0-.39-.08-.54-.22-.13-.15-.22-.35-.22-.54s.09-.39.22-.54c.31-.28.78-.28,1.07,0,.15.15.24.35.24.54s-.09.39-.22.54c-.15.13-.35.22-.54.22Z" style="fill: #0a3b33;"/>
          <path d="M42.53,3.47c-.2,0-.39-.08-.54-.22-.13-.15-.22-.35-.22-.54s.09-.39.22-.54c.31-.28.78-.28,1.07,0,.15.13.24.35.24.54s-.09.39-.22.54c-.15.13-.35.22-.54.22Z" style="fill: #0a3b33;"/>
          <path d="M-.38,69.19c-.2,0-.39-.08-.54-.22-.13-.15-.22-.35-.22-.54,0-.22.09-.41.24-.54.26-.26.78-.28,1.06,0,.13.13.22.33.22.54,0,.2-.09.39-.22.54-.15.13-.35.22-.54.22Z" style="fill: #0a3b33;"/>
          <path d="M28.41,68.65c-.2,0-.39-.08-.54-.22-.13-.15-.22-.35-.22-.54,0-.22.09-.41.24-.54.26-.28.76-.28,1.06,0,.13.13.22.33.22.54,0,.2-.09.39-.22.54-.15.13-.35.22-.54.22Z" style="fill: #0a3b33;"/>
          <path d="M48.51,68.65c-.2,0-.39-.08-.54-.22-.13-.15-.22-.35-.22-.54s.09-.39.22-.54c.31-.28.78-.28,1.09,0,.13.15.22.35.22.54s-.09.39-.22.54c-.15.13-.35.22-.54.22Z" style="fill: #0a3b33;"/>
          <path d="M52.31,55.61c-.2,0-.39-.08-.54-.24-.13-.13-.22-.33-.22-.52s.09-.39.22-.54c.28-.28.78-.28,1.09,0,.13.15.22.35.22.54s-.09.39-.22.54c-.15.13-.35.22-.54.22Z" style="fill: #0a3b33;"/>
          <path d="M68.61,68.11c-.2,0-.39-.08-.54-.22-.15-.17-.22-.35-.22-.54s.09-.39.22-.54c.31-.31.78-.28,1.09,0,.13.15.22.35.22.54s-.09.39-.22.54c-.15.13-.35.22-.54.22Z" style="fill: #0a3b33;"/>
          <path d="M70.78,59.41c-.2,0-.39-.08-.54-.24-.13-.13-.22-.33-.22-.52,0-.22.09-.41.24-.54.24-.26.76-.28,1.06,0,.13.13.22.33.22.54,0,.2-.09.39-.22.54-.15.13-.35.22-.54.22Z" style="fill: #0a3b33;"/>
          <path d="M3.42,17.05c-.2,0-.39-.08-.54-.22-.13-.15-.22-.35-.22-.54s.09-.39.22-.54c.31-.28.78-.28,1.07,0,.15.15.24.35.24.54s-.09.39-.22.54c-.15.13-.35.22-.54.22Z" style="fill: #0a3b33;"/>
          <path d="M7.22,10.53c-.2,0-.39-.08-.54-.22-.13-.15-.22-.35-.22-.54s.09-.39.22-.54c.31-.28.78-.28,1.09,0,.13.15.22.35.22.54s-.09.39-.22.54c-.15.13-.35.22-.54.22Z" style="fill: #0a3b33;"/>
          <path d="M42.53,12.16c-.2,0-.39-.08-.54-.22-.13-.15-.22-.35-.22-.54s.09-.39.22-.54c.28-.28.8-.28,1.09,0,.13.15.22.35.22.54s-.09.39-.22.54c-.15.13-.35.22-.54.22Z" style="fill: #0a3b33;"/>
          <path d="M58.28,21.39c-.2,0-.39-.08-.54-.22-.15-.15-.22-.35-.22-.54s.09-.39.22-.52c.33-.33.78-.31,1.07-.02.15.15.24.35.24.54s-.09.39-.22.54c-.15.13-.35.22-.54.22Z" style="fill: #0a3b33;"/>
          <path d="M69.15,13.24c-.2,0-.39-.08-.54-.22-.13-.15-.22-.35-.22-.54s.09-.39.22-.54c.28-.28.8-.28,1.09,0,.15.15.22.35.22.54s-.09.39-.22.54c-.15.13-.35.22-.54.22Z" style="fill: #0a3b33;"/>
          <path d="M70.78,22.48c-.22,0-.39-.08-.54-.22-.13-.15-.22-.35-.22-.54s.09-.39.22-.54c.31-.28.78-.28,1.07,0,.15.15.24.35.24.54s-.09.39-.22.54c-.15.13-.35.22-.54.22Z" style="fill: #0a3b33;"/>
          <path d="M62.63,39.32c-.2,0-.39-.08-.52-.22-.15-.15-.24-.35-.24-.54s.09-.39.22-.54c.26-.28.8-.28,1.09.02.13.13.22.31.22.52,0,.2-.09.39-.22.54-.15.13-.35.22-.54.22Z" style="fill: #0a3b33;"/>
          <path d="M62.09,48.01c-.22,0-.41-.08-.54-.24-.13-.13-.22-.33-.22-.52s.09-.39.22-.54c.26-.26.78-.28,1.09,0,.13.15.22.35.22.54s-.09.39-.22.54c-.15.13-.35.22-.54.22Z" style="fill: #0a3b33;"/>
          <path d="M74.04,56.16c-.2,0-.41-.08-.54-.24-.13-.11-.22-.31-.22-.52s.09-.39.24-.54c.24-.26.76-.28,1.06,0,.13.15.22.35.22.54s-.09.39-.22.54c-.15.13-.35.22-.54.22Z" style="fill: #0a3b33;"/>
          <path d="M28.41,60.5c-.2,0-.39-.08-.54-.22-.13-.15-.22-.35-.22-.54s.09-.39.22-.54c.31-.28.78-.28,1.07,0,.15.15.24.35.24.54s-.09.39-.22.54c-.15.13-.35.22-.54.22Z" style="fill: #0a3b33;"/>
          <path d="M14.83,40.4c-.2,0-.39-.08-.54-.22-.13-.15-.22-.35-.22-.54s.09-.39.22-.54c.31-.28.78-.28,1.07,0,.15.15.24.35.24.54s-.09.39-.22.54c-.15.13-.35.22-.54.22Z" style="fill: #0a3b33;"/>
          <path d="M22.43,35.51c-.2,0-.39-.08-.52-.22-.15-.15-.24-.35-.24-.54,0-.22.09-.41.24-.54.26-.26.78-.28,1.06,0,.13.13.22.33.22.54,0,.2-.09.39-.22.54-.15.13-.35.22-.54.22Z" style="fill: #0a3b33;"/>
          <path d="M15.37,24.11c-.2,0-.39-.08-.54-.22-.13-.15-.22-.35-.22-.54s.09-.39.22-.54c.28-.28.8-.28,1.09,0,.13.15.22.35.22.54s-.09.39-.22.54c-.15.13-.35.22-.54.22Z" style="fill: #0a3b33;"/>
          <path d="M43.07,25.19c-.2,0-.39-.08-.54-.22-.13-.15-.22-.35-.22-.54s.09-.39.22-.54c.28-.28.78-.28,1.09,0,.13.15.22.35.22.54s-.09.39-.22.54c-.15.13-.32.22-.54.22Z" style="fill: #0a3b33;"/>
          <path d="M40.9,29.54c-.2,0-.39-.08-.54-.22-.13-.15-.22-.35-.22-.54s.09-.39.22-.54c.28-.28.8-.28,1.09,0,.13.15.22.35.22.54s-.09.39-.22.54c-.15.13-.35.22-.54.22Z" style="fill: #0a3b33;"/>
          <path d="M18.63,49.64c-.2,0-.39-.08-.54-.22-.13-.15-.22-.35-.22-.54s.09-.39.22-.54c.28-.28.8-.28,1.09,0,.13.15.22.35.22.54s-.09.39-.22.54c-.15.13-.35.22-.54.22Z" style="fill: #0a3b33;"/>
          <path d="M3.96,38.77c-.2,0-.39-.08-.54-.22-.13-.15-.22-.35-.22-.54s.09-.41.22-.54c.26-.26.78-.28,1.07,0,.15.15.24.35.24.54s-.09.39-.22.54c-.15.13-.35.22-.54.22Z" style="fill: #0a3b33;"/>
          <path d="M38.73,63.76c-.2,0-.39-.08-.54-.22-.13-.15-.22-.35-.22-.54,0-.22.09-.39.22-.54.31-.28.78-.28,1.09,0,.13.15.22.35.22.54s-.09.39-.22.54c-.15.13-.32.22-.54.22Z" style="fill: #0a3b33;"/>
          <path d="M71.32,40.95c-.2,0-.39-.08-.54-.24-.13-.13-.22-.33-.22-.52,0-.22.09-.41.24-.54.24-.26.76-.28,1.06,0,.13.13.22.33.22.54,0,.2-.09.39-.22.54-.15.13-.35.22-.54.22Z" style="fill: #0a3b33;"/>
          <path d="M44.7,40.4c-.2,0-.39-.08-.54-.22-.13-.15-.22-.35-.22-.54s.09-.39.22-.54c.33-.28.78-.28,1.07,0,.15.15.24.35.24.54s-.09.39-.22.54c-.15.13-.35.22-.54.22Z" style="fill: #0a3b33;"/>
          <path d="M.7,15.96c-.2,0-.39-.08-.54-.22-.13-.15-.22-.35-.22-.54s.09-.41.22-.54c.26-.26.78-.28,1.07,0,.15.15.24.35.24.54s-.09.39-.22.54c-.15.13-.35.22-.54.22Z" style="fill: #0a3b33;"/>
          <path d="M2.33,25.19c-.2,0-.39-.08-.54-.22-.13-.15-.22-.35-.22-.54,0-.22.09-.41.24-.54.28-.28.76-.28,1.06,0,.13.13.22.33.22.54,0,.2-.09.39-.22.54-.15.13-.35.22-.54.22Z" style="fill: #0a3b33;"/>
          <path d="M14.83,62.13c-.2,0-.39-.08-.54-.22-.13-.15-.22-.35-.22-.54s.09-.39.22-.54c.28-.28.78-.28,1.09,0,.13.15.22.35.22.54s-.09.39-.22.54c-.15.13-.35.22-.54.22Z" style="fill: #0a3b33;"/>
          <path d="M13.74,52.9c-.2,0-.39-.08-.54-.22-.13-.15-.22-.35-.22-.54s.09-.39.22-.54c.28-.28.78-.28,1.09,0,.13.15.22.35.22.54s-.09.39-.22.54c-.15.13-.35.22-.54.22Z" style="fill: #0a3b33;"/>
          <path d="M27.86,25.74c-.2,0-.39-.08-.54-.22-.13-.15-.22-.35-.22-.54,0-.22.09-.41.24-.54.26-.28.76-.28,1.06,0,.13.13.22.33.22.54,0,.2-.09.39-.22.54-.15.13-.35.22-.54.22Z" style="fill: #0a3b33;"/>
          <path d="M32.21,18.67c-.2,0-.39-.08-.54-.22-.13-.15-.22-.35-.22-.54s.07-.39.22-.54c.28-.28.78-.28,1.09,0,.13.15.22.35.22.54s-.09.39-.22.54c-.15.13-.32.22-.54.22Z" style="fill: #0a3b33;"/>
          <path d="M48.51,14.33c-.2,0-.39-.08-.54-.22-.13-.15-.22-.35-.22-.54s.09-.39.22-.54c.28-.28.8-.28,1.09,0,.13.15.22.35.22.54s-.09.39-.22.54c-.15.13-.35.22-.54.22Z" style="fill: #0a3b33;"/>
          <path d="M51.22,3.47c-.2,0-.39-.08-.54-.24-.13-.13-.22-.31-.22-.52,0-.2.09-.39.22-.54.28-.28.78-.28,1.09,0,.13.15.22.35.22.54,0,.22-.09.39-.24.54-.13.13-.32.22-.52.22Z" style="fill: #0a3b33;"/>
          <path d="M37.1.21c-.2,0-.39-.08-.54-.22-.15-.17-.22-.35-.22-.54s.07-.39.22-.52c.35-.33.8-.31,1.09-.02.13.15.22.35.22.54s-.09.39-.22.54c-.15.13-.35.22-.54.22Z" style="fill: #0a3b33;"/>
          <path d="M18.09,6.72c-.2,0-.39-.08-.54-.22-.13-.15-.22-.35-.22-.54s.09-.39.22-.54c.28-.28.8-.28,1.09,0,.13.15.22.35.22.54s-.09.39-.22.54c-.15.13-.35.22-.54.22Z" style="fill: #0a3b33;"/>
          <path d="M70.78,6.18c-.22,0-.41-.08-.54-.24-.13-.13-.22-.33-.22-.52s.09-.39.22-.54c.31-.28.78-.28,1.07,0,.15.15.24.35.24.54s-.09.39-.22.54c-.15.13-.32.22-.54.22Z" style="fill: #0a3b33;"/>
          <path d="M72.41,29.54c-.2,0-.39-.08-.54-.24-.13-.13-.22-.33-.22-.52,0-.22.09-.41.24-.54.24-.26.76-.28,1.06,0,.13.13.22.33.22.54,0,.2-.09.39-.22.54-.15.13-.35.22-.54.22Z" style="fill: #0a3b33;"/>
          <path d="M61,31.71c-.2,0-.39-.08-.54-.24-.13-.13-.22-.33-.22-.52,0-.22.09-.41.24-.54.24-.26.76-.28,1.06,0,.13.13.22.33.22.54,0,.2-.09.39-.22.54-.15.13-.35.22-.54.22Z" style="fill: #0a3b33;"/>
          <path d="M53.94,43.66c-.2,0-.39-.08-.54-.24-.13-.13-.22-.33-.22-.52s.09-.39.22-.54c.31-.28.78-.28,1.09,0,.13.15.22.33.22.54s-.09.41-.24.54c-.13.13-.32.22-.52.22Z" style="fill: #0a3b33;"/>
          <path d="M31.67,48.55c-.2,0-.39-.08-.54-.22-.13-.15-.22-.35-.22-.54s.09-.39.22-.54c.31-.28.78-.28,1.09,0,.13.15.22.35.22.54s-.09.39-.22.54c-.15.13-.35.22-.54.22Z" style="fill: #0a3b33;"/>
          <path d="M46.33,62.67c-.2,0-.39-.08-.54-.22-.13-.15-.22-.35-.22-.54s.09-.39.22-.54c.31-.28.78-.28,1.07,0,.15.13.24.35.24.54s-.09.39-.22.54c-.15.13-.35.22-.54.22Z" style="fill: #0a3b33;"/>
          <path d="M57.2,71.91c-.2,0-.39-.08-.54-.22-.13-.15-.22-.35-.22-.54,0-.22.09-.41.24-.54.26-.28.78-.28,1.06,0,.13.13.22.33.22.54,0,.2-.09.39-.22.54-.15.13-.35.22-.54.22Z" style="fill: #0a3b33;"/>
          <path d="M37.1,72.99c-.2,0-.39-.08-.54-.22-.15-.15-.22-.35-.22-.54s.09-.39.22-.54c.31-.28.83-.28,1.09.02.13.11.22.31.22.52,0,.2-.09.39-.22.54-.15.13-.35.22-.54.22Z" style="fill: #0a3b33;"/>
          <path d="M60.46,8.46c-.37,0-.74-.15-1-.41-.26-.26-.41-.63-.41-1s.15-.74.41-1c.5-.52,1.48-.52,2,0,.26.26.41.63.41,1s-.15.74-.41,1c-.26.26-.63.41-1,.41Z" style="fill: #0a3b33;"/>
          <path d="M3.42,57.35c-.37,0-.74-.15-1-.41-.26-.26-.41-.63-.41-1,0-.39.15-.74.41-1,.5-.52,1.48-.54,2,0,.26.26.41.63.41,1s-.15.72-.41,1c-.26.26-.61.41-1,.41Z" style="fill: #0a3b33;"/>
          <path d="M19.72,69.85c-.37,0-.74-.15-1-.41-.26-.26-.41-.63-.41-1s.15-.74.41-1c.52-.52,1.48-.54,2,0,.26.26.41.63.41,1s-.15.72-.41,1c-.26.26-.61.41-1,.41Z" style="fill: #0a3b33;"/>
          <path d="M12.66,12.27c-.37,0-.74-.15-1-.41-.26-.28-.41-.63-.41-1s.15-.74.41-1c.5-.52,1.48-.52,2,0,.26.26.41.63.41,1s-.15.72-.41,1c-.26.26-.63.41-1,.41Z" style="fill: #0a3b33;"/>
          <path d="M34.38,9.55c-.39,0-.74-.15-1-.41-.26-.26-.41-.63-.41-1s.15-.74.41-1c.52-.52,1.48-.52,2,0,.26.26.41.61.41,1s-.15.74-.41,1c-.26.26-.61.41-1,.41Z" style="fill: #0a3b33;"/>
          <path d="M55.57,23.13c-.37,0-.74-.15-1-.41-.26-.26-.41-.63-.41-1s.15-.74.41-1c.5-.52,1.5-.52,2,0,.26.24.41.61.41,1s-.15.74-.43,1c-.24.26-.61.41-.98.41Z" style="fill: #0a3b33;"/>
          <path d="M70.78,52.46c-.37,0-.74-.15-1-.41-.26-.26-.41-.63-.41-1s.15-.74.41-1c.5-.52,1.46-.54,2,0,.26.26.41.61.41,1,0,.37-.15.74-.41,1-.26.26-.63.41-1,.41Z" style="fill: #0a3b33;"/>
          <path d="M60.46,62.78c-.37,0-.74-.15-1-.41-.26-.26-.41-.63-.41-1s.15-.74.41-1c.5-.52,1.48-.52,2,0,.26.26.41.63.41,1s-.15.74-.41,1c-.26.26-.63.41-1,.41Z" style="fill: #0a3b33;"/>
          <path d="M38.19,55.72c-.37,0-.74-.15-1-.41-.26-.28-.41-.63-.41-1s.15-.74.41-1c.52-.52,1.48-.52,2,0,.26.26.41.63.41,1s-.15.72-.41,1c-.26.26-.63.41-1,.41Z" style="fill: #0a3b33;"/>
          <path d="M5.59,49.75c-.37,0-.74-.15-1-.41-.26-.26-.41-.61-.41-1s.15-.74.41-1c.52-.52,1.46-.52,2,0,.26.26.41.63.41,1s-.15.74-.41,1c-.26.26-.63.41-1,.41Z" style="fill: #0a3b33;"/>
          <path d="M9.94,22.04c-.37,0-.74-.15-1-.41-.26-.28-.41-.63-.41-1s.15-.74.41-1c.5-.52,1.48-.54,2,0,.26.26.41.61.41,1,0,.37-.15.74-.41,1-.26.26-.63.41-1,.41Z" style="fill: #0a3b33;"/>
          <path d="M47.96,33.99c-.37,0-.74-.15-1-.41-.26-.26-.41-.63-.41-1s.15-.74.41-1c.52-.52,1.48-.52,2,0,.26.26.41.63.41,1s-.15.72-.41,1c-.26.26-.63.41-1,.41Z" style="fill: #0a3b33;"/>
          <path d="M5.59,74.73c-.37,0-.74-.15-1-.41-.26-.26-.41-.61-.41-1s.15-.76.43-1c.48-.52,1.46-.52,1.98,0,.26.26.41.63.41,1s-.15.72-.41,1c-.26.26-.63.41-1,.41Z" style="fill: #0a3b33;"/>
          <path d="M25.69,40.51c-.37,0-.74-.15-1-.41-.26-.28-.41-.63-.41-1s.15-.74.41-1c.52-.52,1.48-.52,2,0,.26.26.41.63.41,1s-.15.72-.41,1c-.26.26-.63.41-1,.41Z" style="fill: #0a3b33;"/>
          <path d="M14.28,32.91c-.37,0-.74-.15-1-.41-.26-.26-.41-.63-.41-1s.15-.74.41-1c.54-.54,1.48-.52,2,0,.26.26.41.63.41,1s-.15.74-.41,1c-.26.26-.63.41-1,.41Z" style="fill: #0a3b33;"/>
          <path d="M38.73,20.96c-.37,0-.74-.15-1-.41-.26-.28-.41-.63-.41-1s.15-.74.41-1c.52-.52,1.46-.52,2,0,.26.26.41.63.41,1s-.15.72-.41,1c-.26.26-.63.41-1,.41Z" style="fill: #0a3b33;"/>
        </g>
        <path d="M.49,56.16c-.2,0-.41-.08-.54-.24-.13-.11-.22-.31-.22-.52s.09-.39.24-.54c.24-.26.76-.28,1.06,0,.13.15.22.35.22.54s-.09.39-.22.54c-.15.13-.35.22-.54.22Z" style="fill: #0a3b33;"/>
        <g>
          <path d="M37.1.11c-.2,0-.39-.08-.54-.22-.15-.15-.22-.35-.22-.54s.09-.39.22-.54c.31-.28.83-.28,1.09.02.13.11.22.31.22.52,0,.2-.09.39-.22.54-.15.13-.35.22-.54.22Z" style="fill: #0a3b33;"/>
          <path d="M5.59,1.85c-.37,0-.74-.15-1-.41-.26-.26-.41-.61-.41-1s.15-.76.43-1c.48-.52,1.46-.52,1.98,0,.26.26.41.63.41,1s-.15.72-.41,1c-.26.26-.63.41-1,.41Z" style="fill: #0a3b33;"/>
        </g>
      </g>
    </pattern>
  </defs>
  <g id="illu_cylindre_motif" data-name="illu cylindre motif">
    <g id="layers">
      <g id="herbe_sous" data-name="herbe sous">
        <path d="M1930,111.59v219.78s0,107.07-965,107.07S0,331.37,0,331.37V111.59S0,4.52,965,4.52s965,107.07,965,107.07Z" style="fill: url(#Nouvelle_nuance_de_motif_4);"/>
        <path d="M1930,111.59v219.78s0,107.07-965,107.07S0,331.37,0,331.37V111.59S0,4.52,965,4.52s965,107.07,965,107.07Z" style="fill: url(#_2vertfonce);"/>
        <ellipse cx="965" cy="107.65" rx="965" ry="107.65" style="fill: url(#Nouvelle_nuance_de_motif_4);"/>
      </g>
    </g>
  </g>
</svg>