<?xml version="1.0" encoding="UTF-8"?>
<svg id="Calque_2" data-name="Calque 2" xmlns="http://www.w3.org/2000/svg" viewBox="0 0 50.31 2189.62">
  <g id="illu_cylindre_motif" data-name="illu cylindre motif">
    <g id="animation">
      <g id="anim_tuyau_-_copie" data-name="anim tuyau - copie">
        <g id="fleche">
          <g>
            <line x1="25.16" y1="418.78" x2="25.16" y2="518.16" style="fill: none; stroke: #d98d39; stroke-linecap: round; stroke-miterlimit: 40; stroke-width: 5px;"/>
            <path d="M1.16,484.3c1.16-.74,2.71-.4,3.45.77l20.55,32.26,20.55-32.26c.74-1.17,2.29-1.51,3.45-.77,1.16.74,1.5,2.3.77,3.46l-22.66,35.57c-.46.72-1.25,1.16-2.11,1.16s-1.65-.44-2.11-1.16L.39,487.76c-.26-.42-.39-.88-.39-1.34,0-.83.41-1.64,1.16-2.11Z" style="fill: #d98d39;"/>
          </g>
          <g>
            <line x1="25.16" y1="2.5" x2="25.16" y2="101.87" style="fill: none; stroke: #d98d39; stroke-linecap: round; stroke-miterlimit: 40; stroke-width: 5px;"/>
            <path d="M1.16,68.02c1.16-.74,2.71-.4,3.45.77l20.55,32.26,20.55-32.26c.74-1.17,2.29-1.51,3.45-.77,1.16.74,1.5,2.3.77,3.46l-22.66,35.57c-.46.72-1.25,1.16-2.11,1.16s-1.65-.44-2.11-1.16L.39,71.47c-.26-.42-.39-.88-.39-1.34,0-.83.41-1.64,1.16-2.11Z" style="fill: #d98d39;"/>
          </g>
          <g>
            <line x1="25.16" y1="835.07" x2="25.16" y2="934.44" style="fill: none; stroke: #d98d39; stroke-linecap: round; stroke-miterlimit: 40; stroke-width: 5px;"/>
            <path d="M1.16,900.58c1.16-.74,2.71-.4,3.45.77l20.55,32.26,20.55-32.26c.74-1.17,2.29-1.51,3.45-.77s1.5,2.3.77,3.46l-22.66,35.57c-.46.72-1.25,1.16-2.11,1.16s-1.65-.44-2.11-1.16L.39,904.04c-.26-.42-.39-.88-.39-1.34,0-.83.41-1.64,1.16-2.11Z" style="fill: #d98d39;"/>
          </g>
          <g>
            <line x1="25.16" y1="1251.35" x2="25.16" y2="1350.72" style="fill: none; stroke: #d98d39; stroke-linecap: round; stroke-miterlimit: 40; stroke-width: 5px;"/>
            <path d="M1.16,1316.87c1.16-.74,2.71-.4,3.45.77l20.55,32.26,20.55-32.26c.74-1.17,2.29-1.51,3.45-.77s1.5,2.3.77,3.46l-22.66,35.57c-.46.72-1.25,1.16-2.11,1.16s-1.65-.44-2.11-1.16L.39,1320.32c-.26-.42-.39-.88-.39-1.34,0-.83.41-1.64,1.16-2.11Z" style="fill: #d98d39;"/>
          </g>
          <g>
            <line x1="25.16" y1="1667.63" x2="25.16" y2="1767.01" style="fill: none; stroke: #d98d39; stroke-linecap: round; stroke-miterlimit: 40; stroke-width: 5px;"/>
            <path d="M1.16,1733.15c1.16-.74,2.71-.4,3.45.77l20.55,32.26,20.55-32.26c.74-1.17,2.29-1.51,3.45-.77s1.5,2.3.77,3.46l-22.66,35.57c-.46.72-1.25,1.16-2.11,1.16s-1.65-.44-2.11-1.16L.39,1736.61c-.26-.42-.39-.88-.39-1.34,0-.83.41-1.64,1.16-2.11Z" style="fill: #d98d39;"/>
          </g>
          <g>
            <line x1="25.16" y1="2083.92" x2="25.16" y2="2183.29" style="fill: none; stroke: #d98d39; stroke-linecap: round; stroke-miterlimit: 40; stroke-width: 5px;"/>
            <path d="M1.16,2149.43c1.16-.74,2.71-.4,3.45.77l20.55,32.26,20.55-32.26c.74-1.17,2.29-1.51,3.45-.77s1.5,2.3.77,3.46l-22.66,35.57c-.46.72-1.25,1.16-2.11,1.16s-1.65-.44-2.11-1.16l-22.66-35.57c-.26-.42-.39-.88-.39-1.34,0-.83.41-1.64,1.16-2.11Z" style="fill: #d98d39;"/>
          </g>
        </g>
      </g>
    </g>
  </g>
</svg>