<svg xmlns="http://www.w3.org/2000/svg" data-name="Calque 2" viewBox="0 0 50.31 2189.62"><g data-name="illu cylindre motif"><path d="M25.16 418.78v99.38" style="fill:none;stroke:#d98d39;stroke-linecap:round;stroke-miterlimit:40;stroke-width:5px"/><path d="M1.16 484.3c1.16-.74 2.71-.4 3.45.77l20.55 32.26 20.55-32.26a2.497 2.497 0 0 1 3.45-.77c1.16.74 1.5 2.3.77 3.46l-22.66 35.57a2.5 2.5 0 0 1-4.22 0L.39 487.76c-.26-.42-.39-.88-.39-1.34 0-.83.41-1.64 1.16-2.11Z" style="fill:#d98d39"/><path d="M25.16 2.5v99.37" style="fill:none;stroke:#d98d39;stroke-linecap:round;stroke-miterlimit:40;stroke-width:5px"/><path d="M1.16 68.02c1.16-.74 2.71-.4 3.45.77l20.55 32.26 20.55-32.26a2.497 2.497 0 0 1 3.45-.77c1.16.74 1.5 2.3.77 3.46l-22.66 35.57a2.5 2.5 0 0 1-4.22 0L.39 71.47c-.26-.42-.39-.88-.39-1.34 0-.83.41-1.64 1.16-2.11" style="fill:#d98d39"/><path d="M25.16 835.07v99.37" style="fill:none;stroke:#d98d39;stroke-linecap:round;stroke-miterlimit:40;stroke-width:5px"/><path d="M1.16 900.58c1.16-.74 2.71-.4 3.45.77l20.55 32.26 20.55-32.26c.74-1.17 2.29-1.51 3.45-.77s1.5 2.3.77 3.46l-22.66 35.57a2.5 2.5 0 0 1-4.22 0L.39 904.04c-.26-.42-.39-.88-.39-1.34 0-.83.41-1.64 1.16-2.11Z" style="fill:#d98d39"/><path d="M25.16 1251.35v99.37" style="fill:none;stroke:#d98d39;stroke-linecap:round;stroke-miterlimit:40;stroke-width:5px"/><path d="M1.16 1316.87c1.16-.74 2.71-.4 3.45.77l20.55 32.26 20.55-32.26c.74-1.17 2.29-1.51 3.45-.77s1.5 2.3.77 3.46l-22.66 35.57a2.5 2.5 0 0 1-4.22 0L.39 1320.32c-.26-.42-.39-.88-.39-1.34 0-.83.41-1.64 1.16-2.11" style="fill:#d98d39"/><path d="M25.16 1667.63v99.38" style="fill:none;stroke:#d98d39;stroke-linecap:round;stroke-miterlimit:40;stroke-width:5px"/><path d="M1.16 1733.15c1.16-.74 2.71-.4 3.45.77l20.55 32.26 20.55-32.26c.74-1.17 2.29-1.51 3.45-.77s1.5 2.3.77 3.46l-22.66 35.57a2.5 2.5 0 0 1-4.22 0L.39 1736.61c-.26-.42-.39-.88-.39-1.34 0-.83.41-1.64 1.16-2.11Z" style="fill:#d98d39"/><path d="M25.16 2083.92v99.37" style="fill:none;stroke:#d98d39;stroke-linecap:round;stroke-miterlimit:40;stroke-width:5px"/><path d="M1.16 2149.43c1.16-.74 2.71-.4 3.45.77l20.55 32.26 20.55-32.26c.74-1.17 2.29-1.51 3.45-.77s1.5 2.3.77 3.46l-22.66 35.57a2.5 2.5 0 0 1-4.22 0L.39 2152.89c-.26-.42-.39-.88-.39-1.34 0-.83.41-1.64 1.16-2.11Z" style="fill:#d98d39"/></g></svg>