<?xml version="1.0" encoding="UTF-8"?>
<svg id="Calque_2" data-name="Calque 2" xmlns="http://www.w3.org/2000/svg" xmlns:xlink="http://www.w3.org/1999/xlink" viewBox="0 0 1654.53 1057.95">
  <defs>
    <pattern id="_30_10_ppp_2" data-name="30 % 10 ppp 2" x="0" y="0" width="58" height="58" patternTransform="translate(2302.98 -1466.07)" patternUnits="userSpaceOnUse" viewBox="0 0 58 58">
      <g>
        <rect width="58" height="58" style="fill: none;"/>
        <g>
          <path d="M54.75,59.18c2.44,0,4.43-1.98,4.43-4.43s-1.98-4.43-4.43-4.43-4.43,1.98-4.43,4.43,1.98,4.43,4.43,4.43Z"/>
          <path d="M25.22,59.18c2.45,0,4.43-1.98,4.43-4.43s-1.98-4.43-4.43-4.43-4.43,1.98-4.43,4.43,1.98,4.43,4.43,4.43Z"/>
          <path d="M54.75,29.65c2.44,0,4.43-1.98,4.43-4.43s-1.98-4.43-4.43-4.43-4.43,1.98-4.43,4.43,1.98,4.43,4.43,4.43Z"/>
          <path d="M25.22,29.65c2.45,0,4.43-1.98,4.43-4.43s-1.98-4.43-4.43-4.43-4.43,1.98-4.43,4.43,1.98,4.43,4.43,4.43Z"/>
          <path d="M10.45,44.41c2.45,0,4.43-1.98,4.43-4.43s-1.98-4.43-4.43-4.43-4.43,1.98-4.43,4.43,1.98,4.43,4.43,4.43Z"/>
          <path d="M39.98,44.41c2.44,0,4.43-1.98,4.43-4.43s-1.99-4.43-4.43-4.43-4.43,1.98-4.43,4.43,1.98,4.43,4.43,4.43Z"/>
          <path d="M10.45,14.88c2.45,0,4.43-1.98,4.43-4.43s-1.98-4.43-4.43-4.43-4.43,1.98-4.43,4.43,1.98,4.43,4.43,4.43Z"/>
          <path d="M39.98,14.88c2.44,0,4.43-1.98,4.43-4.43s-1.99-4.43-4.43-4.43-4.43,1.98-4.43,4.43,1.98,4.43,4.43,4.43Z"/>
        </g>
        <g>
          <path d="M-3.25,59.18c2.44,0,4.43-1.98,4.43-4.43s-1.98-4.43-4.43-4.43-4.43,1.98-4.43,4.43,1.98,4.43,4.43,4.43Z"/>
          <path d="M-3.25,29.65c2.44,0,4.43-1.98,4.43-4.43s-1.98-4.43-4.43-4.43-4.43,1.98-4.43,4.43,1.98,4.43,4.43,4.43Z"/>
        </g>
        <g>
          <path d="M54.75,1.18c2.44,0,4.43-1.98,4.43-4.43s-1.98-4.43-4.43-4.43-4.43,1.98-4.43,4.43,1.98,4.43,4.43,4.43Z"/>
          <path d="M25.22,1.18c2.45,0,4.43-1.98,4.43-4.43s-1.98-4.43-4.43-4.43-4.43,1.98-4.43,4.43,1.98,4.43,4.43,4.43Z"/>
        </g>
        <path d="M-3.25,1.18C-.81,1.18,1.18-.8,1.18-3.25S-.81-7.68-3.25-7.68s-4.43,1.98-4.43,4.43S-5.7,1.18-3.25,1.18Z"/>
      </g>
    </pattern>
  </defs>
  <g id="Layer_1" data-name="Layer 1">
    <polygon points="1651.79 633.78 1644.09 627.37 1628.48 625.67 1621.87 617.97 1618.82 607.79 1620.52 602.72 1624.5 598.95 1628.07 592.64 1628.84 585.1 1628.48 579 1629.98 574.14 1636.18 570.16 1640.63 563.4 1639.7 556.06 1637.11 548.31 1636.44 540.35 1644.4 530.74 1646.57 527.32 1647.91 522.52 1649.83 505.31 1648.95 493.89 1653.49 475.7 1651.53 466.71 1648.28 462.78 1635.82 452.86 1628.17 440.56 1624.35 436.47 1624.35 436.42 1624.35 436.42 1622.38 435.13 1620.37 434.72 1618.35 435.13 1607.71 441.23 1598.46 451.82 1592.05 464.12 1591.84 474.15 1582.7 474.56 1575.56 472.7 1569.62 473.79 1564.09 483.19 1562.33 489.96 1562.02 494.46 1561.04 498.54 1557.27 504.02 1541.3 512.13 1531.79 514.87 1529.31 514.77 1524.25 514.56 1508.38 509.5 1500.11 504.69 1485.95 491.2 1446.73 478.59 1437.63 471.62 1432.93 465 1432.36 459.99 1433.55 454.2 1434.48 441.64 1435.93 436.53 1435.93 433.37 1434.59 431.67 1432.31 431.88 1430.76 430.53 1431.33 424.43 1362.03 402.57 1355.93 401.64 1336.71 404.07 1329.84 402.21 1322.29 404.64 1299.91 400.92 1291.64 398.44 1291.23 393.48 1295.47 387.69 1301.1 381.9 1304.62 374.77 1304.41 363.3 1301.36 354.67 1297.33 346.92 1294.54 338.03 1295.42 319.94 1301.77 301.8 1307.82 291.52 1319.6 271.57 1332.11 256.48 1333.5 252.76 1335.42 243.25 1337.12 238.44 1351.33 220.46 1354.9 212.24 1355.21 189.35 1344.67 180.1 1331.02 173.9 1320.22 157.57 1319.55 154.31 1317.48 144.75 1216.92 82.12 1202.65 78.81 1188.91 78.81 1183.95 71.06 1163.69 71.06 1122.76 66.46 1115.84 69.2 1110.05 75.56 1096.71 79.84 1082.35 81.19 1073.36 78.81 1062.71 70.9 1062.4 70.59 1057.23 65.43 1057.18 61.65 1063.95 60.1 1054.44 51.11 1042.45 44.13 1032.63 43.67 1029.33 54.32 1032.32 57.67 1013 57.98 1012.27 54.42 1011.34 50.28 1008.45 46.67 1006.85 42.27 1008.04 38.71 1013 31.37 1013.93 29.3 1011.55 23.82 1007.93 23.1 1003.9 23.93 1000.08 23.1 997.34 18.76 994.5 12.46 990.93 7.13 986.23 5.53 982.87 8.99 980.95 20.88 976.41 23.87 972.79 21.19 971.55 14.57 971.19 7.55 970.62 3.57 963.85 .52 954.7 0 948.86 3.36 952.28 11.94 946.74 14.73 927 18.66 922.87 18.55 920.03 20.26 915.07 27.6 913.36 31.52 910.57 42.43 906.69 46.05 897.39 51.16 893.83 55.3 893.41 59.28 894.96 63.25 895.84 67.91 893.52 73.74 899.25 75.86 901.06 76.18 910.47 83.31 918.06 87.65 924.57 87.39 930 84.55 935.07 80.93 940.54 78.19 958.37 75.14 963.49 76.02 967.67 77.72 969.38 78.45 972.69 78.76 970.62 91.63 968.24 90.39 968.04 87.08 967.67 86.2 966.07 86.25 964.11 86.97 962.82 88.11 961.99 91.11 962.56 93.59 963.49 95.71 963.59 97.57 963.18 101.29 963.39 105.11 962.97 109.2 961.32 111.99 960.54 113.38 955.63 115.04 952.33 111 951.55 110.02 947.21 102.69 941.58 97.41 930.57 98.55 919.35 105.94 915.07 115.24 914.6 117.83 904.42 119.53 903.33 119.69 879.87 119.58 865.92 115.86 862.35 113.54 859.77 108.32 857.81 103.05 855.79 100.72 851.55 100.26 842.05 97.36 835.43 97.36 815.69 100.72 813.72 101.96 811.97 104.6 809.44 107.23 802.72 109.25 794.76 113.54 791.76 115.86 788.66 119.43 787.16 122.17 785.56 124.55 781.99 126.97 765.51 130.64 717.81 130.64 716.78 128.37 716.05 123.31 714.92 118.19 712.64 115.86 689.02 114.47 683.86 111.83 677.19 122.27 671.35 129.25 664.48 133.12 650.01 136.17 633.88 139.48 625.82 138.4 620.55 135.6 606.91 128.37 607.84 128.42 616.52 128.47 620.4 124.7 625.2 111.16 616.93 111.99 598.23 117.62 598.02 117.67 585.1 122.58 576.32 127.44 574.3 129.09 560.29 140.57 561.23 140.93 567.32 145.63 568.56 145.58 568.67 151 567.07 154.1 564.12 155.09 560.29 154.26 558.23 155.4 557.71 157.1 558.49 159.27 561.12 162.94 561.43 164.13 561.48 164.34 561.43 165.73 560.97 167.28 560.29 168.16 554.72 173.22 549.96 172.55 546.86 170.54 545.21 169.5 539.52 167.49 535.23 168.78 535.28 172.09 537.14 175.45 538.33 176.74 540.14 179.27 540.71 182.32 539.52 187.39 537.56 190.02 532.28 196.84 525.67 199.53 522.11 200.98 506.86 200.31 496.63 199.84 486.91 201.91 473.06 207.95 470.58 208.42 467.79 207.23 466.29 205.27 465.26 203.35 463.76 202.11 453.01 198.76 445.05 193.95 442.93 185.16 449.6 169.82 439.68 170.8 435.44 170.12 434.72 170.02 429.96 167.28 421.33 165.47 403.09 168.63 393.58 167.28 390.22 164.7 386.86 163.87 383.56 164.7 380.35 167.28 373.53 169.35 374.41 175.4 378.18 182.84 379.99 189.3 377.25 193.84 371.77 198.5 365.78 201.91 356.17 204.08 355.65 214.26 346.19 219.84 340.77 226.92 336.22 235.34 334.36 242.27 377.98 237.98 384.8 234.72 390.22 239.17 395.75 244.13 399.58 249.61 396.68 255.55 393.27 257.77 389.5 258.81 385.67 261.03 380.35 268.26 378.39 269.04 375.03 269.45 368.16 276.58 365.78 287.64 367.23 300.97 342.32 319.22 331.67 330.22 324.75 341.7 323.92 342.47 300.66 363.92 289.71 367.74 290.17 376.94 284.9 379.68 283.51 380.61 282.16 384.02 272.96 387.33 269.5 390.74 264.59 399.27 268.99 409.24 260.61 421.33 236.17 439.94 196.69 452.34 178.91 462.62 173.43 481.43 174.98 486.24 179.84 495.59 181.03 501.49 180.46 508.88 179.12 512.24 178.39 513.99 175.81 518.59 170.07 536.01 169.56 538.59 170.54 541.59 172.5 544.22 175.24 547.22 175.4 556.21 173.95 560.66 169.82 565.83 165.99 568.72 153.8 575.18 144.18 586.08 140.51 589.13 114.26 603.55 64.91 648.66 60.05 655.12 61.19 662.15 70.02 672.08 57.05 688.4 44.29 710.32 40.1 714.81 38.66 718.07 38.66 720.76 39.48 723.29 40.31 725.46 40.62 727.11 40.62 731.14 41.34 734.71 40.72 738.22 36.49 742.25 38.24 743.34 56.23 754.4 61.65 760.19 66.15 768.25 66.61 774.09 60.05 788.66 54.78 800.6 53.54 804.73 50.9 819.72 50.75 825.46 51.06 830.31 49.51 833.83 41.39 836.36 39.28 836.62 37.11 836.36 34.21 835.43 33.49 835.38 32.92 835.43 32.3 835.58 10.34 846.39 1.34 852.02 0 858.37 3.83 865.61 10.34 873.78 9.2 878.27 6.41 883.59 1.5 895.07 10.34 889.8 26.98 885.87 43.67 885.2 56.12 890.72 68.06 884.63 86.77 862.72 110.23 847.21 119.69 837.19 117.83 824.99 115.24 823.91 109.09 826.7 105.27 824.68 103.72 822.46 100.15 813.72 100 811.56 96.64 802.56 95.09 797.29 97.05 790.11 104.81 779.57 115.24 765.77 127.18 755.48 138.5 751.82 150.49 751.25 162.43 748.2 193.69 726.8 217.15 722.1 241.65 722.87 296.27 737.03 301.8 739.77 301.8 739.77 305.21 745.04 305.63 749.9 306.04 755.07 303.4 763.96 293.74 775.28 291.78 781.43 298.75 793.52 311.78 807.32 320.09 821.63 307.07 846.9 300.77 865.82 297.36 883.9 300.56 892.74 329.71 899.2 335.34 904.63 334.98 908.66 332.4 912.69 329.4 916.25 327.74 918.99 328.78 918.48 329.4 923.7 329.5 929.22 328.98 929.74 329.19 933.82 328.42 936 328.62 937.65 331.88 940.08 335.34 940.59 338.18 938.47 340.77 935.79 343.87 934.55 352.14 938.22 376.99 966.23 378.8 967.42 380.09 973 384.28 983.95 386.86 993.56 388.83 998.83 391.41 1003.07 407.85 1021.47 416.37 1026.59 427.64 1028.91 439.57 1028.7 450.69 1026.64 473.27 1017.34 483.61 1010.98 488.41 1009.33 515.96 1012.22 527.74 1008.09 549.39 992.27 560.29 987.52 568.05 986.54 572.03 981.32 575.59 975.32 581.69 972.12 619.11 981.47 624.89 984.83 630.37 989.9 637.24 999.97 637.81 1001.32 642.31 1002.87 645.36 1002.09 648.15 1000.8 651.76 1000.39 669.34 1006.85 679.47 1006.64 685.98 1008.66 688.15 1008.76 692.7 1006.28 693.57 1004.52 693.26 1001.73 694.4 996.35 694.86 995.48 702.93 980.08 712.64 973.31 738.69 967.42 742.2 966.33 744.79 964.16 749.44 958.17 749.64 957.03 753.26 949.22 753.88 948.14 755.85 933.15 755.85 927.26 756.67 921.21 759.26 915.79 762.98 912.95 770.52 912.12 774.55 910.78 790.57 896.93 798.53 879.82 797.5 860.44 786.65 839.51 778.07 832.07 776.83 830.06 778.38 825.56 782.05 820.39 789.23 813.16 797.08 809.49 813 805.92 820.65 800.65 838.63 776.83 849.07 771.61 853.26 768.35 856.88 764.01 859.1 759.15 858.94 753.78 856.51 751.97 855.07 749.7 858.17 742.98 865.97 734.71 875.95 729.28 891.55 725.92 896.41 724.89 906.95 726.7 911.96 733.99 913.46 745.97 913.67 761.99 912.43 777.24 906.44 804.68 905.2 818.27 906.64 831.19 910.67 839.67 917.39 845.25 927 849.07 937.13 854.19 947.57 864.89 970.72 899.1 974.24 900.91 981.37 903.39 998.42 913.36 1004.88 913.67 1007.52 912.17 1013.2 907.16 1015.48 906.07 1017.34 906.8 1018.47 907.21 1021.16 912.12 1023.95 914.03 1029.84 914.86 1041.11 914.6 1046.64 916.51 1055.99 928.81 1050.57 941.21 1040.07 953.93 1033.62 968.76 1032.22 971.29 1031.6 972.69 1037.91 973.1 1043.49 975.06 1064.57 986.33 1067 988.29 1069.38 991.6 1072.99 1000.03 1079.35 1011.34 1082.45 1018.21 1084.47 1025.09 1085.09 1034.18 1083.59 1040.64 1081.42 1046.9 1080.07 1055.01 1094.54 1050.57 1106.53 1055.89 1117.59 1057.95 1129.32 1043.59 1138.47 1025.81 1139.81 1016.92 1135.68 1008.19 1132.22 1005.97 1124.21 1004.37 1120.69 1002.35 1117.33 997.39 1114.29 987.83 1110.36 983.85 1109.53 982.51 1109.32 981.21 1109.53 979.82 1110.36 978.53 1122.45 967.42 1115.89 949.07 1117.49 943.07 1126.89 935.84 1134.96 933.31 1138.42 931.24 1141.37 926.33 1142.5 919.82 1141.67 907.98 1143.12 901.17 1149.94 890.98 1176.61 873 1176.76 872.64 1179.45 867.52 1181.16 861.47 1183.22 856.2 1187.15 853.26 1191.6 851.19 1195.83 847.21 1199.14 841.89 1204.62 822.97 1215.37 800.55 1217.64 788.87 1217.13 782.05 1212.16 763.29 1212.16 755.69 1213.09 749.02 1212.37 743.7 1207.51 740.34 1204 733.16 1206.89 720.19 1213.2 707.37 1220.23 700.86 1238.11 698.69 1245.34 700.6 1245.65 707.22 1254.95 716.1 1257.74 717.29 1261.72 715.74 1263.53 712.54 1264.77 708.77 1267.3 705.41 1273.25 701.01 1276.09 700.39 1277.28 703.7 1279.45 754.6 1278.93 762.67 1279.65 765.66 1282.34 768.25 1290.4 772.74 1293.71 775.43 1301 794.5 1305.65 800.96 1313.45 806.23 1321.93 809.33 1363.99 809.85 1370.92 807.06 1376.5 799.25 1376.65 795.12 1376.09 789.12 1376.81 783.08 1380.79 778.53 1384.72 778.63 1393.66 784.06 1398.36 785.04 1405.96 782.56 1430.4 770.06 1446.37 767.32 1453.5 767.83 1461.05 769.8 1470.24 775.79 1472.62 784.42 1472.83 794.91 1475.21 806.49 1480.58 813.78 1495.05 826.59 1498.77 835.58 1499.08 847.52 1511.17 847.78 1526.68 841.89 1536.91 835.48 1541.71 825.35 1537.01 815.95 1521.92 800.55 1518.51 794.6 1517.07 790.16 1517.27 785.35 1519.13 778.17 1521.92 773 1529.62 766.13 1532.26 762.56 1535.05 750.99 1532.36 745.1 1526 742.56 1509.62 739.36 1498.87 735.17 1493.09 727.99 1499.55 717.03 1496.39 714.86 1494.58 711.87 1493.71 707.99 1493.29 703.08 1494.84 697.45 1494.95 685.77 1495.46 681.95 1498.56 677.24 1506.52 669.34 1509.52 665.25 1514.07 647.94 1515.62 644.01 1519.13 642.05 1553.86 632.08 1563.32 631.97 1569.16 636.78 1569.88 642.77 1567.86 653.68 1569.47 659.47 1584.61 664.69 1587.5 667.22 1589.41 669.9 1591.74 672.33 1595.87 674.25 1600.58 675.02 1613.34 673.83 1639.59 680.71 1646.21 679.47 1649.1 674.66 1651.38 670.94 1654.27 657.76 1654.53 644.07 1651.79 633.78" style="fill: url(#_30_10_ppp_2); fill-rule: evenodd;"/>
  </g>
</svg>