<?xml version="1.0" encoding="UTF-8"?>
<svg id="Calque_2" data-name="Calque 2" xmlns="http://www.w3.org/2000/svg" xmlns:xlink="http://www.w3.org/1999/xlink" viewBox="0 0 1871.52 1000.44">
  <defs>
    <pattern id="_30_10_ppp" data-name="30 % 10 ppp" x="0" y="0" width="58" height="58" patternTransform="translate(814.23 1082.7)" patternUnits="userSpaceOnUse" viewBox="0 0 58 58">
      <g>
        <rect width="58" height="58" style="fill: none;"/>
        <g>
          <path d="M54.75,59.18c2.44,0,4.43-1.98,4.43-4.43s-1.98-4.43-4.43-4.43-4.43,1.98-4.43,4.43,1.98,4.43,4.43,4.43Z" style="fill: #f4f0eb;"/>
          <path d="M25.22,59.18c2.45,0,4.43-1.98,4.43-4.43s-1.98-4.43-4.43-4.43-4.43,1.98-4.43,4.43,1.98,4.43,4.43,4.43Z" style="fill: #f4f0eb;"/>
          <path d="M54.75,29.65c2.44,0,4.43-1.98,4.43-4.43s-1.98-4.43-4.43-4.43-4.43,1.98-4.43,4.43,1.98,4.43,4.43,4.43Z" style="fill: #f4f0eb;"/>
          <path d="M25.22,29.65c2.45,0,4.43-1.98,4.43-4.43s-1.98-4.43-4.43-4.43-4.43,1.98-4.43,4.43,1.98,4.43,4.43,4.43Z" style="fill: #f4f0eb;"/>
          <path d="M10.45,44.41c2.45,0,4.43-1.98,4.43-4.43s-1.98-4.43-4.43-4.43-4.43,1.98-4.43,4.43,1.98,4.43,4.43,4.43Z" style="fill: #f4f0eb;"/>
          <path d="M39.98,44.41c2.44,0,4.43-1.98,4.43-4.43s-1.99-4.43-4.43-4.43-4.43,1.98-4.43,4.43,1.98,4.43,4.43,4.43Z" style="fill: #f4f0eb;"/>
          <path d="M10.45,14.88c2.45,0,4.43-1.98,4.43-4.43s-1.98-4.43-4.43-4.43-4.43,1.98-4.43,4.43,1.98,4.43,4.43,4.43Z" style="fill: #f4f0eb;"/>
          <path d="M39.98,14.88c2.44,0,4.43-1.98,4.43-4.43s-1.99-4.43-4.43-4.43-4.43,1.98-4.43,4.43,1.98,4.43,4.43,4.43Z" style="fill: #f4f0eb;"/>
        </g>
        <g>
          <path d="M-3.25,59.18c2.44,0,4.43-1.98,4.43-4.43s-1.98-4.43-4.43-4.43-4.43,1.98-4.43,4.43,1.98,4.43,4.43,4.43Z" style="fill: #f4f0eb;"/>
          <path d="M-3.25,29.65c2.44,0,4.43-1.98,4.43-4.43s-1.98-4.43-4.43-4.43-4.43,1.98-4.43,4.43,1.98,4.43,4.43,4.43Z" style="fill: #f4f0eb;"/>
        </g>
        <g>
          <path d="M54.75,1.18c2.44,0,4.43-1.98,4.43-4.43s-1.98-4.43-4.43-4.43-4.43,1.98-4.43,4.43,1.98,4.43,4.43,4.43Z" style="fill: #f4f0eb;"/>
          <path d="M25.22,1.18c2.45,0,4.43-1.98,4.43-4.43s-1.98-4.43-4.43-4.43-4.43,1.98-4.43,4.43,1.98,4.43,4.43,4.43Z" style="fill: #f4f0eb;"/>
        </g>
        <path d="M-3.25,1.18C-.81,1.18,1.18-.8,1.18-3.25S-.81-7.68-3.25-7.68s-4.43,1.98-4.43,4.43S-5.7,1.18-3.25,1.18Z" style="fill: #f4f0eb;"/>
      </g>
    </pattern>
  </defs>
  <g id="Layer_1" data-name="Layer 1">
    <g>
      <path d="M1552.47,87.33c.71.11,1.42.21,2.13.32,1.19,5.05-3.03,2.1-4.03,3.36,2.59.67,5.53-2.3,8.66-.56,2.24,3.04-1.35,4.42-1.82,7.33,5.61-9.43,12.72-11.75,21.75-5.89.87.94.41,2.26.9,3.31l.04.54c-.65.94-1.51,1.89.12,2.73,1.16.59,2.31,1.19,3.47,1.78,1.13-.48,2.51-1.02,3.46-.35,7.04,4.95,14.5,4.21,22.11,1.96,2.31-.05,4.64.14,6.89-.63,8.04-1.52,15.41.77,22.57,4.18,2.12,1.01,3.37,2.42,3.2,5.21-.45,7.39,1.74,9.17,8.99,7.82,1.4-.26,2.78-.29,4.17,0,2.58.85,5.14.65,7.69-.18,5.93-1.51,11.25,2.8,17.12,1.81,1.73-.09,3.12-1.72,5-1.19,1.43.47,2.47,1.48,3.4,2.62,2.24,3.65,6.3,4.94,9.55,7.14,2.47,1.68,4.23-.78,4.77-3.5-.31-2.13-2.25-2.92-3.43-4.34-1.99-3-2.19-5.43,1.97-6.48,3.27-.29,6.54-.31,9.82.03,2.4.41,4.3,1.6,5.57,3.76,1.85.09,3.71.18,5.56.27,4.78,1.78,9.43-1.28,14.18-.41,6.43,2.03,12.53,5.11,19.34,6.1,2.96.43,5.4,2.57,7.08,5.27.79,2.12,2.13,3.64,4.41,4.12,2.69,1.18,3.46,4.05,5.18,6.08,3.46.49,6.45,1.94,8.95,4.42,1.72.89,3.68,1.05,5.41,1.92,1.99,2.16,4.75,2.84,7.3,3.94,1.33,1.29,1.94,2.93,2.25,4.72.65,2.48-1,5.33,1.71,8.13.19-2.5-.46-4.9,1.46-6.41,1.38-.7,2.08.28,2.81,1.19,1.61.05,3.22.09,4.83.14,8.66-.78,13.38,6.47,19.81,10.2,1.63.95,1.56,2.88.23,4.26-3.84,3.97-6.87,9.49-13.53,7.58-.62.9-.4,1.49-.42,2.08-.12,3.36,3.14,7.42-1.44,9.86-2.92,1.56-9.89-1.34-12.67-4.72-.09-4.71-3.41-1.18-5.01-2.03-3.89-.51-6.23-3.21-8.13-6.31-1.07-1.75-2.02-3.43-4.21-3.8-3.15.27-5.77-.29-8.36-2.68-3.22-2.97-2.25-4.78.52-6.85-1.03-1.18-2.31-1.58-3.82-1.33-1.38,1.12-2.89,2.01-2.72,4.32.79,10.62-2.16,13.94-12.15,13.88-1.19,0-2.39.06-3.58.1-1.49.97-2.43-2.6-4.02-.53.61,1.29,1.99.23,2.76.96.49.27.84.67,1.08,1.19.16.56.31,1.12.47,1.69,6.54-2.72,7.61,4.36,7.6,6.57-.03,5.78,4.28,6.51,7.15,9.08,1.17,1.05,3.84,1.66,2.35,3.99-.94,1.47-2.13,4.1-4.62,2.6-9.09-5.46-16.35-.15-23.3,4.48-5.52,3.68-11.81,6.44-16.13,11.87-.74,1.75-2.32,2.78-3.52,4.12-2.35,2.64-4.89,2.71-7.11-.11-3.45-4.37-7.29-4.27-11.63-1.53-2.76,1.74-5.66,4.77-8.45-.13-.33-.59.08-.71-.18-.39-3.8,4.69-8.52,2.51-13.03,2.03-.47-.05-.95.79-1.03,1.39-.64,4.85-1.2,9.72-3.89,13.98-.23.36-.19.94.13,1.08,7.16,3.07,4.7,12.12,9.83,16.43.03.58-.05,1.16-.21,1.71-.9.9-5.74,10.75-6.22,12.66-.43,1.72-1.47,2.87-3.12,3.43-1.63.33-3.52-.68-4.89,1-1.4,2.4-1.95,5.21-4.49,7-2.37,1.68-.73,4.55-.97,6.88-.04.82-.09,1.66-.43,2.41-1.53,3.35-2.99,7.26-7.13,7.51-4.21.26-4.64-4.12-5.69-6.93-3.79-10.12-8.11-20-12.34-29.92-1.11-2.59-.97-5.11-.25-7.77,1.15-4.25,4.29-7.86,3.52-12.77-.26-1.66,1.78-2.59,3.14-3.41,8.84-5.32,15.58-12.68,20.54-21.79.91-1.68,2.27-3.5,3.99-3.45,6.52.2,6.38-4.7,7.14-9.02.28-1.6.31-3.27,1.01-4.78.41-.7,1.02-1.13,1.78-1.42.33-.13.82.19.98-.36-.39-.03-.77-.09-1.18-.17-3.62-.2-5.23,1.55-4.82,5.17.35,3.15-.48,5.33-4.06,5.18-3.13-.13-4.47,2.29-6.17,4.26-1.88,2.18-4.11,3.38-6.89,1.89-2.67-1.44-5.11-2.9-4.76-6.89.45-5.3-1.31-6.38-6.29-4.29-5.06,2.13-9.89,4.56-11.74,10.51-.43,1.37-1.65,2.28-2.7,3.22-2.34,2.09-2.83,3.86-.29,6.56,2.9,3.09,2.07,5.16-2.16,5.38-3.78.19-7.34,2.21-11.2,1.24-1.22-.65-2.43-.65-3.61.12-1.23,1.58-2.74,2.24-4.68,1.53-1.51-1.92-.6-3.1,1.18-4.02.06-.03.05-.04-.16-.38-.44-.69.2.21-.59-.04-2.23-.48-4.12-1.67-6.04-2.77-2.37-1.36-4.26-.97-6.63.55-6.42,4.12-13.51,4.3-20.38,1.5-7.24-2.96-14.66-1.38-18.79,5.46-5.49,9.09-12.6,16.93-18.33,25.81-1.47,2.28-3.81,3.55-5.76,5.27,3.13,4.25,9.58,2.16,12.44,7.05.73,1.24,2.05.07,2.89-.94,2.67-3.18,5.92-2.64,8.56-.43,3.99,3.32,7.23,7.09,9.54,12.26,2.78,6.23,3.21,11.79,1.48,18.14-1.06,3.89.89,7.67,2.04,11.35,1.89,5.98,1.4,11.13-3.38,15.7-2.77,2.65-3.94,6.26-5.04,10.16-2.22,7.87-6.47,14.96-11.25,21.58-2.2,3.04-5.49,2.88-8.82,2.07-2.08-.51-4.43-2.89-6.15-1.23-2.08,2.01-4.17,4.77-4.28,7.87-.17,4.56-2.09,7.76-5.59,10.28-2.26,1.62-2.44,3.42-.62,5.67,1.79,2.21,3.51,4.45,5.55,6.45,4.3,4.23,7.18,9.24,8.07,15.41.43,2.95.51,5.36-3.01,6.16-2.03.46-3.51,1.95-5.22,3-5.03,3.1-7.94,2.02-10.16-3.67-.98-2.51-.85-5.21-1.67-7.77-1.49-4.66-2.3-9.4-8.44-10.28-2.41-.34-2.68-3.16-2.94-5.51-.75-6.63-4.55-8.66-10.3-5.78-2.53,1.27-4.88,5.25-7.78,2.76-2.58-2.22-2.64-6.24-1.64-9.81.16-.59.04-1.22-.79-1.89-3.55,1.1-4.69,5.15-7.55,7.19-.79.56-1.41,1.58-1.72,2.48-.69,1.97-6.17.21-3.49,4.54,3.37,5.45,7.25,6.89,11.5,4.59,2.06-1.11,11.66.04,13.12,1.75,2.05,2.41.81,4.18-1.47,5.36-2.73,1.41-5.11,3.23-7.17,5.52-2.55,2.84-3.08,5.71-.05,8.57,4.88,4.61,8.1,10.7,13.18,15.14,3.15,2.75,2.49,6.92,2.1,10.17-.43,3.62,3.68,2.25,3.93,8.52-3.55,14.01-6.81,28.15-19.13,37.54-1.82,1.38-3.71,2.39-5.92,2.84-6.95,1.42-12.91,5.33-19.36,8.02-1.52.64-2.79,1.64-3.46,3.24-2.18,5.26-4.31,3.29-6.76.12-3.52-4.54-6.46-4.64-10.33-.48-1.38,1.49-2.9,2.83-4.25,4.34-1.79,2-2.8,4.56-1.21,6.72,3.66,4.99,6.04,11.24,12.08,14.08,11.92,5.61,14.49,16.41,13.16,28.19-.31,2.75-1.25,5.59-3.74,6.67-5.29,2.31-8.98,6.77-13.69,9.81-4.21,2.71-6.84,1.93-8.01-2.98-.85-3.55-2.89-5.32-5.65-7.33-5.92-4.31-10.75-10.18-18.42-12.11-.4.56.5,1.98.19,3.29-.04.93-.19,1.84-.4,2.74-1.62,9.19,3.33,19.3,10.48,24.9,6.88,5.4,13.75,11.34,15.56,20.91.48,2.53,2.29,4.27,3.57,6.34,1.54,2.49,3.08,5.35.75,7.89-2.1,2.29-4.96.81-7.36-.08-3.03-1.12-5.01-4.11-8.17-5.09-2.29-1.18-1.44-3.89-2.62-5.62-2-1.85-3.31-3.58-3.64-6.87-.54-5.46-4.06-10-7.62-14.18-1.42-1.67-2.83-3.36-4.25-5.05-1.08-1.13-2.36-1.15-3.73-.73-3.71-4.21-.14-9.04-.95-13.61-.44-2.5-2.37-4.54-2.25-6.23.45-6.31-2.42-10.3-6.2-14.83-2.55-3.06-2.59-8.3-3.76-12.56-3.28-2.45-5.94-.42-8.66,1.23l-.29.3.15.39c-2.66,2.99-5.23,2.67-7.72-.24-.18-2.64-.25-5.28.67-7.84-2.65-7.59-9.69-10.93-14.87-16.08-2.64-2.62-3.53-6.25-4.5-9.76-1.32-1.22-2.74-.3-4.12-.22-1.12-.58-2.08.09-3.08.43-2,.62-4.22-.68-6.14.71-5.95-3.58-7.55-2.46-9.34,4.96-.6,2.5-2.81,5.23-5.03,6.57-5.94,3.6-8.84,9.79-13.23,14.68-1.38,1.92.27,4.89-2.16,6.45-4.41,1.88-6.6,5.24-6.45,10.15-.54,1.8-.9,3.59-.03,5.4.44,1.04.9,2.07,1.21,3.16.44,1.76.48,3.54.19,5.32-1.04,2.92-1.81,5.8-.16,8.82.74,1.36.45,2.77-.56,3.97-2.72,3.26-4.48,7.18-7.17,10.49-4.81,5.9-7.3,5.78-11.07-.89-.5-.89-.88-1.83-1.09-2.83-.1-1.89-.16-3.79-1.76-5.16-2.94-4.65-8.3-7.8-8.51-14.15-1.38-1.38.27-4.04-2.04-5.03-2.99-4.08-6.59-7.73-8.53-12.55-1.31-4.41-2.62-8.82-3.94-13.22-1-1.7-1.73-3.5-2.07-5.45-2.69-4.78-1.88-10.53-4.09-15.44-.77-.79-1.87-1.36-1.67-3.09-.88,1.57-.42,3.38-1.94,4.21-4.8,3.56-8.98,3.78-12.19-2.18-.56-1.03-1.44-2.25-2.44-2.61-6.7-2.39-1.36-3.63.41-5.21q-.07-1.15-3.56-2.06c-5.24-2.83-10.01-6.74-14.55-10.25-6.7-5.19-12.83-3.26-19.43-2.88-1.16.07-2.3.55-3.45.84-3.61,1.25-7.52-.48-11.09,1.17-3.76.72-7.45.11-11.16-.59-3.52-.67-6.4-2.11-7.69-5.77-.8-2.26-2.17-3.28-4.54-2.48-5.57,2.62-10.76,2.52-15.49-2-1.16-1.1-2.69-1.96-4.29-2.12-5.33-.53-7.89-4.2-10.07-8.59-1.59-3.2-3.33-7.78-7.74-5.53-4.63,2.36-.65,5.98.33,8.98.38,1.16.75,2.67,1.71,3.18,5.48,2.94,6.4,9.1,9.73,13.91.58-2.13.98-4.56,3.58-4.44,2.46.11,3.03,2.32,3.57,4.33.11.4.06.83.16,1.21.53,2.13-1.97,5.72,1.6,6.21,3.59.49,7.86.47,10.2-3.51,1.66-2.82,3.85-5.23,5.48-8.06,1.02-1.77,2.1-3.71,4.7-2.35,1.2,1.54,1.1,3.41,1.29,5.2.43,4,2.38,7.09,6.1,8.2,6,1.79,10.16,6.05,14.57,10.09.95,1.78.93,3.64.5,5.54-4.04,10.38-10.51,19.09-18,27.09-1.39,1.48-2.75,3.01-4.58,3.95-1.53.81-3.11,1.5-4.7,2.17-5.51,6.73-13.46,9.26-20.65,13.33-8.15,4.62-17.14,6.76-25.24,11.23-3.76,2.08-9.02-.72-10.87-5.18-1.32-3.19-3.14-6.55-3.29-9.82-.45-9.78-5.94-17.57-11.71-23.54-6.29-6.52-12.7-11.89-13.53-21.61-.1-1.12-1.2-2.17-2.18-2.87-9.43-6.77-13.42-18.14-21.32-26.21-1.42-1.45-.98-3.65-2.01-5.2-.55,2.39-6,4.48-1.89,8.96,1.87,4.13,4.23,7.91,7.6,10.96,2.64,2.38,4.54,5.12,4.59,8.96.03,1.87.86,3.78,2.23,4.93,5.31,4.51,6.91,10.83,8.51,17.19,1.06,4.24,2.64,8.09,6.24,10.89,1.93,1.5,3.33,3.78,3.85,6.14,1.38,6.25,5.12,10.33,10.41,13.39,5.05,2.92,8.17,8.4,13.76,10.77,2.23.95,2.26,3.35,2.21,5.83-.12,6.76,5.16,10.3,10.83,7.01,8.06-4.68,17.29-5.02,25.78-8.04,3.89-1.38,6.12.45,6.06,4.93-.04,3.08.05,6.15-.79,9.15-1.14,3.06-1.68,6.35-3.17,9.29-1.26,1.74-1.09,3.88-1.5,5.85-.84,3.86-2.59,7.28-4.77,10.51-7.54,11.15-16.42,21.05-25.9,30.55-8.25,8.27-14.77,18.12-19.8,28.86-.44.93-.94,2.04-.58,2.95,3.51,9.09.22,20.03,8.45,28.09,4.24,4.15,1.73,10.96,1.77,16.59.02,2.83-.89,5.63.28,8.45.9,2.19-.2,3.98-1.58,5.56-2.28,2.61-4.61,5.27-7.8,6.63-6.29,2.69-10.77,7.73-15.78,12.1-4.35,3.8-6.55,8.12-3.93,14.01.73,1.64,1,3.53,1.2,5.37.15,1.88.15,3.76.02,5.63-.42,9.17-7.89,11.25-14.09,14.58-1.64,2.23.03,4.85-.79,7.18-3.53,10.2-9.94,18.27-17.91,25.18-1.06.92-2.49,1.54-3.21,2.71-6.69,10.88-17.12,14.58-28.84,15.9-3.6.85-7.35-.05-10.93.99-1.35.3-2.67.49-3.97,1.16-11.72,6.04-15.61,4.6-21.49-7.78-.73-2.54,1.39-4.44,1.45-6.8-4.71-6.76-7.45-14.77-12.98-20.99-.81-.91-1.73-1.93-1.81-3.12-.5-8.24-4.5-15.62-5.49-23.72-.17-2.62.49-5.34-.96-7.79-5.34-5.31-6.94-13.14-12.15-18.55-.69-.72-1.26-2.07-.85-2.79,2-3.53-.67-6.99.04-10.45.83-2.7.56-5.49.66-8.25.56-5.85,2.52-10.99,7.33-14.62,2.89-1.79,2.45-4.57,2.07-7.33-.89-3.93-4.11-7.03-3.91-11.35.45-3.02,1.26-6.05-.48-8.95-1.36-2.03-2.73-4.05-3.82-6.26-2.98-6.09-6.52-11.65-11.99-15.92-2.9-2.27-6.24-4.69-6.71-9.06.82-2.65-1.64-5.3-.03-7.97,2.21-5.8,2.19-12.13,4.18-17.97-.01-1.86.48-3.84-1.27-5.27-3.91-3.08-7.83-5.2-13.08-2.9-3.51,1.54-6.42-.23-8.77-3.28-1.58-2.05-3.64-3.72-5.1-5.9-1.93-2.7-4.45-2.54-7.15-1.53-7.31,2.14-14.72,3.97-21.21,8.27-3.1,2.06-6.47,2.1-9.81.92-4.67-1.65-9.03-1.16-13.27,1.32-.69.4-1.47.63-2.21.94-12.9,5.46-15.76,4.73-24.61-6.21-1.46-2.43-2.89-4.89-5.92-5.61-5.93-1.76-9.57-5.4-12.01-11.53-3-7.53-9.24-13.08-14.63-18.99-2.04-2.23-3.59-4.4-3.84-7.34-.23-2.69-.66-5.25-2.03-7.61-.72-1.25-1.56-3.09-.42-4,5.15-4.09,3.74-10.53,5.16-15.74,1.55-5.67-1.4-11.68-3.7-17.22-.98-2.09-.84-4.31-.75-6.52.48-4.16,2.98-7.4,4.81-10.94,1.35-1.67,1.12-3.86,1.76-5.76,4.99-7.11,7.31-15.86,13.18-22.44,1.31-2.06,3.26-3.25,5.42-4.16,5.35-3.08,10.34-6.55,13.29-12.32.23-2.31.02-4.58-.68-6.79-.46-2.45-.58-4.87.72-7.13,1.23-1.6,2.29-3.3,2.93-5.25,2.93-5.66,8.54-8.23,13.21-11.88.3-.85,1.52-1.28,1.1-2.46-.69-3.2.87-4.88,3.69-5.7,5.85,2.39,11.9.65,17.81.49,4.16-.11,7.12-4.17,10.79-6.18,2.49-1.36,4.85-3.28,7.67-3.29,9.8-.05,19.49-1.81,29.27-1.84,2.36,0,4.23-.99,6.29-1.71,5.8-2.02,10.07.89,11.14,6.83.87,4.83,3.61,9.11,1.46,14.63-.94,2.4,3.04,4.41,5.61,5.5,2.78,1.18,5.82,1.5,8.78,2.04,4.26.77,7.57,2.3,10.34,6.33,3.49,5.08,10.21,4.91,15.51,6.98,2.31.9,3.1-1.95,3.11-4.13.01-3,.65-5.68,3.11-7.63,5.81-3.43,11.51-4.76,16.86.91.98,1.03,2.25.53,3.42.56,4.62,1.17,8.95,3.25,13.77,3.86,5.54.7,10.92,2.31,15.87-2.15,1.81-1.63,4.55-1.19,6.95-.59,1.55.44,2.92,1.35,4.43,1.89,4.7,1.67,7.66.48,8.65-4.39,1.84-9.12,4.95-18.09,4.04-28.08-6.36,2.71-12.65,4.38-19.15.87-1.94-1.05-3.92-.04-5.67,1.1-2.33,1.51-4.85,1.75-7.53,1.42-8.37-1.04-13.17-5.78-15.4-15.36-.28-1.19-.26-2.44-.62-3.62-2.85-9.29,4.43-5.86,7.69-9.96,2.22-.52,5.25-1.88,6.23-4.46.83-2.2,1.37-3.61,3.4-3.82,5.28-.55,10.2-2.07,14.68-5.07,4.24-2.85,8.79-3.06,13.12-.48,7.5,4.46,15.61,2.92,23.55,2.8,3.04-.05,4.4-1.74,2.48-4.93-2.13-3.53-4.64-6.31-8.38-8.41-5.66-3.18-12.63-4.71-16-11.33-.89-2.03-.22-3.86.73-5.65,1.61-3.03,2.84-11.06,1.22-10.05-4.25,1.8-7.73,5.01-12.27,6.53,1.56,2.27,3.49,3.32,5.66,3.8,4.03.89,4.93,3.01,2.76,6.55-3.34,1.27-6.83,1.95-9.84,4.31-2.73,2.14-5.71,1.23-6.58-2.3-.85-3.44-7.77-8.24-2.76-10.49,7.83-3.5-2.85-2.18-3.79-4.13-.23-.47-2.65,1.5-3.32,2.88-4.39,9.01-8.71,18.09-10.88,27.99-.56,2.55.97,4.74,2.58,6.64,2.12,2.51,1.54,4.06-1.18,5.78-5.54,3.51-11.24,3.97-17.29,1.98-2.15-.71-2.65.63-2.82,2.38-1.39,3.32-3.28,1.81-5.78.22,2.94,4.29,3.87,8.95,6.96,12.53,1.68,1.94,1.47,3.7-1.45,4.25-.86-.03-1.63-.33-2.36-.77-1.38-1.03-3.03-1.04-4.63-1.22-8.11-1.54-15.58-9.92-16.48-19.34-.47-4.91-3.14-6.71-6.72-9.55-5.55-4.42-13.93-5.48-16.53-14.03-1.05-3.45-6.37-3.68-8.62-6.97-.39-.57-1.45.24-1.67,1.12-.26,1.02-.18,2.18.32,3,4.45,7.33,7.95,15.42,15.9,19.9,4.2,2.37,7.99,5.47,11.48,8.78,2.04,1.93,3.41,4.91-1.43,5.29-2.92.23-1.77,1.94-1.57,3.44.49,3.61-.09,6.99-2.67,9.67-1.3,1.35-3.08,2.29-4.91,1.29-1.7-.94-1.27-2.73-1.06-4.4.79-6.43-2.83-12.38-8.67-15.07-8.34-3.84-15.5-9-19.81-17.73-2.85-5.75-5.74-5.94-9.99-1.4-4.25,4.54-8.86,6.59-15.08,3.69-4.11-1.91-6.44-.27-6.04,4.27.51,5.78-2.17,8.83-6.84,10.88-6.28,2.75-9.14,7.13-8.3,14.5.79,6.96-7.35,16.66-14.2,17.51-5.46.68-9.75,5.06-15.45,4.66-1.02,0-2.12-.15-2.76-.92-3.26-3.9-7.57-4.78-12.27-4.65-2.21-1.39-1.93-3.77-2.28-5.89-2.79-4.87-2.9-9.88-1.31-15.25,1.77-5.95.51-12.08-.09-18.06-.7-6.96,4.87-12.51,11.75-11.26,6.49,1.18,13.05,1.56,19.65,1.64,4.01.05,6.21-1.62,7.45-5.55,4.2-13.3,1.21-20.22-11.67-26.18-1.11-.51-2.16-1.08-2.86-2.14-.44-.83-.6-1.71-.52-2.64.51-3.66,2.71-5.22,6.2-5.28,1.39-.02,3.89.23,4.01-.42,1.49-8.27,10-3.83,13.68-8.07,4.07-4.7,8.19-9.37,12.72-13.66,2.7-2.56,3.55-6.33,4.9-9.72,4.39-4.59,10.99-4.13,16.06-7.28,1.7-1.06,4.13-1,2.37-3.97-1.17-2.36-2.26-4.73-1.19-7.46.5-1.23-.02-2.4-.18-3.61-.7-5.59,4.23-11.26,9.73-11.07,2.62.09,4.53,1.65,5.57,4.09.96,2.24-.06,3.99-1.77,5.37-2.17,1.76-4.09,3.64-2.31,6.7,1.59,2.74,3.56,5.05,7.22,4.23,1.61-.36,3.33-.46,4.74.31,5.58,3.06,10.22,1.42,14.97-2.2,4.11-3.12,8.71-5.53,13.68-1.18,1.15,1,2.45.72,2.98-.62,1.4-3.52,4.22-6.68,2.88-10.97-1-3.19-.05-5.98,1.57-8.76,4.01-6.91,5.9-7.26,12.28-1.47.98-2.92,1.57-5.22-.81-7.73-3.59-3.79-3.2-7.52.77-10.82,2.64-2.19,5.78-3.36,9.01-2.6,5.42,1.28,9.85-.45,14.45-3.92-5.11-5.83-10.62-1.35-15.79-.66-1.71.23-3.17,1.72-4.85,2.41-7.44,3.06-15.03-1.86-15.31-9.95-.06-1.86-.29-3.67-.62-5.49-1.44-7.97-.55-15.04,6.7-20.12,2.79-1.96,4.31-5.36,6.85-7.73,2.06-1.92,1.17-4.21.18-6.23-1.18-2.42-3.24-1.87-5.25-1.19-4.04,1.37-6.26,4.26-6.87,8.5-1,6.9-4.06,11.85-10.56,15.24-8.26,4.31-9.21,14.37-2.76,21.01,1.14,1.17,2.25,2.35,3.02,3.81,2.85,5.43-5.22,8.54-4.82,8.73,3.54,1.69,2.45,3.97.28,5.57-3.55,2.62-3.75,5.97-3.13,9.83,1,6.23-1.54,10.88-6.77,13.79-2.1,1.17-3.41,2.55-4.47,4.63-1.27,2.49-3.76,3.03-6.25,2.78-2.68-.27-2.85-2.76-2.96-4.69-.59-10.35-7.62-18.28-9.7-28.2-10.49,11.64-13.87,12.71-22.66,7.4-.34-.47-.6-.98-.79-1.54-1.65-2.66,2.04-6.02-1.08-8.5-.11-5.45-5.17-10.38-1.68-16.21-3.22-1.25-2.19-3.33-1.02-5.43.41-.34.87-.6,1.35-.78,1.43-.27.81-1.36.82-2.22.27-.54.69-1.21,1.17-1.18,3.89.27,1.93-2.58,2.21-4.22,3.36-3.42,9.19-4.46,9.79-10.6.07-.69-.18-.49.3-.4,5.25.96,6.58-5.63,11.11-5.92,1.88.47,3.5.77,2.67.51-3.48-2.11-3.45-5.03-.83-7.44,2.7-2.48,4.27-5.81,6.91-8.24.65-.48,1.39-.76,2.16-.85,2.36.01.12-1.26.44-1.82-.1-1.63.28-3.15.77-4.66.74-1.78,2.53-2.61,3.57-4.13.86-.91,1.82-1.79.65-3.15-1.38-3.21.53-4.69,2.95-5.91,1.26-.53,2.34-1.38,3.48-2.09,2.45-7.56,8.6-11.17,14.97-14.54,1.67.51,3.35,2.22,4.97-.08,1.23-.57,1.41-1.69,1.47-2.9,2.24-2.52,5.13-2.13,7.62-1.09,2.26.94,2.71-.26,3.43-1.7.45-.31.94-.46,1.46-.47,3.07-4.36,8.1-1.8,11.92-3.53,2.69-.81,5.28-.73,7.69.91,2.57,2.43,6.35.66,9.04,2.69,1.25,2.71-1.31,3.71-2.59,5.35,2.42.9,4.59.5,6.77.14,1.6-.27,3.89-.82,4.61.4,2.51,4.21,7.11,3.74,10.61,5.62,1.94.75,3.87,1.61,6.03,1.11,1.52-.74,2.83.04,4.18.57,6.33,4.51,14.77,6.08,18.68,13.96.99,1.67,1.49,3.46,1.39,5.42-.49,3.19-1.17,6.28-4.16,8.14-12.3,4.3-23.2-.51-33.9-5.77-2.55-1.25-2.78-.54.48,1.35,6.21,3.6,11.19,7.79,10.87,16.07-.13,3.3,3.1,4.55,5.21,6.32,1.63,1.36,3.97,2.25,5.47.52,1.8-2.07-1.17-2.9-2.03-4.26-.97-1.54-2.66-2.97-1.56-4.9,1.25-2.18,3.43-1.65,5.4-1.03,1.34.42,2.51,1.34,3.87,1.69,3.69.95,5.36-.46,4.33-4.3-.84-3.14.44-4.61,2.66-5.99,1.68-1.23,2.72-3.14,4.45-4.32,2.44-1.61,5.04-1.82,7.74-.94.44-.34,1.77,2.16,1.45-.4-.22-1.75-1.54-3.21-1.93-4.98-.52-2.19-.08-4.56-1.26-6.61-.82-2.8-5.04-4.95-3.18-7.84,1.81-2.81,5.52,1.09,8.35-.35,1.78-.16,3.54-.11,5.26.4,1.76.62,3.2,1.7,4.13,3.36,1.52,2.71,2.65,5.36-1.73,6.5-1.12.29-2.6.61-2.21,2.25.35,1.47,1.7,2.2,3.03,2.75,1.24.51,2.45.42,3.07-.92.77-1.66,1.5-3.33,2.34-4.96,1.74-3.42,4.27-5.89,7.81-7.22,5.61-2.11,11.42-3.76,15.86-8.28.99-1.01,2.53-1.15,3.98-.92.55.13,1.05.38,1.5.72.79,2.91-.08,5.55-1.49,9.37,1.85-2.55,1.94-5.1,4.04-6.04,1.58-.73,3.25-.75,4.93-.63.52.04,1.04.12,1.54.22,2.05.56,3.01-1.33,4.48-2.1.5-.23,1.01-.38,1.54-.49,1.93-.21,3.86-.49,5.81-.49,1.34.18,3.27,1.92,3.33-1.3.07-3.94,3.06-5.53,5.9-5.9,5.45-.71,11.14-1.78,16.16,2.09,4.38,3.37,10.3,3.35,15.56,8.15-.73-4.78-2.53-7.12-5.05-9.03-.64-.49-1.41-.78-2.15-1.07-2.27-.88-3.62-3.48-2.5-4.81,4.08-4.83-6.52-12.99,3.71-16.03,3.41-.46,3.86-3.08,4.09-5.84.22-2.63-.22-5.35,1.12-7.83,2.96-3.76,6.74-1.02,10.14-1.35,3.11.28,5.94,1.14,7.89,3.88,1.05,2.1.99,4.34.79,6.6-.32,2.35-1.7,4.82.72,6.89.91,1.15,1.6,2.48,1.51,3.93-.43,7.39.65,14.17,5.85,19.96,2.4,2.67-.08,5.95-.62,8.81-1.41,7.5-7.54,13.62-13.44,14.16,10.35,2,16.94-3.47,16.74-14.12-.09-4.55,1.16-8.42,5.55-9.81,4.5-1.43,9.96,5.61,9.22,4.07-2.43-3.58-5.33-6.04-10.03-5.05-8.38,1.77-12.63-1.63-10.26-9.94,1.56-5.47-.13-8.31-2.96-11.76-1.06-1.29-1.43-2.91-1.37-4.61.03-4.64,5.76-5.87,5.95-10.42.37-1.58.99-3,2.5-3.79,1.72-.32,3.1.3,4.23,1.59.97,1.71.98,3.53.56,5.4-2.58,3.96-3.55,6.32-.87,2.1.56-.71,1.12-1.41,1.93-1.85.82-.35,1.67-.43,2.54-.32,1.8.03,4.48,1.5,3.82-2.46-1.22-4.57,1.84-4.21,4.42-3.7,3.4.67,6.14,2.88,8.79,5.03,3.11,2.51,6.46,3.94,10.48,3.25,3.4.27,4.28,2.44,2.86,5.09-3.4,6.35-2.01,11.33,3.18,15.14-1.83-4.9-1.11-10.59-1.71-16.02-.43-3.91-1.84-4.34-4.68-4.41-5.13-.58-8.64-3.03-10.61-8.19-2.34-6.14-1.34-9.04,4.92-11.51,2.13-.29,4.31-.14,6.38-.89,4.66.21,8.25-3.78,12.94-3.43,1.82.58,3.35,1.44,3.4,3.7-.25,1.03-.97,1.69-1.76,2.29.87-.41,1.49-1.1,2.03-1.88,2.37-2.64-.67-4.06-1.32-6.02-2.54-8.87-2.46-9.22,2.96-12.06,2.06-.14,3.43-1.31,4.36-3.13,2.78-2.93,5.94-4.04,10.14-3.96,4.83.09,8.61-3.66,12.79-5.87.79-.4,1.62-.63,2.48-.79,5.45-1.83,10.53.65,15.78,1.3,2.45.31,6.3,1.75,4.6-3.8-.73-2.37,1.23-3.22,3.15-3.47,2.99-.39,5.99-.39,9.7.23-4.16-4.76-2.88-8.47,1.51-11.57.33-.23.61-.53.92-.79,2.33-1.96,3.67-5.95,7.76-4.39,3.66,1.39,3.22,4.77,3.02,7.83-.22,3.41,3.1,1.71,4.21,3.14,1.42-.46-.06,4.07,2.57,1.53,2.31-1.38,4.86-1.87,7.43-2.32,1.83-.16,3.65-.16,5.47.05.6.06,1.2.18,1.78.33,2.91,1.01,5.81.87,8.7-.06,3.59-.88,6.86,0,9.95,1.86,3.48,1.92,7.99,2.91,7.43,8.5-.85,2.95-3.76,2.57-5.7,3.69,4.07,4.41,4,7.6-.33,10.75-3.37,2.46-6.85,4.74-10.94,5.78-1.61.44-2.99,1.34-4.36,2.28-4.67,2.14-8.67,5.69-13.79,6.91-1.75.42-2.2,2.2-3.25,3.36-.37.57-1.29,1.06-1.16,1.61.14.58.82-.08,1.26-.23,1.85-1.19,2.36-4.11,5.11-4.11,2.12-.31,4.34.04,6.35-1.02,1.28-.6,2.57-1.13,4.02-.91,2.16.99,4.42.97,6.67.66.33-.04.55-.25.56-.6-.86.39-1.7.61-2.61.64-1.68-.04-3.38-.21-3.68-2.28-.27-1.81.77-3.51,2.25-3.95,6.64-1.95,13.35-2.54,19.96.28,1.25,1.65.87,3.73,1.2,5.95,1.59-2.13,3.49-2.95,5.55-3.52,3.07-.65,6.09-.43,9.09.39,2.35-.18,4.71-.36,7.06-.54,1-.53,2.43-.39,2.68.36,2.22,6.6,6.84,4.02,11.02,3.17,1.62-.13,3.25-.19,4.85-.02,1.6-7.81,6.46-12.23,13.78-8.48,3.85,1.97,8.93-.17,12.29,3.65.8.03,1.61.05,2.41.08,3.97-1.17,6.89-.33,7.86,4.25-3.1,4.46-8.78,5.19-12.53,8.96,4.24-3.04,7.45.26,10.96,1.57,3.28.31,6.07.99,7.37,4.86.84,2.5,3.92,3.27,5.71,5.17,1.12,1.18,2.61,2.15,4.26,1.19,1.48-.86.94-2.49.91-3.87-.06-2.83.65-5.49,3.49-6.4,3.1-.99,3.65,2.45,5.35,3.9,3.03,1.23,6.07,2.23,9.35,1.15.03-.75.2-1.42.91-1.79,1.94.22,3.88.43,5.81.65,1.38-.52,2.64,0,3.9.46,1.49.59,3.1.8,4.59,1.39,3.68,1.94,5.77.67,6.46-3.36.13-1.08-.18-1.9-1-2.68-3.18-3.03-.97-4.37,1.74-5.51.8-.38,1.59-.75,2.39-1.13,2.9-4.95,7.7-4.3,12.26-4.29,6.25.02,12.18,1.54,17.9,4.05Z" style="fill: url(#_30_10_ppp);"/>
      <path d="M384.8,577.01c-3.56,2.25-7.13,2.04-10.72.07-2.02-.05-3.35-1.51-4.94-2.46-1.95-1.22-4.17-.6-6.25-.98-3.47-.55-5.33-3.17-7.19-5.79-1.37-1.81-3.47-1.24-5.27-1.64-11.03-4.63-14.74-10.3-14.69-22.61.01-2.53-1.09-4.73-1.6-7.1-.34-2-.98-3.86-2.46-5.32-2.43-2.99-5.27-5.57-7.88-8.37-2.74-2.95-5.96-5.35-5.43-10.22.23-2.13-2.06-3.3-3.31-4.86-4.67-5.83-9.16-11.8-11.21-19.24-.18-1.73-.11-3.46-.16-5.19.14-4.06-3.72-4.65-5.7-6.81-2.06-.31-.85,1.52-1.35,2.21-.02,2.77,1.45,5.11,2.15,7.66.37.69.76,1.37,1.15,2.05.54.9,1.08,1.8,1.65,2.69,1.05,1.63,1.61,3.5,2.45,5.23,1.58,8.84,7.91,15.87,9.04,24.92.49,3.93,5.82,4.28,6.58,8.25.4,2.28.16,4.38-1.65,6.02-4.62-.1-14.78-8.26-14.65-12.7.18-6.24-2.85-9.72-7.63-12.45-1.04-.6-1.82-1.55-2.43-2.61-1.88-2.83.11-4.8,1.47-6.9-.43-4.37-3.25-7.48-5.94-10.31-5.06-5.34-7.27-11.48-6.84-18.76,0-1.73.01-3.46-1.01-4.97-1.43-2.51-3.05-4.86-5.77-6.04-9.28-4.02-12.27-12.57-14.89-21.41-.16-1.8.12-3.66-.68-5.38-8.88-11-10.88-23.24-6.37-36.65,1.48-3.37.74-6.95.89-10.44-.28-6.42,2.7-11.65,5.95-16.76,1.76-2.06,1.65-4.75,2.25-7.19.01-1.47-.5-2.85-.67-4.29-.4-3.06.04-6.2-.94-9.2-.26-1.92-.26-3.78,1.31-5.22,2.86-1.72,5.76-.81,8.73-.01.71-3.51-1.89-5.23-3.55-7.41-1.21-3.05-1.67-6.75-5.94-7.18-3.15-4.5-8.94-2.73-12.78-5.6-1.28-7.34-2.58-14.66-6.08-21.34.65-4.15-3.26-4.73-5.19-6.85-.31-.5-.54-1.04-.7-1.6-.71-3.52.57-7.78-3.58-10.02-4.35-3.39-3.93-8.3-4.01-13.04-2.26-1.98-4.83-3.68-5.67-6.86-2.85-3.63-4.12-8.25-7.6-11.59-2.45-2.36-3.94-2.62-5.8.22-3.44,1.58-6.22.13-8.53-2.26-2.1-2.17-4.55-3.82-6.94-5.58-1.42-1.2-2.36-3.57-4.91-2.15-10.63,1.71-20.95,1.81-30.01-5.47-3.13-2.51-6.3-5.37-10.7-2.6-1.65,1.28-2.06,3.53-3.62,4.87-5.41,2.32-8.37,8.91-15.05,9.04-1.91.27-3.79.28-5.6-.52-3.18-2.84.37-13.7-1.84-10.81-1.93,2.37-3.24,5.19-5.3,7.46-2.38,2.63-7.3,4.27-2.37,9.37,1.65,1.71-.92,4.38-3.04,5.86-12.15,8.5-25,16.02-35.82,26.41-2.36,2.27-5.59,3.57-8.55,4.42-10.43,2.97-19.76,8.82-30.2,11.66-.41.36-.83.73-1.24,1.09-1.12,1.96-2.56,3.49-4.94,3.72-1.3-.09-2.37-.47-2.53-2.04,6.33-9.17,15.93-13.35,25.66-17.18,2.72-1.07,5.14-2.11,6.86-4.58,2.18-3.12,5.44-4.79,8.7-6.4,5.94-2.93,10-7.44,11.53-14.12.26-1.11,1.56-2.38.3-3.31-1.14-.85-2.94-.93-3.81.47-2.59,4.13-6.03,3.17-9.6,2-1.93-.63-3.9-.86-5.93-.89-6.19-.08-7.82-1.66-8.09-7.83-.1-2.21.42-4.52-1.5-6.63-3.62,2.82-7.58,4.96-11.73,1.25-2.06-1.84-4.56-4.05-3.97-7.17.62-3.24,3.67-3.14,6.28-3.14.03-.43-.26-.54-.73-.7-10.99-3.92-11.58-5.45-5.53-15.56,3.63-6.07,7.88-11.15,15.61-12.19,4.51-.61,8.52-3.47,12.85-5.1,3.82-1.44,3.81-5.79,4.86-9.71-2.97,3.17-6.32,4.02-10.06,3.95-4.41-.09-8.83-.14-13.2.82-3.45.76-6.23-.93-8.88-2.92-2.59-1.94-4.74-4.41-7.39-6.3-4.37-3.12-4.42-5.03.22-7.31,3.72-1.82,6.56-5.69,11.26-5.35.78-.43,1.56-.85,2.33-1.28,3.01-3.07,7.11-3.54,10.91-4.64,2.33-.67,3.8.62,4.6,2.81,2.78,1.41,5.5,3.81,7.15-1.56.78-2.55,3.21-1.54,2.09-1.92-5.91-.35-11.43-1.11-14.81-7.27-1.34-2.44-4.55-3.2-7.1-4.42-5.17-2.48-5.41-4.36-1.27-8.45,1.79-1.77,3.84-2.66,6.35-3.13,7.24-1.35,13.26-4.17,18-10.87,4.19-5.93,11.17-8.94,18.89-8.54l-.09.08c1.04-1.18,2.56-1.34,3.81-1.13,2.57.43,3.99.48,4.53-2.96.39-2.48,3.55-3.3,5.91-3.07,4.95.47,9.32-1.46,13.86-2.73,1.7,0,3.39-.02,5.09-.03,5.7,3.6,12.02,2.76,18.24,2.68.8-.01-.03-.33.58.08,9.07,6.07,19.17,1.26,28.65,2.88.98.17,2.15-.15,2.97.32,6.6,3.79,13.82,4.68,21.2,4.93.41-.05.82-.1,1.23-.15,1.14-.52,2.58-.94,3.48-.25,5.63,4.31,12.14,4.91,18.83,5.38,3.64.25,6.83,2.37,9.75,4.59,2.52,1.91,5.32,2.85,8.35,3.24,1.18.15,2.87.38,3.07-1.08.78-5.49,5.5-5.28,8.81-5.72,7.89-1.07,15.09-3.85,22.23-7.1,1.66-.75,3.68-1.45,5.07.08,1.47,1.62.16,2.96-1.28,3.96l-.13.26c1.22-.62,2.37-1.65,3.78-1.5,4.51.5,7.34-2.02,9.79-5.34.31-.26.33-.53.04-.82,3.85-1.26,4.77-.87,5.84,2.69.53,1.76.21,3.76,1.18,5.37,1.16,1.91,2.48,3.29,4.66.86,5.1-5.68,5.88-5.55,9.7,1.36,4.83-4.96,10.09-3.99,15.4-.96,4.56,2.59,9.71,3.88,14.07,6.95,2.22,1.56,4.95,1.56,7.6,1.16,2.24-.34,4.38-.25,6.41.98,5.27,3.2,5.47,7.27-.19,12.75,6.47,1.6,12.32.27,17.98-.69,8.42-1.43,12.87.63,16.83,9.63.77-3.61-1.61-7.14,1.22-9.67,2.39-2.13,4.53-2.44,3.34-2.19-1.35.28-2.43-.31-2.88-1.61-.48-1.39.5-2.27,1.42-3.09,4.29-3.83,11.21-3.04,15.15,1.4,4.47,5.03,10.68,6.82,16.9,7.67,2.81.38,5.99-.07,8.97-.49,1.35-.19,3.21.17,3.8-1.32,2.34-5.94,6.31-4.31,10.45-2.69,4.79,1.88,4.69,5.49,3.46,9.58-.09.9-.25,1.79-.74,2.58.96.1.85-.9,1.31-1.35.63-4.55,3.09-7.79,6.52-10.64,4.12-3.43,3.34-10.55-1.17-13.42-5.88-3.74-6.9-13.76-1.86-19.04,1.53-1.61,3.3-2.98,4.88-4.56,1.95-1.96,4.49-3.62,7-2.19,2.99,1.7,7.03,3.09,7.18,7.47.13,3.63.65,6.86,3.26,9.51.42.42.45,1.24.84,1.6,2.71,2.44-4.67,5.66.94,8.32,3.79,1.8-.1,6.1,1.41,9.04,1.09-.28,1-1.83,1.75-2.73,1.54-1.83,3.28-3.17,5.73-2.37,2.54.83,3.83,2.84,4.17,5.5.25,1.89-.22,3.62-1.03,5.33-.85,1.78-.08,3.36,1.44,4.16,1.57.82,1.81-1.05,2.53-1.89,4.56-5.32,10.11-9.92,10.76-17.85.2-2.45,2.75-3.34,5.25-2.81,5.38,1.15,9.41,4.6,12.78,8.67,1.77,2.14,1.3,5.07-.49,7.41-1.08,1.42-2.8,2.46-2.33,4.67.13.85.22,1.7.28,2.56,1.57,6.75-2.91,10.17-7.43,13.21-2.79,1.88-7.58-1.99-7.39-1.65,1.84,3.43.27,4.96-2.96,5.47-2,.32-4.02.2-5.96-.39-2.09-.63-3.48-.17-4.19,2.08-1.22,3.9-4.31,5.09-7.89,5.5-2.82.26-2.5-.22.11.7,1.09,4.18-1.24,11.18-4.85,12.28-4.61,1.41-9.06,3.12-13.51,4.94-.94.38-1.96-.12-2.84-.67-2.65-1.9-3.87-1.99-1.53-.85,3.59,2.82,3.05,5.54-.5,7.7-2.52,1.54-4.07,3.87-5.9,6.01-5.74,4.75-9.4,11.23-13.5,17.29-2.12,3.12-1.3,7.01-.64,10.61.14.8-.06,2.06.48,2.34,4.92,2.6,5.91,7.27,6.55,12.22.3,2.33,1.66,3.53,4.1,3.59,10.36.26,17.72,6.81,25.13,12.96,2.83,2.35,5.39,3.65,9.19,3.31,5.98-.55,7.49,1.67,8.15,7.79.7,6.48-1.34,13.01.76,19.42.74,2.25.45,5.85,3.53,5.39,2.74-.41,6.12-2.53,5.66-6.16-.77-6.02,2.74-11.58,1.26-17.62-.71-2.89,1.57-3.93,3.82-4.54,8.31-2.27,12-8.34,13.14-16.52.7-5.07.55-9.74-4.41-12.96-3.24-2.1-3.36-5.12-.49-7.66,6.95-6.14,7.83-14.33,8.05-22.91.22-8.74,2.53-10.39,10.84-8.27,1.17.3,2.42.89,3.53.69,8.8-1.57,14.24,3,18.34,10.15.87.73,1.81,1.33,2.8,1.87,3.15,1.56,5.25,3.21,3.37,7.55-1.33,3.07-.54,6.81-1.13,10.26-.56,3.34,2.99,4.03,5.11,5.16,2.96,1.58,5.9.67,8.22-1.77,2.54-2.68,3.83-6.23,5.98-9.18,1.65-2.25,3.12-5.14,6.7-3.58,3.16,1.37,3.32,3.89,3.04,7.11-.44,5.02,2.31,9.38,4.01,13.91,1.44,3.84,2.86,7.48,2.4,11.83-.58,5.48,2.98,9.06,6.79,12.22,1.08.89,2.52,1.29,3.65,2.13,2.04,1.52,5.09,2.53,4.63,5.77-.41,2.93-2.62,2.21-2.62,2.21,8.47.36,9.81,2.18,9.47,10.2-.63,2.14-.85,4.36-1.18,6.55-.14.62-.39,1.19-.72,1.73-1.96,1.98-4.56,3.03-6.72,4.72-4.67,2.12-9.32,3.8-13.14,7.94-4.48,4.85-10.67,3.34-16.33,1.32-3.02-.23-6.05-.09-9.07-.14-3.67-.45-6.22,1.65-8.65,3.99-2.69,2.29-2.39,2.9.98,1.9.97-.25,1.96-.34,2.95-.22,3.01.36,5.33,1.94,6.32,4.8,1.28,3.69-1.89,5.31-3.9,7.39-.23.88-2.32.23-1.5,1.97,2.94,4.05,3.05,9.81,7.66,12.77,1.6,1.16,3.5.21,5.19.77,1.38.41,2.76.82,3.71,2.05.62,1.16.68,2.38.33,3.63-1.65,3.23-5,4.02-7.87,4.98-4.46,1.48-8.17,3.5-11.26,7.28-2.12,2.59-5.33,4.98-8.11.16-.59-1.86-.56-3.76-.36-5.67.07-.62.22-1.23.43-1.82.74-2.1.65-2.57-1.25-1.92-.36.33-.71.67-1.03,1.05-1.03,1.91-2.4,3.45-4.37,4.39-4.72,1.41-8.82,3.96-12.27,7.44-2.55,2.57-5.51,5.46-1.37,9.22,1.18,1.07.91,2.27.09,3.24-1.73,2.04-3.59,4.02-6.63,2.33-4.63.72-8.56,3.84-13.33,4.11-.36.02-.97.34-1,.58-.84,6.68-6.86,11.02-7.73,17.62-.49,3.76-3.22,5.78-5.39,8.29-1.94-2.4-1.63-.85-1.61,2.85-2.47,2.88,3.6,6.49-.76,9.21,1.92,2.96-1.09,3.66-2.39,4.46-5.08,3.12-9.86,7.11-14.22,10.74-6.64,5.54-13.89,11.81-13.87,23.18.02,8.47.82,16.73,1.69,25.05.33,3.13.3,6.15-.94,9.04-.69,1.6-1.96,2.77-3.77,2.38-1.56-.33-3.25-1-3.37-3.01-.23-4-1.58-7.38-4.03-10.59-.87-1.14-.81-3.9-.07-5.31,2.91-5.51-1.14-9.34-2.92-13.57-1.32-3.14-3.3-.67-4.77.47-2.38,1.84-3.56,2.43-5.99-.92-3.51-4.85-9.52.98-14.32-1.56-.93-.49-5,.57-4.88,3.35.22,5.19-3.97,4.7-6.64,6.22-.84.48-2.21,1.37-2.67.42-2.28-4.7-6.52-2.78-9.97-3.24-4.07-.54-7.89-.54-10.08,4.4-.76,1.72-3.52,2.52-5.36,3.75-5.22,3.48-9.24,6.78-9.4,14.69-.15,7.57-4.04,15.04-2.98,23.08.07.55-.13,1.32-.49,1.73-6.55,7.36-.34,12.48,3.02,18.08.51.85,1.9,1.69,1.79,2.33-1.55,8.5,6.18,7.91,10.15,10.95,1.08.83,2.29.55,3.46.15,3.96-1.34,7.62-3.39,11.6-4.77,2.47-.85,4.49-3.79,4.19-7.48-.24-2.99-.61-7.38,2.17-8.4,5.09-1.88,10.2-5.17,15.83-4.16,3.25.58,2.53,4.23,1.16,6.01-5.03,6.54-4.55,14.71-6.78,22.05-.68,2.22-1.7,4.17-3.03,5.94-2.47,3.29-.68,4.29,2.27,4.57,3.25.31,6.36-.66,9.49-1.36,4.21-.94,8.14-1.17,11.61,2.53,2.25,2.4,3.07,3.82,1.16,7.21-3.4,6.06-2.85,13.4-3.11,20.01-.15,3.88,4.55,8.16,7.49,11.54,2.91,3.36,7.83,1.38,11.27-1.53,1.42-1.2,1.16-5.12,3.43-4.27,3.22,1.21,7.04,1.17,9.69,3.84,1.41,1.43,2.69,2.99,3.69,4.1,5.78-5.01,6.75-13.59,13.28-17.82,4.77-3.09,10.33-4.92,14.05-9.66.57-.73,1.91-.94,2.75-.13,1.22,1.18.41,2.23-.54,3.08-4,3.55-.07,9.11-3.17,13.1-.6.77,2.26,3.23,3.65,3.25,2.43.04,1.71-2.48,1.22-3.78-1.67-4.42-1.66-8,3.56-9.63,2.48-.77,1.35-3.3,2.48-5.4,2.55,3.5,7.11,4.22,8.42,8.59.25.84,1.09,1.68,1.76,1.27,6.87-4.18,14.79,5.79,21.45-1.69.61-.68,2.3-.36,3.49-.5,1.04-.77,2.23-.71,3.41-.55.9.13,2.21-.3,2.49.95.4,1.76-1.64,1.24-2.25,2.13,6.76,2.06,9.4,9.27,15.19,12.64,1.88,1.09,3.94,2.87,4.01,5.68-.21,4.16,4,.48,4.81,2.83.38,1.23,1.4,1,2.3,1.06.57,2.8,2.84,3.08,5,3.52,10.73-2.76,21.24-.5,25.05,8.77,2.42,5.9,10.2,12.45,3.82,20.61-1.54,5.99-5.51,8.14-3,5.92,1.59-1.41,2.93-3.39,5.49-2.1,2.35.07,4.7.13,7.05.2,1.37,1.98,1.19,3.91-.21,5.78-.94,1.5-1.08,1.81-.13.5.81-1.17,1.8-2.12,3.18-2.54,7.49.23,14.77.99,19.16,8.5,3.46,1.61,7.23-.18,10.73,1.02,5.8-1.39,11.37-.35,16.86,1.61,1.96.79,4.01,1.46,4.78,3.81,2.69,3.78,5.7,6.29,10.87,4.94,3.41-.89,6.43,0,6.23,4.86-.06,1.54.78,3.13,1.22,4.69.74,3.68.75,7.36,0,11.05-3.64,9.35-13.38,13.33-18.31,21.57-.9,1.5-2.4,2.63-3.63,3.92-.87.78-2.1,1.42-1.14,2.94-1.07,7.2.48,14.49-1.04,21.73-.69,3.3-3.75,5.88-2.65,9.63-1.2,2.05.43,4.66-1.28,6.61-2.7,3.84-6.34,7.37-7.73,11.66-.74,2.28-.42,4.63-2.92,5.93-.74,2.17-2.17,2.91-4.45,2.83-2.71-.1-5.47-.5-8.15.43-6.73,5.23-15.38,7.49-21.13,14.24-1.38,1.62-3.68,2.81-2.36,5.61.74,2.46.78,4.91-.03,7.36-1.42,8.12-6.72,14.13-10.89,20.76-.91-.73-.96-1.68-.68-2.72-.4.79-.53,1.67-.83,2.49-.43,1.17-1.34,1.98-2.14,2.87-2.9,3.08-7.02,4.94-5.46,11.06.93,3.65-11.24,12.06-16.27,12.27-2.37,2.19-5.19,1.69-7.96,1.42-.71-.11-1.39-.4-2.11-.51-.79-.12-1.32.25-.52.1.79-.15-.38.93.3.44,2.83,2.25,3.57,5.88,5.68,8.62,1.74,2.27.24,4.66-1.09,6.77-4.42,7.02-10.93,10.75-18.85,11.73-4.97.62-7.58,2.76-7.7,8.06-.13,5.73-3.95,6.91-8.69,6.83-1.74-.03-4.15-.57-4.94,1.3-.99,2.37,1.8,2.66,3.04,3.77,1.95,1.75,1.84,3.4-.14,5.09-3.36,2.87-5.32,6.42-5.83,10.99-.3,2.68-2.2,4.72-4.43,6.31-4.83,3.47-4.82,3.5-.12,7.67,1.22,1.08,2.45,2.13,2.58,3.95-.14.33-.15.66-.05,1-.26,2.96-2.58,4.47-4.41,6.24-2.22,2.13-4.12,4.36-4.81,7.49-.36,1.61-.94,3.38-2.49,3.98-6.01,2.32-6.04,6.69-4.23,11.84-.06,1.27-.64,2.26-1.56,3.07-1.4,1-3.18,1.3-4.46,2.52-1.44,1.53-1.86,3.57-2.6,5.44-.98,2.48-2.37,4.27-5.37,3.61-1.2-.41-1.87-1.26-1.99-2.54.34-4.83-3.77.57-4.42-1.98-1.09-4.36-2.63-8.29-7.95-8.56-.85-.07-1.66-.28-2.42-.66-2.3-1.57-1.69-3.33-.33-5.14.29-.48.61-.93.93-1.38,2.07-2.43,2-4.74-.38-6.92-2.55-2.47-3.1-5.15-.71-8.04.91-1.1.54-2.3.56-3.48.01-.47.08-.94.16-1.38-.26-1.67-1.62-1.03-2.57-1.25-2.17-.2-5.17-.41-4.95-2.95.22-2.61.89-5.95,4.26-7.06,1.65-.28,3.19.03,4.65.83.78.37,1.51,1,2.47.51.55-.89.74-1.9,1.17-2.82.64-1.72,3.41-3.07.87-5.33-2.43-3.09,1.08-6.22-.08-9.33.02-1.27.48-2.4,1.1-3.46,2.33-3.95-.08-4.32-3.08-4.27-1.89-.81-2.76-2.28-2.7-4.35.41-2.12.5-4.27.58-6.43,2.13-5.43-1.54-11.1.65-16.53,1.18-1.73,3.31-2.88,3.21-5.42.1-.57.25-1.12.41-1.67.76-2.24,1.53-4.48,2.07-6.8,3.4-11.01,2.31-22.44,3.37-33.62,1.07-11.3,1.22-23.09,5.13-34.08.2-.57.68-1,1.12-1.42.38-2.87.76-5.75,1.14-8.62-1.42-4.04-.68-8.25-.91-12.38-.06-2.43-.11-4.86-.17-7.3-4.94-5.33-11.01-9.06-17.69-11.34-6.69-2.29-10.7-6.88-13.56-13.02-.56-1.94-.32-4.07-1.4-5.88-2.2-4.12-4.36-8.26-7.33-11.89-.64-.78-1.36-1.53-1.59-2.55-2.61-11.51-3.59-13.5-12.49-25.22-.68-1.98-.52-4.14-1.22-6.12-.17-.58-.28-1.17-.37-1.76-.18-1.48-.2-2.97-.08-4.46.05-.61.18-1.21.33-1.8,1-4.02,6.02-6.69,1.62-12.53-2.94-3.9,1.6-9.11,4.07-13.31.55-1,1.23-1.9,1.96-2.77,3.95-3.02,7.44-6.42,8.97-11.42.3-.47.65-.91,1.03-1.33,4.33-2.92,3.98-7.49,4.05-11.92.08-.57.22-1.12.37-1.67,1.01-6.8.93-13.41-2.76-19.54-.81-1.34-.79-3.35-2.84-3.53-2.02-.17-3.49.97-4.42,2.65-1.63,2.93-2.45,7.79-6.7,6.48-5.28-1.63-12.02.77-15.82-5.36-1.4-5.24-6.95-5.06-10.1-8.03-.1-1.17-.19-2.34-.29-3.52-.92-2.03-.48-4.19-.62-6.3-.04-1.06.02-2.19-1.44-2.36-2.29-.67-3.84-2.23-4.95-4.31-.84-3.25-3.21-3.15-5.74-2.72-2.08-.07-4.24.06-5.66-1.97-1.98-2.96-4.93-.68-7.31-1.41-3.47-.23-6.2-2.25-7.74-4.99-3.39-6.06-8.08-8.35-14.66-6.9Z" style="fill: url(#_30_10_ppp);"/>
      <path d="M593.6,57.76c-.49-2.66-2.74-3.26-4.7-4.27-4.06-2.08-3.98-4.17.05-6.25,3.13-1.61,6.15-3.58,9.92-2.66,1.44.35,3.18.5,3.91-.78,2.03-3.58,5.11-3.28,7.87-2.04,5.15,2.32,6.49-4.71,11.54-3.51-2.32-3.08-4.08-3.34-6.44-1.52-2.47,1.91-4.25,1.08-5.68-1.75-1.89-3.74,1.08-3.62,2.98-4.22,4.3-1.34,7.28-7.33,12.95-3.85,1.45-3.81,3.77-3.12,6.41-1.4.16.1,1.61-1.08,1.54-1.5-1.21-7.46,4.39-6.85,8.7-7.77,1.41.3,2.67.85,3.58,2.05.42.44.8.9,1.06,1.46.28-.74-.45-1.06-.67-1.59-.34-.82-.35-1.55.18-2.27,2.77-.58,5.52-.78,8.27.12.42-.04.83-.08,1.25-.13,1.91-1.04,4.2.35,6.06-1l-.04.02c2.06-1.29,3.63-.79,4.73,1.37-.29,1.51.63,2.48,1.5,3.46,2.74.17,5.44-1.48,8.2-.13,1.49.47,2.96,1.08,4.49,1.37,2.25.43,3.84-.14,2.03-2.72-1.23-1.75-2.82-3.39-.47-5.09,1.88-1.36,4.26-1.2,6.14.23,4.63,3.52,11.79,2.41,15.08,8.63.3.56,4.68,2.57,3.44-2.71-.8-3.4,4.34-.89,5.46-3.38,1.12-1.13,2.47-1.1,3.03-1.07-1.23-.25-3.43-.18-5.4-1.15-.68-.08-1.37-.16-2.05-.24-2.06-2.22-3.81-4.41.91-5.4,1.09-.23,1.73-.81,2.08-1.82,3.08-1.43,5.91-3.81,8.31,1.51,2.1,4.64,7.05,3.67,11.16,3.82.89.03,1.75-.6,1.42-1.44-2.96-7.5,3.27-5.29,6.37-6.3,1.83-.6,3.73-.99,5.6-1.47,2-.65,4-.7,5.99.04.14.36.38.46.72.3,3.3,1.15,6.82-.24,10.13.88.82.02,1.63.04,2.45.05,5.61-.95,11.23-.69,16.85-.06.46.61,2.97.75.81,1.95-1.56.86-3.7.65-5.58.92-5.49,3.28-11.73,3.62-17.77,4.61-1.64.27-3.13.47-4.26,1.78-.93.76-1.87,1.5-3.87,2.24,2.68-.57,3.72-2.1,5.15-3.03,10.05-1.81,19.88-5.69,30.37-3.48.79.42,1.55,1.25,2.45.19,2.67-1.28,3.1-.01,2.57,2.35-.75,1.95-1.01,3.7,1.81,3.87,1.47.08,2.85.13,2.78,2.19-.86,1.89-2.46,2.67-4.36,2.77-8.14.4-16.16,3.63-24.4,1.21-4.43-1.3-4.22,4.6-6.44,4.68,5.26-1.95,11.88-2.84,18.51-3.54,3.41-.36,6.37.17,4.43,5.01,3.42-.24,6.15-1.37,7.55-4.91.81-2.04,2.37-3.27,4.75-2.66,7,3.36,7.17,4.59,1.92,9.95-1.16,1.18-1.58,3.11-2.35,4.69.15,3.83,1.66-.97,2.21.36,1.07-.75,2.24-1.39,3.2-2.26,3.37-3.07,5.81-8.62,11.78-3.52,1.42,1.21,4.41,2.18,5.3-1.78.36-1.59,2.37-1.03,3.69-1.02,4.38.02,8.8-.15,13.14.32,1.63.18,4.57.63,4.22,3.24-.2,1.45-2.43,2.1-4.29,2.21-3.56.21-5.44,2.15-5.15,5.94-3.72,2.36-4.87,1.88-9.56,4.03h.02c-.28.25-.58.47-.93.6q-2.11.75-.42,2.26c-.78,1.43-1.57,2.87-2.35,4.3-2.49,2.6-5.14,5.03-7.93,7.28-3.43,2.77-4.03,5.4-.19,8.26,1.8,1.34,3.27,2.97,3.84,5.26-.31,3.96-2.62,3.28-5.01,2.31,0,1.14,1.14.76,1.58,1.27.55.31,1.13.43,1.73.46,2.98.12,5.23,1.16,4.59,4.73-.58,3.19-3.03,4.15-5.85,3.84-3.1-.34-6.2-1.64-9.58.98,4.34,1.91,6.86,4.83,5.53,9.76.22,2.23-3.11,2.45-2.59,4.84.24.38.49.74.81,1.04,1.03.67,2.25.72,3.36,1.12,1.37.76,3.31,1.35,2.49,3.44-.88,2.24-3.03,2.15-5.09,2.26-2.49.14-4.26-3.62-7.02-1.26,1.15,1.97,3.67.73,4.98,2.26,2.11,3.18,1.67,5.93-1.31,8.25-5.32,2.52-9.61-1.18-14.29-2.52-2.06-.59-4.03-2.49-5.01,1.82-.6,2.63-4.05,2.61-6.99,1.82,4.31,7.21,12.01,8.51,18.08,12.32,4.45,3.5,3.08,8.41,2.78,12.93-.12,1.87-1.59,3.52-3.75,3.05-3.75-.82-8.8,2.18-10.94-3.48-1.04-2.74-2.74-4.89-4.56-7.02-.82-1.02-1.96-1.07-3.12-1.09-.38,0-.76-.01-1.14-.01.56.08,1.13.03,1.71.09,1.94.38,3.62,1.23,3.18,3.54-.34,1.82-2.09,2.29-3.7,2.64-1.92.41-4.03.31-5.5,1.95-.45,2.84,6.1.18,3.45,4.68-1.81.79-3.69,1.33-5.04,1.33,1.5.24,3.37-.66,5.33-1.29,4.52-1.69,9.04-3.13,13.58-.08,1.2,1.16.59,2.31,0,3.47-4.61,6.45-10.69,11.03-17.74,14.36-1.99.49-4.08.42-6.04,1.12-2.07.52-4.14.59-6.18-.17-.38.05-.73.18-1.06.39-2.33,2.63-6.11-.45-8.41,2.25-4.82,7.78-9.28,15.9-16.97,21.19-2.75,1.89-6.41,1.63-9.54,2.87-1.19.47-1.99-.98-2.28-2.27-.18-.71.35-1.38.15-2.09-1,.49-.95,1.37-.82,2.29-.23,3.06-2.45,3.74-4.83,4.27-2.32.52-4.58,1.17-5.44,3.84-.16,1.31-.03,2.65-.47,3.91-.2.48-.48.91-.84,1.29-1.67,1.13-1.31,3.16-1.99,4.74-4.09,3.94-5.25,9.46-7.09,14.49-2.41,6.58-6.84,12.22-8.29,19.22-.15.72-1.19,1.01-1.99,1.18-2.2-1.79-5.08-.97-7.47-2.02-2.01-1.09-3.34-2.91-4.81-4.58-.26-.47-.42-.98-.48-1.51-.79-3.15-2.34.11-3.44-.39-1.88.42-3.87.32-5.01-1.24-4.09-5.57-10.84-9.57-10.27-17.96.12-1.74-1.41-2.89-2.31-4.19-2.61-3.78-2.86-7.12,1.17-10.02,1.81-2.39,1.7-3.88-1.72-3.83-2.91-2.2-1.51-5.26-1.57-8.02-.3-.61,1-2.02-.87-1.85-1.66.15-2.9-.56-3.95-1.79-2.67-5.71,1.91-5.9,5.17-7.1,1.53-.21,2.98-1.02,3.65-.88-1.19.13-3.22.72-5.28,1.22-2.33.4-4.1-.53-4.2-2.91-.11-2.75,2.26-3.37,4.37-3.95,1.16-.08,2.34.12,3.52-.01-1.41-.15-2.68-.52-3.14-2.13-.06-1.35.7-2.1,1.83-2.57.38-.23.95.1,1.24-.43-.76.1-1.44-.12-2.11-.46-1.34-1.22-1.28-2.42.06-3.59,1.5-1.05,3.65-.44,4.94-2.02.96-1.54,1.78-3.17,3.66-3.87,1.7-.64-.38-.94-.22-1.49-1.58-4.33,2.2-6.48,5.25-10.6-7.27,2.5-11.17-1.2-15.36-4.1-2.23-2.4-1.47-3.86,1.45-4.43,2.17-.42,4.25.12,6.25.99,1.37.13,3.4,2.5,3.6-1.16-.19-.46-.38-.91-.61-1.35-1.28-1.88-1.96-4.14-3.57-5.8-.32-.34-.59-.72-.82-1.07-1.12,1.22-.78,3.36-2.55,4.14-1.89.78-3.79,1.38-5.79.4-.91-3.18,2.05-6.54-.43-9.65.64-3.08,6.88-2.41,4.73-7.36-.77-.62-.34-1.77-1.03-2.42-1.73-1.01-5.63-.91-2.24-4.55-3.72-2.24.62-9.31-5.8-9.99-2.35-.25-2.33-2.12-2.38-4.06-.07-2.57,1.22-6.37-1.18-7.39-4.03-1.72-6.81-5.77-11.32-6.13-1.35-.11-2.23-.42-3.03-1.36-1.45-.52-2.58-2.3-4.45-1.16-4.97-3.18-8.18,2.05-12.23,3.04-4.2,1.03-6.47.3-8.2-3.16-1.18-2.36-2.88-3.6-5.42-3.44.24-2.51,1.87-3.04,3.16-3.91.63-.97,2.2-.58,2.6-1.89-.95.91-1.76.27-2.59-.23-1.68-2.99-6.92-1.21-7.55-5.97,3.56-1.68,6.46,1.42,9.71,1.26.84-.04,2.2.23,1.94-1.28-.1-.58-1.06-1-1.63-1.49,1.09-1.94,2.98-2.55,4.92-3.08,1.46-.1,2.94.1,5.3-.22-2.6.27-4.31.04-6.02.26-2.55,1.23-5.11,2.01-7.78.37Z" style="fill: url(#_30_10_ppp);"/>
      <path d="M558.64,26.02c2.49-1.33,5.2-1.23,9.5-.03-2.69-3.39-5.39-5.11-1.79-8.88-6.39,1.6-9.12,5.75-13.31,7.53-7.47,3.17-8.96,3.02-14.12-3.99-1.24-1.68-2.32-.66-3.34-.1-1.76.97-3.33,1.66-4.57-.66-3.25-1.41-6.52-1.19-9.8-.08-2.52.1-4.91-.46-7.23-1.4.07-3.13,3.69-2.47,4.71-4.58-1.64-1.44-2.73-3.02-1.17-5.21,4.81-2.52,9.55-.69,14.3.26,3.91.98.82-3.3,2.75-3.81,5.5-3.44,10.31-.58,15.28,1.61,3.23,1.43,5.7,4.06,9.95-.28,5.33-5.45,13.13-4.68,19.85.13-2.95-5.03-.74-6.35,3.05-6.53.8.4,1.61.8,2.41,1.2,2.73.86,5.79.68,8.15,2.7.86.52,1.75,1.56,2.52-.12,2.01-2.18,3.91.28,5.87.14,2.43,1.14,5.11-.09,7.56.87,2.53,1.72,5.27,2.77,8.35,2.76.91,1.33,1.98,2.11,3.57,1.05,5.36-3.21,9.38,2.39,15.35,1.72-6.59,7.29-14.5,7.14-21.99,8.11-2.13.28-4.32.03-6.49.03-.4,3.95-4.02,3.31-6.32,4.57,2.8-1.52,5.99-1.13,8.93-1.92h4.12c-5.91,2.23-9.71,8.74-16.89,8.09-1.56-.14-4.22,1.29-4.77,2.67-2.69,6.69-8.4,5.45-13.56,6.31-4.75.79-9.18,4.2-14.32,1.03q.62,5.29,5.07,5.39c1.19.03,2.58-.29,3.21,1.05.74,1.57-2.41,1.4-1.55,3.19-3.73,1.2-4.97,7.51-10.55,5.14-1.98-.84-3.43,1.32-4.41,2.57-2.95,3.75-6.32,4.44-10.45,2.6-.48-.13-.94.03-.9.47.02.2.63.42.9.73,2.24,1.24,3.66,3.64,6.39,4.33.88.22,2.77,1.16,2.26,3.08-.45,1.66-1.41,2.95-3.15,3.37-3.21.77-6.55.44-9.34-.92-6.36-3.08-12.15-3.55-19.51-2.46-6.59.97-14.78.33-21.79-2.81-.99-.44-1.01-1.16-.99-1.92.06-1.86,1.1-3.4,2.79-3.5,3.97-.24,7.61-2.64,11.8-1.03-.11-1.15,0-1.69-.2-1.88-1.5-1.4-4.86-.21-4.98-3.32-.06-1.67,2.05-1.79,3.26-2.25,2.56-.98,5.06-2.18,7.69.57,3.82,3.99,8.09,7.43,14.26,6.3,2.1-.38,3.47-.95,2.74-3.48-.8-2.8-2.44-1.12-3.79-.71-1.92.59-3.86,1.53-5.61-.26-2.52-2.58,1.48-3.75,1.17-6.36-3.28,2.38-6.8.31-10.26.86-1.27.2-2.42-.54-2.81-1.84-.41-1.34.44-2.35,1.38-3.17,4.32-3.74,9.13-3.64,14.15-1.84,1.5-.2,2.61.77,3.8,1.33-.13-.4-.59-.25-.77-.55-1.16-.91-3.35-1.35-1.52-3.56.75-.1,1.74,0,1.81-1.02.03-.32-1.02-.62-1.29-1.1-1.59-2.75-8.15-3.9-4.34-8.02,2.14-2.32,7.25.25,10.65,1.95,1.52.76,2.46,2.64,3.86,3.75,2.61,2.06,3.27,1.71,4.56-1.63.84-2.18,2.94-2.46,4.89-2.85,2.31-.15,3.8-1.57,5.04-3.38Z" style="fill: url(#_30_10_ppp);"/>
      <path d="M1520.13,594.74c-.75,8.3,7.14,12.13,9.08,19.3-.87,1.05-2.7.14-4.09.82-1.29.64-3.71.69-1.32,3.03.39.38.75,1.48.73,1.49-8.14,4.4-2.69,15.65-9.92,20.48-1.15.76-2.18,1.7-3.96,3.1-.46-4.24-1.82-5.87-6.29-5.67-5.68.25-11.35-2.38-17.32-1.93-3.52.27-1.75-3.41-2.88-5.09-3.56-5.29-6.68-10.89-9.97-16.37l.21-.29-.16-.32c3.53-3.62,8.12-.59,12.28-2.11-3.38-5.68.91-7.54,4.84-8.6,4.11-1.11,6.39-3.19,8.13-7.14,1.11-2.52,2.41-5.19,6.02-6.66,2.74-1.12,4.23-6.09,5.7-9.59.86-2.04,1.73-2.37,2.74-.82,3.44,5.27,8.79,7.64,14.05,9.74-.14,3.48-4.49.72-4.48,3.9.6,3.15-3.09.76-3.39,2.73Z" style="fill: url(#_30_10_ppp);"/>
      <path d="M1138.55,776.03c-4.47.33-9.54,2.92-9.54-5.9,0-3.23-3.37-6.94-4.53-10.97-1.13-3.94.1-6.29,2.59-7.99,4.71-3.21,4.27-7.32,2.62-11.65-2.15-5.64-.95-10.63,2.02-15.49.73-1.2,1.9-1.49,3.06-1.61,9.97-1.04,14.98-9.13,17.82-16.68,2.35-6.23,3.27-6.48,7.57-2.88,1.31,1.42,1.36,3.53,2.64,4.97.46.77.93,1.54,1.39,2.32-.86,3.06.14,5.83,1.24,8.6.25.51.24,1-.07,1.47-1.39.81-3.43.64-3.98,2.73-.89,2.15-1.61,4.31-1.03,6.69.26,1.44.27,2.87.01,4.31-2.58,8.19-4.75,16.52-8.46,24.3-1.69,2.63-1.98,5.67-2.36,8.68-1.91,3.77-2.65,8.73-8.4,8.59-.94-.2-1.87-.35-2.61.51Z" style="fill: url(#_30_10_ppp);"/>
      <path d="M880.62,292.86c7.7,3.01,6.58,9.23.64,12.83.22,2.33,3.9.7,3.58,2.92-.26,1.78-2.14,3.04-3.94,3.42-4.8,1.01-9.52,3.37-14.59,1.41-.99-.38-2.19-.78-2.65.32-2.76,6.65-9.5,2.71-13.61,5.78,2.91-6.17,7.41-9.9,14.34-10.67-3.2-.8-6.16-.95-8.76-2.51-.6-.36-1.49-.22-2.07-.6-.21-.13,0-1.58.16-1.6,6.7-1.17-.73-9.83,5.71-11.13,4.6-.93,6.31-3.07,2.08-6.73-2.78-2.4-.63-4.73-.11-7.18-2.95-1.01-6.05,1.81-8.52-.91-.95-.85-1.21-1.97-1.18-3.19.03-.55.12-1.11.26-1.64,0-.96,2.06-3.12-1.24-2.13-1.44-.48-2.31-1.4-2.36-2.99-.05-.3-.09-.61-.1-.92,1.02-2.26,1.47-4.59.81-7.06-.11-1.24-.09-2.47.11-3.7,1.29-6.09,5.26-9.17,11.04-10.11,2.69-.44,5.28-.45,5.64,3.32-.14,2.24-1.78,3.46-3.16,4.82-.25.21-.47.5-.63.83.26-.25.53-.49.84-.73,1.15-.77,2.38-1.1,3.72-1.01,1.92.41,3.53,1.11,3.27,3.58-2.4,4.12-.06,10.48-6.65,12.97,5.91.18,7.83,3.39,8.43,8.14.5,3.93,5.78,4.45,6.18,8.57,1.65,1.62.55,4.58,2.76,5.92Z" style="fill: url(#_30_10_ppp);"/>
      <path d="M1428.81,611.11c-.15.38-.13.76.05,1.13.95.98,2.71-.13,3.45,1.39,6.53,5.24,12.92,10.65,18.34,17.13,2.16,1.58,5.2,1.65,6.82,4.15.07.27.14.53.21.8-.34,4.19-1,8.33.27,12.56.51,1.71,1.91,4.7-.03,5.43-2.54.95-5.79,1.24-8.33-1.14-5.02-4.71-11.88-7.13-15.77-13.24-6.03-3.18-8.74-9.16-11.96-14.71-.7-1.22-1.74-2.04-2.97-2.65-6.29-9.54-16.32-15.17-23.65-23.64-1.3-1.5-3.22-2.44-3.54-4.69.14-2.13.72-3.82,3.33-3.46h0c1.81,1.46,4.16-.1,6.02,1.11,7.06,2.18,11.14,8.49,16.78,12.63,2.96,2.17,4.82,6.55,9.63,5.07,1.05.31.57,1.63,1.34,2.14Z" style="fill: url(#_30_10_ppp);"/>
      <path d="M1551.6,422.25c1.09-5.85,6.87-11.37,12.1-10.95,3.01.24,6.31-2.11,9.12.89.26.28,1.42-.33,2.17-.53-2.5-4.08,3.07-6.72,1.83-10.61-.33-1.03-.11-2.11,1.25-2.23,1.28-.12.96,1,1.06,1.7.49,3.3,1.56,2.27,3.4.8,5.83-4.66,7.4-10.5,5.68-17.66-1.11-4.59,2.66-4.08,5.2-4.75,1.16-.09.05-3.2,2.32-1.81-.05,3.07,1.21,5.49,3.45,7.49,3.5,3.12,3.88,6.53.5,9.95-.72.73-2.05,1.68-1.58,2.28,3.52,4.39-.12,10.01,2.53,14.38,1.59,2.63-.08,5.15-1.48,5.38-4.32.71-7.92,4.55-12.67,3.05-.7-.32-1.5-.43-2.14-.89-.31.97.5,1.67.56,2.56v.44c-2.2,1.25-4.02,2.86-5.05,5.26-4.61.64-4.39-3.37-5.58-6.03-3.19-2.99-6.42-1.26-9.65-.06-3.82-.01-6.6,4.49-10.85,2.63-.85-.2-1.62-.55-2.18-1.27Z" style="fill: url(#_30_10_ppp);"/>
      <path d="M1112.08,97.3c1.47-2.63,4.6-3.83,5.65-6.84.1-.28.69-.37,1.03-.57,3.3-1.97-3-4.6.45-6.61,1.89-1.1,5.69.99,5.62-3.57-.01-.67,1.23-1.7,2.08-1.99,7.16-2.4,12.87-8.05,21.13-8.38,4.88-.2,9.89-2.45,13.82-6.58,3.88-4.08,9.5-2.45,10.79,2.55.75,3.66-1.55,5.3-4.32,6.27-7.56,2.64-14.61,6.58-22.26,8.98-2.24.71-3.79,2.23-5.19,3.98-2.04,2.54-4.05,4.99-7.46,5.81-3.42.83-3.73,4.53-5.49,6.89-.82,1.22-1.72,2.4-2.36,3.74-.32.3-.46.67-.43,1.11-.68.59-1.35,1.19-2.03,1.78-8.68.86-9.35.46-11.02-6.58Z" style="fill: url(#_30_10_ppp);"/>
      <path d="M1869.64,847.95c-1.59,2.65-3.92,4.97-3.63,8.46-1.56,1.89-4.07-.24-5.69,1.41-1.21,8.12-8.04,12.28-12.38,18.18-.01.02-.89-.62-1.36-.96-.52-1.06-2.95-.26-2.3-2.46,5.66-5.46,5.61-5.56-1.33-10.29-1.04-.71-1.6-2.14-2.38-3.24.16-1.6.32-3.21.49-4.81,2.57-3.34,5.14-6.68,7.71-10.02-.5-2.24-.2-4.5-.12-6.76.61-1.4.61-3.41,2.96-3.03.87-.08,1.27,1.6,2.22.76.7-.62.81-1.6.28-2.51,3.19-2.33,2.79.69,3.32,2.32.53,9.21.54,9.16,9.21,7.03,1.41-.35,3.19-.63,4.33,1.03,1.04,2.05.63,3.69-1.32,4.89Z" style="fill: url(#_30_10_ppp);"/>
      <path d="M948.41,77.07c-.31-1.09-.15-2.52-1.45-2.98-4.85-1.72-1.54-3.41-.03-5.11.97-1.93.05-1.88-1.34-1.34-.81-.03-2.53.82-1.99-.86,1.05-3.23,2.27-6.58,6.28-7.44,1.06-.23,3.43.15,2.29-2.26-.65-1.37-1.75-2.49-3.8-2.05-4.69,1.02-5.8,2.15-6.94,8.09-3.83-.33-6.91-2.66-10.14-4.34-4.02-2.09-1.5-5.76-1.14-8.82.37-3.19,2.28-2.38,4.64-2.59,4.14-.37,7.8-.03,11.57,1.71.94.43,2.53-1.07,1.92-2.95,3.09-2.05,6.29-1.29,9.5-.39l-.05-.05c.82.72.79,1.54.24,2.41,2.69,3.49,7.41,1.3,10.39,4.08-1.27,3.68-3.81,5.51-8.88,4.17,5.76,5.83-.19,9.34-2.27,11.12-3.45,2.95-5.58,6.62-8.36,9.9l-.14-.28h-.31Z" style="fill: url(#_30_10_ppp);"/>
      <path d="M959.02,43.38c-1.01-.59-2.34-1.2-2.07-2.53.25-1.26,1.82-1.08,2.53-.75,3.84,1.75,3.49-.58,3.09-3.09.58-.74,1.16-1.48,1.74-2.23.35-1.23,1.24-1.84,2.38-2.15,1.68-.12,2.56.73,2.75,2.39.16,2.46,2.28,2.71,3.85,3.55,1.62.9,1.68.06,1.28-1.28-.14-1.21.52-2.5,1.44-2.25,5.58,1.48,12.03-.46,16.78,4.32.76.05,1.53.1,2.29.15,1.26,3.51-2.23,9.1-7.08,9.44-6.64.47-13.5,3.14-20.06-.57-.31-.17-.47-.61-.7-.93,1.2-2.57,3.89-1.28,7.38-2.61-5.96-1.62-9.6.33-13.23,2.28-2.92.15-.99-2.9-2.38-3.76Z" style="fill: url(#_30_10_ppp);"/>
      <path d="M1611.04,358.36c.56,1.13,1.13,2.27,1.69,3.4-2.06.7-4.16,2.1-6.18,1.99-6.26-.37-7.62,2.04-4.27,7.75-3.01-1.16-5.22-2.32-6.57-4.68-2.44-1.86-4.17.49-6.19,1.1-.68.46-1.37.91-2.05,1.37-.51.8-.99,1.68-2.18,1.14-.3-.27-.61-.54-.9-.82-1.26-1.22-2.52-2.45-3.77-3.68,3.76.43,2.54-4.02,4.76-5.06,1.21-.56,4.12.9,3.38-1.79-.91-3.29,4.19-6.14.26-9.34-1.01-.82-2.47-1.95-.74-3.46,1.66-1.44,2.68.17,3.39,1.19,2.81,4.05,7.01,5.71,11.17,7.81,2.79,1.41,4.35.77,6.33-.7,3.08,0,2.09,2.09,1.86,3.78Z" style="fill: url(#_30_10_ppp);"/>
      <path d="M453.69,526.94c7.04-5.43,13.55-4.99,21.66-.89,8.41,4.25,16.6,8.8,24.98,13.38-1.99,2.31-4.44,2.1-6.74,2.36-3.25-.22-6.85,2.24-9.67-1.32,1.87-1.51.63-2.03-.68-2.96-5.42-3.84-11.17-6.61-17.93-6.71-.57,0-1.54-.21-1.65-.54-1.77-5.63-5.56-2.3-8.64-2.1-1.21.48-1.44-.17-1.33-1.21Z" style="fill: url(#_30_10_ppp);"/>
      <path d="M518.67,539.91c3.64,2.95,7.29,5.9,10.93,8.85-6.94-.38-12.65,5.03-19.59,3.46-1.9-.43-4.23-.84-6.23,1.04-1.32,1.24-2.77.01-3.11-1.5-.43-1.89,1.33-1.36,2.31-1.77,1.65-.69,5.14,1.93,4.72-2.14-.16-1.56.9-3.33-1.14-5.35-2.53-2.51,1.38-1.35,2.25-2.06,3.34.91,6.5-1.8,9.86-.52Z" style="fill: url(#_30_10_ppp);"/>
      <path d="M1325.9,587.09c-5.79,6.41-6.01,6.38-12.32-1.24-1.05-2.03-.68-4.08-.07-6.13.11-.38.16-.8.33-1.14,1.2-2.38-3.23-5.1-.1-6.85,2.33-1.3,4.52,1.64,6.9,2.34,1.57,4.41,5.09,8.01,5.26,13.01Z" style="fill: url(#_30_10_ppp);"/>
      <path d="M1548.41,423.97c.54-.05,1.07-.11,1.61-.16,2.42,1.92,6.26,1.87,7.43,5.54.22,3.31-.79,6.59-.24,9.91-.34,1.78-.92,3.31-3.1,3.26-.8.01-1.61.03-2.41.04-3.78-1.37-2.07-4.64-2.22-7.15-.06-.99,1.01-3.14-.58-2.43-4.47,1.98-3.28-3.62-5.78-3.9.71-2.83,2.81-4.17,5.29-5.1Z" style="fill: url(#_30_10_ppp);"/>
      <path d="M1573.23,425.93c.07,3.22-.12,6.25-4.44,6.19-2.55-.22-.88,5.66-4.8,3.46h.01c-1.31-1.18-2.59-2.4-3.07-4.22-.51-4.08,2.24-5.24,5.27-6.17,2.47-1.05,5.02-2.82,7.03.74Z" style="fill: url(#_30_10_ppp);"/>
      <path d="M1088.32,27.25c1.36-1.12,2.74-1.97,4.5-.76,1.44,1,.4,1.95,0,2.92-1.51,1.84-1.02,4.37-2.1,6.36-2.52,2.01-5.46,2.47-8.54,2.41-.34-.43-.69-.86-1.03-1.29-.94-.44-.98-1.24-.81-2.12,1.47-1.96,3.93-2.72,5.4-4.68.84-.96,1.39-2.21,2.58-2.85Z" style="fill: url(#_30_10_ppp);"/>
      <path d="M13.8,215.25c-4.08-3.16-8.93-4.59-13.8-6.18,5.89-1.33,11.46-.96,16.85,1.84.19,2.06-2.35,2.53-2.71,4.34h-.35Z" style="fill: url(#_30_10_ppp);"/>
      <path d="M477.41,553.3c4.15-1.45,7.65-3.38,10.89.39q-3.85,3.11-10.89-.39Z" style="fill: url(#_30_10_ppp);"/>
      <path d="M545.26,548.93c-3.1,4.04-6.73,3.54-10.19,3.24-.85-.07-.58-1.37-.05-1.94,3.03-3.27,6.44-.85,10.24-1.29Z" style="fill: url(#_30_10_ppp);"/>
      <path d="M914.54,261.32c.7-.16,1.4-.31,2.09-.47,1.34-.41,1.68.2,1.43,1.44-.76,1.35-1.83,2.09-3.42,1.84-.03-.94-.07-1.88-.1-2.81Z" style="fill: url(#_30_10_ppp);"/>
      <path d="M484.5,498.56c-.23,1.13-1.08,1.58-2.05,1.86-.81.24-1.12-.38-1.13-.96-.02-1.28,1.1-1.5,1.98-1.79.63-.2,1.1.16,1.2.89Z" style="fill: url(#_30_10_ppp);"/>
      <path d="M994.92,408.25c-1.92,1.94-2.73,4.27-2.53,7.02.36,4.79-1.86,2.4-3.6,1.32-4.64.14-4.59-4.5-6.13-7.02-1.35-2.21,1.7-2.31,3.4-2.5,2.5,1.12,4.83-.65,7.28-.45.52.54,1.05,1.09,1.57,1.63Z" style="fill: url(#_30_10_ppp);"/>
      <path d="M485.11,967.64c.22-1.68-.33-3.93,2.58-3.62,1.97,1.91,2.9,4.05,1.51,6.74-.11.68-.22,1.35-.32,2.03-1.36.23-2.45-.4-3.48-1.18-2.78-1.13-.05-2.66-.28-3.97Z" style="fill: url(#_30_10_ppp);"/>
      <path d="M585.2,151.57c.53,4.01,3.45,7.08,6.18,8.59,3.96,2.19,6.52,4.78,7.95,8.92,1.11,3.23,3.26,4.47,6.43,3.08,1.55-.68,3.12-1.34,4.4.02,1.82,1.92-1.85,2.82-1.08,4.68-2.29,1.54-2.53,4.34-3.86,6.47-4.68,1.31-5.97,5.17-7.11,9.86-1.31-5.02-9.24-4.97-7.86-12.18.14-.72-4.76-3.81-7.83-3.5-3.11.32-.41,3.32-.76,3.8-5.07,7.04,2.1,8.62,4.96,11.99,3.98,4.69,4.71,12.37,2.23,16.57-2.15,3.62-4.09,3.49-7.06,1.48-2.62-1.78-5.46-3.23-9.13-5.37.35,4.79,3.57,6.01,5.69,8.01,1.66,1.56,3.77,3.47,2.49,5.65-1.13,1.93-3.71.75-5.54.04-10.59-4.09-19.55-10.08-24.39-21.2-.95-2.18-1.34-5.97-6.02-3.92-2.54,1.11-1.85-4.9-5.67-4.49-.98,2.06,2.02,5.35-.97,6.76-2.84,1.34-5.89.58-8.63-1.03-.54-.28-.91-.71-1.09-1.3,4.94-9.96,4.36-9.01,13.25-7.69,3.82.57,9.83,2.02,8.4-6.31-.46-2.67,2.21-4.72,4.24-6.33,4.98-3.95,10.07-7.48,5.26-15.22-1.04-1.68-.33-4.76-1.59-7.19-2.37.58-4.66,4.55-7.19-.25-1.05-1.99-3.21,1.49-5.18,1.29,2.56-5.52-1.75-13.42-8.78-16.13-.71-.79-1.04-2.36-2.62-1.28q.32,6.57-6.09,6.17l.16.13c-1.94-2.25-3.03-6.8-7.12-1.72-1.32,1.64-3.2-2-5.08-2.12-5.57-.34-10.75-1.76-15.61-4.58-1.15-.66-3.46-1.41-3.85-.94-5.67,6.96-5.34-2.35-8.1-3.02-1.35-2.62-.41-4.1,2.26-4.7.77-.08,1.5.11,2.22.42.74.32-.26.07.52.25.02-.35-.35-.22-.51-.4-1.12-.58-2.47-.55-3.35-1.57-4.76-4.17-2.01-9.15.04-12.58,5.47-9.15,13.07-15.49,24.72-13.17.1.02.16.32.31.65-.43,2.14-2.56,2.1-4.03,2.84-1.93.98-3.52,2.47-3.62,4.57-.29,5.77.64,11.56-.67,17.34-.36,1.59,1.58,2.22,2.77,2.47,1.76.37,1.5-1.36,1.81-2.46.48-1.68-.23-2.78-.99-4.3-1.48-2.96-1.53-6.06,3.58-4.48-.05-3.02-3.13-5.06-2.1-8.14,1.51-1.75,3.96.35,5.46-1.4,1.89-3.44,11.65-6.82,12.11-4.64.84,4.02,3.98,8.43,1.24,12.62-1.35,2.07-1.34,3.55-.48,5.63,2.59-1,4.18-2.81,5.02-5.37,1.59.56,1.36,1.81,1.37,3.05.01,1.34.53,2.57,2.11,2.17,1.08-.27,2.94-1.51,2.91-1.56-2.18-4.67,1.81-4.87,3.66-4,2.98,1.41,8.32.21,8.23,6-.02,1.23.64,1.39,1.38,1.32,2.29-.2,3.59-.77,2.31,2.91-.62,1.79,4.23,3.08,6.27,5.22,1.4,1.46,2.08-1.17,2.9-2.53,1.1-1.82,8.8-.69,9.77,1.18.85,1.63-.4,2.25-1.43,2.64-1.67.63-3.49.87-5.18,1.47-1.02.37-1.47,1.5-1.28,2.51.26,1.39,1.58,1.23,2.36.82,4.91-2.59,9.64,3.62,14.57.28.19-.13,1.08.43,1.34.86.52.85-.01,1.72-.72,2.04-1.81.84-3.72,1.48-5.82,2.29,2.43,3.04,5.26,2.18,8.06,1.07,1.64-.65,3.25-1.09,4.02,1,.74,2.01-1.08,2.25-2.31,2.78-1.88.81-3.93,1.47-2.83,4.31.61,1.51-.74,2.01-1.41,2.86Z" style="fill: url(#_30_10_ppp);"/>
      <path d="M424.82,130.67c-4.61-.34-6.1-5.24-10.12-6.2-.96-.23-1.34-1.14-.85-2.4,3.14-8.1-.48-18.72-7.57-22.26-1.9-.95-3.85-2.52-6.01-.39-1.84,1.81-1.74,3.46-.58,5.83.77,1.57,2.01,4.56-1.2,5.54-3.46,1.06-3.37-2.28-3.79-4.1-1.03-4.47-3.65-6.37-8.56-6.6,3.29,6.38-1.63,6-4.9,7.03-.72.24-1.43.48-2.13.78.8-.56,1.64-1.07,2.11-1.99.91-1.29,2.42-2.7.09-3.9-1.85-.95-4.22-3.3-5.84-1.54-2.5,2.72-5.2,1.57-8.86,2.57,1.82-2.4,4.94-2.99,3.79-5.41-1.41-2.95-4.27-3.33-7.23-2.69-.44.19-.85.44-1.26.69.46-.66.81-1.4,1.19-2.12-2.54-2.24-4.91-4.73-7.67-6.63-2.46-1.69-5.29-4.25-8.19-.02-.19.28-4.02,1.62-6.56-.33-7.51-5.77-15.93-4.94-24.38-2.36.26.2.3.45.12.73,5.35,4.41,5.33,6.96-.04,10.65-1.62,1.12-4.18,2.05-3.98,4.19.44,4.82-2.8,6.88-6.07,9.77,4.54,1.62,6.85,4.93,7.35,9.54.15,1.37.61,2.55,2.19,1.99,4.48-1.59,10.81-2.04,12.94-5.3,3.92-6,10.98-6.13,15.01-11.04.68,2.39.42,3.89-2.24,5.26-3.04,1.57-6.16,4.3.28,6.08.81.22,1.37,1.36,2.05,2.08,2.16,1.53,4.37.76,6.59.18-1.42.73-3.3.47-4.31,2.09-3.54,1.53-4.01,3.27-.18,4.97,4.19,1.86,8.67,1.19,13.07,1.28,3.31.07,6.82-.78,10.49,1.66-5.12,1.52-9.52.02-13.86.33-4.06.29-9.47-.23-10.46,5-1.15,6.08,4.82,5.85,8.48,7.27,3.09,1.2,6.96,1.32,5.52,6.58-.36,1.33.67,2.75,2.44,2.87,11.07.73,22.08-.66,31.57-6.26,5.01-2.96,7.44-3.62,11.47.74,4.8,5.18,12.32,3.77,14.69-2.27-.61,0-1.23.17-1.69-.03-1.26-.53-1.82,4.15-3.27.5-.66-1.68-1-3.58,1.93-3.95,2.32-.29,4.56-.76,6.96-.72,1.56.03,4.55,1.7,4.86-1.48.24-2.48-.2-5.95-3.4-6.18Z" style="fill: url(#_30_10_ppp);"/>
      <path d="M493.8,67.49c-.1,1.86-4.43,1.23-2.85,3.67.55.84,1.08,5.41,4.55,2.67.34-.27,1.73.21,2.08.73,2.41,3.57,5.21,3.41,9.87,3.83,9.07.82,17.62-4.25,26.64-1.79,3.06.83,5.51,2.6,7.93,4.88,3.9,3.69.24,7.5-1.15,7.72-4.88.78-9.61,4.29-15.03,1.14-3.66-2.13-8.12.01-12.21-.95-4.05-.96-9.62,3.79-11.98-3.72-.36-1.16-2.74.19-3.44,1.25-2.74,4.11-5.3,4.89-7.92.02-.71-1.33-1.23-1.33-2.72-.82-4.64,1.58-5.75-1.77-6.39-5.43-.28-1.61.53-3.06.48-4.74-.12-3.98-.67-6.23-5.54-5.77-5.37.51-6.98-5.19-10.3-8.07-.76-.66-.21-1.98.69-2.64,2.44-1.78,5.98-2.72,7.88-1.3,2.37,1.77,7.03,1.05,7.11,6.04.04,2.05,1.19.06,1.82-.16,4.27-1.5,8.09-1.47,10.47,3.47Z" style="fill: url(#_30_10_ppp);"/>
      <path d="M380.05,76.42c-1.73-1.38-2.68-2.61-5.9-1.63-3.97,1.2-8.85-.7-13.32-1.37-.3-.05-.66-1.04-.66-1.59,0-1.45,1.17-1.36,2.14-1.42,2.26-.13,4.52-.22,7.3-.36-1.82-2.85-4.27-1.38-5.95-2.69,1.68-1.68,3.11-3.87,5.12-5,7.43-4.15,13.55-2.57,19.06,4.48q3.98,5.1,14.09,4.19c-2.11-3.03,1.81-7.83-4.41-9.34,1.2-.77,1.65-1.08,2.12-1.36,8.61-5.13,8.52-5.12,9.22,4.98.08,1.21-.83,3.37,1.7,3.96,1.79.42,2.52-.19,3.17-1.7.91-2.14,2.64-1.25,4.16-.96,2.07.39,2.26,2.08,2.33,3.74.2,4.64-4.92,9.15-9.5,8.84-6.28-.42-12.39-1.17-17.98,3.89-3.65,3.3-9.26,2.65-13.91,1.38-2.22-.6-5.89-2.77-1.15-5.73,3.1-1.47,4.7-.64,2.4-2.32Z" style="fill: url(#_30_10_ppp);"/>
      <path d="M478.91,28.57c-.41-2,2.67-5.81,5.03-6.07,1.36-.15,2.76-.03,3.84-.03,2.19-2.68-4.24-3.87-.54-6.13,3.37-2.05,6.32-5.58,11.23-2.63,4.37,2.62,5.84,8.32,10.99,9.89,1.82.55,2.69,2.98,5.71,1.39,1.68-.88,5.39,3.53,4.79,5.03-1.88,4.64-.29,4.42,3.06,3.36.81-.26,1.67-.14,1.78.93.1,1.04-.13,2.31-1.29,2.44-3.6.41-6.09,3.83-9.99,3.54-1.81-.14-3.47-.45-4.47,2.77-1.03,3.3-5.93,2.73-8.5,1.95-4.85-1.46-9.56-3.98-13.78-6.87-3.02-2.07.53-2.77,1.72-3.82,2.83-.97,5.71-1.31,8.91-.41-3.13-3.67-6,1.36-8.89-.41-2.55-3.16-6.76.7-9.34-2.31.06-2.21,2.36-1.69,3.46-2.9-1.3,1.1-2.5.89-3.73.27Z" style="fill: url(#_30_10_ppp);"/>
      <path d="M612.99,312.7c1.72-1.36,3.43-2.72,5.82-2.32-.07,4.31-3.91,6.87-4.79,10.8-2.04,3.06,2.34,3.18,2.34,5.31,2.34,3.84,7.06-.15,9.6,3.02-.38,3.75,1.99,5.98,4.37,8.21.37,2.5.06,4.78-2.03,6.46-1.2,2.5-3.61.67-5.27,1.52-1.04-1.41-2.93-1.23-4.15-2.31-.41.06-.82.13-1.23.19-1.91.68-3.66.86-4.67-1.45-3.67-4.92-7.97-2.61-12.19-1.09-5.48-3.45-.98-6.92.78-9.07,2.68-3.26,4.47-6.91,6.56-10.45.42-1.87,1.44-3.24,3.2-3.99-.2-1.88,2.52-2.72,1.66-4.84Z" style="fill: url(#_30_10_ppp);"/>
      <path d="M358.36,47.68c4.5,3.73,8.36-.89,12.66-1.57,2.46-.39,5.56-.87,6.49,1.52.91,2.36-1.96,3.2-3.91,4.39-2.19,1.33-4.09,3.6-5.39,5.88-1.48,2.59-3.28,3.57-5.87,2.68-3.3-1.12-.1-2.88-.25-4.33-.07-.72-.52-1.4-.8-2.1-.7.33-1.6.48-2.05,1.03-1.25,1.5-2.8,3.52-3.34,4.7-3.16,6.91-8.12,5.52-13.47,4.53-1.62-.3-3.44.68-5.2.87-1.86.21-3.65.25-3.67-2.6-.02-2.06-.65-4.07,2.25-4.75,6.73-1.58,13.81-2.34,18.59-8.53.77-1,2.1-1.93,3.98-1.72Z" style="fill: url(#_30_10_ppp);"/>
      <path d="M517.36,202.92c-4.46.07-8.76.52-12.03-4.08-1.72-2.42-4.59-2.12-5.64,1.6-1.4,4.99-4.65,6.97-9.63,6.08l.05.1c2.91-6.09-2.86-4.29-5.75-5.75,4.84-4.25,5.35-10.1,6.73-15.39.64-2.48,2.12-3.67,3.57-4.26,2.98-1.22,1.01,2.2,1.89,2.76,3.16,1.98,6.39,4.83,9.8,5.16,4.01.39,4.88,1.78,5.21,5.31.2,2.04.39,4.62,4.14,4.18,2.32-.27,1.81,2.56,1.63,4.35l.02-.05Z" style="fill: url(#_30_10_ppp);"/>
      <path d="M451.19,102.29c.54,3.04,1.2,6.07,1.59,9.13.29,2.27-.78,3.83-2.93,4.78-2.67,1.18-3.24-1.01-4.11-2.6-2.02.8-.86,2.05-.76,3.13.24,2.56-1.21,3.86-3.46,4.06-3,.26-1.42-2.3-1.64-3.47-.58-3.18-1.15-5.64-5.27-5.81-3.54-.15-3.24-4.8-5.62-6.8-.58-.49,2.55-3.71,4.76-1.67,2.29,2.12,3.24,0,4.46-.89,2.19-1.59-.15-2.25-.89-3.15-.73-.9-1.17-2.08-.19-2.64,2.33-1.34,4.08-4.28,7.38-3.23,1.86.59,3.51,1.62,5.61.32,2.3-1.43,4.26-1.5,5.26,1.99.97,3.42-1.87,2.57-3.13,3.47-.64.46-1.45.68-2.19,1.01-.55.81-1.69.89-2.13,1.83,1.2-.55,2.29-.36,3.27.54Z" style="fill: url(#_30_10_ppp);"/>
      <path d="M491.34,94.85c.38,6.43-6.46,5.21-8.48,8.84-3.45,6.21-8.55.1-12.81,2.4,3.42,3.29.77,5.52-1.96,6.82-3.34,1.6-3.59-1.09-3.95-3.71-.16-1.19-1.69-2.16-2.53-3.29-1.83-2.44-1.14-3.94.72-6.57,5.11-7.22,10.96-8.28,18.93-5.74,3.07.98,6.93.03,10.07,1.24Z" style="fill: url(#_30_10_ppp);"/>
      <path d="M451.41,63.01c8.47.33,9.79,1.51,9.58,8.65-.21,7.45-3.38,10.81-9.69,11.01-4.51.14-5.76-1.87-4.66-5.91,1.02-3.72.03-5.27-3.84-4.19-.69-.4-.78-.91-.28-1.53.01-2.16,5.61-.32,3-4.36.55-1.15,1.72-1.61,2.56-2.43.89-1.01,2.28-.63,3.32-1.24Z" style="fill: url(#_30_10_ppp);"/>
      <path d="M433.28,40.23c2-2.03,4.48.03,6.53-1.47-1.4-3.51-5.21-1.96-7.83-3.67,3.63-4.72,8.88-4,12.97-2.67,3.12,1.02,6.45,2.07,9.59,2.96,4.56,1.29,4.95,5.29,6.83,8.24,1.32,2.07-.32,3.44-2.59,3.21-.92-.09-1.94-.66-2.64-1.31-4.9-4.55-10.32-5.11-16.46-2.94-2.27.8-5.18.99-6.4-2.36Z" style="fill: url(#_30_10_ppp);"/>
      <path d="M465.76,45.01c5.14-2.1.69-4,.14-6.36-.31-1.34,1.81-3.28,3.96-2.42,3.83,1.53,7.59,3.26,11.32,5.04,1.13.54,1.92,1.78,1.16,3.03-2.27,3.68-6.76,2.47-9.97,4.4-1.72,1.04-4.18-.63-5.81-2.27-.27-.27-.4-.69-.79-1.41Z" style="fill: url(#_30_10_ppp);"/>
      <path d="M539.03,100.93c5.01.01,8.94.99,11.19,5.38.51,1,1.89,1.87,1,3.15-.91,1.32-2.42,1.19-3.82.94-2.21-.39-3.98-2.5-6.72-1.06-1.36.72-3.76,2.93-5.1.14-.99-2.04-3.76-3.81-2.38-6.47,1.31-2.53,4.1-2,5.84-2.08Z" style="fill: url(#_30_10_ppp);"/>
      <path d="M433.96,145.4c2.66-1.41,5.27-1.77,6.13-4.78,1.45-5.11,4.83-2.63,6.88-.79,1.85,1.65,2.93,4.33,3.97,6.73,1.27,2.91-.11,4.48-3.03,3.84-4.56-1-9.24-1.84-13.96-5Z" style="fill: url(#_30_10_ppp);"/>
      <path d="M397.29,48.2c-2.55-.27-5.6,1.14-6.16-1.83-.55-2.93,2.76-2.93,4.63-3.71,1.84-.76,3.83-1.34,5.8-1.51,1.69-.15,4.49-2.19,4.9.8.26,1.89-.93,4.86-3.72,5.5-1.94.45-3.95.55-5.45.74Z" style="fill: url(#_30_10_ppp);"/>
      <path d="M538.12,166.19c-.76-3.71.71-6.29,3.95-7.87,2.06-1,4.24-1.59,5.75.87,1.41,2.3.52,4.39-1.37,5.83-2.5,1.9-5.13,4.17-8.35,1.14l.02.03Z" style="fill: url(#_30_10_ppp);"/>
      <path d="M468.89,76.8c4.44-.17,6.1,2.31,6.67,5.93.25,1.59.04,3.16-2.05,2.57-3.47-.98-8.34-.39-9.69-4.21-.92-2.59,2.76-3.92,5.06-4.28Z" style="fill: url(#_30_10_ppp);"/>
      <path d="M413.36,92.16c1.36.2,2.72.61,4.07.54,1.91-.09,3.31.79,3.53,2.47.24,1.84-1.61,2.66-2.97,3.37-2.1,1.1-7.91-2.21-7.93-4.51-.02-2.33,1.59-2.42,3.3-1.87Z" style="fill: url(#_30_10_ppp);"/>
      <path d="M392.73,38.96c4.7-4.14,9.86-6.16,17.35-3.16-6.14,3.58-11.88,2.65-17.35,3.16Z" style="fill: url(#_30_10_ppp);"/>
      <path d="M499.66,216.77c-1.9-.13-2.87-.97-2.57-2.35.86-3.91,4.22-4.4,7.32-5.04.98-.2,2.3.21,1.86,1.53-1.12,3.39-4.85,3.7-6.61,5.86Z" style="fill: url(#_30_10_ppp);"/>
      <path d="M514.73,218.56c-.08-2.39-.14-4.4,2.45-4.47,1.86-.06,3.11.99,2.99,3-.14,2.25-1.34,4.1-3.5,4.45-2.84.45-1.33-2.26-1.94-2.98Z" style="fill: url(#_30_10_ppp);"/>
      <path d="M427.42,46.66c1.64,1.36,3.9,2.59,4.42,5.21.17.84-1.05,1.78-2.07,1.62-2.82-.43-3.46-2.9-4.26-5.15-.53-1.49.48-1.6,1.91-1.69Z" style="fill: url(#_30_10_ppp);"/>
      <path d="M517.53,8.63c.39,1.74.78,3.47,1.17,5.21-2.79-.75-5.35-2.52-8.81-.78,1.35-5.57,5.98-1.58,7.64-4.43Z" style="fill: url(#_30_10_ppp);"/>
      <path d="M425.42,78.76c-1.57.38-2.02-.47-2-1.6.02-2.12,1.23-3.38,3.16-3.88,1.18-.3,2.19.4,1.96,1.51-.37,1.82-1.52,3.28-3.12,3.96Z" style="fill: url(#_30_10_ppp);"/>
      <path d="M1669.18,852.79l-.51-.08-.42.31c-4.13,1.5-6.87-3.24-10.83-2.49-4.71.04-8.45-1.85-10.62-6.17-.46-.9-2.13-2.27-1.01-3.12,4.2-3.18.15-5.42-.61-8.03-.74-.87-.26-2.89-1.67-2.87-3.55.05-3.43-1.78-3.29-4.61.09-1.78-1.23-.07-1.92.13-.33.19-.43.47-.3.83-1.97,1.45-3.79,1.87-5.13-.81,2.44-3.3,5.81-6.13,5.33-10.92.29-.82.65-1.6,1-2.39-.85.25-1.69.52-2.51.86-2.77,2-4.03,5.55-7.34,7.11-1.1.52-3.53,2.01-1.05,4.11-.1,3.27-2.13,1.33-3.44,1.32-1.15-.39-2.88-.16-2.26-2.36,1.46-5.18.97-6.21-4.36-8.54-3.76-1.65,1.81-4.72-1.03-6.45-1.25-1.25-3.67-.16-4.45-2.33-3.79.32-6.33-2.74-9.64-3.72-2.82,1.25-5.95-.3-8.77.99-3.17,1.2-6.6,1.75-9.33,4.01-3.25,1.12-6.72-.38-9.95.92-4.3.91-8.46,2.15-12.01,4.95.03,1.71-.72,2.95-2.18,3.76-1.79,2.09-3.91,2.32-6.65,2.31-9.08-.04-18.32-.05-25.89,6.45-2.4.74-4.8.72-7.2.02-3.92-.56-7.49-2.14-11.01-3.86-1.76-3.7,1.19-4.03,3.37-4.91.53-.48,1.06-.96,1.59-1.43.29-3.95,2-7.76,1.2-11.83-2.37-2.23-4.7-3.96-2.07-8.12,1.01-1.59-1.04-5.4-2.03-8.07-2.15-5.84-4.52-11.6-6.79-17.4,1.37-2.09,4.35-3.59,2.44-6.89-.38-.89-1.33-2.07-1.06-2.64,2.36-4.87-.34-10.91,3.48-15.39,1.1-.48,2.38-.19,3.43-.87,9.35-5.38,18.05-12.38,29.64-12.12,4.02.09,7.57-1.35,9.6-5.09,1.47-2.72,6.17-4.1,2.86-9.08-1.37-2.06,2.49-4.61,3.9-6.97,3.95-1.76,4.13,2.3,5.66,4.1-.47-2.69-3.92-6.66,2.81-5.39,1.37.5,2.71.58,4.13-.44-6.11-5.1,1.27-6.05,2.65-8.88.55-1.13,2.06-.05,3.1-1.11,6.25-6.35,6.18-6.17,11.84-.04,2.06,2.24-.58,3.75-.05,5.58,3.03-2.09,3.88-2.36,9.66-2.89-2.32-3.61-5.34-7.49,1.25-9.57-2.67-5.35,1.9-6.51,4.8-8.63,3.24,1.02,6.15-.2,9.17-1.29-.66-2.37-3.42-.29-4.17-2.21,1.25-1.74,3.14-.47,4.63-1.03,6.71,1.08,12.8,6.85,20.23,2.71,1.41-.78,3.33.15,3.53,1.36.37,2.22-.75,4.53-2.34,6.01-5.82,5.41-5.14,9.23.08,14.64,5.18,5.36,12.77,5.51,17.96,10.78,2.18,2.22,5.91-.97,7.63-4,2.19-3.85,2.94-8.23,2.33-12.48-1.05-7.24,2.17-14.04,1.55-21.2-.14-1.6,1.53-2.37,2.97-2.53,1.67-.18,3.27.31,3.93,2.11,1.6,4.39,3.45,8.73,4.51,13.27.61,2.62,1.54,2.73,3.83,2.95,3.72.36,7.14,1.77,6.11,6.98-.47,2.38.83,4.37,2.15,6.2,2.1,2.9,3.26,5.91,2.7,9.7-.67,4.46,2.44,7.03,5.91,8.15,7.55,2.42,11.86,7.16,12.49,15.27.02.2.06.58.08.58,9.97-.57,5.74,13.46,14.23,14.39,1.74,1.35,2.55,3.33,3.39,5.28,3.41,10.88,4.8,21.77.07,32.68-1.39,2.37.33,5.22-1.13,7.58-2.06,3.9-3.9,7.85-8.33,9.87-1.29.59-1.74,3.11-2.57,4.75-2.34,2.35-3.98,5.25-3.92,8.53.09,5.23-5.91,7.27-5.75,12.37-1.29,2.77-1.48,5.87-2.53,8.72-6.74,2.36-13.69,3.86-19.06,9.58-2.27,2.42-6.3,1.05-7.89-2.63-1.32-3.04-2.58-2.28-4.19-.47-.73,1.85-2.67,1.32-3.94,2.08Z" style="fill: url(#_30_10_ppp);"/>
      <path d="M1701.94,657.46c1.02,2.09,2.47,3.22,4.85,2.26,2.34,1.83,4.53,3.84,6.99,5.52,1.39,1.1,3.3,1.83,2.97,4.2-4.84,4.71-9.8,1.05-14.71.21-4.93-2.23-9.38-4.61-11.02-10.75-1.22-4.55-10.56-6.48-14.55-3.48-1.76,1.33-3.23,3.07-6.67,3.26,4.88,2.07,4.55,3.92,1.22,5.98-5.03,3.11-9.49,1.08-13.74-1.64-1.11-.71-1.76-2.18-3.36-2.15-3.19-.82-7.55-.42-6.02-6.09-1.54-7.88-5.92-12.22-14.05-13.07-3.43-.36-6.64-2.65-10.03-3.82-4.26-1.47-6.61-3.75-3.8-8.67-3.34.58-3.31,2.24-2.76,4.61.47,2.03.1,4.47-2.5,4.68-2.07.16-2.59-1.31-2.64-3.64-.07-3.53-4.16-3.26-6.21-5.29,1.5-.69,2.93-1.35,4.37-2.01.8-.85,1.85-1.14,2.92-1.36,1.56.08,2.73-1.79,4.45-.96.38.16.76.17,1.14.03,1.52.93,2.76,2.15,3.62,3.74,5.76,3.32,7.43-3.29,11.11-4.98,2.3-1.05,4.23-2.76,6.95-2.45,1.46,1.15,4.19-.16,4.81,2.59,9.28,3.13,17.97,8.07,27.8,9.49,4.96-1.3,9.15-.31,11.75,4.54,1.69,3.15,4.64,3.52,7.54,4.17.41.06.81.11,1.22.17,2.72-.76,5.08.91,4.16,3.07-2,4.72.77,6.97,3.26,9.69.55.6.59,1.46.93,2.18Z" style="fill: url(#_30_10_ppp);"/>
      <path d="M1540.37,615.31c-.89,1.76-2.53,3.65-.39,5.41,1.63,1.34,3.31,2.68,5.95,1.49,3.04-1.36,6.41-1.97,9.79-2.95.53,1.88-1.04,1.75-1.75,2.44-2.69,2.61-6.29,4.99-1.58,9.22,2.24,2.01,1.25,6.23,4.58,8.07.68.37,1.33,3.87-.1,4.21-2.21.52-2.56,4.34-5.09,2.97-1.36-.74-2.76-2.24-2.61-4.42.28-4.15-4.6-6.33-4.04-10.76.1-.75-1.57-1.09-2.59-.81-1.4.38-1.27,1.66-.77,2.44,2.82,4.39.06,9.18,1.07,13.69.55,2.47-1.35,2.43-2.95,2.68-2.72.42-2.48-1.34-2.11-3.01.78-3.52,2.51-7.29-3.21-8.21-1.6-.26-1.2-2.43-1.1-2.98,1.19-6.69,2.66-13.33,4.16-19.96.07-.32,1.06-.43,1.62-.63,1.06-.34,1.36.11,1.11,1.12Z" style="fill: url(#_30_10_ppp);"/>
      <path d="M1504.48,668.21c-4.38-2.32-9.06-.03-13.53-.91-2.06-2.61-4.88-3.02-7.91-2.84-2.89-1.21-6.08.28-8.96-1-3.63-.81-7.25-1.61-10.88-2.42-5.1-.76-1.86-3.05-.86-4.93,5.22-2.36,10.28-.27,15.02,1.28,4.56,1.49,8.77.81,13.24.67,4.3-.13,9.92-1.95,11.83,4.82.48,1.69,1.36,1.79,3.14,1.03,2.01-.86,4.79-1.67,5.77,1.88,1.73,3.97.16,4.9-3.47,3.93-1.13-.51-2.26-1.02-3.39-1.53Z" style="fill: url(#_30_10_ppp);"/>
      <path d="M1560.36,582.47c-3.95-.47-6.8-2.04-6.93-6.71-.06-2.09-.92-4.05-3.16-2.12-2.78,2.41-8.3,2.22-8.42,1.56-.84-4.66,5.84-5.87,6.47-5.84,5.34.31,7.97-2.36,10.78-6.39,1-1.43,4.03,1.06,4.95,2.87,1.34,2.64,2.06,5.64,2.79,8.55.32,1.3.5,3.46-1.13,3.66-2.66.32-3.2.95-2.69,3.78.38,2.08-1.79-.07-2.66.63Z" style="fill: url(#_30_10_ppp);"/>
      <path d="M1531.99,537.92c-.95,1.66-2.36,1.64-3.5.54-2.15-2.1-4.15-4.38-6.09-6.69-1.42-1.69-1.71-14.87-.49-16.86,1.56-2.55,7.13-2.34,8.85.36,1.95,3.04,2.71,7.98,1.56,9.69-2.93,4.32.03,7.88-.36,11.67.7.42.7.84.03,1.29Z" style="fill: url(#_30_10_ppp);"/>
      <path d="M1615.72,620.48c-1.31.78-1.87,2.86-3.93,2.34-2.16-2.52-5.64-.74-8.02-2.56-1.06-2.68-6.21-2.46-4.73-6.95l-.08.08c5.18-.06,10.31-2.54,15.53-.29,1.88,1.22,2.17,2.91,1.36,4.91-.05.82-.09,1.64-.14,2.47Z" style="fill: url(#_30_10_ppp);"/>
      <path d="M1516.19,491.56c-6.91-3.68-8.75-7.01-7.07-12.85.66-2.3,2.35-4.85,4.74-4.68,2.28.17,3.23,2.89,3.15,5.27-.13,3.89-.51,7.77-.82,12.26Z" style="fill: url(#_30_10_ppp);"/>
      <path d="M1544.51,617.5c-.37-.37-.74-.75-1.11-1.12.83-1.53,1.67-3.06,2.5-4.59,1.08.04,2.17.08,3.25.12,5.42,2.9,10.86,3.51,16.35.14,1.08-.66,2.28-2.4,3.53-.7,1.07,1.47-.83,2.47-1.45,3.54-1.43,2.43-4.32,2.64-6.43,2.22-5.64-1.12-11.1.65-16.64.39Z" style="fill: url(#_30_10_ppp);"/>
      <path d="M1468.23,509.57c-4.44.59-.27,6.63-4.92,7.05-3.9.35-6.73-1.72-7.31-5.5-.76-4.88,4.16-4.09,6.6-5.27,1.94-.94,3.83,1.41,5.62,3.71Z" style="fill: url(#_30_10_ppp);"/>
      <path d="M1580.69,663.99c-4.37,5.21-11.04,5.72-14.94,10.29-.18.21-1.66-.26-1.99-.78-.79-1.24-.03-2.44.95-3.14,4.5-3.2,8.66-7.25,15.97-6.36Z" style="fill: url(#_30_10_ppp);"/>
      <path d="M1601.09,632.96c-6.51-1.17-12.31-2.63-19.1-.55,5.22-6.54,13.15-6.13,19.1.55Z" style="fill: url(#_30_10_ppp);"/>
      <path d="M1546.36,563.69c-.99,2.95-3.68,1.57-3.4.36.94-4.08-.48-5.96-3.75-7.89-1.11-.66-.92-3.63-1.31-5.5,5.6-1.53,4.87,4.09,7.32,5.95,1.48,2.18-.28,4.9,1.14,7.09Z" style="fill: url(#_30_10_ppp);"/>
      <path d="M1643.26,662.52c-1.87.42-4.54,2.52-4.86-1.3-.3-3.53,2.32-4.08,5.2-3.52,1.07,1.69,1.38,3.33-.34,4.82Z" style="fill: url(#_30_10_ppp);"/>
      <path d="M1551.2,666.88c-3.11.43-6.22.87-9.61,1.34,1.83-5.57,5.4-2.75,8.36-2.44,1.28-.65,1.41.05,1.26,1.1Z" style="fill: url(#_30_10_ppp);"/>
      <path d="M1542.77,672.24c1.75.3,3.32.81,3.66,3.51-2.95-.85-5.51-1.6-8.07-2.34,1.17-1.57,3.09-.17,4.41-1.17Z" style="fill: url(#_30_10_ppp);"/>
      <path d="M1605.54,681.54c-1.42-.08-3.26-.73-2.96-2.01-1.13-3.11,1.63-2.89,4.16-1.97.08,1.48.44,3.05-1.2,3.99Z" style="fill: url(#_30_10_ppp);"/>
      <path d="M1528.4,541.38c3.2-.05,3.92,2.48,6.04,4.84-4.55.45-4.36-3.33-6.04-4.84Z" style="fill: url(#_30_10_ppp);"/>
      <path d="M1553.74,553.79c-.24,2.06,2.34,2,2.64,3.65-.82.78-1.65.83-2.49.03-1.32-.79-2.63-1.58-3.95-2.37.65-2.28,2.6-.67,3.8-1.31Z" style="fill: url(#_30_10_ppp);"/>
      <path d="M1615.17,675.89c-1.28,1.57-3.04.9-4.63,1.03-1.13-.45-.9-1.44-.27-1.81,1.75-1.05,3.44-.59,4.91.78Z" style="fill: url(#_30_10_ppp);"/>
      <path d="M1537.79,669.79c-1.19,1.5-3.04.41-4.41,1.17.83-2.89,2.81-1.31,4.41-1.17Z" style="fill: url(#_30_10_ppp);"/>
      <path d="M1516.79,665.83c.58.88,2.03,2.05.31,2.71-1.83.7-2.81-.55-2.49-2.59.73-.04,1.46-.08,2.19-.12Z" style="fill: url(#_30_10_ppp);"/>
      <path d="M1593.67,338.46c-.46,1.17.14,4.04-2.48,1.88-1.02-.84-1.97-2.34-2.1-3.63-.9-9.34-3.88-17.97-8.18-26.18-.09-.18-.29-.43-.23-.54,5.59-10.56-6.35-16.68-6.24-25.8.04-3.1,2.08-6.02.7-9.37-.24-.58,1.42-1.94,2.74-1.87,1.41.07,1.37,1.22,1.17,2.25-.47,2.46,1.22,3.71,2.67,5.12.97.95,2.48,1.67,1.89,3.44-2.78,8.24,4.6,12.99,6.71,19.55,1.45,4.5,1.85,10.01,8.33,13.31-4.27,0-5.57-3.82-7.62-2.23-2.17,1.68-1.79,4.82-1.28,7.44,1.02,5.22,2.36,10.33,6.37,14.17.75,2.45-1.84,1.42-2.45,2.46Z" style="fill: url(#_30_10_ppp);"/>
      <path d="M1595.85,341.61c.82-.82,1.63-1.64,2.45-2.46,1.43.43,2.47,1.2,2.34,3.06-1.7.61-3.06-1.88-4.79-.59Z" style="fill: url(#_30_10_ppp);"/>
      <path d="M253.07,328.85c2,2.65,3.48,5.99,7.51,5.98q-.05,7.45-6.13,5.27c-5.47-1.35-7.27-6.97-11.24-10.06-1.31-.87-3.32.04-4.27-1.74-.51-.68-1.02-1.36-1.54-2.04.54-2.78,2.24-1.78,3.81-1.22h0c3.95,1.27,7.9,2.54,11.85,3.82Z" style="fill: url(#_30_10_ppp);"/>
      <path d="M115.78,268.75c-1.92,6.61-5.91,8.83-12.01,6.75-1.24-.42-2.2-1.1-2.02-2.44.12-.95,1.09-2.23,1.95-1.82,3.44,1.66,3.94-2.47,6.19-3.02,2.01-.39,4.08-1.36,5.89.52Z" style="fill: url(#_30_10_ppp);"/>
      <path d="M226.84,302.73c-5.61-.74-2.29-6.26-4.42-9.08,2.31,1.37,7.37-.53,5.5,5.42-.42,1.2-.11,2.63-1.08,3.66Z" style="fill: url(#_30_10_ppp);"/>
      <path d="M210.14,254.04c1.09.11,3.1-.47,3.05.62-.1,2.16-.69,4.57-3.21,5.52-3.38-2.14-2.39-4.16.16-6.14Z" style="fill: url(#_30_10_ppp);"/>
      <path d="M213.32,262.21c3.41-2.75,3.24.83,4.17,2.46-.65,2.54-1.98,3.56-3.7,1.08-.34-.49.49-2.4-.47-3.54Z" style="fill: url(#_30_10_ppp);"/>
      <path d="M112.29,264.38c2.15-2.14,3.03-5.22,7.04-4.3-1.83,2.36-3.05,4.93-7.04,4.3Z" style="fill: url(#_30_10_ppp);"/>
      <path d="M1635.25,829.7c1.42,1.49,4.23-.35,5.19,2.25l-3.53,2.59c-2.01.02-4.03.04-6.04.06-.53-.91-2.78-1.06-1.21-2.88,1.28-2.07,3.62-1.26,5.37-2.07l.22.06Z" style="fill: url(#_30_10_ppp);"/>
      <path d="M1816.4,911.3c-1.25,1.05-1.33,3.49-3.79,3.14-2.53-.36-2.11,1.68-2.28,3.19v.02c-6.56.73-12.49-1.95-18.42-4.08-2.14-.77-4.11-2.54-.3-5.38,7.05-5.25,13.57-11.17,20.66-16.47,8.22-6.14,15.8-14.14,19.52-25.55,2.9,4.27,6.5,6.15,10.83,6.61,2.1.81,1.02,2.21.62,3.49-4.21,3.79-8.74,8.25-10.98,12.71-2.7,5.39-4.13,10.17-10.6,11.56-.38.08-3.92,2.45-3.62,5.3,1.71,2.53-2.87,3.08-1.64,5.46Z" style="fill: url(#_30_10_ppp);"/>
      <path d="M1849.92,831.47l-2.41,2.47c-.86-.55-.39-1.82-1.22-2.39-1.99-5.45-7.82-8.64-8.46-14.89,1.65-1.07,3.24-1.04,4.78.24.71.94,1.22,2.36,2.15,2.73,4.12,1.63,6.11,3.97,4.06,8.64-.33.75.7,2.12,1.1,3.2Z" style="fill: url(#_30_10_ppp);"/>
      <path d="M933.04,269.53c2.57.62,2.88,2.63,3.21,4.2.3,1.43-.81,2.86-2.38,2.66-1.97-.24-2.91-2.12-3.4-3.8-.73-2.52,2.51-1.32,2.57-3.07Z" style="fill: url(#_30_10_ppp);"/>
      <path d="M920.04,258.43c.59-1.03,1.07-2.15,1.8-3.07,1.05-1.32,1.82-3.74,3.83-2.95.93.37,1.58,2.76,1.52,4.2-.12,2.77-2.55,1.63-4.1,1.93-.38.07-.78.11-1.16.16-.71.46-1.34.36-1.89-.27Z" style="fill: url(#_30_10_ppp);"/>
      <path d="M965.2,251.82c1.4,3.37,1.08,5.71-.93,7.71-.24.24-1.33.12-1.45-.13-1.39-2.81.12-4.86,2.39-7.58Z" style="fill: url(#_30_10_ppp);"/>
      <path d="M983.24,247.41c-.22,1.7-1.5,2.14-2.84,2.59-1.68.55-1.87-.41-2.12-1.76-.38-2.1.84-2.36,2.33-2.46,1.25-.09,2.38.05,2.64,1.64Z" style="fill: url(#_30_10_ppp);"/>
      <path d="M932.05,280.43c-1-.2-1.82-.43-1.64-1.42.06-.35.74-.74,1.19-.83.66-.12,1.7-.25,1.71.71,0,.54-.86,1.08-1.26,1.54Z" style="fill: url(#_30_10_ppp);"/>
      <path d="M927.92,273.09c.82.25,1.19.85,1.21,1.69.02,1.13-.85,1.34-1.47.96-.49-.3-.78-1.2-.85-1.86-.05-.48.35-1.09,1.11-.8Z" style="fill: url(#_30_10_ppp);"/>
      <path d="M31.83,250.61c-3.08-.52-6.06-1.02-5.9-3.5.19-3.05,3.94-3.45,6.15-4.59,1.61-.83,3.17,1.67,2.92,3.54-.29,2.16-1.51,4.08-3.18,4.55Z" style="fill: url(#_30_10_ppp);"/>
      <path d="M521.08,980.75c1.1.14,2.3.09,2.7,1.52,2.8,4.65,7.47,6.5,12.13,8.29,1.63.63,3.63.41,4.51,2.44-5.49.56-10.39,3.93-16.09,3.55-1.6-.53-3.31-.98-3.12-3.28-.79-3.8-6.05-5.35-4.88-10.13,1.58-.8,3.16-1.59,4.75-2.39Z" style="fill: url(#_30_10_ppp);"/>
      <path d="M521.38,997.03c-4.02.13-8.03.27-12.05.4-.67-.12-1.34-.24-2-.36.26-.79.52-1.59.78-2.38,3.64,0,7.3-1.27,10.91.21.79.71,1.57,1.42,2.36,2.13Z" style="fill: url(#_30_10_ppp);"/>
      <path d="M493.43,917.73c1.56.21,3.68.41,2.29,2.66-1.28,2.08-.36,4.29-1.16,6.28l.05-.04c-4.21,1.3-2.81-1.55-2.53-3.56,1.04-1.62-.85-4.01,1.35-5.33Z" style="fill: url(#_30_10_ppp);"/>
      <path d="M518.76,997.94c2.03.74,4.15-2.18,6.14.17-1.53.79-2.99,1.91-4.61,2.25-.95.2-3.91.28-1.54-2.41Z" style="fill: url(#_30_10_ppp);"/>
      <path d="M1101.44,120.45c-.14-1.6-2.88-3.91.93-4.46,4.33-.62,4.9-3.99,5.46-7.31.45-2.66,1.61-4.17,4.37-4.09,3.28-.19,6.97-2.92,9.5,1.58-6.89,4.43-5.16,16.66,1.54,20.61.99,1.06,4.52,1.42.98,3.72-1.19.25-2.47-.83-3.6.25-2.4.56-4.79.64-7.17-.05-4.01-.02-2.09-3.2-2.6-5.09-2.39-1.88-4.72-.15-7.07.13-.45-.45-.89-.91-1.34-1.36-.96-1.14-.04-2.78-.99-3.93Z" style="fill: url(#_30_10_ppp);"/>
      <path d="M1083.47,149.83c.31-6.01,4.17-6.13,8.35-5.62,1.29.16,2.66,1.21,1.92,2.39-2.45,3.95-6.31,3.87-10.27,3.23Z" style="fill: url(#_30_10_ppp);"/>
      <path d="M1132.7,130.53c.18-.1.35-.28.53-.28,4.15-.06,7.09,2.14,9.41,5.38.16.22-.26,1.27-.56,1.36-3.61,1.03-6.19-1.56-9.16-2.82-1.17-1.15-1.03-2.37-.21-3.64Z" style="fill: url(#_30_10_ppp);"/>
      <path d="M947.6,153.23c-1.2.84-2.4,1.68-3.6,2.52h0c-1.49.95-2.45.61-2.84-1.18.58-.73,1.17-1.45,1.75-2.18,1.72-1.5,3.34-3.45,5.8-1.19-.37.68-.74,1.36-1.11,2.04Z" style="fill: url(#_30_10_ppp);"/>
      <path d="M981.51,130.95c-1.99,1.12-3.96,3.21-6.05.15,1.98-1.63,3.99-2.04,6.05-.15Z" style="fill: url(#_30_10_ppp);"/>
      <path d="M1670.89,867.71c5.12,1.99,10.2,4.08,15.56.61,2.14-1.39,3.78-.52,3.42,1.93-.79,5.23.77,11.41-5.48,14.72-1.47.78-.3,3.66-2.66,4.85-4.17,2.1-8,.2-11.18-6.18-.89-1.91-.54-3.55,1.06-4.9,1.79-2.04-1.76-3.06-.91-4.92-.79-2.06-1.18-4.12.2-6.11Z" style="fill: url(#_30_10_ppp);"/>
      <path d="M587.27,331.04c-5.11.31-9.51-1.15-13.06-5.6,4.58-2.16,8.24.25,11.99,2.03,1.25.91,3.07,1.65,1.08,3.57Z" style="fill: url(#_30_10_ppp);"/>
      <path d="M1151.82,24.64c-.75.48-1.49.96-2.24,1.44-1.9.79-3.88.48-5.81.35-1.85-.13-2.23-1.3-1.52-2.94,1.22-1,3.22-1.79,3.52-3.02,1.11-4.51,3.45-3.31,6.06-1.85,1.21,2.01,1.21,4.02,0,6.03Z" style="fill: url(#_30_10_ppp);"/>
      <path d="M1140.11,27.21c-2.86-.07-3.32,5.63-7.17,3.14-1.37-.88-4,.59-4.25-2.14-.19-2.05,1.25-3.26,3.04-3.98.73-.29,1.46-.62,2.19-.93,2.03-.4,4.1-1.29,5.92.56-.08.39.06.66.44.79.53.89.38,1.74-.17,2.56Z" style="fill: url(#_30_10_ppp);"/>
      <path d="M1113.39,22.15c-2.22-2.23-1.53-3.41,1.33-3.66,2.08-.18,4.3.56,6.16-1.01.99-.34,1.43-.07,1.13,1.04-2.07,3.19-5.67,2.61-8.62,3.63Z" style="fill: url(#_30_10_ppp);"/>
      <path d="M1107.26,32.41c-1.84,2.86-4.65,2.52-7.22,1.89-1.76-.43-.94-1.61.12-2.37,2.42-.59,4.85-1.43,7.1.48Z" style="fill: url(#_30_10_ppp);"/>
      <path d="M1133.84,22c-.89.07-2.07.51-2.49-.53-.58-1.41.21-2.53,1.43-3.3,2.07-.17,3.71,0,2.2,2.78l.04-.06c-.16.63-.54,1.01-1.18,1.1Z" style="fill: url(#_30_10_ppp);"/>
      <path d="M1141.19,15.13c-.5-.51-1-1.02-1.5-1.54.61-2.68,2.29-1.81,3.89-1.23l.02.02c1.03,2.59-.1,3.2-2.41,2.74Z" style="fill: url(#_30_10_ppp);"/>
      <path d="M1186.79,97.3c-1.54-.2-3.09-.41-4.63-.61-.72-2.84.64-5.05,2.97-5.75,2.76-.83,2.9,2.93,4.55,4.29,1.67,1.38-2.23.74-2.89,2.07Z" style="fill: url(#_30_10_ppp);"/>
      <path d="M847.18,275.88c.79,1.01,1.88,1.23,3.06,1.19,1.02.69.87,1.5.25,2.37,1.07,3.5-.68,6.88-.36,10.41.52,5.73.95,10.22-6.85,13.16-5.36,2.02-10.41,2.41-15.65,3.3.13-2.96-.44-6.13,2.37-8.3,2.01-.54.45-3.03,2.01-3.81.42-.08.6-.33.54-.76.92-1.64-.29-2.18-1.37-2.8l-.35-.31-.46.05c-2.48-1.64,1.01-3.54-.22-5.24l-.03-.22c1.73-2.19,3.85-.98,5.86-.7,2.58-1.72-.83-7.63,4.84-7.19,1.95-1.37,4.32-.34,6.37-1.15Z" style="fill: url(#_30_10_ppp);"/>
      <path d="M968.97,68.42c3.55-8.51,6.73-9.18,13.38-2.81q-7.38,3.84-13.38,2.81Z" style="fill: url(#_30_10_ppp);"/>
      <path d="M1497,53.18c3.12-2.41,3.61-7.26,7.78-8.69,2.37.73,4.75.83,7.12.04,2.39,1.38,4.71,3,7.69,2.45,1.14.56,2.23,1.04,1.48-1.09-1.09-.84-1.81-2,.02-2.43,2.27-.54,4.96-.96,6.86.6,4.61,3.77,10.4-.1,15.04,2.78.41,2.85,3.88.74,4.43,3.49-3.34,7.4-9.03,8.26-14.15,1.68-.63-.81-.09-2.88-1.98-2.26-.81.26-1.66,1.25-1.95,2.09-.46,1.34-.4,2.78.93,3.85,1.48,1.19,3.95.61,5.86,4.1-7.13-1.92-13.14,2.21-19.26-1.1-1.27,1.48,3.18,3.58-.47,4.64-1.83.53-3.07,1.76-5.72.04-4.61-2.98-8.42-7.28-13.7-9.17-.43-.24-.58-.47-.43-.7.15-.23.29-.34.44-.34Z" style="fill: url(#_30_10_ppp);"/>
      <path d="M1556.09,50.51c1.85,5.54,3.89.27,5.84.1,1.41,1.31,3.69-.57,4.93,1.39,3.39,3.01,8.08-1.03,11.55,2.26.92.88,2.6.95,3.2,2.44-7.4,2.73-14.78,5.48-22.64,1.44-2.35-1.21-4.78-2.14-5.41-5.14-.75-2.52,0-3.45,2.53-2.48Z" style="fill: url(#_30_10_ppp);"/>
      <path d="M1541.78,77.55c-6.44,4.89-12.8.35-19.66.28,8.62-8.3,14-8.29,19.57-.41l.1.13Z" style="fill: url(#_30_10_ppp);"/>
      <path d="M1525.95,69.56c-.7,1.46-1.75,2.93-3.77,2.66-1.08-.14-2.43-.81-1.9-2.37.67-1.95,2.41-2.45,4.22-2.51,1.25-.04,1.6.85,1.44,2.22Z" style="fill: url(#_30_10_ppp);"/>
      <path d="M1497,53.18c0,.35,0,.69-.01,1.04-.4.08-.81.17-1.21.25-.81-.63-1.91,1.83-2.58-.26-.49-1.28-.91-2.74.37-3.61.88-.6,1.67.36,2.2,1.19.41.46.82.93,1.23,1.39Z" style="fill: url(#_30_10_ppp);"/>
      <path d="M1764.25,111.94c-1.28,0-2.55,0-3.83,0-2.87-1.26-6.04.25-8.92-1.01-1.89-.3-3.77-.6-5.97-.95,1.52-3.52,3.27-6.3,7.19-6.75,2.01-.38,4.05-1.03,5.95.4.39,1.26,1.41,1.11,2.36,1.09,1.88,1.34,4.19-.05,6.11,1.01.78.48,1.57.96,2.35,1.43,2.43,6.38-3.46,3.23-5.25,4.77Z" style="fill: url(#_30_10_ppp);"/>
      <path d="M645.41,141.35c2.69,3.08,8.19,4.07,7.11,9.95l.07-.05c-2.34,1.39-4.74.95-7.16.3q-6.09-1.85-.02-10.2Z" style="fill: url(#_30_10_ppp);"/>
      <path d="M1288.16,24.31l-.32-.08-.19.27c-1.19-.47-2.37.22-3.54.08-1.84-.21-3.79-.71-4.19-2.77-.39-1.99,1.4-2.76,2.93-3.21,2.19-.65,3.58-2.56,5.59-3.47,1.02-.5,2.08-.87,3.2-1.02,3.7-.59,7.84,1.76,11.12-1.72h.01c1.98-.97,3.99-.73,6.01-.17,3.83,4.55.1,9.01-.42,13.43-.15,1.3-2.81.55-4.34.49-2.36-.09-4.71-.26-7.07-.4l.02.02c-2.82-1.27-5.88-.96-8.82-1.45Z" style="fill: url(#_30_10_ppp);"/>
      <path d="M1325.7,19.6c.79.52,1.57,1.04,2.36,1.57.55,1.11,1.3,1.97,2.52,2.37,1.81.59,4.53.94,3.73,3.5-.65,2.09-2.45,4.01-5.41,3.64-4.63-.58-9.5-1.61-12.17,4.63q1.23-14.53-1.64-16.4c3.85-4.02,6.93,3.65,10.61.69Z" style="fill: url(#_30_10_ppp);"/>
      <path d="M795.87,118.37c.77,2.34-.31,2.94-2.31,2.43-3-.76-5.96-1.64-9.48-2.61,2.95-2.47,5.87-.91,8.49-1.37,1.01.71,1.9,1.7,3.29,1.55Z" style="fill: url(#_30_10_ppp);"/>
      <path d="M810.44,89.84c-.57.48-1.14.96-1.71,1.44-1.2-2.19-1.12-4.14,1.04-5.69,1.39,1.22.69,2.79.67,4.25Z" style="fill: url(#_30_10_ppp);"/>
      <path d="M1809.79,733.73c-5.71,1.73-8.27-3.06-12.15-4.3-.94-.3-1.25-2.14-2.68-2.13-2.05.02-4.16-.81-3.33-2.92.66-1.66,3.32-1.02,4.84-.2,4.61,2.47,9.59,4.47,13.31,9.55Z" style="fill: url(#_30_10_ppp);"/>
      <path d="M1687.48,236.47c-.29,1.69-1.41,2.8-2.82,3.5-1.18.59-1.73-.18-1.76-1.39-.04-1.6-.24-3.38,1.87-3.73,1.15-.19,2.35.08,2.71,1.63Z" style="fill: url(#_30_10_ppp);"/>
      <path d="M1467.96,91.81c-.35-.19-.73-.34-1.05-.58-1.68-1.26-5.64-1.08-4.26-4.35,1.31-3.09,4.06-.73,6.18-.02,1.03.14,2.05.27,3.07.41,1.3.42.65,1.44.67,2.26-.92,2.06-3.63.35-4.62,2.28Z" style="fill: url(#_30_10_ppp);"/>
      <path d="M1275.42,10.14c2.24-.74,4.52-.72,6.83-.43,1.58.2,2.65-.32,2.32-2.25,5.12-2.77,8.71,1.88,13.18,2.39-.52,2.21-2.46,1.58-3.4,2.54-.58,1.12-1.4,1.88-2.73,1.86-1.72.34-3.39.85-4.96,1.67-4.34,1.69-8.68,1.42-13.01-.05-2.86-1.89-.25-3.35.37-4.97.37-.43.84-.68,1.4-.76Z" style="fill: url(#_30_10_ppp);"/>
      <path d="M815.33,180.2c.07,1.08.15,2.17.22,3.25,2.23,2.99,4.42,5.99,4.94,9.88.13,1.28.05,2.55-.25,3.8-3.78,10.32-12.23,12.64-21.71,13.19-.78.54-1.56,1.07-2.33,1.6-5.98,1.45-10.39-2.1-15.04-4.88-.7-.94-1.19-1.99-1.59-3.08-.45-1.22-.81-2.48-1.78-3.42-1.39-1.45-4.29-.59-4.84-3.29.6-2.07,2.44-2.31,4.05-2.94.63-.25.8-.72-.04-.98-.36-.11-.77-.05-1.17.01-1.74.2-3.44.23-4.91-.94-1.31-.53-1.15-1.57-.89-2.65.34.14.64.07.9-.18,1.35-1.82.58-5.13,3.76-5.63,2.58-.4,3.33,1.71,4.44,4.06-.74-2.5-2.56-4.62-.13-6.21,2.12-1.39,3.65.48,5.05,1.94l-.11-.08c3.03.95,1.87,4.01,3.13,6.48,1.43-2.48,3.04-4.54,5.59-5.43v.02c4.2.51,7.34-1.55,10.89-3.65,3.32-1.96,7.69-3.85,11.84-.87Z" style="fill: url(#_30_10_ppp);"/>
      <path d="M920.39,393.67c.21-3.34-1.55-6.93,2.68-8.7,1.25-.52,2.52-1.02,3.03.37,1.42,3.91,2.28,8.14.38,11.97-.69,1.39-3.19,3.49-4.98,2.57-2.53-1.3-.47-4.36-1.11-6.21Z" style="fill: url(#_30_10_ppp);"/>
      <path d="M952.78,403.27v9.12c-5.15-.6-8.8-4.68-13.94-5.14,1.46-3.14,4.07-2.77,6.27-3.14,2.34-.4,4.73-.53,7.67-.83Z" style="fill: url(#_30_10_ppp);"/>
      <path d="M923.33,372.08c3.13,2.84,2.32,5.52,1.12,8.14-.39.85-1.36.93-1.96.17-2.44-3.1.05-5.37.84-8.31Z" style="fill: url(#_30_10_ppp);"/>
      <path d="M234.21,290.04c-.22,1.04-.82,1.37-1.71,1.1-1.17-.36-1.38-1.3-1.19-2.38.14-.78.37-1.66,1.43-1.04.86.5,1.57,1.22,1.47,2.32Z" style="fill: url(#_30_10_ppp);"/>
      <path d="M1706.96,640.17c3.24-1.38,8.48.51,8.67-5.97.03-1.08,2.9-.82,4.19.33,1.23,1.1,1.85,1.98.34,3.96-4.47,5.89-10.33,5.74-16.73,5.2.05-2.69,2.76-2.12,3.58-3.56l-.05.03Z" style="fill: url(#_30_10_ppp);"/>
      <path d="M1735.26,638.17c1.89,2.01,5.33,2.64,6.46,5.92.35,1.02-.12,1.94-1.41,2.07-1.08.11-7-5.43-6.86-6.5.11-.82.42-1.53,1.8-1.49Z" style="fill: url(#_30_10_ppp);"/>
      <path d="M1725.1,635.11c-.82.39-1.56.87-1.66.76-.46-.51-.9-1.15-1.05-1.82-.23-1.05.43-1.41,1.24-.86.56.38.88,1.11,1.47,1.92Z" style="fill: url(#_30_10_ppp);"/>
    </g>
  </g>
</svg>